<?xml version="1.0" encoding="UTF-8"?>
<svg xmlns="http://www.w3.org/2000/svg" xmlns:xlink="http://www.w3.org/1999/xlink" width="150px" height="150px" viewBox="0 0 150 150" version="1.1">
<g id="surface1">
<path style=" stroke:none;fill-rule:nonzero;fill:rgb(25.098039%,1.960784%,0%);fill-opacity:1;" d="M 117.390625 67.078125 L 124.289062 65.21875 L 124.289062 82.621094 L 117.390625 84.613281 Z M 135.03125 86.894531 L 135.03125 62.953125 L 106.875 62.953125 L 106.875 86.894531 Z M 135.03125 86.894531 "/>
<path style=" stroke:none;fill-rule:nonzero;fill:rgb(25.098039%,1.960784%,0%);fill-opacity:1;" d="M 19.800781 85.441406 C 19.46875 85.679688 18.960938 85.816406 18.570312 85.816406 C 17.804688 85.816406 17.339844 85.46875 17.339844 84.855469 C 17.339844 84.046875 18.449219 83.851562 19.800781 83.820312 Z M 18.898438 79.921875 C 18.015625 79.921875 16.769531 80.128906 15.855469 80.324219 L 16.304688 81.675781 C 17.113281 81.511719 17.894531 81.375 18.390625 81.375 C 19.394531 81.375 19.785156 81.660156 19.800781 82.621094 L 19.800781 82.648438 C 17.144531 82.738281 15.449219 83.339844 15.449219 84.960938 C 15.449219 86.128906 16.574219 87 17.894531 87 C 18.675781 87 19.425781 86.953125 20.113281 86.59375 C 20.144531 86.714844 20.175781 86.773438 20.21875 86.894531 L 21.796875 86.878906 C 21.796875 86.460938 21.808594 85.921875 21.808594 85.441406 L 21.808594 82.320312 C 21.824219 80.203125 20.296875 79.921875 18.898438 79.921875 Z M 18.898438 79.921875 "/>
<path style=" stroke:none;fill-rule:nonzero;fill:rgb(25.098039%,1.960784%,0%);fill-opacity:1;" d="M 59.671875 85.441406 C 59.339844 85.679688 58.828125 85.816406 58.425781 85.816406 C 57.675781 85.816406 57.195312 85.46875 57.195312 84.855469 C 57.195312 84.046875 58.304688 83.851562 59.671875 83.820312 Z M 58.769531 79.921875 C 57.886719 79.921875 56.640625 80.128906 55.726562 80.324219 L 56.160156 81.675781 C 56.96875 81.511719 57.75 81.375 58.246094 81.375 C 59.25 81.375 59.640625 81.660156 59.65625 82.621094 L 59.65625 82.648438 C 57 82.738281 55.304688 83.339844 55.304688 84.960938 C 55.304688 86.128906 56.414062 87 57.75 87 C 58.546875 87 59.28125 86.953125 59.96875 86.59375 C 60 86.714844 60.03125 86.773438 60.089844 86.894531 L 61.648438 86.878906 C 61.648438 86.460938 61.679688 85.921875 61.679688 85.441406 L 61.679688 82.320312 C 61.695312 80.203125 60.164062 79.921875 58.769531 79.921875 Z M 58.769531 79.921875 "/>
<path style=" stroke:none;fill-rule:nonzero;fill:rgb(25.098039%,1.960784%,0%);fill-opacity:1;" d="M 80.039062 85.441406 C 79.710938 85.679688 79.199219 85.816406 78.808594 85.816406 C 78.046875 85.816406 77.578125 85.46875 77.578125 84.855469 C 77.578125 84.046875 78.691406 83.851562 80.039062 83.820312 Z M 79.140625 79.921875 C 78.253906 79.921875 77.011719 80.128906 76.09375 80.324219 L 76.546875 81.675781 C 77.371094 81.511719 78.136719 81.375 78.628906 81.375 C 79.648438 81.375 80.023438 81.660156 80.039062 82.621094 L 80.039062 82.648438 C 77.386719 82.738281 75.703125 83.339844 75.703125 84.960938 C 75.703125 86.128906 76.828125 87 78.148438 87 C 78.945312 87 79.679688 86.953125 80.386719 86.59375 C 80.414062 86.714844 80.445312 86.773438 80.488281 86.894531 L 82.050781 86.878906 C 82.050781 86.460938 82.066406 85.921875 82.066406 85.441406 L 82.066406 82.320312 C 82.066406 80.203125 80.535156 79.921875 79.140625 79.921875 Z M 79.140625 79.921875 "/>
<path style=" stroke:none;fill-rule:nonzero;fill:rgb(25.098039%,1.960784%,0%);fill-opacity:1;" d="M 70.5 85.605469 C 70.140625 85.605469 69.78125 85.589844 69.390625 85.515625 L 69.390625 81.570312 C 69.765625 81.496094 70.15625 81.433594 70.574219 81.433594 C 71.414062 81.433594 72.375 81.496094 72.375 83.503906 C 72.390625 84.839844 71.503906 85.605469 70.5 85.605469 Z M 70.679688 79.921875 C 70.214844 79.921875 69.78125 79.980469 69.40625 80.039062 L 69.421875 77.21875 L 67.363281 77.21875 L 67.351562 86.65625 C 68.503906 86.941406 69.269531 87.046875 70.53125 87.046875 C 72.75 87.046875 74.488281 85.753906 74.488281 83.503906 C 74.488281 80.609375 72.898438 79.921875 70.679688 79.921875 Z M 70.679688 79.921875 "/>
<path style=" stroke:none;fill-rule:nonzero;fill:rgb(25.098039%,1.960784%,0%);fill-opacity:1;" d="M 97.410156 82.921875 L 100.246094 80.160156 L 97.980469 80.160156 L 95.070312 83.113281 L 95.070312 77.21875 L 93.03125 77.203125 L 93.03125 86.894531 L 95.070312 86.894531 L 95.070312 83.761719 L 95.714844 83.761719 L 97.90625 86.894531 L 100.289062 86.894531 Z M 97.410156 82.921875 "/>
<path style=" stroke:none;fill-rule:nonzero;fill:rgb(25.098039%,1.960784%,0%);fill-opacity:1;" d="M 28.679688 86.894531 L 30.734375 86.894531 L 30.734375 80.160156 L 28.679688 80.160156 Z M 28.679688 86.894531 "/>
<path style=" stroke:none;fill-rule:nonzero;fill:rgb(25.098039%,1.960784%,0%);fill-opacity:1;" d="M 29.699219 77.355469 C 29.101562 77.355469 28.605469 77.773438 28.605469 78.285156 C 28.605469 78.808594 29.101562 79.230469 29.699219 79.230469 C 30.300781 79.230469 30.796875 78.808594 30.796875 78.285156 C 30.796875 77.773438 30.300781 77.355469 29.699219 77.355469 Z M 29.699219 77.355469 "/>
<path style=" stroke:none;fill-rule:nonzero;fill:rgb(25.098039%,1.960784%,0%);fill-opacity:1;" d="M 36.496094 79.921875 C 35.144531 79.921875 33.585938 80.128906 32.699219 80.339844 L 32.699219 86.910156 L 34.753906 86.910156 L 34.753906 81.660156 C 35.25 81.585938 35.761719 81.554688 36.238281 81.554688 C 37.621094 81.554688 37.84375 82.289062 37.84375 83.488281 L 37.84375 86.910156 L 39.898438 86.910156 L 39.898438 82.816406 C 39.886719 80.96875 38.835938 79.921875 36.496094 79.921875 Z M 36.496094 79.921875 "/>
<path style=" stroke:none;fill-rule:nonzero;fill:rgb(25.098039%,1.960784%,0%);fill-opacity:1;" d="M 87.75 79.921875 C 86.398438 79.921875 84.839844 80.128906 83.953125 80.339844 L 83.953125 86.910156 L 86.011719 86.910156 L 86.011719 81.660156 C 86.488281 81.585938 87.015625 81.554688 87.496094 81.554688 C 88.875 81.554688 89.085938 82.289062 89.085938 83.488281 L 89.085938 86.910156 L 91.140625 86.910156 L 91.140625 82.816406 C 91.140625 80.96875 90.074219 79.921875 87.75 79.921875 Z M 87.75 79.921875 "/>
<path style=" stroke:none;fill-rule:nonzero;fill:rgb(25.098039%,1.960784%,0%);fill-opacity:1;" d="M 50.566406 79.921875 C 49.648438 79.921875 48.570312 80.085938 47.746094 80.445312 C 47.339844 80.175781 46.558594 79.921875 45.511719 79.921875 C 44.234375 79.921875 42.660156 80.128906 41.789062 80.339844 L 41.789062 86.910156 L 43.84375 86.910156 L 43.84375 81.660156 C 44.308594 81.585938 44.820312 81.554688 45.285156 81.554688 C 46.636719 81.554688 46.84375 82.289062 46.84375 83.488281 L 46.84375 86.910156 L 48.898438 86.910156 L 48.898438 82.816406 C 48.898438 82.558594 48.871094 82.378906 48.824219 82.171875 L 48.808594 82.09375 C 48.796875 82.019531 48.796875 81.960938 48.78125 81.886719 C 49.246094 81.660156 49.875 81.539062 50.339844 81.539062 C 51.675781 81.539062 51.886719 82.261719 51.886719 83.476562 L 51.886719 86.894531 L 53.941406 86.894531 L 53.941406 82.800781 C 53.925781 80.953125 52.859375 79.921875 50.566406 79.921875 Z M 50.566406 79.921875 "/>
<path style=" stroke:none;fill-rule:nonzero;fill:rgb(25.098039%,1.960784%,0%);fill-opacity:1;" d="M 26.746094 85.558594 C 26.234375 85.558594 25.828125 85.351562 25.828125 84.601562 L 25.828125 77.21875 L 23.773438 77.21875 L 23.773438 84.660156 C 23.773438 86.683594 25.066406 86.910156 26.023438 86.910156 C 26.386719 86.910156 26.761719 86.910156 27.328125 86.894531 L 27.285156 85.574219 C 27.195312 85.574219 26.878906 85.558594 26.746094 85.558594 Z M 26.746094 85.558594 "/>
<path style=" stroke:none;fill-rule:nonzero;fill:rgb(25.098039%,1.960784%,0%);fill-opacity:1;" d="M 31.84375 69.976562 C 31.84375 70.800781 31.621094 71.160156 31.019531 71.160156 C 30.480469 71.160156 29.894531 70.726562 29.355469 70.066406 C 29.265625 69.960938 29.203125 69.855469 29.203125 69.855469 L 29.203125 69.71875 C 29.203125 68.503906 29.371094 67.785156 30.703125 67.785156 C 31.066406 67.785156 31.453125 67.816406 31.84375 67.859375 Z M 36.75 70.035156 C 36.75 70.859375 36.210938 71.101562 35.550781 71.101562 C 34.753906 71.101562 34.078125 70.738281 34.078125 69.523438 L 34.078125 66.449219 C 33.195312 66.238281 31.664062 66.03125 30.34375 66.03125 C 28.050781 66.03125 27.015625 67.050781 27 68.835938 L 27 70.035156 C 27 70.859375 26.578125 71.101562 26.023438 71.101562 L 25.304688 71.101562 C 24.765625 71.101562 24.328125 70.875 24.328125 70.035156 L 24.328125 62.96875 L 22.109375 62.96875 L 22.109375 70.09375 C 22.109375 71.746094 22.859375 72.496094 24.511719 72.496094 L 26.789062 72.496094 C 27.871094 72.496094 28.53125 72.210938 28.90625 71.578125 C 28.90625 71.578125 29.023438 71.699219 29.113281 71.761719 C 29.699219 72.269531 30.464844 72.585938 31.230469 72.585938 C 32.101562 72.585938 32.820312 72.34375 33.300781 71.878906 C 34.320312 72.480469 34.949219 72.480469 36.089844 72.480469 C 37.558594 72.480469 39 72.269531 39 70.078125 L 39 66.449219 L 36.75 66.449219 Z M 18.136719 70.394531 C 18.136719 69.929688 18.75 69.691406 19.441406 69.691406 C 19.589844 69.691406 19.710938 69.691406 19.828125 69.703125 L 20.339844 68.234375 C 19.859375 68.128906 19.441406 68.113281 19.066406 68.113281 C 17.640625 68.113281 15.914062 68.746094 15.914062 70.078125 C 15.914062 70.484375 16.050781 70.785156 16.214844 71.085938 L 15.464844 71.085938 L 14.96875 72.480469 L 20.085938 72.480469 L 20.566406 71.085938 L 19.273438 71.085938 C 18.585938 71.085938 18.136719 70.828125 18.136719 70.394531 Z M 37.859375 62.953125 C 37.199219 62.953125 36.660156 63.421875 36.660156 63.960938 C 36.660156 64.53125 37.199219 64.980469 37.859375 64.980469 C 38.503906 64.980469 39.046875 64.53125 39.046875 63.960938 C 39.046875 63.421875 38.519531 62.953125 37.859375 62.953125 Z M 68.609375 70.035156 C 68.609375 70.710938 68.265625 71.085938 67.515625 71.085938 C 67.125 71.085938 66 70.003906 66 69.089844 C 66 68.386719 66.375 67.800781 67.46875 67.800781 C 67.828125 67.800781 68.234375 67.828125 68.609375 67.875 Z M 70.84375 66.433594 C 69.960938 66.253906 68.414062 66.046875 67.109375 66.046875 C 64.800781 66.046875 63.75 67.078125 63.75 68.910156 C 63.75 69.628906 64.214844 70.441406 64.800781 71.085938 C 63.210938 71.085938 60.929688 71.101562 60.929688 71.101562 C 60.105469 71.101562 59.488281 70.726562 59.488281 70.035156 L 59.488281 67.800781 L 57.253906 68.398438 L 57.253906 70.273438 C 57.253906 71.566406 58.46875 72.496094 59.910156 72.496094 L 67.425781 72.496094 C 67.5 72.496094 67.5 72.496094 67.5 72.496094 C 69.390625 72.480469 70.816406 71.835938 70.816406 70.09375 L 70.816406 66.433594 Z M 42.570312 73.859375 C 42.570312 73.710938 42.75 73.636719 42.960938 73.636719 C 43.003906 73.636719 43.050781 73.636719 43.078125 73.648438 L 43.246094 73.214844 C 43.09375 73.171875 42.976562 73.171875 42.855469 73.171875 C 42.421875 73.171875 41.910156 73.335938 41.910156 73.753906 C 41.910156 73.875 41.941406 73.964844 42 74.054688 L 41.773438 74.054688 L 41.640625 74.476562 L 43.171875 74.476562 L 43.320312 74.054688 L 42.929688 74.054688 C 42.703125 74.070312 42.570312 73.964844 42.570312 73.859375 Z M 45.554688 70.035156 C 45.554688 70.859375 45.121094 71.101562 44.578125 71.101562 L 43.335938 71.101562 L 43.335938 62.96875 L 41.671875 62.96875 L 41.671875 71.101562 L 40.800781 71.101562 L 40.320312 72.496094 L 45.34375 72.496094 C 47.023438 72.496094 47.789062 71.789062 47.789062 70.09375 L 47.789062 62.96875 L 45.570312 62.96875 L 45.570312 70.035156 Z M 49.980469 62.953125 L 49.980469 72.480469 L 52.199219 72.480469 L 52.199219 62.953125 Z M 67.46875 64.996094 C 68.128906 64.996094 68.65625 64.546875 68.65625 63.976562 C 68.65625 63.421875 68.113281 62.96875 67.46875 62.96875 C 66.808594 62.96875 66.285156 63.433594 66.285156 63.976562 C 66.285156 64.53125 66.808594 64.996094 67.46875 64.996094 Z M 97.769531 69.976562 C 97.769531 70.800781 97.546875 71.160156 96.945312 71.160156 C 96.40625 71.160156 95.804688 70.726562 95.28125 70.066406 C 95.191406 69.960938 95.128906 69.855469 95.128906 69.855469 L 95.128906 69.71875 C 95.128906 68.503906 95.296875 67.785156 96.613281 67.785156 C 96.988281 67.785156 97.378906 67.816406 97.753906 67.859375 L 97.753906 69.976562 Z M 80.65625 71.085938 L 80.65625 69.433594 C 83.160156 68.863281 84.675781 68.671875 85.785156 68.671875 C 87.136719 68.671875 88.125 69.375 88.289062 71.070312 L 80.65625 71.070312 Z M 96.253906 66.03125 C 93.960938 66.03125 92.925781 67.050781 92.910156 68.835938 L 92.910156 70.035156 C 92.910156 70.859375 92.476562 71.101562 91.933594 71.101562 L 90.539062 71.101562 C 90.238281 68.550781 89.070312 66.929688 86.160156 66.929688 C 84.765625 66.929688 82.738281 67.261719 80.65625 67.800781 L 80.65625 66.929688 L 78.433594 67.515625 L 78.433594 71.101562 L 75.75 71.101562 L 75.75 66.449219 L 73.53125 66.449219 L 73.53125 71.324219 C 73.53125 73.125 71.878906 73.726562 70.828125 73.726562 L 71.308594 75.164062 C 73.066406 75.164062 74.984375 74.398438 75.570312 72.496094 L 92.699219 72.496094 C 93.78125 72.496094 94.425781 72.210938 94.816406 71.578125 C 94.816406 71.578125 94.933594 71.699219 95.023438 71.761719 C 95.609375 72.269531 96.375 72.585938 97.140625 72.585938 C 98.894531 72.585938 100.003906 71.59375 100.003906 69.855469 L 100.003906 66.449219 C 99.121094 66.238281 97.574219 66.03125 96.253906 66.03125 Z M 96.253906 66.03125 "/>
</g>
</svg>
