<?xml version="1.0" encoding="UTF-8"?>
<svg xmlns="http://www.w3.org/2000/svg" xmlns:xlink="http://www.w3.org/1999/xlink" width="150px" height="150px" viewBox="0 0 150 150" version="1.1">
<g id="surface1">
<path style=" stroke:none;fill-rule:nonzero;fill:rgb(13.333333%,10.196078%,98.431373%);fill-opacity:1;" d="M 134.328125 70.511719 C 135.9375 71.4375 137.503906 72.339844 139.070312 73.242188 C 140.222656 73.910156 141.382812 74.566406 142.53125 75.246094 C 144.628906 76.488281 145.84375 78.332031 146.246094 80.722656 C 146.292969 80.984375 146.292969 81.253906 146.292969 81.519531 C 146.296875 84.195312 146.304688 86.867188 146.292969 89.539062 C 146.28125 91.351562 145.597656 92.910156 144.433594 94.277344 C 143.808594 95.007812 143.035156 95.546875 142.207031 96.019531 C 140.171875 97.183594 138.144531 98.355469 136.121094 99.53125 C 134.789062 100.308594 133.355469 100.660156 131.820312 100.578125 C 130.699219 100.519531 129.625 100.230469 128.644531 99.667969 C 126.035156 98.175781 123.429688 96.671875 120.832031 95.152344 C 120.449219 94.929688 120.167969 94.886719 119.753906 95.128906 C 117.210938 96.625 114.644531 98.082031 112.09375 99.558594 C 110.769531 100.320312 109.347656 100.660156 107.832031 100.582031 C 106.519531 100.511719 105.320312 100.074219 104.1875 99.410156 C 102.128906 98.203125 100.042969 97.046875 98 95.8125 C 95.582031 94.359375 94.28125 92.207031 94.246094 89.363281 C 94.214844 86.808594 94.242188 84.253906 94.238281 81.703125 C 94.238281 79.875 94.871094 78.285156 96.027344 76.890625 C 96.632812 76.164062 97.375 75.609375 98.195312 75.136719 C 100.753906 73.667969 103.300781 72.183594 105.859375 70.71875 C 106.136719 70.5625 106.214844 70.386719 106.210938 70.089844 C 106.203125 67.0625 106.167969 64.03125 106.21875 61.003906 C 106.265625 58.277344 107.457031 56.113281 109.78125 54.664062 C 111.644531 53.507812 113.574219 52.457031 115.472656 51.363281 C 115.972656 51.074219 116.476562 50.785156 116.988281 50.519531 C 117.800781 50.105469 118.671875 49.890625 119.582031 49.800781 C 121.269531 49.632812 122.808594 50.050781 124.257812 50.890625 C 126.28125 52.066406 128.304688 53.246094 130.34375 54.398438 C 132.015625 55.339844 133.191406 56.695312 133.871094 58.480469 C 134.171875 59.265625 134.320312 60.078125 134.324219 60.914062 C 134.332031 63.941406 134.328125 66.972656 134.328125 70 C 134.328125 70.160156 134.328125 70.324219 134.328125 70.511719 Z M 120.242188 90.085938 C 120.304688 90.070312 120.320312 90.066406 120.332031 90.0625 C 122.898438 88.582031 125.484375 87.132812 128.023438 85.609375 C 129.425781 84.769531 130.167969 83.472656 130.171875 81.804688 C 130.171875 78.96875 130.167969 76.136719 130.175781 73.300781 C 130.179688 73.015625 130.09375 72.855469 129.835938 72.707031 C 127.382812 71.304688 124.945312 69.867188 122.476562 68.476562 C 120.992188 67.644531 119.464844 67.675781 117.988281 68.519531 C 115.566406 69.894531 113.160156 71.300781 110.742188 72.679688 C 110.460938 72.839844 110.355469 73.011719 110.355469 73.339844 C 110.371094 76.128906 110.367188 78.917969 110.363281 81.707031 C 110.359375 83.5 111.179688 84.820312 112.695312 85.730469 C 113.367188 86.132812 114.054688 86.515625 114.734375 86.90625 C 116.570312 87.964844 118.402344 89.023438 120.242188 90.085938 Z M 106.207031 75.296875 C 106.007812 75.402344 105.890625 75.457031 105.777344 75.523438 C 103.929688 76.59375 102.089844 77.675781 100.230469 78.726562 C 98.992188 79.425781 98.355469 80.472656 98.34375 81.875 C 98.320312 84.324219 98.324219 86.773438 98.34375 89.222656 C 98.351562 90.578125 98.964844 91.613281 100.140625 92.292969 C 102.292969 93.542969 104.445312 94.796875 106.613281 96.023438 C 107.679688 96.628906 108.808594 96.65625 109.878906 96.054688 C 111.871094 94.945312 113.839844 93.78125 115.8125 92.636719 C 115.894531 92.59375 115.960938 92.527344 116.054688 92.457031 C 115.933594 92.375 115.851562 92.3125 115.761719 92.257812 C 114.078125 91.289062 112.398438 90.316406 110.710938 89.359375 C 109.355469 88.585938 108.257812 87.550781 107.453125 86.214844 C 106.605469 84.808594 106.207031 83.277344 106.207031 81.644531 C 106.207031 79.710938 106.207031 77.78125 106.207031 75.851562 C 106.207031 75.691406 106.207031 75.53125 106.207031 75.296875 Z M 124.453125 92.457031 C 124.609375 92.5625 124.726562 92.648438 124.851562 92.71875 C 126.738281 93.808594 128.625 94.894531 130.511719 95.976562 C 131.664062 96.640625 132.832031 96.648438 133.976562 96 C 136.152344 94.761719 138.316406 93.503906 140.476562 92.238281 C 141.605469 91.578125 142.179688 90.558594 142.191406 89.261719 C 142.210938 86.785156 142.214844 84.308594 142.191406 81.828125 C 142.175781 80.484375 141.570312 79.453125 140.382812 78.773438 C 138.710938 77.816406 137.050781 76.84375 135.382812 75.882812 C 135.054688 75.691406 134.71875 75.511719 134.328125 75.292969 C 134.328125 75.527344 134.328125 75.6875 134.328125 75.84375 C 134.328125 77.832031 134.332031 79.820312 134.324219 81.808594 C 134.320312 82.207031 134.300781 82.609375 134.234375 83.003906 C 133.789062 85.699219 132.421875 87.789062 130.066406 89.203125 C 129.039062 89.820312 127.992188 90.410156 126.953125 91.011719 C 126.132812 91.484375 125.316406 91.957031 124.453125 92.457031 Z M 110.363281 68.109375 C 110.542969 68.019531 110.660156 67.96875 110.769531 67.90625 C 112.492188 66.917969 114.203125 65.90625 115.9375 64.941406 C 118.808594 63.34375 121.710938 63.363281 124.585938 64.921875 C 126.339844 65.878906 128.050781 66.917969 129.785156 67.917969 C 129.890625 67.980469 130.011719 68.027344 130.148438 68.09375 C 130.160156 67.96875 130.167969 67.894531 130.167969 67.820312 C 130.171875 65.476562 130.171875 63.132812 130.167969 60.789062 C 130.167969 60.628906 130.140625 60.464844 130.105469 60.304688 C 129.875 59.292969 129.28125 58.550781 128.390625 58.035156 C 126.273438 56.816406 124.15625 55.59375 122.035156 54.378906 C 120.851562 53.707031 119.664062 53.722656 118.484375 54.390625 C 117.851562 54.75 117.226562 55.113281 116.597656 55.476562 C 115.070312 56.359375 113.53125 57.222656 112.019531 58.128906 C 110.9375 58.777344 110.367188 59.753906 110.363281 61.035156 C 110.363281 63.214844 110.363281 65.394531 110.363281 67.578125 C 110.363281 67.734375 110.363281 67.890625 110.363281 68.109375 Z M 110.363281 68.109375 "/>
<path style=" stroke:none;fill-rule:nonzero;fill:rgb(13.333333%,10.196078%,98.431373%);fill-opacity:1;" d="M 28.707031 72.964844 C 28.695312 72.367188 28.695312 71.789062 28.667969 71.214844 C 28.652344 70.953125 28.617188 70.683594 28.53125 70.433594 C 28.179688 69.402344 27.046875 69.039062 26.148438 69.65625 C 26.050781 69.722656 25.960938 69.796875 25.835938 69.890625 C 25.429688 69.554688 25.023438 69.214844 24.589844 68.859375 C 25.070312 68.324219 25.65625 68.046875 26.320312 67.917969 C 27.097656 67.769531 27.859375 67.832031 28.578125 68.167969 C 29.644531 68.664062 30.234375 69.53125 30.386719 70.683594 C 30.453125 71.191406 30.441406 71.714844 30.453125 72.234375 C 30.464844 72.871094 30.554688 72.972656 31.195312 73 C 31.25 73.003906 31.308594 73.015625 31.417969 73.027344 C 31.425781 73.257812 31.429688 73.492188 31.433594 73.722656 C 31.4375 73.960938 31.433594 74.195312 31.433594 74.421875 C 31.105469 74.53125 14.863281 74.570312 14.078125 74.46875 C 14.078125 72.789062 14.078125 71.105469 14.078125 69.433594 C 12.746094 69.039062 11.6875 69.792969 11.660156 71.132812 C 11.640625 72.097656 11.65625 73.0625 11.65625 74.027344 C 11.65625 74.171875 11.644531 74.316406 11.636719 74.492188 C 11.464844 74.5 11.320312 74.511719 11.175781 74.511719 C 9.765625 74.511719 8.355469 74.511719 6.945312 74.511719 C 5.164062 74.511719 3.804688 73.140625 3.757812 71.3125 C 3.734375 70.484375 3.941406 69.730469 4.449219 69.066406 C 4.488281 69.019531 4.527344 68.976562 4.566406 68.9375 C 4.589844 68.914062 4.617188 68.90625 4.691406 68.867188 C 5.082031 69.1875 5.488281 69.519531 5.894531 69.855469 C 5.777344 70.152344 5.625 70.429688 5.566406 70.726562 C 5.417969 71.449219 5.535156 72.128906 6.113281 72.636719 C 6.3125 72.8125 6.601562 72.96875 6.859375 72.980469 C 7.847656 73.019531 8.84375 72.996094 9.886719 72.996094 C 9.894531 72.816406 9.902344 72.660156 9.90625 72.503906 C 9.925781 71.839844 9.882812 71.164062 9.976562 70.507812 C 10.1875 69.0625 11.324219 68.007812 12.773438 67.902344 C 13.71875 67.832031 14.667969 67.851562 15.617188 67.835938 C 15.671875 67.835938 15.726562 67.859375 15.828125 67.878906 C 15.828125 69.570312 15.828125 71.253906 15.828125 72.96875 C 17.832031 72.96875 19.78125 72.96875 21.765625 72.96875 C 21.730469 72.238281 21.722656 71.519531 21.652344 70.800781 C 21.582031 70.109375 21.113281 69.496094 20.289062 69.371094 C 19.882812 69.3125 19.523438 69.417969 19.191406 69.632812 C 19.09375 69.699219 19.007812 69.78125 18.871094 69.894531 C 18.460938 69.558594 18.046875 69.214844 17.617188 68.859375 C 18.082031 68.339844 18.632812 68.058594 19.253906 67.933594 C 20.277344 67.726562 21.261719 67.847656 22.132812 68.472656 C 22.984375 69.089844 23.390625 69.949219 23.441406 70.984375 C 23.464844 71.441406 23.4375 71.902344 23.449219 72.363281 C 23.457031 72.769531 23.65625 72.992188 24.035156 72.996094 C 25.546875 73 27.0625 72.996094 28.578125 72.996094 C 28.632812 72.996094 28.6875 72.96875 28.707031 72.964844 Z M 28.707031 72.964844 "/>
<path style=" stroke:none;fill-rule:nonzero;fill:rgb(13.333333%,10.196078%,98.431373%);fill-opacity:1;" d="M 75.625 72.886719 C 75.964844 73.019531 77.441406 73.046875 78.007812 72.945312 C 77.953125 72.820312 77.898438 72.699219 77.851562 72.578125 C 77.390625 71.375 77.480469 70.226562 78.214844 69.152344 C 78.554688 68.660156 79.015625 68.320312 79.566406 68.101562 C 80.421875 67.765625 81.304688 67.742188 82.167969 68.050781 C 83.25 68.4375 83.953125 69.199219 84.199219 70.332031 C 84.441406 71.429688 84.292969 72.460938 83.570312 73.355469 C 82.976562 74.089844 82.191406 74.488281 81.257812 74.503906 C 79.550781 74.535156 77.84375 74.511719 76.136719 74.511719 C 75.707031 74.515625 75.367188 74.332031 75.082031 74.027344 C 75.023438 73.964844 74.964844 73.898438 74.867188 73.792969 C 74.167969 74.53125 73.269531 74.527344 72.351562 74.519531 C 70.082031 74.5 67.808594 74.511719 65.539062 74.515625 C 65.214844 74.515625 64.890625 74.53125 64.621094 74.285156 C 64.277344 76.324219 63.304688 77.21875 61.25 77.386719 C 61.25 76.917969 61.25 76.449219 61.25 75.953125 C 61.324219 75.921875 61.414062 75.875 61.507812 75.855469 C 62.316406 75.664062 62.796875 75.082031 62.820312 74.234375 C 62.832031 73.714844 62.824219 73.195312 62.824219 72.675781 C 62.824219 71.445312 62.824219 70.214844 62.824219 68.980469 C 62.824219 68.824219 62.824219 68.664062 62.824219 68.480469 C 63.429688 68.480469 63.988281 68.480469 64.605469 68.480469 C 64.605469 68.652344 64.605469 68.808594 64.605469 68.96875 C 64.605469 70.097656 64.605469 71.222656 64.605469 72.351562 C 64.605469 72.457031 64.597656 72.5625 64.613281 72.664062 C 64.640625 72.859375 64.738281 72.996094 64.957031 72.996094 C 65.5625 72.996094 66.167969 72.996094 66.816406 72.996094 C 66.816406 71.542969 66.816406 70.125 66.816406 68.65625 C 67.367188 68.617188 67.875 68.628906 68.425781 68.644531 C 68.425781 69.148438 68.425781 69.613281 68.425781 70.148438 C 68.695312 70.023438 68.824219 69.84375 68.96875 69.691406 C 69.453125 69.171875 70.023438 68.777344 70.675781 68.511719 C 71.8125 68.050781 72.972656 67.933594 74.121094 68.449219 C 75.171875 68.925781 75.738281 69.785156 75.921875 70.921875 C 76.019531 71.515625 75.929688 72.066406 75.710938 72.609375 C 75.679688 72.691406 75.660156 72.777344 75.625 72.886719 Z M 68.78125 72.9375 C 68.820312 72.960938 68.84375 72.988281 68.867188 72.988281 C 70.203125 72.992188 71.535156 73.011719 72.871094 72.988281 C 73.53125 72.976562 73.996094 72.542969 74.148438 71.890625 C 74.28125 71.3125 74.175781 70.769531 73.851562 70.28125 C 73.527344 69.792969 73.027344 69.59375 72.46875 69.628906 C 71.839844 69.664062 71.261719 69.902344 70.746094 70.273438 C 69.859375 70.917969 69.277344 71.804688 68.808594 72.773438 C 68.785156 72.824219 68.789062 72.886719 68.78125 72.9375 Z M 79.363281 71.167969 C 79.363281 71.652344 79.445312 71.957031 79.613281 72.277344 C 80.121094 73.234375 81.640625 73.226562 82.167969 72.410156 C 82.636719 71.691406 82.691406 70.945312 82.304688 70.1875 C 81.828125 69.242188 80.578125 69.070312 79.832031 69.832031 C 79.464844 70.203125 79.339844 70.660156 79.363281 71.167969 Z M 79.363281 71.167969 "/>
<path style=" stroke:none;fill-rule:nonzero;fill:rgb(13.333333%,10.196078%,98.431373%);fill-opacity:1;" d="M 50.039062 68.832031 C 50.488281 69.203125 50.886719 69.53125 51.292969 69.867188 C 51.199219 70.070312 51.097656 70.25 51.035156 70.441406 C 50.761719 71.246094 50.847656 72 51.472656 72.609375 C 51.660156 72.796875 51.953125 72.960938 52.207031 72.976562 C 53.015625 73.019531 53.828125 72.992188 54.683594 72.992188 C 54.621094 72.835938 54.574219 72.734375 54.535156 72.625 C 54.042969 71.269531 54.144531 70.003906 55.113281 68.882812 C 55.535156 68.398438 56.078125 68.101562 56.703125 67.960938 C 57.878906 67.703125 58.96875 67.863281 59.90625 68.671875 C 60.40625 69.097656 60.726562 69.648438 60.871094 70.285156 C 61.117188 71.390625 60.984375 72.433594 60.257812 73.34375 C 59.667969 74.078125 58.886719 74.488281 57.949219 74.503906 C 56.019531 74.53125 54.089844 74.53125 52.160156 74.503906 C 50.601562 74.484375 49.257812 73.144531 49.164062 71.585938 C 49.117188 70.769531 49.199219 69.984375 49.683594 69.289062 C 49.78125 69.144531 49.898438 69.011719 50.039062 68.832031 Z M 56.019531 71.191406 C 55.992188 71.5625 56.101562 71.941406 56.308594 72.292969 C 56.78125 73.109375 57.96875 73.269531 58.648438 72.621094 C 59.308594 71.992188 59.425781 70.808594 58.90625 70.046875 C 58.53125 69.496094 57.894531 69.25 57.242188 69.40625 C 56.488281 69.589844 56.027344 70.246094 56.019531 71.191406 Z M 56.019531 71.191406 "/>
<path style=" stroke:none;fill-rule:nonzero;fill:rgb(13.333333%,10.196078%,98.431373%);fill-opacity:1;" d="M 52.769531 89.828125 C 52.734375 89.941406 52.707031 90.035156 52.679688 90.136719 C 52.109375 90.136719 51.550781 90.136719 50.96875 90.136719 C 50.96875 86.765625 50.96875 83.417969 50.96875 80.039062 C 51.542969 80.039062 52.109375 80.039062 52.722656 80.039062 C 52.722656 81.265625 52.722656 82.472656 52.722656 83.738281 C 52.847656 83.675781 52.914062 83.652344 52.96875 83.613281 C 54.042969 82.882812 55.59375 83.085938 56.558594 83.820312 C 57.554688 84.574219 58.085938 85.574219 58.070312 86.835938 C 58.042969 88.703125 56.675781 90.042969 55.242188 90.308594 C 54.480469 90.453125 53.734375 90.421875 53.054688 89.980469 C 52.96875 89.925781 52.875 89.882812 52.769531 89.828125 Z M 56.300781 86.574219 C 56.246094 86.394531 56.1875 86.023438 56.027344 85.699219 C 55.457031 84.566406 53.917969 84.472656 53.226562 85.300781 C 52.628906 86.019531 52.546875 86.816406 52.855469 87.667969 C 53.339844 88.992188 54.960938 89.023438 55.679688 88.328125 C 56.117188 87.902344 56.277344 87.359375 56.300781 86.574219 Z M 56.300781 86.574219 "/>
<path style=" stroke:none;fill-rule:nonzero;fill:rgb(13.333333%,10.196078%,98.431373%);fill-opacity:1;" d="M 39.519531 72.996094 C 40.09375 72.996094 40.65625 72.996094 41.222656 72.996094 C 41.5625 73 41.792969 72.828125 41.878906 72.507812 C 41.941406 72.28125 41.972656 72.042969 41.972656 71.808594 C 41.980469 69.851562 41.976562 67.890625 41.976562 65.929688 C 41.976562 65.769531 41.976562 65.609375 41.976562 65.425781 C 42.546875 65.425781 43.074219 65.425781 43.632812 65.425781 C 43.644531 65.535156 43.667969 65.648438 43.667969 65.761719 C 43.667969 67.871094 43.667969 69.976562 43.667969 72.085938 C 43.667969 72.519531 43.621094 72.945312 43.4375 73.34375 C 43.09375 74.089844 42.492188 74.46875 41.683594 74.507812 C 41.105469 74.535156 40.527344 74.523438 39.949219 74.503906 C 39.75 74.5 39.554688 74.414062 39.328125 74.355469 C 39.195312 75.257812 38.871094 76.078125 38.125 76.679688 C 37.496094 77.1875 36.769531 77.375 35.949219 77.398438 C 35.949219 76.921875 35.949219 76.453125 35.949219 75.953125 C 36.054688 75.921875 36.175781 75.875 36.300781 75.847656 C 36.875 75.71875 37.25 75.359375 37.414062 74.8125 C 37.511719 74.492188 37.570312 74.144531 37.574219 73.8125 C 37.589844 72.207031 37.582031 70.605469 37.582031 69.003906 C 37.582031 68.839844 37.582031 68.679688 37.582031 68.488281 C 38.15625 68.488281 38.695312 68.488281 39.28125 68.488281 C 39.289062 68.644531 39.300781 68.804688 39.300781 68.960938 C 39.304688 70.074219 39.304688 71.1875 39.300781 72.300781 C 39.300781 72.542969 39.300781 72.777344 39.519531 72.996094 Z M 39.519531 72.996094 "/>
<path style=" stroke:none;fill-rule:nonzero;fill:rgb(13.333333%,10.196078%,98.431373%);fill-opacity:1;" d="M 64.261719 83.742188 C 64.292969 83.621094 64.316406 83.527344 64.347656 83.414062 C 64.902344 83.414062 65.460938 83.414062 66.015625 83.414062 C 66.109375 83.757812 66.144531 89.113281 66.058594 90.140625 C 65.78125 90.148438 65.492188 90.15625 65.203125 90.160156 C 64.921875 90.164062 64.640625 90.160156 64.355469 90.160156 C 64.324219 90.042969 64.300781 89.945312 64.273438 89.84375 C 64.222656 89.851562 64.171875 89.84375 64.144531 89.863281 C 62.085938 91.320312 58.960938 89.625 58.957031 86.839844 C 58.953125 85.402344 59.53125 84.308594 60.777344 83.617188 C 61.867188 83.007812 62.996094 82.941406 64.09375 83.652344 C 64.140625 83.679688 64.191406 83.703125 64.261719 83.742188 Z M 60.699219 86.765625 C 60.714844 86.769531 60.730469 86.773438 60.746094 86.777344 C 60.746094 86.878906 60.738281 86.984375 60.746094 87.085938 C 60.804688 87.882812 61.34375 88.539062 62.085938 88.726562 C 62.859375 88.921875 63.636719 88.621094 64.039062 87.929688 C 64.394531 87.320312 64.417969 86.664062 64.214844 85.996094 C 63.996094 85.277344 63.335938 84.777344 62.597656 84.757812 C 61.796875 84.738281 61.140625 85.164062 60.882812 85.90625 C 60.789062 86.183594 60.757812 86.480469 60.699219 86.765625 Z M 60.699219 86.765625 "/>
<path style=" stroke:none;fill-rule:nonzero;fill:rgb(13.333333%,10.196078%,98.431373%);fill-opacity:1;" d="M 11.023438 83.761719 C 11.050781 83.628906 11.070312 83.535156 11.097656 83.417969 C 11.648438 83.417969 12.207031 83.417969 12.789062 83.417969 C 12.789062 85.660156 12.789062 87.878906 12.789062 90.128906 C 12.238281 90.128906 11.695312 90.128906 11.117188 90.128906 C 11.089844 90.046875 11.054688 89.941406 11.003906 89.789062 C 10.070312 90.488281 9.046875 90.542969 8.003906 90.167969 C 6.949219 89.785156 6.230469 89.015625 5.890625 87.964844 C 5.429688 86.519531 5.707031 85.199219 6.808594 84.121094 C 7.371094 83.570312 8.074219 83.277344 8.871094 83.179688 C 9.667969 83.085938 10.355469 83.3125 11.023438 83.761719 Z M 11.121094 86.789062 C 11.042969 86.460938 11 86.117188 10.878906 85.808594 C 10.628906 85.171875 10.113281 84.832031 9.449219 84.765625 C 8.808594 84.703125 8.246094 84.914062 7.867188 85.464844 C 7.398438 86.136719 7.359375 86.867188 7.625 87.625 C 7.859375 88.285156 8.339844 88.671875 9.03125 88.757812 C 9.789062 88.851562 10.40625 88.59375 10.796875 87.910156 C 10.992188 87.566406 11.085938 87.195312 11.121094 86.789062 Z M 11.121094 86.789062 "/>
<path style=" stroke:none;fill-rule:nonzero;fill:rgb(13.333333%,10.196078%,98.431373%);fill-opacity:1;" d="M 27.777344 83.679688 C 27.796875 83.613281 27.820312 83.53125 27.847656 83.417969 C 28.398438 83.417969 28.953125 83.417969 29.515625 83.417969 C 29.609375 83.714844 29.644531 89.453125 29.550781 90.132812 C 29 90.132812 28.441406 90.132812 27.859375 90.132812 C 27.832031 90.042969 27.804688 89.949219 27.773438 89.84375 C 27.734375 89.851562 27.683594 89.847656 27.65625 89.867188 C 25.898438 91.136719 23.019531 90.035156 22.539062 87.484375 C 22.296875 86.1875 22.617188 85.03125 23.59375 84.121094 C 24.457031 83.320312 25.496094 82.988281 26.667969 83.242188 C 27.035156 83.320312 27.378906 83.519531 27.777344 83.679688 Z M 26.058594 88.765625 C 26.859375 88.765625 27.445312 88.34375 27.714844 87.597656 C 27.914062 87.042969 27.914062 86.5 27.714844 85.949219 C 27.476562 85.269531 26.996094 84.855469 26.289062 84.773438 C 25.582031 84.6875 24.976562 84.925781 24.574219 85.5625 C 24.292969 86.003906 24.199219 86.5 24.253906 87.007812 C 24.386719 88.257812 25.21875 88.796875 26.058594 88.765625 Z M 26.058594 88.765625 "/>
<path style=" stroke:none;fill-rule:nonzero;fill:rgb(13.333333%,10.196078%,98.431373%);fill-opacity:1;" d="M 35.023438 80.023438 C 35.585938 80.023438 36.117188 80.023438 36.710938 80.023438 C 36.714844 80.628906 36.71875 81.230469 36.71875 81.832031 C 36.722656 82.425781 36.71875 83.019531 36.71875 83.660156 C 36.839844 83.601562 36.933594 83.574219 37.011719 83.519531 C 38.277344 82.671875 40.539062 83.355469 40.960938 85.136719 C 41.054688 85.539062 41.128906 85.953125 41.136719 86.363281 C 41.160156 87.519531 41.144531 88.679688 41.144531 89.835938 C 41.144531 89.921875 41.128906 90.011719 41.121094 90.128906 C 40.550781 90.128906 39.996094 90.128906 39.386719 90.128906 C 39.378906 89.984375 39.363281 89.828125 39.363281 89.671875 C 39.363281 88.589844 39.367188 87.503906 39.359375 86.421875 C 39.355469 86.15625 39.324219 85.890625 39.269531 85.628906 C 39.167969 85.144531 38.855469 84.863281 38.367188 84.773438 C 37.605469 84.632812 36.960938 85.058594 36.816406 85.8125 C 36.757812 86.117188 36.726562 86.429688 36.722656 86.738281 C 36.710938 87.71875 36.71875 88.695312 36.71875 89.675781 C 36.71875 89.820312 36.71875 89.964844 36.71875 90.136719 C 36.132812 90.136719 35.59375 90.136719 35.023438 90.136719 C 35.023438 86.769531 35.023438 83.421875 35.023438 80.023438 Z M 35.023438 80.023438 "/>
<path style=" stroke:none;fill-rule:nonzero;fill:rgb(13.333333%,10.196078%,98.431373%);fill-opacity:1;" d="M 75.738281 80.023438 C 76.300781 80.023438 76.832031 80.023438 77.421875 80.023438 C 77.425781 80.644531 77.429688 81.261719 77.429688 81.878906 C 77.433594 82.515625 77.433594 83.15625 77.433594 83.792969 C 77.433594 84.414062 77.433594 85.039062 77.433594 85.742188 C 77.570312 85.640625 77.664062 85.585938 77.738281 85.511719 C 78.328125 84.925781 78.921875 84.347656 79.5 83.746094 C 79.742188 83.496094 79.992188 83.367188 80.355469 83.382812 C 80.929688 83.414062 81.507812 83.390625 82.125 83.472656 C 81.191406 84.382812 80.253906 85.296875 79.289062 86.234375 C 80.304688 87.523438 81.308594 88.800781 82.378906 90.164062 C 81.933594 90.164062 81.585938 90.167969 81.238281 90.160156 C 80.898438 90.15625 80.515625 90.234375 80.230469 90.101562 C 79.964844 89.976562 79.804688 89.625 79.605469 89.371094 C 79.101562 88.730469 78.601562 88.089844 78.074219 87.417969 C 77.875 87.613281 77.683594 87.773438 77.527344 87.96875 C 77.453125 88.058594 77.4375 88.210938 77.4375 88.339844 C 77.425781 88.785156 77.433594 89.230469 77.433594 89.675781 C 77.433594 89.820312 77.433594 89.964844 77.433594 90.136719 C 76.847656 90.136719 76.304688 90.136719 75.738281 90.136719 C 75.738281 86.769531 75.738281 83.421875 75.738281 80.023438 Z M 75.738281 80.023438 "/>
<path style=" stroke:none;fill-rule:nonzero;fill:rgb(13.333333%,10.196078%,98.431373%);fill-opacity:1;" d="M 67.84375 83.394531 C 68.367188 83.394531 68.867188 83.382812 69.367188 83.402344 C 69.460938 83.40625 69.550781 83.53125 69.621094 83.585938 C 69.960938 83.464844 70.308594 83.304688 70.675781 83.21875 C 71.863281 82.945312 73.609375 83.691406 73.863281 85.449219 C 73.890625 85.65625 73.933594 85.859375 73.933594 86.066406 C 73.945312 87.386719 73.945312 88.707031 73.945312 90.027344 C 73.945312 90.050781 73.925781 90.078125 73.90625 90.132812 C 73.359375 90.132812 72.804688 90.132812 72.199219 90.132812 C 72.191406 89.972656 72.175781 89.816406 72.175781 89.660156 C 72.175781 88.5625 72.183594 87.464844 72.171875 86.367188 C 72.167969 86.085938 72.132812 85.804688 72.066406 85.53125 C 71.972656 85.140625 71.707031 84.90625 71.308594 84.808594 C 70.484375 84.601562 69.824219 84.996094 69.652344 85.824219 C 69.597656 86.097656 69.570312 86.382812 69.566406 86.660156 C 69.554688 87.65625 69.5625 88.648438 69.5625 89.644531 C 69.5625 89.792969 69.5625 89.9375 69.5625 90.125 C 68.984375 90.125 68.429688 90.125 67.84375 90.125 C 67.84375 87.90625 67.84375 85.6875 67.84375 83.394531 Z M 67.84375 83.394531 "/>
<path style=" stroke:none;fill-rule:nonzero;fill:rgb(13.333333%,10.196078%,98.431373%);fill-opacity:1;" d="M 29.851562 93.710938 C 29.851562 93.195312 29.851562 92.726562 29.851562 92.320312 C 30.203125 92.148438 30.550781 92.042969 30.820312 91.835938 C 31.328125 91.445312 31.464844 90.867188 31.464844 90.25 C 31.460938 88.144531 31.464844 86.039062 31.464844 83.933594 C 31.464844 83.773438 31.464844 83.613281 31.464844 83.421875 C 32.058594 83.421875 32.609375 83.421875 33.191406 83.421875 C 33.199219 83.566406 33.214844 83.695312 33.214844 83.824219 C 33.214844 86.0625 33.226562 88.300781 33.210938 90.539062 C 33.199219 92.136719 31.941406 93.542969 30.203125 93.722656 C 30.105469 93.734375 30 93.714844 29.851562 93.710938 Z M 29.851562 93.710938 "/>
<path style=" stroke:none;fill-rule:nonzero;fill:rgb(13.333333%,10.196078%,98.431373%);fill-opacity:1;" d="M 14.566406 80.007812 C 14.992188 80.007812 15.390625 80.007812 15.789062 80.007812 C 15.949219 80.007812 16.109375 80.007812 16.292969 80.007812 C 16.292969 83.394531 16.292969 86.742188 16.292969 90.125 C 15.726562 90.125 15.160156 90.125 14.566406 90.125 C 14.566406 86.769531 14.566406 83.425781 14.566406 80.007812 Z M 14.566406 80.007812 "/>
<path style=" stroke:none;fill-rule:nonzero;fill:rgb(13.333333%,10.196078%,98.431373%);fill-opacity:1;" d="M 45.214844 65.414062 C 45.792969 65.414062 46.339844 65.414062 46.886719 65.414062 C 46.984375 65.71875 47.011719 73.878906 46.910156 74.511719 C 46.644531 74.511719 46.367188 74.511719 46.085938 74.511719 C 45.808594 74.511719 45.527344 74.511719 45.214844 74.511719 C 45.214844 71.472656 45.214844 68.46875 45.214844 65.414062 Z M 45.214844 65.414062 "/>
<path style=" stroke:none;fill-rule:nonzero;fill:rgb(13.333333%,10.196078%,98.431373%);fill-opacity:1;" d="M 35.265625 74.492188 C 34.707031 74.492188 34.179688 74.492188 33.648438 74.492188 C 33.554688 74.191406 33.523438 66.09375 33.617188 65.425781 C 34.152344 65.425781 34.695312 65.425781 35.265625 65.425781 C 35.265625 68.433594 35.265625 71.4375 35.265625 74.492188 Z M 35.265625 74.492188 "/>
<path style=" stroke:none;fill-rule:nonzero;fill:rgb(13.333333%,10.196078%,98.431373%);fill-opacity:1;" d="M 19.703125 90.167969 C 19.101562 90.167969 18.542969 90.167969 17.953125 90.167969 C 17.941406 90.023438 17.925781 89.894531 17.925781 89.765625 C 17.921875 88.578125 17.910156 87.394531 17.929688 86.207031 C 17.9375 85.800781 17.996094 85.378906 18.109375 84.988281 C 18.355469 84.136719 18.933594 83.597656 19.800781 83.394531 C 20.480469 83.230469 21.164062 83.164062 21.878906 83.335938 C 21.878906 83.8125 21.878906 84.28125 21.878906 84.800781 C 21.667969 84.808594 21.464844 84.8125 21.261719 84.816406 C 21.070312 84.824219 20.878906 84.824219 20.6875 84.847656 C 20.015625 84.925781 19.710938 85.273438 19.707031 85.976562 C 19.699219 87.121094 19.703125 88.261719 19.703125 89.402344 C 19.703125 89.648438 19.703125 89.898438 19.703125 90.167969 Z M 19.703125 90.167969 "/>
<path style=" stroke:none;fill-rule:nonzero;fill:rgb(13.333333%,10.196078%,98.431373%);fill-opacity:1;" d="M 42.914062 83.417969 C 43.484375 83.417969 44.027344 83.417969 44.59375 83.417969 C 44.59375 85.664062 44.59375 87.882812 44.59375 90.132812 C 44.035156 90.132812 43.492188 90.132812 42.945312 90.132812 C 42.847656 89.839844 42.816406 84.105469 42.914062 83.417969 Z M 42.914062 83.417969 "/>
<path style=" stroke:none;fill-rule:nonzero;fill:rgb(13.333333%,10.196078%,98.431373%);fill-opacity:1;" d="M 43.746094 82.175781 C 43.089844 82.171875 42.652344 81.742188 42.660156 81.097656 C 42.664062 80.503906 43.132812 80.050781 43.734375 80.035156 C 44.289062 80.019531 44.84375 80.496094 44.84375 81.109375 C 44.84375 81.660156 44.339844 82.265625 43.746094 82.175781 Z M 43.746094 82.175781 "/>
<path style=" stroke:none;fill-rule:nonzero;fill:rgb(13.333333%,10.196078%,98.431373%);fill-opacity:1;" d="M 32.351562 82.175781 C 31.726562 82.265625 31.21875 81.613281 31.25 81.113281 C 31.285156 80.511719 31.722656 80.042969 32.320312 80.035156 C 32.964844 80.027344 33.421875 80.46875 33.421875 81.097656 C 33.425781 81.769531 33.023438 82.171875 32.351562 82.175781 Z M 32.351562 82.175781 "/>
<path style=" stroke:none;fill-rule:nonzero;fill:rgb(13.333333%,10.196078%,98.431373%);fill-opacity:1;" d="M 7.082031 77.988281 C 6.488281 77.984375 6.074219 77.570312 6.074219 76.984375 C 6.078125 76.402344 6.5 75.992188 7.09375 76 C 7.640625 76.003906 8.085938 76.4375 8.09375 76.976562 C 8.101562 77.527344 7.640625 77.988281 7.082031 77.988281 Z M 7.082031 77.988281 "/>
<path style=" stroke:none;fill-rule:nonzero;fill:rgb(13.333333%,10.196078%,98.431373%);fill-opacity:1;" d="M 10.945312 76.976562 C 10.953125 77.550781 10.523438 77.984375 9.945312 77.988281 C 9.378906 77.992188 8.921875 77.542969 8.925781 76.988281 C 8.929688 76.449219 9.367188 76.007812 9.910156 76 C 10.496094 75.988281 10.9375 76.40625 10.945312 76.976562 Z M 10.945312 76.976562 "/>
<path style=" stroke:none;fill-rule:nonzero;fill:rgb(13.333333%,10.196078%,98.431373%);fill-opacity:1;" d="M 54.804688 66.640625 C 54.792969 67.226562 54.382812 67.582031 53.75 67.5625 C 53.195312 67.546875 52.792969 67.109375 52.816406 66.546875 C 52.835938 66 53.28125 65.578125 53.824219 65.574219 C 54.378906 65.570312 54.867188 66.039062 54.804688 66.640625 Z M 54.804688 66.640625 "/>
<path style=" stroke:none;fill-rule:nonzero;fill:rgb(13.333333%,10.196078%,98.431373%);fill-opacity:1;" d="M 28.433594 76.988281 C 28.511719 77.519531 27.957031 78.03125 27.449219 77.996094 C 26.882812 77.957031 26.441406 77.539062 26.445312 76.972656 C 26.453125 76.429688 26.882812 76.03125 27.4375 75.992188 C 27.996094 75.949219 28.515625 76.503906 28.433594 76.988281 Z M 28.433594 76.988281 "/>
</g>
</svg>
