<?xml version="1.0" encoding="UTF-8"?>
<svg xmlns="http://www.w3.org/2000/svg" xmlns:xlink="http://www.w3.org/1999/xlink" width="150px" height="150px" viewBox="0 0 150 150" version="1.1">
<defs>
<clipPath id="clip1">
  <path d="M 30.234375 20.605469 L 119.765625 20.605469 L 119.765625 129.398438 L 30.234375 129.398438 Z M 30.234375 20.605469 "/>
</clipPath>
<clipPath id="clip2">
  <path d="M 30.234375 59 L 119.765625 59 L 119.765625 108 L 30.234375 108 Z M 30.234375 59 "/>
</clipPath>
<clipPath id="clip3">
  <path d="M 38 56 L 112 56 L 112 101 L 38 101 Z M 38 56 "/>
</clipPath>
<clipPath id="clip4">
  <path d="M 48.246094 62.609375 L 38.9375 98.882812 C 44.363281 102.519531 52.386719 98.261719 52.390625 98.101562 C 65.574219 89.605469 75 100.679688 75 100.679688 C 75 100.679688 84.425781 89.605469 97.609375 98.101562 C 97.613281 98.257812 105.632812 102.519531 111.058594 98.882812 L 101.753906 62.609375 C 101.753906 62.609375 96.644531 56.972656 88.171875 56.972656 C 84.394531 56.972656 79.957031 58.09375 75 61.320312 C 70.046875 58.09375 65.605469 56.972656 61.832031 56.972656 C 53.351562 56.972656 48.246094 62.609375 48.246094 62.609375 "/>
</clipPath>
<linearGradient id="linear0" gradientUnits="userSpaceOnUse" x1="-41.7742" y1="1460.0621" x2="-37.2137" y2="1460.0621" gradientTransform="matrix(15.81492,0,0,15.81492,699.593115,-23011.019535)">
<stop offset="0" style="stop-color:rgb(99.215686%,79.215686%,36.862745%);stop-opacity:1;"/>
<stop offset="0.1157" style="stop-color:rgb(98.431373%,77.254902%,34.509804%);stop-opacity:1;"/>
<stop offset="0.2678" style="stop-color:rgb(95.686275%,72.156863%,27.058824%);stop-opacity:1;"/>
<stop offset="0.4394" style="stop-color:rgb(91.372549%,63.921569%,15.686275%);stop-opacity:1;"/>
<stop offset="0.5" style="stop-color:rgb(89.803922%,60.392157%,10.588235%);stop-opacity:1;"/>
<stop offset="0.5606" style="stop-color:rgb(91.372549%,63.921569%,15.686275%);stop-opacity:1;"/>
<stop offset="0.7322" style="stop-color:rgb(95.686275%,72.156863%,27.058824%);stop-opacity:1;"/>
<stop offset="0.8843" style="stop-color:rgb(98.431373%,77.254902%,34.509804%);stop-opacity:1;"/>
<stop offset="1" style="stop-color:rgb(99.215686%,79.215686%,36.862745%);stop-opacity:1;"/>
</linearGradient>
</defs>
<g id="surface1">
<g clip-path="url(#clip1)" clip-rule="nonzero">
<path style=" stroke:none;fill-rule:nonzero;fill:rgb(1.568627%,50.588235%,30.980392%);fill-opacity:1;" d="M 119.761719 53.746094 C 119.738281 53.398438 119.703125 53.035156 119.660156 52.65625 C 119.429688 50.648438 118.960938 48.769531 118.273438 47.074219 C 116.722656 43.277344 114.113281 40.449219 110.519531 38.675781 C 107.578125 37.226562 103.960938 36.488281 99.761719 36.476562 L 99.222656 35.46875 L 99.15625 35.351562 C 98.535156 34.453125 97.839844 33.613281 97.175781 32.839844 C 95.90625 31.363281 94.785156 30.257812 93.652344 29.367188 C 92.101562 28.152344 90.304688 27.21875 88.316406 26.59375 C 87.03125 26.191406 85.59375 25.871094 83.925781 25.613281 C 83.457031 25.539062 82.96875 25.484375 82.464844 25.429688 C 81.601562 25.339844 80.707031 25.242188 79.832031 25.019531 C 78.464844 24.664062 77.222656 23.855469 76.335938 22.738281 C 76.183594 22.546875 76.035156 22.339844 75.90625 22.113281 L 75 20.601562 L 74.09375 22.117188 C 73.960938 22.339844 73.816406 22.546875 73.667969 22.738281 C 72.777344 23.859375 71.535156 24.667969 70.171875 25.019531 C 69.292969 25.242188 68.402344 25.339844 67.535156 25.433594 C 67.035156 25.488281 66.542969 25.539062 66.078125 25.613281 C 64.40625 25.871094 62.96875 26.191406 61.6875 26.59375 C 59.695312 27.21875 57.898438 28.15625 56.351562 29.367188 C 55.210938 30.261719 54.09375 31.363281 52.824219 32.839844 C 52.195312 33.574219 51.472656 34.441406 50.84375 35.359375 L 50.242188 36.476562 C 46.039062 36.488281 42.421875 37.226562 39.480469 38.675781 C 36.96875 39.914062 34.921875 41.683594 33.394531 43.933594 C 31.761719 46.339844 30.734375 49.273438 30.347656 52.65625 C 30.296875 53.078125 30.261719 53.476562 30.234375 53.933594 L 30.234375 129.394531 L 119.769531 129.394531 L 119.769531 57.066406 Z M 32.46875 52.933594 C 32.816406 49.929688 33.710938 47.347656 35.132812 45.257812 C 36.460938 43.300781 38.179688 41.820312 40.382812 40.730469 C 43.058594 39.414062 46.410156 38.746094 50.339844 38.746094 L 51.492188 38.746094 L 52.609375 36.640625 C 53.167969 35.828125 53.832031 35.035156 54.40625 34.367188 C 55.578125 33 56.597656 31.992188 57.621094 31.191406 C 58.96875 30.132812 60.539062 29.320312 62.289062 28.769531 C 63.476562 28.398438 64.816406 28.097656 66.386719 27.855469 C 66.828125 27.789062 67.285156 27.738281 67.753906 27.6875 C 68.683594 27.589844 69.652344 27.484375 70.671875 27.222656 C 72.324219 26.796875 73.847656 25.859375 75 24.5625 C 76.152344 25.859375 77.671875 26.800781 79.328125 27.222656 C 80.34375 27.484375 81.308594 27.589844 82.242188 27.6875 C 82.714844 27.738281 83.167969 27.789062 83.609375 27.855469 C 85.179688 28.097656 86.519531 28.398438 87.703125 28.769531 C 89.457031 29.316406 91.027344 30.132812 92.371094 31.191406 C 93.394531 31.992188 94.414062 33 95.585938 34.367188 C 96.195312 35.074219 96.835938 35.84375 97.382812 36.636719 L 98.503906 38.746094 L 99.660156 38.746094 C 103.585938 38.746094 106.933594 39.414062 109.613281 40.730469 C 112.761719 42.285156 114.949219 44.65625 116.304688 47.976562 C 116.914062 49.46875 117.328125 51.136719 117.535156 52.933594 C 117.574219 53.273438 117.605469 53.605469 117.625 53.832031 L 117.625 117.316406 L 109.910156 117.316406 L 109.910156 112.402344 L 98.402344 112.402344 L 98.402344 107.355469 L 51.59375 107.355469 L 51.59375 112.402344 L 40.085938 112.402344 L 40.085938 117.3125 L 32.371094 117.3125 L 32.371094 54.019531 C 32.394531 53.671875 32.429688 53.308594 32.46875 52.933594 "/>
</g>
<path style=" stroke:none;fill-rule:nonzero;fill:rgb(91.372549%,79.215686%,36.862745%);fill-opacity:1;" d="M 116.015625 101.933594 L 107.796875 67.546875 L 74.796875 62.40625 L 42.207031 67.546875 L 33.988281 101.933594 L 33.957031 102.066406 L 42.589844 102.066406 C 42.925781 102.078125 43.269531 102.082031 43.621094 102.082031 C 43.875 102.082031 44.140625 102.070312 44.398438 102.066406 L 72.597656 102.066406 C 72.636719 102.917969 73.140625 103.429688 73.632812 103.707031 C 74.148438 104 74.65625 104.0625 74.660156 104.0625 L 75.335938 104.0625 C 75.34375 104.0625 75.851562 104 76.363281 103.707031 C 76.859375 103.429688 77.359375 102.917969 77.402344 102.066406 L 105.589844 102.066406 C 105.847656 102.074219 106.113281 102.082031 106.363281 102.082031 C 106.714844 102.082031 107.058594 102.074219 107.398438 102.066406 L 116.046875 102.066406 Z M 116.015625 101.933594 "/>
<g clip-path="url(#clip2)" clip-rule="nonzero">
<path style="fill:none;stroke-width:1.4594;stroke-linecap:butt;stroke-linejoin:miter;stroke:rgb(13.72549%,12.156863%,12.54902%);stroke-opacity:1;stroke-miterlimit:10;" d="M 773.4375 679.557292 L 718.645833 450.3125 L 498.645833 416.041667 L 281.380208 450.3125 L 226.588542 679.557292 L 226.380208 680.442708 L 283.932292 680.442708 C 286.171875 680.520833 288.463542 680.546875 290.807292 680.546875 C 292.5 680.546875 294.270833 680.46875 295.989583 680.442708 L 483.984375 680.442708 C 484.244792 686.119792 487.604167 689.53125 490.885417 691.380208 C 494.322917 693.333333 497.708333 693.75 497.734375 693.75 L 502.239583 693.75 C 502.291667 693.75 505.677083 693.333333 509.088542 691.380208 C 512.395833 689.53125 515.729167 686.119792 516.015625 680.442708 L 703.932292 680.442708 C 705.651042 680.494792 707.421875 680.546875 709.088542 680.546875 C 711.432292 680.546875 713.723958 680.494792 715.989583 680.442708 L 773.645833 680.442708 Z M 773.4375 679.557292 " transform="matrix(0.15,0,0,0.15,0,0)"/>
</g>
<path style="fill-rule:nonzero;fill:rgb(91.372549%,79.215686%,36.862745%);fill-opacity:1;stroke-width:1.4594;stroke-linecap:butt;stroke-linejoin:miter;stroke:rgb(13.72549%,12.156863%,12.54902%);stroke-opacity:1;stroke-miterlimit:10;" d="M 704.114583 437.317708 L 694.192708 435.442708 C 658.072917 428.619792 566.692708 399.739583 500 412.552083 C 433.307292 399.739583 341.927083 428.619792 305.807292 435.442708 L 295.885417 437.317708 L 234.973958 672.8125 C 295.260417 688.098958 343.567708 676.979167 372.890625 660.677083 C 428.28125 629.947917 500 674.53125 500 674.53125 C 500 674.53125 571.744792 629.947917 627.135417 660.677083 C 656.458333 676.979167 704.765625 688.098958 765.052083 672.8125 Z M 704.114583 437.317708 " transform="matrix(0.15,0,0,0.15,0,0)"/>
<path style="fill-rule:nonzero;fill:rgb(91.372549%,79.215686%,36.862745%);fill-opacity:1;stroke-width:1.4594;stroke-linecap:butt;stroke-linejoin:miter;stroke:rgb(13.72549%,12.156863%,12.54902%);stroke-opacity:1;stroke-miterlimit:10;" d="M 688.151042 423.411458 C 688.151042 423.411458 569.791667 388.4375 500.052083 410.338542 C 500.052083 410.338542 500.026042 410.3125 500 410.3125 C 499.973958 410.3125 499.947917 410.338542 499.947917 410.338542 C 430.208333 388.4375 311.848958 423.411458 311.848958 423.411458 L 247.552083 667.1875 C 289.635417 682.34375 332.34375 670.78125 354.713542 661.276042 C 438.28125 610.911458 500 672.838542 500 672.838542 C 500 672.838542 561.71875 610.911458 645.286458 661.276042 C 667.682292 670.78125 710.364583 682.34375 752.447917 667.1875 Z M 688.151042 423.411458 " transform="matrix(0.15,0,0,0.15,0,0)"/>
<g clip-path="url(#clip3)" clip-rule="nonzero">
<g clip-path="url(#clip4)" clip-rule="nonzero">
<path style=" stroke:none;fill-rule:nonzero;fill:url(#linear0);" d="M 38.9375 56.972656 L 111.0625 56.972656 L 111.0625 102.523438 L 38.9375 102.523438 Z M 38.9375 56.972656 "/>
</g>
</g>
<path style="fill:none;stroke-width:1.4594;stroke-linecap:butt;stroke-linejoin:miter;stroke:rgb(13.72549%,12.156863%,12.54902%);stroke-opacity:1;stroke-miterlimit:10;" d="M 678.359375 417.421875 C 678.359375 417.421875 607.239583 338.90625 500 408.802083 C 392.760417 338.90625 321.614583 417.421875 321.614583 417.421875 L 259.557292 659.21875 C 295.729167 683.489583 349.21875 655.078125 349.244792 654.036458 C 437.161458 597.395833 500 671.197917 500 671.197917 C 500 671.197917 562.838542 597.395833 650.729167 654.010417 C 650.755208 655.078125 704.244792 683.489583 740.416667 659.21875 Z M 678.359375 417.421875 " transform="matrix(0.15,0,0,0.15,0,0)"/>
<path style="fill:none;stroke-width:1.3271;stroke-linecap:butt;stroke-linejoin:round;stroke:rgb(0.784314%,1.176471%,1.176471%);stroke-opacity:1;stroke-miterlimit:10;" d="M 500 672.838542 L 500 408.411458 " transform="matrix(0.15,0,0,0.15,0,0)"/>
<path style=" stroke:none;fill-rule:nonzero;fill:rgb(100%,100%,100%);fill-opacity:1;" d="M 74.382812 109.398438 L 74.546875 108.691406 C 73.984375 109.296875 73.785156 110.238281 73.71875 111.144531 C 73.75 111.414062 74.050781 111.550781 74.316406 111.480469 C 74.582031 111.378906 74.914062 111.175781 74.949219 110.878906 C 75.183594 110.273438 74.816406 109.734375 74.382812 109.398438 M 74.75 110.609375 C 74.515625 110.742188 74.25 110.976562 73.984375 110.878906 C 73.949219 110.644531 74.015625 110.304688 74.148438 110.070312 C 74.347656 110.203125 74.75 110.273438 74.75 110.609375 "/>
<path style=" stroke:none;fill-rule:nonzero;fill:rgb(100%,100%,100%);fill-opacity:1;" d="M 73.882812 112.222656 L 73.515625 113.296875 C 73.882812 115.949219 73.949219 118.773438 74.183594 121.492188 C 74.015625 122.636719 74.816406 124.28125 73.515625 124.855469 C 72.71875 125.054688 71.652344 124.957031 71.21875 124.316406 C 71.953125 123.777344 73.25 123.914062 73.285156 122.667969 C 71.949219 121.324219 69.585938 121.527344 67.886719 121.996094 C 67.085938 121.996094 67.019531 122.9375 66.789062 123.476562 L 67.554688 123.308594 C 68.253906 123.308594 68.753906 123.746094 69.253906 124.214844 C 68.550781 124.753906 67.753906 124.953125 66.886719 124.988281 C 66.519531 124.957031 66.152344 124.621094 66.019531 124.25 C 65.320312 121.460938 65.320312 118.203125 63.421875 116.050781 L 63.253906 116.957031 C 63.820312 118.875 64.855469 120.65625 64.789062 122.769531 C 63.320312 124.753906 61.285156 126.265625 58.886719 126.199219 C 58.457031 126.0625 58.222656 125.628906 58.253906 125.1875 C 59.421875 124.25 61.121094 123.34375 61.453125 121.796875 C 62.121094 118.335938 61.253906 114.84375 61.285156 111.382812 C 61.453125 111.550781 61.589844 111.785156 61.785156 111.820312 C 61.65625 110.8125 61.1875 109.804688 60.757812 108.863281 L 60.421875 109.667969 C 60.722656 113.597656 60.953125 117.765625 61.121094 121.796875 C 60.324219 122.636719 59.355469 123.410156 58.390625 123.8125 C 58.488281 123.441406 58.6875 123.007812 58.621094 122.667969 C 58.289062 123.175781 58.421875 123.980469 57.789062 124.316406 C 56.527344 124.957031 54.960938 125.523438 53.492188 124.957031 C 52.527344 124.484375 52.027344 123.476562 52.058594 122.433594 C 51.996094 121.292969 52.628906 120.453125 52.925781 119.476562 C 52.859375 119.648438 52.660156 119.984375 52.394531 119.914062 C 51.894531 119.175781 52.527344 118.472656 52.59375 117.730469 C 52.195312 118.539062 51.59375 119.644531 52.261719 120.554688 C 51.894531 121.292969 51.792969 122.164062 51.792969 123.039062 C 51.792969 124.316406 52.195312 125.523438 53.359375 126.195312 C 54.925781 126.933594 56.558594 126.160156 57.859375 125.425781 L 58.058594 126.632812 C 58.292969 127.136719 58.726562 127.472656 59.257812 127.507812 C 61.722656 127.234375 64.253906 125.425781 65.121094 123.039062 C 65.390625 124.011719 65.253906 125.121094 65.988281 125.894531 C 67.453125 126.867188 68.820312 125.628906 70.019531 124.957031 C 70.886719 125.726562 71.820312 126.398438 73.085938 126.230469 C 73.886719 126.128906 74.28125 125.222656 74.546875 124.585938 C 75.316406 121.429688 74.382812 118.066406 74.417969 114.777344 L 74.984375 115.113281 C 74.78125 114.101562 74.347656 112.992188 73.882812 112.222656 M 69.519531 122.9375 C 69.953125 122.769531 70.851562 122.835938 71.351562 123.101562 L 70.351562 123.574219 Z M 69.519531 122.9375 "/>
<path style=" stroke:none;fill-rule:nonzero;fill:rgb(100%,100%,100%);fill-opacity:1;" d="M 77.378906 108.863281 C 77.082031 108.964844 77.148438 109.300781 77.015625 109.5 L 77.445312 109.398438 C 77.949219 109.9375 76.949219 110.476562 76.816406 110.910156 C 77.445312 110.507812 77.914062 109.871094 77.914062 109.132812 C 77.847656 108.894531 77.613281 108.863281 77.378906 108.863281 "/>
<path style=" stroke:none;fill-rule:nonzero;fill:rgb(100%,100%,100%);fill-opacity:1;" d="M 64.15625 109.464844 C 64.15625 109.230469 63.921875 109.230469 63.757812 109.164062 C 63.453125 109.195312 63.289062 109.53125 63.289062 109.835938 L 63.722656 109.734375 C 64.089844 110.304688 63.222656 110.84375 63.058594 111.246094 C 63.65625 110.84375 64.191406 110.238281 64.15625 109.464844 "/>
<path style=" stroke:none;fill-rule:nonzero;fill:rgb(100%,100%,100%);fill-opacity:1;" d="M 81.378906 111.28125 L 81.8125 111.550781 C 81.847656 111.347656 82.113281 111.179688 81.945312 110.945312 C 81.3125 110.710938 81.976562 110.203125 81.746094 109.734375 C 81.578125 109.097656 81.011719 109.699219 80.746094 109.9375 C 80.277344 110.375 80.746094 110.980469 81.144531 111.214844 C 80.210938 112.152344 79.078125 112.523438 78.082031 113.296875 C 79.3125 112.992188 80.480469 112.390625 81.378906 111.28125 M 80.949219 110.238281 C 81.011719 110.035156 81.414062 109.9375 81.414062 110.273438 L 81.414062 110.476562 C 81.246094 110.574219 81.078125 110.375 80.949219 110.238281 "/>
<path style=" stroke:none;fill-rule:nonzero;fill:rgb(100%,100%,100%);fill-opacity:1;" d="M 84.34375 115.882812 L 84.144531 116.386719 C 85.109375 116.117188 86.007812 115.546875 86.941406 115.34375 C 87.074219 118.265625 87.441406 121.191406 87.375 124.113281 C 88.609375 121.425781 87.640625 118.066406 87.675781 115.175781 L 92.273438 113.328125 L 92.40625 112.925781 C 90.808594 113.597656 89.277344 113.96875 87.675781 114.640625 C 87.472656 113.933594 87.441406 113.128906 87.472656 112.421875 C 87.675781 112.488281 87.839844 112.855469 88.039062 112.789062 C 87.773438 111.78125 87.441406 110.707031 86.941406 109.902344 L 86.539062 111.046875 C 86.808594 112.285156 86.910156 113.632812 86.839844 114.90625 Z M 84.34375 115.882812 "/>
<path style=" stroke:none;fill-rule:nonzero;fill:rgb(100%,100%,100%);fill-opacity:1;" d="M 56.492188 112.320312 C 56.527344 112.527344 56.726562 112.695312 56.957031 112.65625 C 57.324219 112.457031 57.324219 112.019531 57.425781 111.683594 L 56.957031 112.117188 C 56.292969 111.480469 57.027344 110.675781 57.058594 109.9375 C 56.695312 110.644531 56.328125 111.449219 56.492188 112.320312 "/>
<path style=" stroke:none;fill-rule:nonzero;fill:rgb(100%,100%,100%);fill-opacity:1;" d="M 68.753906 112.15625 C 68.820312 112.488281 68.785156 112.960938 69.253906 112.894531 C 69.652344 112.722656 69.621094 112.253906 69.71875 111.917969 C 69.554688 112.085938 69.519531 112.390625 69.253906 112.355469 C 68.6875 111.683594 69.21875 110.878906 69.386719 110.171875 C 69.019531 110.777344 68.820312 111.449219 68.753906 112.15625 "/>
<path style=" stroke:none;fill-rule:nonzero;fill:rgb(100%,100%,100%);fill-opacity:1;" d="M 89.242188 112.457031 C 89.277344 112.691406 89.441406 112.925781 89.742188 112.894531 C 90.074219 112.691406 90.074219 112.253906 90.207031 111.917969 L 89.742188 112.355469 C 89.175781 111.75 89.707031 110.777344 89.808594 110.171875 C 89.410156 110.84375 89.210938 111.617188 89.242188 112.457031 "/>
<path style=" stroke:none;fill-rule:nonzero;fill:rgb(100%,100%,100%);fill-opacity:1;" d="M 75.949219 111.886719 L 75.515625 113.09375 C 75.949219 117.359375 76.28125 121.863281 76.351562 126.097656 C 76.714844 125.355469 76.914062 124.550781 76.949219 123.675781 L 76.449219 114.4375 L 77.015625 114.839844 C 76.75 113.800781 76.414062 112.824219 75.949219 111.886719 "/>
<path style=" stroke:none;fill-rule:nonzero;fill:rgb(100%,100%,100%);fill-opacity:1;" d="M 63.953125 112.15625 C 63.523438 112.925781 63.257812 113.765625 63.257812 114.675781 C 63.324219 114.910156 63.554688 114.910156 63.722656 114.976562 C 64.023438 114.910156 64.355469 114.777344 64.457031 114.441406 C 64.722656 113.867188 64.421875 113.230469 63.921875 112.894531 L 64.121094 112.15625 Z M 64.289062 113.96875 C 64.1875 114.167969 63.953125 114.371094 63.6875 114.335938 L 63.523438 114.335938 C 63.386719 114.070312 63.589844 113.765625 63.6875 113.53125 C 63.886719 113.632812 64.089844 113.800781 64.289062 113.96875 "/>
<path style=" stroke:none;fill-rule:nonzero;fill:rgb(100%,100%,100%);fill-opacity:1;" d="M 95.238281 113.429688 C 94.773438 114.136719 94.40625 114.976562 94.4375 115.949219 C 94.472656 116.253906 94.804688 116.253906 95.039062 116.21875 C 95.4375 116.117188 95.738281 115.714844 95.671875 115.277344 C 95.769531 114.839844 95.46875 114.4375 95.101562 114.203125 C 95.074219 113.902344 95.371094 113.632812 95.238281 113.429688 M 95.472656 115.277344 C 95.371094 115.546875 95.039062 115.648438 94.773438 115.648438 C 94.539062 115.378906 94.773438 115.074219 94.871094 114.839844 C 95.105469 114.910156 95.304688 115.042969 95.472656 115.277344 "/>
<path style=" stroke:none;fill-rule:nonzero;fill:rgb(100%,100%,100%);fill-opacity:1;" d="M 80.980469 114.234375 C 80.679688 113.96875 80.378906 113.730469 79.980469 113.632812 L 79.546875 114.570312 L 80.613281 115.3125 L 81.046875 114.570312 L 82.046875 115.210938 C 82.246094 114.90625 82.476562 114.605469 82.546875 114.234375 C 82.214844 113.898438 81.816406 113.765625 81.480469 113.53125 C 81.3125 113.765625 81.214844 114.136719 80.980469 114.234375 "/>
<path style=" stroke:none;fill-rule:nonzero;fill:rgb(100%,100%,100%);fill-opacity:1;" d="M 65.121094 116.859375 C 66.421875 116.453125 67.820312 115.882812 68.519531 114.539062 C 68.6875 114.671875 68.953125 114.910156 69.152344 114.671875 C 69.585938 115.113281 69.621094 115.78125 69.851562 116.285156 C 70.1875 115.617188 70.152344 114.742188 70.617188 114.136719 L 71.050781 114.40625 C 71.152344 114.304688 71.152344 114.167969 71.21875 114.070312 C 71.152344 113.800781 70.953125 113.496094 70.617188 113.566406 C 70.054688 114.035156 70.1875 114.945312 69.851562 115.347656 C 69.683594 114.777344 69.585938 114 68.855469 113.800781 C 68.054688 115.410156 66.253906 115.949219 65.121094 116.859375 "/>
<path style=" stroke:none;fill-rule:nonzero;fill:rgb(100%,100%,100%);fill-opacity:1;" d="M 55.292969 115.113281 C 56.058594 115.175781 57.089844 114.976562 57.726562 115.347656 C 56.992188 115.949219 56.09375 116.1875 55.425781 116.824219 C 56.824219 116.554688 58.457031 115.785156 58.789062 114.238281 C 58.125 113.867188 57.257812 113.96875 56.425781 113.96875 C 55.757812 113.933594 55.558594 114.640625 55.292969 115.113281 "/>
<path style=" stroke:none;fill-rule:nonzero;fill:rgb(100%,100%,100%);fill-opacity:1;" d="M 91.738281 116.824219 C 91.804688 116.992188 91.972656 117.261719 92.207031 117.160156 C 92.574219 116.957031 92.574219 116.523438 92.707031 116.183594 C 92.539062 116.285156 92.441406 116.621094 92.171875 116.621094 C 91.640625 115.949219 92.238281 115.144531 92.304688 114.441406 C 91.972656 115.179688 91.574219 115.917969 91.738281 116.824219 "/>
<path style=" stroke:none;fill-rule:nonzero;fill:rgb(100%,100%,100%);fill-opacity:1;" d="M 83.242188 115.078125 C 82.777344 116.082031 82.113281 117.089844 81.414062 117.964844 L 80.3125 116.824219 C 80.445312 116.621094 80.714844 116.753906 80.914062 116.722656 L 80.914062 116.621094 C 80.414062 116.253906 79.878906 115.847656 79.347656 115.714844 C 78.550781 117.125 80.414062 117.832031 80.847656 118.941406 C 80.214844 120.046875 79.515625 121.222656 79.78125 122.667969 C 79.878906 123.136719 80.445312 123.304688 80.847656 123.136719 C 81.746094 122.800781 82.847656 122.0625 82.878906 120.917969 C 82.878906 119.910156 82.546875 119.039062 81.847656 118.296875 C 82.476562 117.292969 83.445312 116.320312 83.242188 115.078125 M 82.476562 120.789062 C 81.910156 121.425781 81.148438 121.964844 80.28125 121.796875 C 79.949219 121.527344 80.246094 121.15625 80.3125 120.890625 L 81.28125 119.378906 C 81.8125 119.675781 82.179688 120.28125 82.476562 120.789062 "/>
<path style=" stroke:none;fill-rule:nonzero;fill:rgb(100%,100%,100%);fill-opacity:1;" d="M 89.675781 117.261719 C 89.910156 116.957031 90.042969 116.621094 90.109375 116.285156 C 89.808594 115.953125 89.441406 115.78125 89.042969 115.617188 L 88.609375 116.554688 Z M 89.675781 117.261719 "/>
<path style=" stroke:none;fill-rule:nonzero;fill:rgb(100%,100%,100%);fill-opacity:1;" d="M 66.988281 118.90625 L 72.316406 116.757812 L 72.417969 116.421875 C 70.648438 117.058594 68.886719 117.628906 67.1875 118.367188 Z M 66.988281 118.90625 "/>
<path style=" stroke:none;fill-rule:nonzero;fill:rgb(100%,100%,100%);fill-opacity:1;" d="M 78.148438 119.949219 C 78.613281 119.878906 78.582031 119.34375 78.679688 118.972656 C 78.515625 119.140625 78.480469 119.511719 78.148438 119.410156 C 77.683594 118.738281 78.214844 117.898438 78.316406 117.292969 C 77.914062 117.964844 77.714844 118.738281 77.75 119.578125 C 77.714844 119.746094 77.949219 120.050781 78.148438 119.949219 "/>
<path style=" stroke:none;fill-rule:nonzero;fill:rgb(100%,100%,100%);fill-opacity:1;" d="M 96.503906 121.492188 C 96.535156 120.253906 96.136719 119.039062 95.039062 118.367188 C 94.472656 118.164062 93.972656 118.535156 93.609375 118.972656 C 93.273438 119.445312 93.175781 120.082031 93.242188 120.617188 C 93.671875 121.929688 95.605469 120.753906 96.074219 121.929688 C 94.707031 123.609375 93.007812 124.917969 91.011719 125.320312 C 90.511719 125.289062 89.910156 125.253906 89.578125 124.851562 C 90.308594 124.210938 91.308594 123.609375 91.441406 122.597656 C 92.011719 121.257812 90.910156 120.351562 90.644531 119.277344 L 91.074219 119.375 C 90.675781 118.871094 90.242188 118.332031 89.777344 117.964844 C 89.109375 119.644531 90.875 120.785156 91.210938 122.265625 C 90.609375 123.039062 89.8125 123.472656 89.042969 124.011719 C 88.710938 122.9375 89.277344 121.894531 89.34375 120.957031 C 88.875 121.996094 88.679688 123.136719 88.578125 124.316406 C 87.777344 124.820312 86.878906 125.152344 85.878906 125.289062 C 85.34375 125.324219 84.945312 125.019531 84.578125 124.652344 C 85.28125 124.113281 86.011719 123.441406 86.179688 122.601562 C 86.746094 121.257812 85.613281 120.351562 85.34375 119.277344 L 85.78125 119.378906 C 85.414062 118.871094 84.980469 118.332031 84.515625 117.964844 C 83.8125 119.546875 85.378906 120.652344 85.878906 121.996094 L 85.878906 122.367188 C 85.34375 122.902344 84.746094 123.410156 84.148438 123.675781 C 84.082031 122.636719 84.480469 121.726562 84.550781 120.890625 C 84.082031 121.828125 83.878906 122.90625 83.78125 124.015625 C 82.546875 124.785156 80.847656 125.828125 79.449219 124.785156 C 78.316406 123.746094 79.183594 122.03125 79.285156 120.890625 C 79.082031 121.226562 78.984375 121.628906 78.851562 121.996094 C 78.515625 123.410156 78.285156 125.289062 79.617188 126.296875 C 81.183594 126.902344 82.679688 125.929688 83.980469 125.089844 C 84.183594 125.488281 84.347656 125.894531 84.75 126.199219 C 86.148438 127.003906 87.644531 126.027344 88.878906 125.359375 C 89.078125 125.792969 89.445312 126.132812 89.8125 126.398438 C 91.144531 126.96875 92.378906 126.230469 93.410156 125.527344 C 94.605469 124.449219 96.570312 123.308594 96.503906 121.492188 M 95.238281 120.148438 C 94.804688 119.980469 93.9375 120.351562 93.90625 119.679688 C 94.074219 119.410156 94.472656 119.511719 94.703125 119.578125 C 94.90625 119.679688 95.070312 119.878906 95.238281 120.046875 Z M 95.238281 120.148438 "/>
<path style=" stroke:none;fill-rule:nonzero;fill:rgb(100%,100%,100%);fill-opacity:1;" d="M 57.957031 121.222656 C 58.023438 121.492188 58.125 121.828125 58.492188 121.726562 C 58.789062 121.527344 58.925781 121.15625 58.925781 120.785156 C 58.757812 120.921875 58.726562 121.257812 58.460938 121.222656 C 57.859375 120.550781 58.492188 119.746094 58.589844 119.039062 C 58.226562 119.679688 57.925781 120.382812 57.957031 121.222656 "/>
<path style=" stroke:none;fill-rule:nonzero;fill:rgb(100%,100%,100%);fill-opacity:1;" d="M 55.292969 122.871094 C 55.324219 123.039062 55.492188 123.308594 55.757812 123.207031 C 56.125 123.003906 56.125 122.566406 56.226562 122.230469 C 56.09375 122.332031 55.992188 122.667969 55.726562 122.667969 C 55.191406 121.996094 55.757812 121.191406 55.859375 120.484375 C 55.492188 121.191406 55.125 121.996094 55.292969 122.871094 "/>
<path style=" stroke:none;fill-rule:nonzero;fill:rgb(100%,100%,100%);fill-opacity:1;" d="M 63.621094 120.820312 C 63.65625 120.550781 63.355469 120.417969 63.089844 120.484375 C 62.855469 120.617188 62.726562 120.855469 62.726562 121.125 L 63.160156 121.019531 C 63.523438 121.558594 62.792969 122.03125 62.492188 122.464844 C 62.988281 122.199219 63.589844 121.527344 63.621094 120.820312 "/>
<path style=" stroke:none;fill-rule:nonzero;fill:rgb(100%,100%,100%);fill-opacity:1;" d="M 93.707031 127.371094 L 98.203125 124.113281 L 98.203125 123.574219 L 93.707031 126.933594 Z M 93.707031 127.371094 "/>
<path style=" stroke:none;fill-rule:nonzero;fill:rgb(100%,100%,100%);fill-opacity:1;" d="M 78.113281 125.558594 C 77.847656 125.691406 77.746094 125.925781 77.746094 126.195312 L 78.148438 126.09375 C 78.714844 126.632812 77.648438 127.136719 77.546875 127.605469 C 78.148438 127.234375 78.546875 126.632812 78.648438 125.960938 C 78.679688 125.65625 78.414062 125.488281 78.113281 125.558594 "/>
<path style=" stroke:none;fill-rule:nonzero;fill:rgb(13.72549%,12.156863%,12.54902%);fill-opacity:1;" d="M 51.460938 52.453125 C 50.957031 52.402344 50.90625 51.773438 50.457031 51.667969 C 49.480469 52.160156 49.285156 53.285156 48.851562 54.136719 C 48.730469 54.375 48.484375 54.644531 48.171875 54.574219 C 47.511719 54.132812 47.8125 53.128906 47.777344 52.480469 C 47.515625 53.109375 47.515625 53.980469 47.773438 54.628906 C 47.910156 54.832031 48.066406 55.136719 48.382812 55.105469 C 49.371094 54.5625 49.148438 53.285156 49.984375 52.554688 C 50.683594 51.808594 50.675781 53.253906 51.375 53.136719 C 51.773438 53.105469 52.15625 53.019531 52.433594 52.734375 C 52.363281 53.226562 52.207031 53.90625 52.550781 54.347656 C 53.316406 54.640625 53.804688 53.792969 54.378906 53.519531 C 54.742188 54.527344 53.351562 54.367188 53.28125 55.03125 L 54.273438 54.457031 C 54.359375 54.726562 54.394531 55 54.636719 55.203125 C 54.859375 55.425781 55.242188 55.410156 55.523438 55.34375 C 56.863281 54.734375 58.273438 53.40625 58.574219 51.960938 L 59.773438 51.234375 C 60.070312 51.234375 60.34375 51.574219 60.695312 51.59375 C 61.578125 51.78125 62.277344 51.121094 62.78125 50.488281 L 62.867188 50.933594 C 63.003906 51.203125 63.316406 51.191406 63.597656 51.191406 C 64.082031 51.105469 64.5 50.5625 64.78125 50.257812 C 64.816406 50.457031 64.867188 50.644531 65.023438 50.800781 C 65.195312 50.917969 65.386719 50.871094 65.597656 50.851562 C 65.980469 50.71875 66.101562 50.328125 66.277344 50.035156 C 66.398438 50.273438 66.566406 50.617188 66.878906 50.652344 C 67.226562 50.667969 67.558594 50.46875 67.734375 50.246094 C 67.75 50.804688 67.90625 51.421875 68.371094 51.777344 C 69.207031 51.898438 69.226562 50.914062 69.523438 50.4375 C 69.730469 50.0625 70.0625 49.464844 70.585938 49.539062 C 70.878906 50.167969 71.503906 50.714844 72.234375 50.765625 C 72.765625 50.839844 73.296875 50.878906 73.828125 50.902344 L 73.914062 50.671875 L 73.894531 50.25 C 73.058594 50.203125 72.238281 50.09375 71.453125 49.878906 C 71.074219 49.570312 71.039062 48.992188 70.535156 48.871094 C 69.613281 49.175781 69.4375 50.160156 69.050781 50.878906 C 68.929688 51.117188 68.671875 51.386719 68.355469 51.265625 C 67.890625 50.960938 67.855469 50.347656 67.925781 49.800781 C 68.363281 48.167969 67.882812 46.460938 67.867188 44.792969 L 67.921875 44.742188 C 68.011719 44.792969 68.078125 44.984375 68.199219 44.914062 C 68.082031 44.402344 67.855469 43.925781 67.632812 43.449219 C 67.683594 43.347656 67.578125 43.175781 67.71875 43.109375 C 68.707031 43.980469 69.34375 45.039062 69.761719 46.179688 C 70.210938 47.238281 69.757812 48.34375 69.214844 49.210938 C 69.703125 48.769531 69.964844 48.207031 70.085938 47.597656 C 70.386719 45.449219 69.386719 43.523438 67.597656 42.34375 C 67.371094 42.820312 67.632812 43.347656 67.472656 43.84375 C 67.503906 45.699219 67.792969 47.574219 67.789062 49.496094 L 67.632812 49.753906 C 67.40625 49.921875 67.164062 50.023438 66.847656 49.988281 C 66.554688 49.902344 66.484375 49.578125 66.539062 49.273438 L 66.484375 49.273438 C 66.292969 49.578125 66.085938 49.953125 65.773438 50.140625 C 65.582031 50.226562 65.300781 50.292969 65.128906 50.085938 C 64.957031 49.914062 65.027344 49.695312 65.078125 49.488281 C 64.695312 49.796875 64.398438 50.355469 63.894531 50.476562 C 63.632812 50.558594 63.285156 50.558594 63.078125 50.371094 C 62.921875 50.199219 63.027344 49.996094 63.027344 49.789062 C 62.695312 49.945312 62.46875 50.335938 62.15625 50.589844 C 61.6875 50.914062 60.9375 51.132812 60.453125 50.789062 C 60.851562 50.449219 61.445312 50.335938 61.53125 49.738281 C 60.839844 49.277344 59.832031 49.445312 59.097656 49.679688 C 58.597656 49.78125 58.210938 50.171875 58.175781 50.683594 C 58.332031 50.597656 58.472656 50.515625 58.660156 50.515625 C 58.976562 50.464844 59.21875 50.671875 59.445312 50.859375 L 58.488281 51.402344 C 58.332031 51.179688 58.210938 50.90625 57.949219 50.785156 C 57.726562 50.683594 57.429688 50.734375 57.273438 50.917969 C 57.011719 51.242188 56.765625 51.613281 56.871094 52.058594 C 57.164062 52.535156 57.84375 52.179688 58.242188 52.128906 L 58.257812 52.351562 C 57.492188 53.421875 56.394531 54.679688 54.988281 54.726562 C 54.796875 54.660156 54.570312 54.503906 54.5 54.300781 C 54.988281 53.960938 55.527344 53.742188 56.015625 53.417969 L 56.121094 53.199219 C 55.597656 53.453125 55.09375 53.757812 54.589844 54.0625 L 54.464844 54.0625 L 54.503906 53.414062 C 55.027344 52.855469 55.703125 52.398438 56.191406 51.785156 C 56.351562 51.359375 56.472656 50.746094 56.09375 50.386719 C 55.449219 50.078125 54.667969 50.09375 54.113281 49.617188 C 54.234375 49.550781 54.425781 49.566406 54.480469 49.449219 C 54.167969 49.308594 53.800781 49.207031 53.472656 49.207031 L 53.472656 49.667969 C 53.953125 50.433594 54.910156 50.675781 55.746094 50.898438 C 55.902344 50.984375 56.160156 51.015625 56.195312 51.238281 C 55.253906 52.175781 54.226562 53.109375 53.113281 53.734375 C 52.921875 53.804688 52.730469 53.785156 52.59375 53.632812 C 52.4375 52.984375 52.558594 52.234375 53.171875 51.828125 C 53.222656 52.015625 53.082031 52.238281 53.082031 52.390625 C 53.289062 52.101562 53.394531 51.796875 53.429688 51.453125 C 53.464844 51.335938 53.414062 51.179688 53.292969 51.179688 C 52.714844 51.570312 52.3125 52.558594 51.460938 52.453125 M 60.574219 50.128906 L 60.050781 50.46875 L 59.546875 50.175781 C 59.859375 50.089844 60.242188 50.023438 60.574219 50.128906 M 57.234375 51.632812 L 57.214844 51.480469 C 57.40625 51.292969 57.71875 51.3125 57.890625 51.570312 C 57.703125 51.667969 57.460938 51.6875 57.234375 51.632812 "/>
<path style=" stroke:none;fill-rule:nonzero;fill:rgb(13.72549%,12.156863%,12.54902%);fill-opacity:1;" d="M 76.03125 50.835938 C 77.25 50.707031 78.433594 50.429688 79.53125 50.003906 C 79.601562 50.171875 79.617188 50.378906 79.703125 50.53125 C 79.855469 50.855469 80.167969 50.960938 80.519531 50.925781 C 80.726562 50.875 80.867188 50.671875 80.953125 50.5 C 81.128906 50.058594 81.097656 49.445312 80.820312 49.089844 C 80.765625 49.242188 80.714844 49.394531 80.660156 49.53125 C 80.609375 49.804688 80.972656 50.023438 80.726562 50.246094 C 80.535156 50.3125 80.222656 50.328125 80.035156 50.191406 C 79.792969 49.988281 79.84375 49.613281 79.84375 49.359375 C 78.664062 49.785156 77.339844 50.082031 75.992188 50.210938 L 75.96875 50.675781 Z M 76.03125 50.835938 "/>
<path style=" stroke:none;fill-rule:nonzero;fill:rgb(13.72549%,12.156863%,12.54902%);fill-opacity:1;" d="M 89.484375 44.917969 C 89.605469 44.902344 89.746094 44.816406 89.761719 44.683594 C 89.882812 44.359375 89.695312 44.101562 89.46875 43.894531 L 89.554688 43.558594 C 89.222656 43.757812 89.191406 44.269531 89.101562 44.679688 C 89.101562 44.847656 89.308594 44.96875 89.484375 44.917969 M 89.328125 44.21875 C 89.449219 44.269531 89.585938 44.355469 89.65625 44.476562 C 89.605469 44.59375 89.433594 44.679688 89.277344 44.609375 C 89.171875 44.492188 89.292969 44.339844 89.328125 44.21875 "/>
<path style=" stroke:none;fill-rule:nonzero;fill:rgb(13.72549%,12.156863%,12.54902%);fill-opacity:1;" d="M 62.792969 44.664062 C 62.914062 44.359375 62.8125 44 62.515625 43.828125 C 62.550781 43.710938 62.65625 43.574219 62.621094 43.488281 C 62.484375 43.558594 62.464844 43.726562 62.394531 43.847656 C 62.289062 44.1875 62.011719 44.695312 62.339844 44.953125 C 62.515625 44.9375 62.6875 44.820312 62.792969 44.664062 M 62.394531 44.222656 C 62.53125 44.222656 62.636719 44.308594 62.742188 44.410156 C 62.636719 44.527344 62.496094 44.628906 62.339844 44.628906 C 62.269531 44.496094 62.320312 44.339844 62.394531 44.222656 "/>
<path style=" stroke:none;fill-rule:nonzero;fill:rgb(13.72549%,12.156863%,12.54902%);fill-opacity:1;" d="M 87.585938 45.304688 C 87.761719 45.234375 87.796875 45.015625 87.832031 44.84375 C 87.78125 44.910156 87.691406 45.046875 87.589844 45.03125 C 87.292969 44.707031 87.574219 44.230469 87.628906 43.941406 C 87.488281 44.265625 87.277344 44.570312 87.328125 44.964844 C 87.328125 45.132812 87.398438 45.269531 87.585938 45.304688 "/>
<path style=" stroke:none;fill-rule:nonzero;fill:rgb(13.72549%,12.156863%,12.54902%);fill-opacity:1;" d="M 92.4375 45.351562 C 92.574219 45.234375 92.574219 45.078125 92.628906 44.925781 L 92.402344 45.097656 C 92.019531 44.804688 92.402344 44.347656 92.4375 44.007812 C 92.246094 44.328125 92.054688 44.703125 92.140625 45.128906 C 92.140625 45.265625 92.296875 45.382812 92.4375 45.351562 "/>
<path style=" stroke:none;fill-rule:nonzero;fill:rgb(13.72549%,12.156863%,12.54902%);fill-opacity:1;" d="M 83.800781 45.5 C 83.953125 45.398438 84.027344 45.210938 84.027344 45.023438 C 83.972656 45.109375 83.882812 45.242188 83.78125 45.226562 C 83.503906 44.886719 83.765625 44.460938 83.855469 44.121094 C 83.660156 44.445312 83.488281 44.785156 83.519531 45.210938 C 83.554688 45.34375 83.625 45.5 83.800781 45.5 "/>
<path style=" stroke:none;fill-rule:nonzero;fill:rgb(13.72549%,12.156863%,12.54902%);fill-opacity:1;" d="M 60.550781 45.664062 C 60.777344 45.5625 60.808594 45.324219 60.863281 45.121094 C 60.777344 45.1875 60.722656 45.390625 60.550781 45.375 C 60.359375 45.035156 60.585938 44.609375 60.65625 44.269531 C 60.515625 44.609375 60.324219 44.929688 60.324219 45.339844 C 60.355469 45.460938 60.355469 45.699219 60.550781 45.664062 "/>
<path style=" stroke:none;fill-rule:nonzero;fill:rgb(13.72549%,12.156863%,12.54902%);fill-opacity:1;" d="M 82.539062 49.191406 C 82.46875 49.378906 82.3125 49.566406 82.347656 49.753906 L 82.574219 49.703125 C 83.027344 49.636719 83.300781 49.992188 83.597656 50.285156 C 82.992188 50.535156 82.328125 50.621094 81.71875 50.859375 C 80.609375 50.972656 80.238281 52.640625 79.039062 52.453125 C 78.226562 51.835938 79.042969 50.902344 79.113281 50.238281 C 78.800781 50.714844 78.574219 51.226562 78.539062 51.804688 C 78.5 52.28125 78.726562 52.707031 79.125 52.945312 C 79.960938 53.238281 80.324219 52.285156 80.933594 51.894531 C 81.839844 51.214844 82.988281 51.117188 84.011719 50.746094 C 84.464844 51.273438 85.035156 51.617188 85.714844 51.550781 C 86.011719 51.464844 86.183594 51.160156 86.324219 50.921875 C 86.761719 49.355469 86.230469 47.714844 86.300781 46.117188 C 87.027344 47.328125 87.980469 48.4375 88.097656 49.902344 C 88.0625 50.617188 87.488281 51.210938 86.894531 51.601562 L 86.898438 50.546875 L 86.792969 50.800781 C 86.652344 51.277344 86.824219 51.976562 86.234375 52.164062 C 86.40625 52.144531 86.546875 52.042969 86.6875 51.976562 C 86.773438 52.011719 86.738281 52.09375 86.738281 52.148438 C 86.910156 52.660156 87.011719 53.441406 87.707031 53.476562 C 88.421875 53.035156 88.335938 52.136719 89.050781 51.660156 C 89.203125 51.589844 89.449219 51.488281 89.585938 51.660156 C 89.898438 52.257812 90.332031 53.058594 91.164062 52.992188 C 91.425781 52.941406 91.707031 52.773438 91.84375 52.535156 C 92.089844 52.175781 91.914062 51.683594 91.8125 51.359375 C 92.507812 51.957031 93.042969 53.132812 94.121094 52.949219 C 94.5 52.847656 94.570312 52.457031 94.679688 52.148438 L 94.765625 52.609375 C 95.074219 53.496094 96.0625 54.128906 96.914062 54.300781 L 96.96875 53.894531 C 96.933594 53.691406 96.671875 53.605469 96.515625 53.5 C 96.238281 53.230469 95.753906 53.074219 95.703125 52.679688 L 97.074219 52.445312 C 97.230469 52.785156 97.527344 53.144531 97.835938 53.351562 C 98.046875 53.4375 98.359375 53.539062 98.464844 53.25 C 98.605469 52.808594 98.589844 52.261719 98.207031 51.9375 C 97.945312 51.765625 97.617188 51.714844 97.300781 51.78125 C 97.078125 51.117188 96.992188 50.367188 96.996094 49.652344 L 98.300781 49.535156 C 98.421875 49.550781 98.492188 49.382812 98.457031 49.3125 L 96.980469 49.445312 C 96.894531 48.628906 96.828125 47.691406 96.863281 46.824219 L 97.15625 47.097656 C 97.054688 46.53125 96.796875 46.023438 96.605469 45.476562 C 96.519531 45.511719 96.484375 45.695312 96.414062 45.816406 C 96.515625 46.992188 96.476562 48.269531 96.628906 49.445312 C 96.316406 49.613281 95.726562 49.390625 95.65625 49.816406 L 96.628906 49.71875 C 96.75 50.417969 96.765625 51.183594 96.902344 51.847656 L 95.945312 52.046875 C 95.617188 52.132812 95.457031 52.488281 95.386719 52.761719 L 95.320312 52.675781 C 94.574219 50.988281 94.914062 48.84375 94.65625 46.9375 C 94.550781 46.324219 94.484375 45.605469 94.242188 45.128906 L 94.101562 45.574219 C 94.425781 47.601562 94.507812 49.730469 94.488281 51.890625 C 94.488281 52.097656 94.292969 52.230469 94.121094 52.316406 C 93.773438 52.417969 93.476562 52.246094 93.21875 52.09375 C 91.761719 50.625 90.183594 49.035156 88.621094 47.789062 C 89.824219 47.128906 91.195312 46.875 92.554688 46.589844 C 92.953125 46.589844 93.527344 46.402344 93.734375 46.796875 C 93.367188 47.238281 92.757812 47.59375 92.707031 48.191406 C 93.054688 47.492188 94.046875 47.203125 94.015625 46.355469 C 93.839844 45.929688 93.234375 46.046875 92.832031 46.0625 C 91.371094 46.3125 89.878906 46.53125 88.625 47.292969 C 88.484375 47.585938 88.464844 47.957031 88.5 48.285156 L 90.929688 50.691406 C 91.292969 51.117188 91.691406 51.542969 91.792969 52.085938 C 91.566406 52.292969 91.289062 52.375 90.960938 52.324219 C 90.195312 52.273438 90.09375 51.421875 89.625 50.976562 C 88.683594 50.871094 88.421875 51.960938 88.054688 52.539062 C 87.953125 52.726562 87.761719 53.03125 87.464844 52.929688 C 87.011719 52.773438 86.945312 52.28125 86.894531 51.871094 C 87.398438 51.550781 87.992188 51.125 88.214844 50.546875 C 88.742188 48.503906 87.253906 46.917969 86.371094 45.246094 C 86.144531 44.992188 86.164062 44.5625 85.882812 44.390625 C 85.78125 44.648438 85.605469 44.988281 85.847656 45.226562 C 85.964844 46.980469 86.136719 48.703125 86.167969 50.472656 C 86.148438 50.625 86.113281 50.796875 85.941406 50.847656 C 85.453125 51.035156 84.914062 50.84375 84.585938 50.523438 C 84.984375 50.316406 85.609375 50.371094 85.664062 49.789062 C 85.386719 49.519531 85.054688 49.3125 84.691406 49.195312 C 84.050781 49.007812 83.167969 48.90625 82.539062 49.191406 M 98.167969 52.6875 L 98.167969 52.773438 C 97.941406 52.757812 97.734375 52.621094 97.597656 52.414062 C 97.824219 52.414062 98.050781 52.515625 98.167969 52.6875 M 84.691406 49.894531 L 84.167969 50.082031 L 83.683594 49.640625 C 84.050781 49.65625 84.398438 49.691406 84.691406 49.894531 "/>
<path style=" stroke:none;fill-rule:nonzero;fill:rgb(13.72549%,12.156863%,12.54902%);fill-opacity:1;" d="M 64.078125 45.503906 C 63.609375 46.011719 63 46.300781 62.507812 46.742188 C 63.136719 46.46875 63.761719 46.113281 64.214844 45.519531 L 64.4375 45.621094 C 64.457031 45.519531 64.613281 45.402344 64.492188 45.296875 C 64.234375 45.265625 64.441406 45.027344 64.40625 44.890625 C 64.511719 44.378906 63.957031 44.683594 63.867188 44.90625 C 63.660156 45.128906 63.886719 45.417969 64.078125 45.503906 M 64.234375 45.011719 L 64.21875 45.164062 C 64.128906 45.128906 64.042969 45.078125 63.992188 45.007812 C 64.007812 44.921875 64.253906 44.820312 64.234375 45.011719 "/>
<path style=" stroke:none;fill-rule:nonzero;fill:rgb(13.72549%,12.156863%,12.54902%);fill-opacity:1;" d="M 98.238281 46.25 C 98.414062 45.894531 98.171875 45.570312 97.964844 45.3125 C 97.996094 45.214844 98.101562 45.089844 98.070312 44.988281 C 97.753906 45.3125 97.492188 45.855469 97.71875 46.320312 C 97.871094 46.386719 98.113281 46.4375 98.238281 46.25 M 97.839844 45.652344 C 97.980469 45.722656 98.136719 45.859375 98.167969 45.996094 C 98.046875 46.046875 97.90625 46.097656 97.789062 46.046875 C 97.683594 45.925781 97.789062 45.773438 97.839844 45.652344 "/>
<path style=" stroke:none;fill-rule:nonzero;fill:rgb(13.72549%,12.156863%,12.54902%);fill-opacity:1;" d="M 95.09375 45.492188 C 95.269531 45.75 95.335938 46.039062 95.40625 46.328125 C 95.28125 46.429688 95.195312 46.566406 95.230469 46.753906 C 95.28125 46.703125 95.476562 46.585938 95.558594 46.753906 L 95.210938 46.890625 C 95.089844 47.585938 95.417969 48.304688 95.398438 49.003906 C 95.503906 48.390625 95.367188 47.757812 95.226562 47.164062 C 95.417969 47.0625 95.664062 47.078125 95.890625 47.042969 C 96.117188 46.738281 95.664062 46.5 95.507812 46.3125 L 95.71875 45.546875 C 95.804688 45.238281 95.980469 45.546875 96.082031 45.601562 L 96.117188 45.582031 C 96.1875 45.429688 96.101562 45.277344 95.980469 45.15625 C 95.527344 45.101562 95.648438 45.699219 95.492188 45.972656 C 95.351562 45.632812 95.320312 45.171875 94.902344 45.019531 L 94.726562 45.273438 C 94.816406 45.375 94.9375 45.578125 95.09375 45.492188 "/>
<path style=" stroke:none;fill-rule:nonzero;fill:rgb(13.72549%,12.156863%,12.54902%);fill-opacity:1;" d="M 66.039062 46.410156 C 66.226562 46.308594 66.265625 46.085938 66.316406 45.898438 C 66.230469 45.949219 66.195312 46.15625 66.039062 46.121094 C 65.796875 45.796875 66.058594 45.335938 66.109375 45.03125 C 65.933594 45.386719 65.78125 45.746094 65.8125 46.1875 C 65.832031 46.292969 65.898438 46.429688 66.039062 46.410156 "/>
<path style=" stroke:none;fill-rule:nonzero;fill:rgb(13.72549%,12.156863%,12.54902%);fill-opacity:1;" d="M 91.0625 45.089844 C 90.144531 45.257812 89.183594 45.34375 88.300781 45.582031 L 88.246094 45.800781 L 91.011719 45.261719 Z M 91.0625 45.089844 "/>
<path style=" stroke:none;fill-rule:nonzero;fill:rgb(13.72549%,12.156863%,12.54902%);fill-opacity:1;" d="M 80.148438 46.445312 L 82.894531 45.683594 L 82.984375 45.496094 C 82.410156 45.632812 81.835938 45.769531 81.277344 45.902344 C 80.914062 46.105469 80.269531 45.96875 80.148438 46.445312 "/>
<path style=" stroke:none;fill-rule:nonzero;fill:rgb(13.72549%,12.156863%,12.54902%);fill-opacity:1;" d="M 61.488281 46.160156 L 61.660156 46.28125 C 61.730469 46.210938 61.730469 46.109375 61.730469 46.007812 L 61.609375 45.851562 C 61.140625 45.96875 61.242188 46.515625 61.085938 46.855469 C 61.015625 46.617188 60.949219 46.398438 60.757812 46.191406 C 60.671875 46.15625 60.535156 46.054688 60.460938 46.191406 C 60.394531 46.308594 60.238281 46.460938 60.425781 46.566406 C 60.511719 46.617188 60.621094 46.617188 60.6875 46.550781 C 60.894531 46.773438 61 47.0625 60.980469 47.351562 C 60.511719 47.929688 59.796875 48.316406 59.292969 48.777344 C 59.746094 48.554688 60.195312 48.351562 60.582031 47.996094 C 61.222656 47.523438 61.066406 46.703125 61.488281 46.160156 "/>
<path style=" stroke:none;fill-rule:nonzero;fill:rgb(13.72549%,12.156863%,12.54902%);fill-opacity:1;" d="M 51.980469 46.714844 C 51.894531 46.785156 51.824219 46.988281 51.664062 46.988281 C 51.476562 46.648438 51.703125 46.238281 51.773438 45.878906 C 51.5625 46.289062 51.339844 46.847656 51.578125 47.277344 C 51.890625 47.277344 51.890625 46.921875 51.980469 46.714844 "/>
<path style=" stroke:none;fill-rule:nonzero;fill:rgb(13.72549%,12.156863%,12.54902%);fill-opacity:1;" d="M 81.796875 47.011719 L 84.582031 46.300781 L 84.632812 46.132812 C 83.691406 46.320312 82.785156 46.535156 81.902344 46.789062 Z M 81.796875 47.011719 "/>
<path style=" stroke:none;fill-rule:nonzero;fill:rgb(13.72549%,12.156863%,12.54902%);fill-opacity:1;" d="M 58.632812 47.210938 L 58.808594 47.277344 C 59.207031 46.957031 58.441406 46.921875 58.777344 46.566406 C 58.777344 46.445312 58.808594 46.257812 58.636719 46.273438 C 58.394531 46.375 58.148438 46.632812 58.148438 46.902344 C 58.183594 47.054688 58.359375 47.089844 58.445312 47.175781 C 58.007812 47.738281 57.3125 48.058594 56.894531 48.515625 C 57.535156 48.246094 58.164062 47.753906 58.632812 47.210938 M 58.359375 46.714844 C 58.375 46.597656 58.601562 46.511719 58.601562 46.683594 L 58.585938 46.835938 C 58.496094 46.820312 58.425781 46.765625 58.359375 46.714844 "/>
<path style=" stroke:none;fill-rule:nonzero;fill:rgb(13.72549%,12.156863%,12.54902%);fill-opacity:1;" d="M 69.128906 47.917969 C 69.25 47.765625 69.355469 47.59375 69.386719 47.40625 C 69.320312 47.304688 69.214844 47.289062 69.128906 47.238281 C 68.660156 47.117188 69.214844 46.84375 69.128906 46.621094 L 68.589844 46.296875 L 68.328125 46.808594 L 68.589844 46.960938 C 69.023438 47.050781 68.605469 47.371094 68.585938 47.574219 Z M 69.128906 47.917969 "/>
<path style=" stroke:none;fill-rule:nonzero;fill:rgb(13.72549%,12.156863%,12.54902%);fill-opacity:1;" d="M 55.003906 47.066406 C 55.089844 47.152344 55.246094 47.183594 55.347656 47.101562 C 55.539062 47.304688 55.609375 47.578125 55.675781 47.832031 C 55.902344 47.507812 55.835938 47.066406 56.027344 46.726562 C 56.097656 46.574219 56.21875 46.710938 56.304688 46.761719 C 56.390625 46.675781 56.375 46.574219 56.375 46.453125 C 56.324219 46.386719 56.257812 46.351562 56.167969 46.335938 C 55.804688 46.539062 55.855469 47 55.75 47.339844 C 55.660156 47.355469 55.679688 47.203125 55.644531 47.117188 C 55.558594 46.929688 55.4375 46.675781 55.175781 46.675781 C 54.792969 47.507812 53.871094 48.035156 53.191406 48.628906 C 53.886719 48.324219 54.652344 47.78125 55.003906 47.066406 "/>
<path style=" stroke:none;fill-rule:nonzero;fill:rgb(13.72549%,12.156863%,12.54902%);fill-opacity:1;" d="M 47.679688 49.976562 C 48.113281 49.703125 48.550781 49.433594 48.933594 49.058594 C 49.558594 48.566406 49.527344 47.800781 49.789062 47.15625 C 49.839844 47.070312 49.945312 47.070312 49.996094 47.15625 C 50.136719 47.242188 50.121094 47.019531 50.136719 46.9375 C 50.105469 46.847656 50.050781 46.816406 49.964844 46.765625 C 49.566406 46.984375 49.632812 47.515625 49.476562 47.835938 C 49.441406 47.613281 49.355469 47.390625 49.164062 47.222656 L 48.867188 47.222656 C 48.867188 47.359375 48.644531 47.460938 48.796875 47.59375 C 48.867188 47.664062 49.058594 47.695312 49.09375 47.578125 C 49.246094 47.800781 49.40625 48.023438 49.421875 48.3125 C 48.933594 48.941406 48.253906 49.433594 47.679688 49.976562 "/>
<path style=" stroke:none;fill-rule:nonzero;fill:rgb(13.72549%,12.156863%,12.54902%);fill-opacity:1;" d="M 64.507812 47.035156 C 64.296875 47.289062 64.695312 47.667969 64.347656 47.871094 C 63.878906 47.953125 64.226562 47.394531 64.054688 47.1875 L 63.929688 47.339844 C 63.964844 47.527344 63.964844 47.75 64 48.007812 C 64.019531 48.078125 64.105469 48.210938 64.226562 48.175781 C 64.398438 48.128906 64.488281 48.007812 64.558594 47.855469 L 64.695312 48.027344 C 64.78125 48.007812 64.90625 48.058594 64.957031 47.972656 C 65.269531 47.652344 64.90625 47.292969 64.890625 46.953125 C 64.695312 47.207031 64.90625 47.464844 64.972656 47.703125 C 64.46875 47.992188 64.734375 47.207031 64.507812 47.035156 "/>
<path style=" stroke:none;fill-rule:nonzero;fill:rgb(13.72549%,12.156863%,12.54902%);fill-opacity:1;" d="M 53.003906 46.976562 C 52.046875 47.449219 51.160156 48.042969 50.238281 48.601562 L 50.167969 48.875 L 52.867188 47.214844 Z M 53.003906 46.976562 "/>
<path style=" stroke:none;fill-rule:nonzero;fill:rgb(13.72549%,12.156863%,12.54902%);fill-opacity:1;" d="M 99.417969 53.40625 L 99.132812 48.671875 L 99.1875 48.621094 L 99.464844 48.925781 C 99.328125 48.347656 99.136719 47.785156 98.878906 47.273438 L 98.683594 47.765625 C 98.890625 50 99.074219 52.316406 99.085938 54.53125 C 99.3125 54.207031 99.382812 53.8125 99.417969 53.40625 "/>
<path style=" stroke:none;fill-rule:nonzero;fill:rgb(13.72549%,12.156863%,12.54902%);fill-opacity:1;" d="M 81.324219 48.558594 C 81.34375 48.679688 81.464844 48.78125 81.582031 48.78125 C 81.757812 48.679688 81.792969 48.492188 81.8125 48.304688 C 81.757812 48.390625 81.671875 48.542969 81.550781 48.507812 C 81.308594 48.167969 81.550781 47.726562 81.621094 47.4375 C 81.414062 47.757812 81.308594 48.132812 81.324219 48.558594 "/>
<path style=" stroke:none;fill-rule:nonzero;fill:rgb(13.72549%,12.156863%,12.54902%);fill-opacity:1;" d="M 97.726562 48.835938 C 97.882812 48.753906 97.953125 48.582031 97.953125 48.394531 C 97.902344 48.496094 97.816406 48.5625 97.710938 48.5625 C 97.414062 48.238281 97.710938 47.78125 97.765625 47.492188 C 97.554688 47.8125 97.433594 48.15625 97.449219 48.5625 C 97.484375 48.699219 97.589844 48.820312 97.726562 48.835938 "/>
<path style=" stroke:none;fill-rule:nonzero;fill:rgb(13.72549%,12.156863%,12.54902%);fill-opacity:1;" d="M 91.175781 48.160156 C 91.265625 48.210938 91.195312 48.34375 91.332031 48.328125 C 91.402344 48.3125 91.523438 48.277344 91.472656 48.160156 C 91.402344 47.988281 91.195312 47.9375 91.023438 47.867188 C 90.710938 47.800781 90.203125 47.746094 89.996094 48.019531 C 90.21875 48.53125 90.984375 48.703125 91.054688 49.265625 C 90.535156 48.871094 89.875 48.515625 89.527344 47.984375 C 89.472656 48.71875 90.359375 49.027344 90.84375 49.382812 C 90.984375 49.417969 91.175781 49.382812 91.28125 49.214844 C 91.351562 48.585938 90.5 48.496094 90.277344 47.96875 C 90.570312 47.882812 90.917969 48.019531 91.175781 48.160156 "/>
<path style=" stroke:none;fill-rule:nonzero;fill:rgb(13.72549%,12.156863%,12.54902%);fill-opacity:1;" d="M 62.296875 49.09375 C 62.296875 49.226562 62.382812 49.382812 62.554688 49.347656 C 62.710938 49.246094 62.78125 48.921875 62.78125 48.855469 C 62.695312 48.921875 62.660156 49.09375 62.519531 49.074219 C 62.277344 48.71875 62.539062 48.277344 62.609375 47.96875 C 62.4375 48.324219 62.261719 48.667969 62.296875 49.09375 "/>
<path style=" stroke:none;fill-rule:nonzero;fill:rgb(13.72549%,12.156863%,12.54902%);fill-opacity:1;" d="M 87.042969 48.46875 L 86.8125 48.929688 L 87.265625 49.320312 L 87.039062 49.746094 C 87.226562 49.902344 87.421875 50.089844 87.609375 50.207031 C 87.714844 50.070312 87.820312 49.917969 87.839844 49.75 C 87.734375 49.613281 87.558594 49.511719 87.421875 49.371094 C 87.40625 49.273438 87.507812 49.21875 87.542969 49.136719 C 87.738281 48.8125 87.230469 48.640625 87.042969 48.46875 "/>
<path style=" stroke:none;fill-rule:nonzero;fill:rgb(13.72549%,12.156863%,12.54902%);fill-opacity:1;" d="M 51.242188 49.371094 C 51.171875 49.457031 51.03125 49.574219 51.117188 49.679688 C 51.292969 49.847656 51.066406 50.1875 51.308594 50.324219 C 51.554688 50.339844 51.675781 50.105469 51.761719 49.953125 L 51.882812 50.105469 C 52.023438 50.140625 52.128906 50.070312 52.195312 49.953125 C 52.371094 49.644531 52.164062 49.289062 52.058594 49.015625 C 51.796875 49.320312 52.265625 49.578125 52.09375 49.832031 C 51.640625 49.882812 51.9375 49.355469 51.746094 49.167969 C 51.414062 49.355469 51.972656 49.796875 51.515625 50.035156 C 51.066406 50.070312 51.453125 49.527344 51.242188 49.371094 "/>
<path style=" stroke:none;fill-rule:nonzero;fill:rgb(13.72549%,12.156863%,12.54902%);fill-opacity:1;" d="M 92.769531 50.527344 C 92.785156 50.699219 92.839844 50.902344 93.066406 50.886719 C 93.222656 50.804688 93.257812 50.632812 93.277344 50.480469 L 93.066406 50.652344 C 92.703125 50.359375 93.015625 49.882812 93.101562 49.546875 C 92.875 49.832031 92.804688 50.171875 92.769531 50.527344 "/>
<path style=" stroke:none;fill-rule:nonzero;fill:rgb(13.72549%,12.156863%,12.54902%);fill-opacity:1;" d="M 95.375 51.148438 C 95.410156 51.234375 95.515625 51.367188 95.617188 51.367188 C 95.824219 51.300781 95.828125 51.03125 95.84375 50.925781 C 95.792969 50.996094 95.742188 51.113281 95.617188 51.097656 C 95.273438 50.753906 95.636719 50.347656 95.671875 49.992188 C 95.464844 50.332031 95.308594 50.722656 95.375 51.148438 "/>
<path style=" stroke:none;fill-rule:nonzero;fill:rgb(13.72549%,12.156863%,12.54902%);fill-opacity:1;" d="M 49.207031 50.761719 C 49.378906 50.816406 49.570312 50.953125 49.710938 50.933594 C 49.796875 50.746094 49.953125 50.597656 49.9375 50.375 L 49.414062 50.167969 L 49.1875 50.59375 L 48.632812 50.421875 L 48.40625 50.984375 L 48.925781 51.207031 C 49.066406 51.070312 49.050781 50.863281 49.207031 50.761719 "/>
<path style=" stroke:none;fill-rule:nonzero;fill:rgb(13.72549%,12.156863%,12.54902%);fill-opacity:1;" d="M 47.585938 52.292969 C 47.828125 52.207031 47.882812 51.867188 47.882812 51.730469 C 47.847656 51.847656 47.742188 51.96875 47.621094 52.003906 C 47.398438 51.660156 47.625 51.21875 47.726562 50.878906 C 47.554688 51.253906 47.359375 51.625 47.398438 52.101562 C 47.414062 52.191406 47.464844 52.308594 47.585938 52.292969 "/>
<path style=" stroke:none;fill-rule:nonzero;fill:rgb(13.72549%,12.156863%,12.54902%);fill-opacity:1;" d="M 79.890625 51.535156 C 80.015625 51.246094 79.5625 51.128906 79.390625 50.953125 L 79.128906 51.449219 L 79.578125 51.789062 C 79.753906 51.925781 79.785156 51.621094 79.890625 51.535156 "/>
<path style=" stroke:none;fill-rule:nonzero;fill:rgb(13.72549%,12.156863%,12.54902%);fill-opacity:1;" d="M 65.367188 51.6875 L 65.347656 51.484375 L 65.070312 51.824219 C 64.011719 51.582031 63.679688 52.890625 62.894531 53.300781 C 63.3125 53.230469 63.554688 52.789062 63.871094 52.519531 C 64.203125 51.925781 64.878906 52.382812 65.242188 51.910156 C 65.367188 51.996094 65.59375 51.964844 65.679688 51.828125 C 65.714844 51.691406 65.820312 51.453125 65.679688 51.332031 C 65.628906 51.417969 65.558594 51.535156 65.628906 51.640625 C 65.574219 51.722656 65.453125 51.671875 65.367188 51.6875 "/>
<path style=" stroke:none;fill-rule:nonzero;fill:rgb(13.72549%,12.156863%,12.54902%);fill-opacity:1;" d="M 66.355469 52.609375 C 66.355469 52.710938 66.457031 52.78125 66.542969 52.78125 C 66.75 52.710938 66.820312 52.421875 66.820312 52.269531 C 66.789062 52.371094 66.683594 52.492188 66.5625 52.492188 C 66.285156 52.164062 66.613281 51.757812 66.648438 51.382812 C 66.476562 51.757812 66.25 52.167969 66.355469 52.609375 "/>
<path style=" stroke:none;fill-rule:nonzero;fill:rgb(13.72549%,12.156863%,12.54902%);fill-opacity:1;" d="M 83.5 53.367188 C 83.882812 53.488281 84.371094 53.46875 84.667969 53.199219 C 84.285156 53.199219 83.78125 53.332031 83.484375 53.078125 C 83.433594 52.566406 84.234375 52.414062 84.285156 51.953125 C 84.078125 52.039062 83.800781 52.3125 83.59375 51.988281 L 83.644531 51.871094 C 83.695312 51.714844 83.886719 51.765625 83.902344 51.902344 C 83.957031 51.816406 84.027344 51.765625 84.042969 51.683594 C 84.042969 51.582031 83.921875 51.53125 83.835938 51.546875 C 83.644531 51.683594 83.382812 51.886719 83.382812 52.140625 C 83.433594 52.261719 83.519531 52.328125 83.640625 52.414062 L 83.414062 52.773438 C 83.347656 52.941406 83.277344 53.25 83.5 53.367188 "/>
<path style=" stroke:none;fill-rule:nonzero;fill:rgb(13.72549%,12.156863%,12.54902%);fill-opacity:1;" d="M 67.738281 53.039062 L 70.527344 51.820312 L 70.542969 51.648438 L 67.8125 52.785156 Z M 67.738281 53.039062 "/>
<path style=" stroke:none;fill-rule:nonzero;fill:rgb(13.72549%,12.156863%,12.54902%);fill-opacity:1;" d="M 77.335938 52.296875 L 76.78125 51.957031 L 76.554688 52.449219 L 77.109375 52.808594 L 77.335938 52.46875 C 77.507812 52.585938 77.683594 52.726562 77.855469 52.847656 L 78.027344 52.574219 C 78.273438 52.199219 77.71875 52.164062 77.5625 51.957031 Z M 77.335938 52.296875 "/>
<path style=" stroke:none;fill-rule:nonzero;fill:rgb(13.72549%,12.156863%,12.54902%);fill-opacity:1;" d="M 59.957031 53.921875 C 60.324219 53.890625 60.757812 53.671875 60.894531 53.433594 C 60.53125 53.550781 60.144531 53.820312 59.730469 53.597656 C 59.75 53.039062 60.550781 52.816406 60.53125 52.257812 L 60.289062 52.527344 C 60.167969 52.628906 59.992188 52.628906 59.871094 52.527344 L 59.90625 52.359375 C 59.980469 52.257812 60.117188 52.222656 60.183594 52.324219 L 60.289062 52.066406 L 60.238281 51.984375 C 59.980469 52.082031 59.699219 52.390625 59.664062 52.695312 C 59.683594 52.847656 59.804688 52.867188 59.90625 52.933594 C 59.730469 53.171875 59.644531 53.410156 59.609375 53.703125 C 59.625 53.855469 59.78125 53.972656 59.957031 53.921875 "/>
<path style=" stroke:none;fill-rule:nonzero;fill:rgb(13.72549%,12.156863%,12.54902%);fill-opacity:1;" d="M 61.867188 53.261719 C 61.886719 53.367188 61.9375 53.519531 62.09375 53.484375 C 62.300781 53.417969 62.300781 53.160156 62.371094 52.972656 L 62.144531 53.210938 C 61.800781 52.941406 62.148438 52.429688 62.164062 52.105469 C 62.027344 52.480469 61.816406 52.820312 61.867188 53.261719 "/>
<path style=" stroke:none;fill-rule:nonzero;fill:rgb(13.72549%,12.156863%,12.54902%);fill-opacity:1;" d="M 85.863281 53.441406 C 85.882812 53.542969 85.984375 53.644531 86.109375 53.644531 C 86.316406 53.578125 86.351562 53.269531 86.335938 53.203125 C 86.28125 53.269531 86.214844 53.390625 86.109375 53.371094 C 85.761719 53.066406 86.128906 52.621094 86.164062 52.265625 C 85.9375 52.605469 85.796875 53.015625 85.863281 53.441406 "/>
<path style=" stroke:none;fill-rule:nonzero;fill:rgb(13.72549%,12.156863%,12.54902%);fill-opacity:1;" d="M 89.113281 53.890625 C 89.425781 53.808594 89.707031 53.484375 89.707031 53.160156 C 89.707031 53.007812 89.550781 52.902344 89.394531 52.9375 C 89.269531 53.003906 89.253906 53.140625 89.253906 53.226562 L 89.304688 53.210938 C 89.390625 53.15625 89.480469 53.210938 89.53125 53.277344 C 89.550781 53.550781 89.269531 53.722656 89.113281 53.890625 "/>
<path style=" stroke:none;fill-rule:nonzero;fill:rgb(13.72549%,12.156863%,12.54902%);fill-opacity:1;" d="M 93.039062 54.957031 C 93.074219 55.074219 93.195312 55.160156 93.3125 55.164062 C 93.453125 55.078125 93.507812 54.90625 93.507812 54.738281 L 93.28125 54.90625 C 92.96875 54.582031 93.25 54.15625 93.335938 53.820312 C 93.09375 54.121094 92.988281 54.550781 93.039062 54.957031 "/>
<path style=" stroke:none;fill-rule:nonzero;fill:rgb(13.72549%,12.156863%,12.54902%);fill-opacity:1;" d="M 97.746094 54.867188 L 97.800781 54.867188 C 98.042969 54.765625 98.375 54.496094 98.339844 54.1875 C 98.339844 54.015625 98.167969 53.949219 98.011719 53.949219 C 97.925781 54 97.886719 54.101562 97.871094 54.21875 C 97.976562 54.167969 98.09375 54.1875 98.164062 54.289062 C 98.21875 54.5625 97.867188 54.699219 97.746094 54.867188 "/>
<path style=" stroke:none;fill-rule:nonzero;fill:rgb(13.72549%,12.156863%,12.54902%);fill-opacity:1;" d="M 51.195312 54.496094 C 51.140625 54.71875 50.96875 54.460938 50.847656 54.460938 C 50.449219 54.171875 50.484375 54.785156 50.34375 54.957031 L 50.898438 55.175781 L 51.125 54.75 L 51.644531 54.957031 C 51.734375 54.773438 51.90625 54.601562 51.871094 54.398438 L 51.351562 54.175781 Z M 51.195312 54.496094 "/>
<path style=" stroke:none;fill-rule:nonzero;fill:rgb(13.72549%,12.156863%,12.54902%);fill-opacity:1;" d="M 95.765625 55.679688 L 95.921875 55.628906 C 96.164062 55.472656 96.425781 55.222656 96.355469 54.898438 C 96.324219 54.777344 96.199219 54.726562 96.097656 54.726562 C 95.941406 54.742188 95.921875 54.910156 95.941406 55.015625 L 95.957031 54.996094 C 96.0625 54.980469 96.148438 55 96.21875 55.085938 C 96.21875 55.355469 95.902344 55.492188 95.765625 55.679688 "/>
<path style=" stroke:none;fill-rule:nonzero;fill:rgb(13.72549%,12.156863%,12.54902%);fill-opacity:1;" d="M 49.472656 55.855469 C 49.488281 55.976562 49.558594 56.113281 49.71875 56.0625 C 49.90625 55.90625 49.941406 55.703125 49.976562 55.5 C 49.890625 55.601562 49.839844 55.789062 49.679688 55.753906 C 49.472656 55.378906 49.753906 55.023438 49.804688 54.664062 C 49.597656 55.023438 49.472656 55.414062 49.472656 55.855469 "/>
<path style=" stroke:none;fill-rule:nonzero;fill:rgb(13.72549%,12.156863%,12.54902%);fill-opacity:1;" d="M 99.292969 55.910156 L 99.363281 55.910156 C 99.433594 55.894531 99.535156 55.925781 99.589844 56.011719 C 99.601562 56.25 99.308594 56.402344 99.136719 56.574219 C 99.222656 56.589844 99.257812 56.539062 99.308594 56.523438 C 99.550781 56.371094 99.8125 56.132812 99.742188 55.808594 C 99.691406 55.707031 99.570312 55.65625 99.464844 55.636719 C 99.328125 55.652344 99.292969 55.789062 99.292969 55.910156 "/>
<path style=" stroke:none;fill-rule:nonzero;fill:rgb(0.784314%,1.176471%,1.176471%);fill-opacity:1;" d="M 103.304688 59.40625 L 103.304688 59.414062 L 103.261719 59.425781 Z M 103.304688 59.40625 "/>
<path style=" stroke:none;fill-rule:nonzero;fill:rgb(1.568627%,50.588235%,30.980392%);fill-opacity:1;" d="M 79.429688 35.253906 C 81.890625 34.886719 83.550781 37.929688 83.550781 37.929688 C 83.230469 33.058594 78.058594 33.777344 78.058594 33.777344 C 79.367188 32.746094 82.023438 34.054688 82.023438 34.054688 C 80.09375 31.339844 77.328125 32.117188 77.328125 32.117188 C 77.65625 31.492188 79.640625 31.628906 79.640625 31.628906 C 77.839844 29.851562 75.730469 31.636719 75.730469 31.636719 C 75.832031 30.65625 75 29.125 75 29.125 C 75 29.125 74.164062 30.660156 74.265625 31.636719 C 74.265625 31.636719 72.160156 29.851562 70.359375 31.628906 C 70.359375 31.628906 72.34375 31.492188 72.671875 32.117188 C 72.671875 32.117188 69.90625 31.34375 67.976562 34.054688 C 67.976562 34.054688 70.628906 32.742188 71.941406 33.777344 C 71.941406 33.777344 66.769531 33.058594 66.449219 37.929688 C 66.449219 37.929688 68.105469 34.886719 70.566406 35.253906 C 70.566406 35.253906 65.300781 36.746094 67.820312 41.4375 C 67.820312 41.4375 67.683594 37.550781 70.71875 36.667969 C 70.71875 36.667969 66.730469 39.855469 70.324219 42.542969 C 70.324219 42.542969 69.578125 39.523438 71.664062 38.144531 C 71.664062 38.144531 70.1875 41.535156 73.0625 44.390625 C 73.0625 44.390625 72.472656 41.488281 74.324219 39.894531 L 74.324219 44.929688 C 74.300781 45.652344 74.246094 46.507812 74.210938 47.140625 C 74.152344 48.277344 74.089844 49.117188 74.089844 49.152344 C 73.933594 49.863281 73.933594 50.335938 73.933594 50.339844 L 73.933594 50.347656 L 73.949219 50.6875 L 73.96875 51.105469 L 73.882812 51.335938 L 73.863281 51.398438 C 73.765625 51.574219 73.726562 51.730469 73.726562 51.867188 C 73.726562 52.09375 73.828125 52.238281 73.890625 52.300781 L 73.699219 55.882812 C 73.183594 56.425781 72.742188 57.402344 72.738281 57.40625 L 72.664062 57.566406 L 77.332031 57.566406 L 77.257812 57.40625 C 77.253906 57.402344 76.808594 56.425781 76.292969 55.878906 L 76.105469 52.300781 C 76.167969 52.234375 76.269531 52.09375 76.269531 51.867188 C 76.269531 51.730469 76.230469 51.574219 76.132812 51.398438 L 76.085938 51.269531 L 76.027344 51.105469 L 76.046875 50.640625 L 76.0625 50.347656 L 76.0625 50.339844 C 76.0625 50.335938 76.0625 49.863281 75.90625 49.152344 C 75.90625 49.128906 75.84375 48.285156 75.78125 47.140625 C 75.75 46.507812 75.695312 45.648438 75.671875 44.925781 L 75.671875 39.890625 C 77.523438 41.488281 76.933594 44.390625 76.933594 44.390625 C 79.804688 41.535156 78.332031 38.140625 78.332031 38.140625 C 80.417969 39.523438 79.671875 42.542969 79.671875 42.542969 C 83.265625 39.851562 79.277344 36.664062 79.277344 36.664062 C 82.308594 37.546875 82.171875 41.433594 82.171875 41.433594 C 84.699219 36.742188 79.429688 35.253906 79.429688 35.253906 "/>
<path style="fill:none;stroke-width:1.3271;stroke-linecap:butt;stroke-linejoin:miter;stroke:rgb(13.72549%,12.156863%,12.54902%);stroke-opacity:1;stroke-miterlimit:10;" d="M 529.53125 235.026042 C 545.9375 232.578125 557.005208 252.864583 557.005208 252.864583 C 554.869792 220.390625 520.390625 225.182292 520.390625 225.182292 C 529.114583 218.307292 546.822917 227.03125 546.822917 227.03125 C 533.958333 208.932292 515.520833 214.114583 515.520833 214.114583 C 517.708333 209.947917 530.9375 210.859375 530.9375 210.859375 C 518.932292 199.010417 504.869792 210.911458 504.869792 210.911458 C 505.546875 204.375 500 194.166667 500 194.166667 C 500 194.166667 494.427083 204.401042 495.104167 210.911458 C 495.104167 210.911458 481.067708 199.010417 469.0625 210.859375 C 469.0625 210.859375 482.291667 209.947917 484.479167 214.114583 C 484.479167 214.114583 466.041667 208.958333 453.177083 227.03125 C 453.177083 227.03125 470.859375 218.28125 479.609375 225.182292 C 479.609375 225.182292 445.130208 220.390625 442.994792 252.864583 C 442.994792 252.864583 454.036458 232.578125 470.442708 235.026042 C 470.442708 235.026042 435.338542 244.973958 452.135417 276.25 C 452.135417 276.25 451.223958 250.338542 471.458333 244.453125 C 471.458333 244.453125 444.869792 265.703125 468.828125 283.619792 C 468.828125 283.619792 463.854167 263.489583 477.760417 254.296875 C 477.760417 254.296875 467.916667 276.901042 487.083333 295.9375 C 487.083333 295.9375 483.151042 276.588542 495.494792 265.963542 L 495.494792 299.53125 C 495.338542 304.348958 494.973958 310.052083 494.739583 314.270833 C 494.348958 321.848958 493.932292 327.447917 493.932292 327.682292 C 492.890625 332.421875 492.890625 335.572917 492.890625 335.598958 L 492.890625 335.651042 L 492.994792 337.916667 L 493.125 340.703125 L 492.552083 342.239583 L 492.421875 342.65625 C 491.770833 343.828125 491.510417 344.869792 491.510417 345.78125 C 491.510417 347.291667 492.1875 348.255208 492.604167 348.671875 L 491.328125 372.552083 C 487.890625 376.171875 484.947917 382.682292 484.921875 382.708333 L 484.427083 383.776042 L 515.546875 383.776042 L 515.052083 382.708333 C 515.026042 382.682292 512.057292 376.171875 508.619792 372.526042 L 507.369792 348.671875 C 507.786458 348.229167 508.463542 347.291667 508.463542 345.78125 C 508.463542 344.869792 508.203125 343.828125 507.552083 342.65625 L 507.239583 341.796875 L 506.848958 340.703125 L 506.979167 337.604167 L 507.083333 335.651042 L 507.083333 335.598958 C 507.083333 335.572917 507.083333 332.421875 506.041667 327.682292 C 506.041667 327.526042 505.625 321.901042 505.208333 314.270833 C 505 310.052083 504.635417 304.322917 504.479167 299.505208 L 504.479167 265.9375 C 516.822917 276.588542 512.890625 295.9375 512.890625 295.9375 C 532.03125 276.901042 522.213542 254.270833 522.213542 254.270833 C 536.119792 263.489583 531.145833 283.619792 531.145833 283.619792 C 555.104167 265.677083 528.515625 244.427083 528.515625 244.427083 C 548.723958 250.3125 547.8125 276.223958 547.8125 276.223958 C 564.661458 244.947917 529.53125 235.026042 529.53125 235.026042 Z M 529.53125 235.026042 " transform="matrix(0.15,0,0,0.15,0,0)"/>
<path style=" stroke:none;fill-rule:nonzero;fill:rgb(10.980392%,47.843137%,38.431373%);fill-opacity:1;" d="M 87 57.300781 C 86.21875 57.441406 85.4375 57.609375 84.671875 57.820312 C 83.792969 58.058594 82.925781 58.351562 82.085938 58.699219 C 81.144531 59.089844 80.234375 59.546875 79.363281 60.070312 C 78.390625 60.648438 77.464844 61.300781 76.574219 61.996094 C 75.597656 62.761719 74.664062 63.578125 73.757812 64.421875 C 73.28125 64.863281 72.808594 65.3125 72.339844 65.761719 C 71.996094 66.097656 71.652344 66.4375 71.296875 66.757812 L 71.015625 67.003906 L 71.046875 67.078125 C 71.144531 67.320312 71.367188 67.695312 71.824219 67.777344 L 71.902344 67.792969 L 71.945312 67.722656 C 71.945312 67.722656 71.976562 67.664062 72.042969 67.570312 C 72.109375 67.472656 72.207031 67.347656 72.328125 67.222656 C 72.570312 66.96875 72.910156 66.730469 73.296875 66.730469 C 73.375 66.730469 73.457031 66.742188 73.539062 66.761719 C 74.03125 66.886719 74.332031 67.320312 74.332031 67.789062 C 74.332031 68.191406 74.113281 68.625 73.570312 68.914062 L 73.542969 68.921875 L 73.445312 68.953125 C 73.359375 68.980469 73.226562 69 73.0625 69 C 72.535156 69 71.636719 68.773438 70.511719 67.519531 L 70.445312 67.449219 L 70.363281 67.503906 C 70.28125 67.558594 70.199219 67.613281 70.121094 67.664062 C 69.636719 67.964844 69.148438 68.25 68.652344 68.53125 C 67.988281 68.910156 67.414062 69.0625 66.953125 69.0625 C 66.027344 69.058594 65.535156 68.472656 65.53125 67.863281 C 65.53125 67.753906 65.546875 67.644531 65.578125 67.539062 C 65.765625 66.925781 66.175781 66.800781 66.550781 66.792969 C 66.808594 66.792969 67.039062 66.871094 67.105469 66.902344 C 67.191406 66.945312 67.296875 67.03125 67.375 67.105469 L 67.511719 67.242188 L 67.535156 67.269531 L 67.566406 67.277344 L 67.773438 67.328125 L 67.855469 67.339844 C 68.058594 67.335938 68.566406 67.21875 69.683594 66.226562 L 69.722656 66.191406 L 69.722656 66.125 C 69.722656 65.886719 69.65625 65.585938 69.40625 65.359375 L 69.34375 65.304688 L 69.273438 65.34375 L 69.1875 65.386719 C 69.132812 65.410156 69.050781 65.449219 68.953125 65.484375 C 68.753906 65.554688 68.484375 65.625 68.21875 65.625 C 67.929688 65.625 67.644531 65.546875 67.417969 65.308594 C 67.214844 65.101562 67.121094 64.839844 67.121094 64.582031 C 67.125 64.023438 67.558594 63.464844 68.378906 63.460938 L 68.519531 63.464844 C 69.027344 63.503906 69.324219 63.839844 69.550781 64.289062 C 69.769531 64.738281 69.898438 65.277344 70.054688 65.664062 L 70.117188 65.820312 L 70.238281 65.703125 L 70.417969 65.523438 L 70.421875 65.523438 C 79.246094 55.785156 89.378906 56.941406 89.617188 56.949219 C 89.386719 56.972656 89.152344 56.988281 88.921875 57.015625 C 88.277344 57.09375 87.636719 57.1875 87 57.300781 "/>
<path style="fill:none;stroke-width:1.3271;stroke-linecap:butt;stroke-linejoin:round;stroke:rgb(0.784314%,1.176471%,1.176471%);stroke-opacity:1;stroke-miterlimit:10;" d="M 580 382.005208 C 574.791667 382.942708 569.583333 384.0625 564.479167 385.46875 C 558.619792 387.057292 552.838542 389.010417 547.239583 391.328125 C 540.963542 393.932292 534.895833 396.979167 529.088542 400.46875 C 522.604167 404.322917 516.432292 408.671875 510.494792 413.307292 C 503.984375 418.411458 497.760417 423.854167 491.71875 429.479167 C 488.541667 432.421875 485.390625 435.416667 482.265625 438.411458 C 479.973958 440.651042 477.682292 442.916667 475.3125 445.052083 L 473.4375 446.692708 L 473.645833 447.1875 C 474.296875 448.802083 475.78125 451.302083 478.828125 451.848958 L 479.348958 451.953125 L 479.635417 451.484375 C 479.635417 451.484375 479.84375 451.09375 480.286458 450.46875 C 480.729167 449.817708 481.380208 448.984375 482.1875 448.151042 C 483.802083 446.458333 486.067708 444.869792 488.645833 444.869792 C 489.166667 444.869792 489.713542 444.947917 490.260417 445.078125 C 493.541667 445.911458 495.546875 448.802083 495.546875 451.927083 C 495.546875 454.609375 494.088542 457.5 490.46875 459.427083 L 490.286458 459.479167 L 489.635417 459.6875 C 489.0625 459.869792 488.177083 460 487.083333 460 C 483.567708 460 477.578125 458.489583 470.078125 450.130208 L 469.635417 449.661458 L 469.088542 450.026042 C 468.541667 450.390625 467.994792 450.755208 467.473958 451.09375 C 464.244792 453.098958 460.989583 455 457.682292 456.875 C 453.255208 459.401042 449.427083 460.416667 446.354167 460.416667 C 440.182292 460.390625 436.901042 456.484375 436.875 452.421875 C 436.875 451.692708 436.979167 450.963542 437.1875 450.260417 C 438.4375 446.171875 441.171875 445.338542 443.671875 445.286458 C 445.390625 445.286458 446.927083 445.807292 447.369792 446.015625 C 447.942708 446.302083 448.645833 446.875 449.166667 447.369792 L 450.078125 448.28125 L 450.234375 448.463542 L 450.442708 448.515625 L 451.822917 448.854167 L 452.369792 448.932292 C 453.723958 448.90625 457.109375 448.125 464.557292 441.510417 L 464.817708 441.276042 L 464.817708 440.833333 C 464.817708 439.244792 464.375 437.239583 462.708333 435.729167 L 462.291667 435.364583 L 461.822917 435.625 L 461.25 435.911458 C 460.885417 436.067708 460.338542 436.328125 459.6875 436.5625 C 458.359375 437.03125 456.5625 437.5 454.791667 437.5 C 452.864583 437.5 450.963542 436.979167 449.453125 435.390625 C 448.098958 434.010417 447.473958 432.265625 447.473958 430.546875 C 447.5 426.822917 450.390625 423.098958 455.859375 423.072917 L 456.796875 423.098958 C 460.182292 423.359375 462.161458 425.598958 463.671875 428.59375 C 465.130208 431.588542 465.989583 435.182292 467.03125 437.760417 L 467.447917 438.802083 L 468.255208 438.020833 L 469.453125 436.822917 L 469.479167 436.822917 C 528.307292 371.901042 595.859375 379.609375 597.447917 379.661458 C 595.911458 379.817708 594.348958 379.921875 592.8125 380.104167 C 588.515625 380.625 584.244792 381.25 580 382.005208 Z M 580 382.005208 " transform="matrix(0.15,0,0,0.15,0,0)"/>
<path style=" stroke:none;fill-rule:nonzero;fill:rgb(10.980392%,47.843137%,38.431373%);fill-opacity:1;" d="M 63 57.300781 C 63.78125 57.441406 64.558594 57.609375 65.328125 57.820312 C 66.207031 58.058594 67.070312 58.351562 67.914062 58.699219 C 68.851562 59.089844 69.761719 59.546875 70.636719 60.070312 C 71.605469 60.648438 72.535156 61.300781 73.421875 61.996094 C 74.398438 62.761719 75.332031 63.578125 76.242188 64.421875 C 76.71875 64.863281 77.191406 65.3125 77.65625 65.761719 C 78.003906 66.097656 78.347656 66.4375 78.703125 66.757812 L 78.917969 66.949219 L 78.984375 67.003906 L 78.949219 67.078125 C 78.855469 67.320312 78.632812 67.695312 78.171875 67.777344 L 78.09375 67.792969 L 78.054688 67.722656 C 78.054688 67.722656 78.023438 67.664062 77.953125 67.570312 C 77.890625 67.472656 77.792969 67.347656 77.671875 67.222656 C 77.429688 66.96875 77.089844 66.730469 76.703125 66.730469 C 76.625 66.730469 76.542969 66.742188 76.460938 66.761719 C 75.96875 66.886719 75.667969 67.320312 75.667969 67.789062 C 75.667969 68.191406 75.886719 68.625 76.429688 68.914062 L 76.457031 68.921875 L 76.550781 68.953125 C 76.640625 68.980469 76.769531 69 76.9375 69 C 77.460938 69 78.363281 68.773438 79.488281 67.519531 L 79.554688 67.449219 L 79.636719 67.503906 C 79.71875 67.558594 79.796875 67.613281 79.878906 67.664062 C 80.359375 67.964844 80.851562 68.25 81.347656 68.53125 C 82.011719 68.910156 82.582031 69.0625 83.042969 69.0625 C 83.972656 69.058594 84.464844 68.472656 84.464844 67.863281 C 84.464844 67.753906 84.453125 67.644531 84.417969 67.539062 C 84.230469 66.925781 83.824219 66.800781 83.449219 66.792969 C 83.191406 66.792969 82.957031 66.871094 82.894531 66.902344 C 82.808594 66.945312 82.703125 67.03125 82.625 67.105469 L 82.488281 67.242188 L 82.464844 67.269531 L 82.433594 67.277344 L 82.226562 67.328125 L 82.144531 67.339844 C 81.941406 67.335938 81.433594 67.21875 80.316406 66.226562 L 80.277344 66.191406 L 80.277344 66.125 C 80.277344 65.886719 80.34375 65.585938 80.59375 65.359375 L 80.65625 65.304688 L 80.726562 65.34375 L 80.8125 65.386719 C 80.867188 65.410156 80.949219 65.449219 81.046875 65.484375 C 81.246094 65.554688 81.515625 65.625 81.78125 65.625 C 82.070312 65.625 82.355469 65.546875 82.582031 65.308594 C 82.785156 65.101562 82.878906 64.839844 82.878906 64.582031 C 82.875 64.023438 82.441406 63.464844 81.621094 63.460938 L 81.480469 63.464844 C 80.972656 63.503906 80.675781 63.839844 80.453125 64.289062 C 80.230469 64.738281 80.101562 65.277344 79.945312 65.664062 L 79.882812 65.820312 L 79.585938 65.523438 L 79.582031 65.523438 C 70.757812 55.785156 60.621094 56.941406 60.382812 56.949219 C 60.617188 56.972656 60.851562 56.988281 61.082031 57.015625 C 61.71875 57.09375 62.363281 57.1875 63 57.300781 "/>
<path style="fill:none;stroke-width:1.3271;stroke-linecap:butt;stroke-linejoin:round;stroke:rgb(0.784314%,1.176471%,1.176471%);stroke-opacity:1;stroke-miterlimit:10;" d="M 420 382.005208 C 425.208333 382.942708 430.390625 384.0625 435.520833 385.46875 C 441.380208 387.057292 447.135417 389.010417 452.760417 391.328125 C 459.010417 393.932292 465.078125 396.979167 470.911458 400.46875 C 477.369792 404.322917 483.567708 408.671875 489.479167 413.307292 C 495.989583 418.411458 502.213542 423.854167 508.28125 429.479167 C 511.458333 432.421875 514.609375 435.416667 517.708333 438.411458 C 520.026042 440.651042 522.317708 442.916667 524.6875 445.052083 L 526.119792 446.328125 L 526.5625 446.692708 L 526.328125 447.1875 C 525.703125 448.802083 524.21875 451.302083 521.145833 451.848958 L 520.625 451.953125 L 520.364583 451.484375 C 520.364583 451.484375 520.15625 451.09375 519.6875 450.46875 C 519.270833 449.817708 518.619792 448.984375 517.8125 448.151042 C 516.197917 446.458333 513.932292 444.869792 511.354167 444.869792 C 510.833333 444.869792 510.286458 444.947917 509.739583 445.078125 C 506.458333 445.911458 504.453125 448.802083 504.453125 451.927083 C 504.453125 454.609375 505.911458 457.5 509.53125 459.427083 L 509.713542 459.479167 L 510.338542 459.6875 C 510.9375 459.869792 511.796875 460 512.916667 460 C 516.40625 460 522.421875 458.489583 529.921875 450.130208 L 530.364583 449.661458 L 530.911458 450.026042 C 531.458333 450.390625 531.979167 450.755208 532.526042 451.09375 C 535.729167 453.098958 539.010417 455 542.317708 456.875 C 546.744792 459.401042 550.546875 460.416667 553.619792 460.416667 C 559.817708 460.390625 563.098958 456.484375 563.098958 452.421875 C 563.098958 451.692708 563.020833 450.963542 562.786458 450.260417 C 561.536458 446.171875 558.828125 445.338542 556.328125 445.286458 C 554.609375 445.286458 553.046875 445.807292 552.630208 446.015625 C 552.057292 446.302083 551.354167 446.875 550.833333 447.369792 L 549.921875 448.28125 L 549.765625 448.463542 L 549.557292 448.515625 L 548.177083 448.854167 L 547.630208 448.932292 C 546.276042 448.90625 542.890625 448.125 535.442708 441.510417 L 535.182292 441.276042 L 535.182292 440.833333 C 535.182292 439.244792 535.625 437.239583 537.291667 435.729167 L 537.708333 435.364583 L 538.177083 435.625 L 538.75 435.911458 C 539.114583 436.067708 539.661458 436.328125 540.3125 436.5625 C 541.640625 437.03125 543.4375 437.5 545.208333 437.5 C 547.135417 437.5 549.036458 436.979167 550.546875 435.390625 C 551.901042 434.010417 552.526042 432.265625 552.526042 430.546875 C 552.5 426.822917 549.609375 423.098958 544.140625 423.072917 L 543.203125 423.098958 C 539.817708 423.359375 537.838542 425.598958 536.354167 428.59375 C 534.869792 431.588542 534.010417 435.182292 532.96875 437.760417 L 532.552083 438.802083 L 530.572917 436.822917 L 530.546875 436.822917 C 471.71875 371.901042 404.140625 379.609375 402.552083 379.661458 C 404.114583 379.817708 405.677083 379.921875 407.213542 380.104167 C 411.458333 380.625 415.755208 381.25 420 382.005208 Z M 420 382.005208 " transform="matrix(0.15,0,0,0.15,0,0)"/>
<path style="fill-rule:nonzero;fill:rgb(1.568627%,50.588235%,30.980392%);fill-opacity:1;stroke-width:1.3271;stroke-linecap:butt;stroke-linejoin:round;stroke:rgb(0.784314%,1.176471%,1.176471%);stroke-opacity:1;stroke-miterlimit:10;" d="M 667.421875 554.895833 C 665.364583 558.932292 659.635417 568.932292 649.505208 578.4375 C 637.916667 589.296875 620.677083 599.479167 596.40625 599.505208 C 570.520833 599.505208 553.489583 587.916667 542.8125 576.302083 C 537.473958 570.494792 533.75 564.6875 531.354167 560.3125 C 530.182292 558.151042 529.296875 556.328125 528.75 555.078125 L 528.671875 554.895833 Z M 667.421875 554.895833 " transform="matrix(0.15,0,0,0.15,0,0)"/>
<path style="fill:none;stroke-width:1.3271;stroke-linecap:butt;stroke-linejoin:round;stroke:rgb(0.784314%,1.176471%,1.176471%);stroke-opacity:1;stroke-miterlimit:10;" d="M 598.046875 379.817708 L 528.541667 552.96875 L 667.552083 552.96875 Z M 598.046875 379.817708 " transform="matrix(0.15,0,0,0.15,0,0)"/>
<path style="fill-rule:nonzero;fill:rgb(1.568627%,50.588235%,30.980392%);fill-opacity:1;stroke-width:1.3271;stroke-linecap:butt;stroke-linejoin:round;stroke:rgb(0.784314%,1.176471%,1.176471%);stroke-opacity:1;stroke-miterlimit:10;" d="M 471.901042 554.895833 C 469.84375 558.932292 464.114583 568.932292 453.984375 578.4375 C 442.395833 589.296875 425.15625 599.479167 400.885417 599.505208 C 375 599.505208 357.96875 587.916667 347.291667 576.302083 C 341.953125 570.494792 338.229167 564.6875 335.833333 560.3125 C 334.635417 558.151042 333.776042 556.328125 333.229167 555.078125 L 333.151042 554.895833 Z M 471.901042 554.895833 " transform="matrix(0.15,0,0,0.15,0,0)"/>
<path style="fill:none;stroke-width:1.3271;stroke-linecap:butt;stroke-linejoin:round;stroke:rgb(0.784314%,1.176471%,1.176471%);stroke-opacity:1;stroke-miterlimit:10;" d="M 402.526042 379.817708 L 333.020833 552.96875 L 472.057292 552.96875 Z M 402.526042 379.817708 " transform="matrix(0.15,0,0,0.15,0,0)"/>
</g>
</svg>
