<?xml version="1.0" encoding="UTF-8"?>
<svg xmlns="http://www.w3.org/2000/svg" xmlns:xlink="http://www.w3.org/1999/xlink" width="150px" height="150px" viewBox="0 0 150 150" version="1.1">
<g id="surface1">
<path style=" stroke:none;fill-rule:evenodd;fill:rgb(83.137255%,12.54902%,15.294118%);fill-opacity:1;" d="M 62.371094 25.742188 L 86.40625 25.742188 L 74.476562 39.234375 L 74.425781 39.289062 Z M 62.371094 25.742188 "/>
<path style=" stroke:none;fill-rule:evenodd;fill:rgb(83.137255%,12.54902%,15.294118%);fill-opacity:1;" d="M 62.371094 52.863281 L 86.40625 52.863281 L 74.476562 39.371094 L 74.425781 39.289062 Z M 62.371094 52.863281 "/>
<path style=" stroke:none;fill-rule:evenodd;fill:rgb(83.137255%,12.54902%,15.294118%);fill-opacity:1;" d="M 62.589844 25.6875 L 62.589844 52.863281 L 50.632812 39.371094 L 50.585938 39.289062 Z M 62.589844 25.6875 "/>
<path style=" stroke:none;fill-rule:evenodd;fill:rgb(83.137255%,12.54902%,15.294118%);fill-opacity:1;" d="M 86.359375 25.6875 L 86.359375 52.863281 L 98.316406 39.371094 L 98.363281 39.289062 Z M 86.359375 25.6875 "/>
<path style=" stroke:none;fill-rule:nonzero;fill:rgb(3.137255%,1.960784%,1.960784%);fill-opacity:1;" d="M 110.835938 78.324219 C 110.835938 80.308594 110.273438 82.160156 109.542969 83.703125 C 109.46875 83.730469 105.027344 84.695312 103.027344 83.097656 C 102.734375 82.875 102.367188 82.601562 102.390625 82.601562 C 102.292969 82.628906 101.050781 83.621094 101.050781 83.621094 L 91.410156 83.675781 L 90.679688 82.269531 C 90.679688 82.269531 89.652344 83.839844 88.335938 83.675781 C 88.335938 83.703125 68.375 83.785156 68.375 83.785156 L 68.375 62.242188 L 70.667969 58.875 L 70.960938 77.359375 C 70.960938 77.359375 70.523438 79.757812 72.5 79.839844 C 72.5 80.035156 89.875 79.867188 89.875 79.839844 C 89.875 79.839844 91.3125 80.144531 90.921875 76.253906 C 90.921875 76.394531 93.996094 72.503906 93.996094 72.503906 C 93.996094 72.503906 94.09375 77.746094 92.53125 79.566406 C 92.53125 80.089844 102.121094 79.867188 102.171875 79.8125 C 102.171875 79.8125 102.464844 78.378906 102.171875 77 C 102.269531 77.027344 102.539062 75.425781 105.394531 73 C 105.492188 73.027344 104 79.511719 104 79.511719 C 104 79.511719 105.539062 80.144531 106.980469 80.0625 C 106.980469 80.199219 108.90625 80.117188 108.90625 80.117188 C 108.90625 80.117188 108.148438 75.867188 108.199219 75.898438 C 108.125 75.8125 110.859375 72.449219 110.882812 72.421875 C 110.835938 72.476562 110.859375 75.289062 110.835938 78.324219 Z M 63.910156 81.082031 C 63.8125 81.304688 63.371094 83.730469 63.371094 83.730469 L 45.949219 83.730469 C 45.949219 83.730469 38.042969 83.511719 39.09375 76.199219 C 39.09375 76.199219 40.53125 70.902344 42.363281 70.074219 C 42.433594 70.101562 42.09375 71.207031 42.070312 71.207031 C 42.070312 71.207031 41.238281 72.75 41.019531 74.542969 C 40.921875 75.316406 41.019531 75.980469 41.265625 76.78125 C 41.433594 77.332031 41.777344 77.882812 42.167969 78.40625 C 42.167969 78.460938 43.730469 80.0625 45.4375 79.925781 C 45.4375 79.980469 62.421875 79.925781 62.421875 79.925781 C 62.421875 79.925781 62.714844 77.632812 60.078125 72.972656 L 61.910156 69 C 61.910156 69 63.933594 72.53125 64.445312 76.640625 C 64.445312 76.75 64.347656 80.117188 63.910156 81.082031 Z M 53.125 92.585938 L 49.4375 90.046875 L 51.074219 87.015625 L 54.757812 89.496094 Z M 53.125 92.585938 "/>
<path style=" stroke:none;fill-rule:nonzero;fill:rgb(0.392157%,0.392157%,0.392157%);fill-opacity:1;" d="M 108.515625 108.726562 C 109.152344 107.789062 109.46875 106.710938 109.46875 105.523438 C 109.46875 104.144531 109.078125 102.902344 108.273438 101.828125 C 107.46875 100.753906 106.320312 100.007812 104.808594 99.59375 C 103.808594 99.316406 102.464844 99.179688 100.804688 99.179688 L 91.921875 99.179688 L 91.921875 99.816406 L 92.703125 99.816406 C 93.484375 99.816406 94.070312 100.0625 94.460938 100.585938 C 94.753906 100.972656 94.898438 101.910156 94.898438 103.375 L 94.898438 118.710938 C 94.898438 120.035156 94.777344 120.917969 94.558594 121.332031 C 94.191406 121.96875 93.558594 122.269531 92.703125 122.269531 L 91.921875 122.269531 L 91.921875 122.90625 L 101.636719 122.90625 C 103.953125 122.90625 105.6875 122.65625 106.808594 122.160156 C 107.929688 121.664062 108.832031 120.863281 109.46875 119.789062 C 110.125 118.710938 110.445312 117.582031 110.445312 116.394531 C 110.445312 114.847656 109.957031 113.523438 108.980469 112.449219 C 108.273438 111.675781 107.199219 111.125 105.785156 110.765625 C 106.953125 110.351562 107.882812 109.664062 108.515625 108.726562 Z M 97.78125 100.753906 C 98.585938 100.503906 99.488281 100.367188 100.511719 100.367188 C 102.390625 100.367188 103.832031 100.863281 104.808594 101.828125 C 105.785156 102.820312 106.269531 103.980469 106.269531 105.386719 C 106.269531 106.296875 106.074219 107.125 105.6875 107.871094 C 105.296875 108.613281 104.734375 109.195312 103.976562 109.550781 C 103.246094 109.910156 102.121094 110.105469 100.632812 110.105469 C 100.046875 110.105469 99.535156 110.078125 99.046875 110.050781 C 98.558594 110.023438 98.144531 109.9375 97.753906 109.855469 L 97.753906 100.753906 Z M 97.78125 111.457031 C 98.046875 111.402344 98.414062 111.347656 98.851562 111.347656 C 99.292969 111.316406 99.828125 111.316406 100.464844 111.316406 C 101.902344 111.316406 103.125 111.566406 104.097656 112.0625 C 105.074219 112.558594 105.785156 113.222656 106.222656 114.078125 C 106.660156 114.933594 106.882812 115.816406 106.882812 116.726562 C 106.882812 118.132812 106.394531 119.289062 105.441406 120.257812 C 104.488281 121.195312 103.074219 121.691406 101.246094 121.691406 C 100.097656 121.691406 98.949219 121.527344 97.78125 121.222656 Z M 97.78125 111.457031 "/>
<path style=" stroke:none;fill-rule:nonzero;fill:rgb(0.392157%,0.392157%,0.392157%);fill-opacity:1;" d="M 90.289062 108.726562 C 90.921875 107.789062 91.238281 106.710938 91.238281 105.523438 C 91.238281 104.144531 90.847656 102.902344 90.042969 101.828125 C 89.238281 100.753906 88.089844 100.007812 86.578125 99.59375 C 85.578125 99.316406 84.234375 99.179688 82.578125 99.179688 L 73.695312 99.179688 L 73.695312 99.816406 L 74.476562 99.816406 C 75.257812 99.816406 75.84375 100.0625 76.230469 100.585938 C 76.523438 100.972656 76.671875 101.910156 76.671875 103.375 L 76.671875 118.710938 C 76.671875 120.035156 76.550781 120.917969 76.328125 121.332031 C 75.964844 121.96875 75.328125 122.269531 74.476562 122.269531 L 73.695312 122.269531 L 73.695312 122.90625 L 83.40625 122.90625 C 85.726562 122.90625 87.457031 122.65625 88.578125 122.160156 C 89.703125 121.664062 90.605469 120.863281 91.238281 119.789062 C 91.898438 118.710938 92.214844 117.582031 92.214844 116.394531 C 92.214844 114.847656 91.726562 113.523438 90.75 112.449219 C 90.042969 111.675781 88.96875 111.125 87.554688 110.765625 C 88.726562 110.351562 89.652344 109.664062 90.289062 108.726562 Z M 79.550781 100.753906 C 80.355469 100.503906 81.285156 100.367188 82.285156 100.367188 C 84.164062 100.367188 85.601562 100.863281 86.578125 101.828125 C 87.554688 102.820312 88.042969 103.980469 88.042969 105.386719 C 88.042969 106.296875 87.847656 107.125 87.457031 107.871094 C 87.066406 108.613281 86.503906 109.195312 85.75 109.550781 C 85.015625 109.910156 83.894531 110.105469 82.40625 110.105469 C 81.820312 110.105469 81.308594 110.078125 80.820312 110.050781 C 80.332031 110.023438 79.917969 109.9375 79.527344 109.855469 L 79.527344 100.753906 Z M 79.550781 111.457031 C 79.820312 111.402344 80.183594 111.347656 80.625 111.347656 C 81.0625 111.316406 81.601562 111.316406 82.234375 111.316406 C 83.675781 111.316406 84.894531 111.566406 85.871094 112.0625 C 86.847656 112.558594 87.554688 113.222656 87.996094 114.078125 C 88.433594 114.933594 88.652344 115.816406 88.652344 116.726562 C 88.652344 118.132812 88.164062 119.289062 87.214844 120.257812 C 86.261719 121.195312 84.847656 121.691406 83.015625 121.691406 C 81.871094 121.691406 80.722656 121.527344 79.550781 121.222656 Z M 79.550781 111.457031 "/>
<path style=" stroke:none;fill-rule:nonzero;fill:rgb(0.392157%,0.392157%,0.392157%);fill-opacity:1;" d="M 50 98.628906 C 49.902344 99.179688 49.757812 99.539062 49.609375 99.730469 C 49.4375 99.925781 49.21875 100.007812 48.976562 100.007812 C 48.730469 100.007812 48.339844 99.871094 47.78125 99.566406 C 46.558594 98.960938 45.386719 98.628906 44.3125 98.628906 C 42.558594 98.628906 41.117188 99.234375 39.996094 100.476562 C 38.871094 101.71875 38.285156 103.179688 38.285156 104.890625 C 38.285156 105.882812 38.480469 106.765625 38.871094 107.59375 C 39.261719 108.421875 39.824219 109.167969 40.554688 109.828125 C 41.289062 110.519531 42.558594 111.402344 44.3125 112.558594 C 46.070312 113.691406 47.144531 114.4375 47.535156 114.792969 C 48.121094 115.320312 48.558594 115.871094 48.828125 116.449219 C 49.097656 117.054688 49.242188 117.636719 49.242188 118.214844 C 49.242188 119.261719 48.878906 120.171875 48.144531 120.945312 C 47.414062 121.71875 46.414062 122.105469 45.144531 122.105469 C 44.046875 122.105469 43.046875 121.828125 42.140625 121.277344 C 41.214844 120.726562 40.554688 120.007812 40.09375 119.179688 C 39.652344 118.324219 39.289062 117.054688 39.019531 115.347656 L 38.457031 115.347656 L 38.457031 123.484375 L 39.019531 123.484375 C 39.09375 122.933594 39.191406 122.574219 39.335938 122.410156 C 39.484375 122.242188 39.679688 122.132812 39.945312 122.132812 C 40.214844 122.132812 40.824219 122.324219 41.824219 122.683594 C 42.800781 123.042969 43.460938 123.261719 43.777344 123.320312 C 44.3125 123.429688 44.875 123.484375 45.460938 123.484375 C 47.363281 123.484375 48.925781 122.820312 50.121094 121.527344 C 51.34375 120.230469 51.929688 118.683594 51.929688 116.890625 C 51.929688 115.953125 51.734375 115.042969 51.367188 114.1875 C 50.976562 113.332031 50.4375 112.585938 49.730469 111.925781 C 49.023438 111.289062 47.707031 110.378906 45.804688 109.195312 C 43.4375 107.730469 41.949219 106.574219 41.335938 105.691406 C 40.898438 105.082031 40.679688 104.449219 40.679688 103.703125 C 40.679688 102.765625 41.019531 101.910156 41.703125 101.167969 C 42.386719 100.421875 43.265625 100.0625 44.3125 100.0625 C 45.242188 100.0625 46.144531 100.339844 47.023438 100.890625 C 47.902344 101.441406 48.558594 102.1875 49.023438 103.125 C 49.488281 104.0625 49.828125 105.304688 50 106.875 L 50.5625 106.875 L 50.5625 98.65625 L 50 98.65625 Z M 50 98.628906 "/>
<path style=" stroke:none;fill-rule:nonzero;fill:rgb(0.392157%,0.392157%,0.392157%);fill-opacity:1;" d="M 67.617188 118.378906 C 68.03125 119.484375 68.226562 120.3125 68.226562 120.808594 C 68.226562 121.195312 68.082031 121.527344 67.789062 121.800781 C 67.496094 122.078125 66.933594 122.214844 66.128906 122.269531 L 66.128906 122.90625 L 74.253906 122.90625 L 74.253906 122.269531 C 73.425781 122.214844 72.765625 121.9375 72.277344 121.46875 C 71.816406 121 71.277344 119.980469 70.71875 118.378906 L 63.542969 98.628906 L 63.007812 98.628906 L 55.757812 118.160156 C 55.125 119.871094 54.5625 121 54.050781 121.582031 C 53.808594 121.855469 53.246094 122.078125 52.390625 122.269531 L 52.390625 122.90625 L 58.882812 122.90625 L 58.882812 122.269531 C 57.882812 122.1875 57.246094 122.023438 56.953125 121.746094 C 56.660156 121.46875 56.515625 121.167969 56.515625 120.78125 C 56.515625 120.3125 56.6875 119.648438 57.027344 118.710938 L 58.417969 114.960938 L 66.375 114.960938 Z M 58.859375 113.664062 L 62.445312 104.0625 L 65.933594 113.664062 Z M 58.859375 113.664062 "/>
</g>
</svg>
