<?xml version="1.0" encoding="UTF-8"?>
<svg xmlns="http://www.w3.org/2000/svg" xmlns:xlink="http://www.w3.org/1999/xlink" width="150px" height="150px" viewBox="0 0 150 150" version="1.1">
<g id="surface1">
<path style=" stroke:none;fill-rule:nonzero;fill:rgb(100%,89.019608%,0%);fill-opacity:1;" d="M 26.023438 79.664062 C 28.636719 82.273438 32.851562 82.273438 35.445312 79.679688 C 38.023438 77.101562 38.023438 72.886719 35.414062 70.273438 C 32.835938 67.695312 28.636719 67.710938 26.054688 70.289062 C 23.460938 72.886719 23.460938 77.101562 26.023438 79.664062 "/>
<path style=" stroke:none;fill-rule:nonzero;fill:rgb(0%,0%,0%);fill-opacity:1;" d="M 80.851562 79.273438 C 80.953125 79.273438 81.046875 79.230469 81.121094 79.171875 C 81.210938 79.09375 81.226562 79.003906 81.226562 78.898438 C 81.226562 78.796875 81.195312 78.691406 81.121094 78.628906 C 81.046875 78.554688 80.953125 78.511719 80.851562 78.511719 C 80.730469 78.511719 80.640625 78.554688 80.578125 78.628906 C 80.503906 78.703125 80.476562 78.796875 80.476562 78.898438 C 80.476562 79.003906 80.503906 79.09375 80.578125 79.171875 C 80.65625 79.230469 80.730469 79.273438 80.851562 79.273438 "/>
<path style=" stroke:none;fill-rule:nonzero;fill:rgb(0%,0%,0%);fill-opacity:1;" d="M 71.175781 82.769531 C 71.175781 82.90625 71.085938 83.023438 70.949219 83.113281 C 70.800781 83.203125 70.648438 83.25 70.484375 83.25 C 70.378906 83.25 70.261719 83.21875 70.171875 83.144531 C 70.019531 83.023438 69.945312 82.859375 69.945312 82.636719 C 69.945312 82.351562 70.125 82.109375 70.46875 81.886719 C 70.664062 81.765625 70.890625 81.675781 71.175781 81.570312 Z M 72.015625 83.265625 C 71.925781 83.265625 71.851562 83.21875 71.820312 83.128906 C 71.804688 83.085938 71.789062 82.980469 71.789062 82.84375 L 71.789062 81.359375 C 71.789062 81.046875 71.730469 80.789062 71.65625 80.625 C 71.488281 80.324219 71.160156 80.160156 70.679688 80.160156 C 70.273438 80.160156 69.960938 80.265625 69.75 80.445312 C 69.539062 80.625 69.433594 80.804688 69.433594 80.984375 C 69.433594 81.074219 69.464844 81.148438 69.511719 81.226562 C 69.585938 81.300781 69.660156 81.328125 69.78125 81.328125 C 69.855469 81.328125 69.898438 81.316406 69.960938 81.285156 C 70.050781 81.226562 70.09375 81.136719 70.09375 81 C 70.09375 80.984375 70.078125 80.941406 70.078125 80.863281 C 70.078125 80.789062 70.066406 80.746094 70.066406 80.714844 C 70.066406 80.59375 70.125 80.503906 70.230469 80.429688 C 70.335938 80.371094 70.453125 80.339844 70.589844 80.339844 C 70.84375 80.339844 71.011719 80.414062 71.085938 80.578125 C 71.144531 80.683594 71.175781 80.851562 71.175781 81.105469 L 71.175781 81.421875 C 70.484375 81.675781 70.035156 81.871094 69.808594 82.019531 C 69.464844 82.273438 69.269531 82.558594 69.269531 82.921875 C 69.269531 83.144531 69.34375 83.339844 69.511719 83.488281 C 69.660156 83.625 69.839844 83.699219 70.050781 83.699219 C 70.261719 83.699219 70.453125 83.640625 70.679688 83.503906 C 70.816406 83.429688 70.980469 83.308594 71.175781 83.144531 C 71.175781 83.296875 71.21875 83.414062 71.28125 83.519531 C 71.355469 83.625 71.476562 83.671875 71.640625 83.671875 C 71.789062 83.671875 71.910156 83.625 72.058594 83.535156 C 72.148438 83.476562 72.238281 83.398438 72.316406 83.296875 L 72.316406 83.113281 C 72.226562 83.175781 72.148438 83.21875 72.121094 83.234375 C 72.105469 83.265625 72.058594 83.265625 72.015625 83.265625 "/>
<path style=" stroke:none;fill-rule:nonzero;fill:rgb(0%,0%,0%);fill-opacity:1;" d="M 122.371094 83.128906 C 122.101562 83.28125 121.769531 83.355469 121.394531 83.355469 C 121.140625 83.355469 120.960938 83.339844 120.886719 83.296875 C 120.808594 83.25 120.78125 83.175781 120.78125 83.039062 L 120.78125 81.164062 C 120.839844 81.179688 120.886719 81.179688 120.914062 81.179688 L 121.125 81.179688 C 121.589844 81.179688 121.980469 81.253906 122.296875 81.40625 C 122.609375 81.570312 122.761719 81.855469 122.761719 82.273438 C 122.773438 82.695312 122.640625 82.996094 122.371094 83.128906 M 120.78125 79.183594 C 120.78125 79.066406 120.796875 78.988281 120.824219 78.960938 C 120.855469 78.929688 120.945312 78.914062 121.109375 78.914062 C 121.53125 78.914062 121.84375 78.960938 122.039062 79.035156 C 122.398438 79.199219 122.59375 79.5 122.59375 79.949219 C 122.59375 80.324219 122.429688 80.59375 122.101562 80.746094 C 121.949219 80.835938 121.726562 80.863281 121.484375 80.863281 L 120.78125 80.878906 Z M 123.253906 81.433594 C 123.015625 81.238281 122.714844 81.105469 122.371094 81.015625 C 122.640625 80.941406 122.863281 80.851562 123 80.746094 C 123.238281 80.566406 123.375 80.296875 123.375 79.933594 C 123.375 79.46875 123.210938 79.125 122.851562 78.929688 C 122.488281 78.734375 122.011719 78.644531 121.410156 78.644531 L 119.308594 78.644531 L 119.308594 78.78125 C 119.609375 78.796875 119.804688 78.839844 119.894531 78.929688 C 119.96875 79.019531 120.03125 79.183594 120.03125 79.46875 L 120.03125 82.800781 C 120.03125 83.085938 119.984375 83.265625 119.894531 83.339844 C 119.804688 83.414062 119.609375 83.476562 119.308594 83.488281 L 119.308594 83.625 L 121.769531 83.625 C 122.175781 83.625 122.550781 83.566406 122.820312 83.460938 C 123.359375 83.234375 123.628906 82.84375 123.628906 82.246094 C 123.613281 81.898438 123.496094 81.613281 123.253906 81.433594 "/>
<path style=" stroke:none;fill-rule:nonzero;fill:rgb(0%,0%,0%);fill-opacity:1;" d="M 130.695312 83.023438 L 130.695312 81.300781 C 130.695312 80.820312 130.558594 80.488281 130.304688 80.308594 C 130.171875 80.203125 130.019531 80.160156 129.839844 80.160156 C 129.644531 80.160156 129.449219 80.21875 129.269531 80.339844 C 129.121094 80.429688 128.953125 80.566406 128.746094 80.773438 L 128.746094 80.25 C 128.746094 80.21875 128.746094 80.203125 128.746094 80.191406 C 128.746094 80.191406 128.730469 80.175781 128.699219 80.175781 L 128.355469 80.296875 C 127.980469 80.398438 127.738281 80.476562 127.636719 80.503906 L 127.636719 80.625 C 127.679688 80.625 127.695312 80.609375 127.726562 80.609375 C 127.753906 80.609375 127.785156 80.609375 127.800781 80.609375 C 127.949219 80.609375 128.039062 80.65625 128.070312 80.746094 C 128.101562 80.804688 128.113281 80.925781 128.113281 81.074219 L 128.113281 82.964844 C 128.113281 83.191406 128.085938 83.324219 128.023438 83.398438 C 127.949219 83.460938 127.816406 83.488281 127.648438 83.519531 L 127.648438 83.625 L 129.238281 83.625 L 129.238281 83.519531 C 129.074219 83.519531 128.953125 83.488281 128.878906 83.429688 C 128.804688 83.371094 128.761719 83.25 128.761719 83.085938 L 128.761719 81.015625 C 128.878906 80.878906 128.984375 80.789062 129.074219 80.730469 C 129.226562 80.640625 129.375 80.578125 129.523438 80.578125 C 129.734375 80.578125 129.871094 80.640625 129.929688 80.789062 C 130.019531 80.925781 130.050781 81.105469 130.050781 81.316406 L 130.050781 82.890625 C 130.050781 83.144531 130.019531 83.308594 129.960938 83.371094 C 129.898438 83.445312 129.765625 83.488281 129.585938 83.519531 L 129.585938 83.625 L 131.160156 83.625 L 131.160156 83.519531 C 131.011719 83.519531 130.875 83.488281 130.816406 83.398438 C 130.738281 83.324219 130.695312 83.203125 130.695312 83.023438 "/>
<path style=" stroke:none;fill-rule:nonzero;fill:rgb(0%,0%,0%);fill-opacity:1;" d="M 134.476562 83.28125 C 134.296875 83.128906 134.039062 82.828125 133.695312 82.378906 L 133.050781 81.496094 L 133.261719 81.316406 C 133.726562 80.878906 134.039062 80.609375 134.21875 80.519531 C 134.386719 80.429688 134.59375 80.371094 134.863281 80.355469 L 134.863281 80.25 L 133.335938 80.25 L 133.335938 80.355469 C 133.484375 80.355469 133.574219 80.371094 133.636719 80.386719 C 133.679688 80.398438 133.710938 80.429688 133.710938 80.488281 C 133.710938 80.519531 133.695312 80.550781 133.664062 80.59375 C 133.648438 80.640625 133.589844 80.683594 133.515625 80.746094 L 132.511719 81.644531 L 132.511719 78.539062 C 132.511719 78.523438 132.511719 78.511719 132.511719 78.496094 C 132.511719 78.480469 132.496094 78.480469 132.496094 78.480469 C 132.480469 78.480469 132.421875 78.511719 132.300781 78.539062 C 132.121094 78.601562 131.894531 78.660156 131.65625 78.71875 L 131.324219 78.808594 L 131.324219 78.914062 C 131.355469 78.914062 131.414062 78.898438 131.445312 78.898438 C 131.488281 78.898438 131.503906 78.898438 131.566406 78.898438 C 131.671875 78.898438 131.761719 78.914062 131.820312 78.960938 C 131.878906 79.003906 131.894531 79.109375 131.894531 79.289062 L 131.894531 82.996094 C 131.894531 83.203125 131.863281 83.324219 131.789062 83.398438 C 131.699219 83.460938 131.550781 83.488281 131.324219 83.503906 L 131.324219 83.609375 L 133.09375 83.609375 L 133.09375 83.503906 C 132.914062 83.503906 132.796875 83.476562 132.703125 83.460938 C 132.601562 83.398438 132.511719 83.28125 132.511719 83.113281 L 132.511719 81.75 L 133.648438 83.234375 C 133.664062 83.265625 133.679688 83.296875 133.695312 83.308594 C 133.710938 83.339844 133.710938 83.371094 133.710938 83.386719 C 133.710938 83.429688 133.695312 83.445312 133.664062 83.476562 C 133.636719 83.476562 133.589844 83.488281 133.546875 83.488281 L 133.425781 83.488281 L 133.425781 83.59375 L 135.058594 83.59375 L 135.058594 83.488281 C 134.835938 83.503906 134.65625 83.429688 134.476562 83.28125 "/>
<path style=" stroke:none;fill-rule:nonzero;fill:rgb(0%,0%,0%);fill-opacity:1;" d="M 78.660156 82.800781 C 78.660156 82.890625 78.585938 83.011719 78.480469 83.113281 C 78.359375 83.234375 78.226562 83.28125 78.015625 83.28125 C 77.65625 83.28125 77.386719 83.128906 77.203125 82.828125 C 77.011719 82.53125 76.933594 82.171875 76.933594 81.78125 C 76.933594 81.390625 77.011719 81.046875 77.191406 80.773438 C 77.371094 80.503906 77.609375 80.371094 77.910156 80.371094 C 78.074219 80.371094 78.238281 80.445312 78.40625 80.566406 C 78.585938 80.699219 78.660156 80.925781 78.660156 81.238281 Z M 79.648438 83.175781 C 79.484375 83.175781 79.363281 83.144531 79.335938 83.085938 C 79.304688 83.023438 79.261719 82.921875 79.261719 82.753906 L 79.273438 79.769531 C 79.273438 79.621094 79.273438 79.484375 79.273438 79.335938 C 79.273438 79.183594 79.289062 79.035156 79.289062 78.898438 L 79.289062 78.511719 L 79.261719 78.496094 C 79.183594 78.523438 79.109375 78.554688 79.066406 78.554688 C 78.988281 78.585938 78.886719 78.613281 78.78125 78.644531 C 78.660156 78.675781 78.570312 78.703125 78.449219 78.734375 L 78.148438 78.808594 L 78.148438 78.929688 C 78.238281 78.929688 78.269531 78.914062 78.300781 78.914062 L 78.390625 78.914062 C 78.523438 78.914062 78.601562 78.945312 78.628906 79.003906 C 78.660156 79.066406 78.691406 79.171875 78.691406 79.304688 L 78.691406 80.460938 C 78.601562 80.371094 78.511719 80.308594 78.40625 80.25 C 78.253906 80.175781 78.089844 80.128906 77.910156 80.128906 C 77.460938 80.128906 77.085938 80.324219 76.769531 80.699219 C 76.46875 81.074219 76.304688 81.539062 76.304688 82.066406 C 76.304688 82.5 76.425781 82.859375 76.695312 83.175781 C 76.949219 83.503906 77.296875 83.65625 77.699219 83.65625 C 77.941406 83.65625 78.136719 83.609375 78.316406 83.488281 C 78.421875 83.429688 78.523438 83.324219 78.675781 83.160156 L 78.675781 83.640625 L 78.703125 83.65625 L 79.273438 83.445312 C 79.621094 83.324219 79.816406 83.265625 79.816406 83.25 L 79.816406 83.128906 C 79.785156 83.128906 79.753906 83.128906 79.726562 83.128906 C 79.710938 83.175781 79.664062 83.175781 79.648438 83.175781 "/>
<path style=" stroke:none;fill-rule:nonzero;fill:rgb(0%,0%,0%);fill-opacity:1;" d="M 81.238281 82.859375 L 81.238281 80.21875 C 81.238281 80.203125 81.238281 80.191406 81.238281 80.160156 C 81.226562 80.160156 81.179688 80.175781 81.105469 80.203125 C 80.941406 80.28125 80.640625 80.386719 80.203125 80.519531 L 80.039062 80.566406 L 80.039062 80.671875 C 80.175781 80.625 80.234375 80.609375 80.265625 80.609375 C 80.296875 80.609375 80.324219 80.609375 80.339844 80.609375 C 80.460938 80.609375 80.535156 80.65625 80.566406 80.761719 C 80.59375 80.835938 80.609375 80.941406 80.609375 81.105469 L 80.609375 82.875 C 80.609375 83.175781 80.566406 83.339844 80.503906 83.398438 C 80.429688 83.476562 80.265625 83.503906 80.011719 83.535156 L 80.011719 83.640625 L 81.796875 83.640625 L 81.796875 83.535156 C 81.570312 83.519531 81.40625 83.476562 81.34375 83.398438 C 81.269531 83.324219 81.238281 83.144531 81.238281 82.859375 "/>
<path style=" stroke:none;fill-rule:nonzero;fill:rgb(0%,0%,0%);fill-opacity:1;" d="M 59.039062 82.859375 L 59.039062 81.359375 C 59.039062 81.074219 59.011719 80.851562 58.921875 80.671875 C 58.785156 80.324219 58.5 80.160156 58.109375 80.160156 C 57.871094 80.160156 57.628906 80.234375 57.421875 80.386719 C 57.316406 80.460938 57.179688 80.59375 57.015625 80.773438 L 57.015625 78.523438 L 57 78.496094 L 56.65625 78.601562 C 56.59375 78.628906 56.476562 78.660156 56.324219 78.703125 C 56.160156 78.75 56.023438 78.78125 55.921875 78.824219 L 55.921875 78.960938 C 55.949219 78.945312 55.996094 78.945312 56.011719 78.945312 C 56.039062 78.945312 56.054688 78.945312 56.085938 78.945312 C 56.21875 78.945312 56.308594 78.976562 56.339844 79.050781 C 56.371094 79.109375 56.398438 79.214844 56.398438 79.351562 L 56.398438 82.859375 C 56.398438 83.128906 56.371094 83.308594 56.296875 83.371094 C 56.234375 83.445312 56.101562 83.488281 55.90625 83.519531 L 55.90625 83.625 L 57.539062 83.625 L 57.539062 83.519531 C 57.328125 83.488281 57.195312 83.445312 57.136719 83.371094 C 57.074219 83.308594 57.03125 83.128906 57.03125 82.859375 L 57.03125 81.058594 C 57.03125 81.015625 57.121094 80.925781 57.300781 80.789062 C 57.480469 80.65625 57.660156 80.578125 57.855469 80.578125 C 58.066406 80.578125 58.214844 80.65625 58.304688 80.804688 C 58.378906 80.953125 58.425781 81.148438 58.425781 81.375 L 58.425781 82.859375 C 58.425781 83.128906 58.394531 83.308594 58.335938 83.371094 C 58.261719 83.445312 58.125 83.488281 57.914062 83.519531 L 57.914062 83.625 L 59.519531 83.625 L 59.519531 83.519531 C 59.339844 83.503906 59.203125 83.445312 59.144531 83.371094 C 59.070312 83.296875 59.039062 83.128906 59.039062 82.859375 "/>
<path style=" stroke:none;fill-rule:nonzero;fill:rgb(0%,0%,0%);fill-opacity:1;" d="M 51.375 78.644531 L 51.34375 79.933594 L 51.523438 79.933594 C 51.601562 79.53125 51.71875 79.273438 51.871094 79.15625 C 52.019531 79.035156 52.304688 78.976562 52.738281 78.976562 L 53.128906 78.976562 L 53.128906 82.726562 C 53.128906 83.054688 53.085938 83.265625 53.011719 83.339844 C 52.921875 83.414062 52.726562 83.476562 52.410156 83.503906 L 52.410156 83.640625 L 54.601562 83.640625 L 54.601562 83.503906 C 54.300781 83.488281 54.105469 83.429688 54.015625 83.371094 C 53.925781 83.296875 53.878906 83.113281 53.878906 82.828125 L 53.878906 78.988281 L 54.285156 78.988281 C 54.71875 78.988281 55.003906 79.050781 55.140625 79.171875 C 55.273438 79.289062 55.378906 79.558594 55.46875 79.949219 L 55.648438 79.949219 L 55.605469 78.660156 L 51.375 78.660156 Z M 51.375 78.644531 "/>
<path style=" stroke:none;fill-rule:nonzero;fill:rgb(0%,0%,0%);fill-opacity:1;" d="M 67.394531 80.878906 L 66.734375 80.476562 C 66.480469 80.324219 66.316406 80.175781 66.195312 80.039062 C 66.058594 79.90625 66.015625 79.738281 66.015625 79.546875 C 66.015625 79.335938 66.074219 79.15625 66.238281 79.035156 C 66.390625 78.914062 66.570312 78.855469 66.78125 78.855469 C 67.050781 78.855469 67.320312 78.945312 67.574219 79.140625 C 67.84375 79.335938 68.054688 79.664062 68.175781 80.144531 L 68.355469 80.144531 L 68.191406 78.539062 L 68.039062 78.539062 C 68.023438 78.613281 67.996094 78.675781 67.949219 78.71875 C 67.921875 78.765625 67.859375 78.78125 67.769531 78.78125 C 67.738281 78.78125 67.605469 78.734375 67.351562 78.660156 C 67.109375 78.570312 66.914062 78.539062 66.734375 78.539062 C 66.328125 78.539062 65.984375 78.675781 65.714844 78.929688 C 65.476562 79.183594 65.355469 79.5 65.355469 79.875 C 65.355469 80.160156 65.460938 80.414062 65.671875 80.65625 C 65.773438 80.789062 65.941406 80.910156 66.121094 81.03125 L 66.765625 81.433594 C 67.125 81.660156 67.378906 81.839844 67.484375 81.960938 C 67.664062 82.140625 67.753906 82.351562 67.753906 82.605469 C 67.753906 82.875 67.664062 83.085938 67.484375 83.234375 C 67.304688 83.386719 67.109375 83.460938 66.871094 83.460938 C 66.421875 83.460938 66.046875 83.28125 65.746094 82.933594 C 65.578125 82.738281 65.414062 82.46875 65.296875 82.125 L 65.113281 82.125 L 65.339844 83.730469 L 65.519531 83.730469 C 65.535156 83.65625 65.550781 83.59375 65.59375 83.550781 C 65.625 83.488281 65.683594 83.476562 65.761719 83.476562 C 65.804688 83.476562 65.941406 83.503906 66.195312 83.59375 C 66.449219 83.683594 66.703125 83.730469 66.929688 83.730469 C 67.394531 83.730469 67.769531 83.59375 68.070312 83.324219 C 68.371094 83.070312 68.519531 82.726562 68.519531 82.335938 C 68.519531 82.035156 68.429688 81.78125 68.265625 81.570312 C 68.101562 81.375 67.816406 81.148438 67.394531 80.878906 "/>
<path style=" stroke:none;fill-rule:nonzero;fill:rgb(0%,0%,0%);fill-opacity:1;" d="M 60.480469 80.835938 C 60.628906 80.59375 60.824219 80.460938 61.125 80.460938 C 61.394531 80.460938 61.605469 80.566406 61.726562 80.789062 C 61.785156 80.910156 61.84375 81.089844 61.859375 81.328125 L 60.316406 81.328125 C 60.359375 81.121094 60.40625 80.96875 60.480469 80.835938 M 62.160156 82.980469 C 61.980469 83.113281 61.769531 83.175781 61.515625 83.175781 C 61.199219 83.175781 60.929688 83.054688 60.691406 82.785156 C 60.464844 82.53125 60.328125 82.109375 60.316406 81.554688 L 62.640625 81.554688 C 62.640625 81.121094 62.519531 80.789062 62.25 80.550781 C 61.980469 80.308594 61.679688 80.191406 61.351562 80.191406 C 60.886719 80.191406 60.496094 80.371094 60.210938 80.714844 C 59.910156 81.074219 59.761719 81.496094 59.761719 81.988281 C 59.761719 82.453125 59.894531 82.84375 60.136719 83.191406 C 60.40625 83.535156 60.75 83.714844 61.199219 83.714844 C 61.605469 83.714844 61.949219 83.578125 62.21875 83.324219 C 62.488281 83.054688 62.683594 82.769531 62.773438 82.453125 L 62.640625 82.410156 C 62.488281 82.648438 62.339844 82.84375 62.160156 82.980469 "/>
<path style=" stroke:none;fill-rule:nonzero;fill:rgb(0%,0%,0%);fill-opacity:1;" d="M 75.554688 83.175781 C 75.496094 83.113281 75.464844 83.011719 75.464844 82.84375 L 75.464844 80.234375 L 74.28125 80.234375 L 74.28125 80.355469 C 74.503906 80.371094 74.65625 80.398438 74.714844 80.460938 C 74.789062 80.519531 74.820312 80.640625 74.820312 80.835938 L 74.820312 82.84375 C 74.730469 82.949219 74.640625 83.039062 74.550781 83.101562 C 74.386719 83.203125 74.21875 83.265625 74.054688 83.265625 C 73.816406 83.265625 73.664062 83.175781 73.574219 82.980469 C 73.53125 82.875 73.5 82.753906 73.5 82.589844 L 73.5 80.25 L 72.40625 80.25 L 72.40625 80.355469 C 72.570312 80.386719 72.691406 80.398438 72.75 80.445312 C 72.839844 80.503906 72.886719 80.65625 72.886719 80.835938 L 72.886719 82.738281 C 72.886719 83.101562 72.976562 83.355469 73.171875 83.503906 C 73.351562 83.65625 73.558594 83.730469 73.769531 83.730469 C 74.011719 83.730469 74.21875 83.65625 74.429688 83.519531 C 74.566406 83.414062 74.714844 83.28125 74.878906 83.070312 L 74.878906 83.683594 C 74.878906 83.699219 74.878906 83.714844 74.878906 83.714844 C 74.878906 83.730469 74.894531 83.730469 74.910156 83.730469 C 75.121094 83.65625 75.269531 83.609375 75.316406 83.578125 C 75.480469 83.535156 75.570312 83.503906 75.644531 83.488281 C 75.703125 83.476562 75.808594 83.460938 75.945312 83.414062 L 75.945312 83.308594 C 75.75 83.265625 75.628906 83.25 75.554688 83.175781 "/>
<path style=" stroke:none;fill-rule:nonzero;fill:rgb(0%,0%,0%);fill-opacity:1;" d="M 83.984375 78.796875 C 84.285156 78.808594 84.480469 78.855469 84.554688 78.945312 C 84.644531 79.035156 84.691406 79.199219 84.691406 79.484375 L 84.691406 82.816406 C 84.691406 83.113281 84.644531 83.296875 84.554688 83.371094 C 84.480469 83.445312 84.269531 83.488281 83.984375 83.503906 L 83.984375 83.640625 L 86.175781 83.640625 L 86.175781 83.503906 C 85.875 83.488281 85.679688 83.429688 85.605469 83.371094 C 85.515625 83.296875 85.46875 83.113281 85.46875 82.816406 L 85.46875 79.484375 C 85.46875 79.199219 85.515625 79.019531 85.605469 78.945312 C 85.679688 78.871094 85.890625 78.808594 86.175781 78.796875 L 86.175781 78.660156 L 83.984375 78.660156 Z M 83.984375 78.796875 "/>
<path style=" stroke:none;fill-rule:nonzero;fill:rgb(0%,0%,0%);fill-opacity:1;" d="M 108.945312 80.835938 C 109.09375 80.59375 109.304688 80.460938 109.589844 80.460938 C 109.875 80.460938 110.070312 80.566406 110.191406 80.789062 C 110.265625 80.910156 110.296875 81.089844 110.339844 81.328125 L 108.796875 81.328125 C 108.824219 81.121094 108.886719 80.96875 108.945312 80.835938 M 110.640625 82.980469 C 110.460938 83.113281 110.25 83.175781 109.996094 83.175781 C 109.679688 83.175781 109.394531 83.054688 109.171875 82.785156 C 108.929688 82.53125 108.808594 82.109375 108.78125 81.554688 L 111.105469 81.554688 C 111.105469 81.121094 110.984375 80.789062 110.714844 80.550781 C 110.460938 80.308594 110.160156 80.191406 109.816406 80.191406 C 109.335938 80.191406 108.960938 80.371094 108.675781 80.714844 C 108.390625 81.074219 108.238281 81.496094 108.238281 81.988281 C 108.238281 82.453125 108.359375 82.84375 108.613281 83.191406 C 108.871094 83.535156 109.230469 83.714844 109.695312 83.714844 C 110.085938 83.714844 110.414062 83.578125 110.699219 83.324219 C 110.984375 83.054688 111.179688 82.769531 111.253906 82.453125 L 111.121094 82.410156 C 110.96875 82.648438 110.804688 82.84375 110.640625 82.980469 "/>
<path style=" stroke:none;fill-rule:nonzero;fill:rgb(0%,0%,0%);fill-opacity:1;" d="M 114.613281 83.023438 L 114.613281 81.300781 C 114.613281 80.820312 114.480469 80.488281 114.226562 80.308594 C 114.089844 80.203125 113.941406 80.160156 113.773438 80.160156 C 113.566406 80.160156 113.371094 80.21875 113.175781 80.339844 C 113.054688 80.429688 112.875 80.566406 112.648438 80.773438 L 112.648438 80.25 C 112.648438 80.21875 112.648438 80.203125 112.636719 80.191406 C 112.636719 80.191406 112.605469 80.175781 112.605469 80.175781 L 112.261719 80.296875 C 111.886719 80.398438 111.644531 80.476562 111.523438 80.503906 L 111.523438 80.625 C 111.570312 80.625 111.601562 80.609375 111.628906 80.609375 C 111.644531 80.609375 111.660156 80.609375 111.691406 80.609375 C 111.839844 80.609375 111.914062 80.65625 111.976562 80.746094 C 112.003906 80.804688 112.035156 80.925781 112.035156 81.074219 L 112.035156 82.964844 C 112.035156 83.191406 111.988281 83.324219 111.914062 83.398438 C 111.855469 83.460938 111.71875 83.488281 111.554688 83.519531 L 111.554688 83.625 L 113.144531 83.625 L 113.144531 83.519531 C 112.980469 83.519531 112.859375 83.488281 112.769531 83.429688 C 112.710938 83.371094 112.664062 83.25 112.664062 83.085938 L 112.664062 81.015625 C 112.785156 80.878906 112.90625 80.789062 112.964844 80.730469 C 113.128906 80.640625 113.265625 80.578125 113.414062 80.578125 C 113.625 80.578125 113.773438 80.640625 113.835938 80.789062 C 113.925781 80.925781 113.96875 81.105469 113.96875 81.316406 L 113.96875 82.890625 C 113.96875 83.144531 113.925781 83.308594 113.851562 83.371094 C 113.773438 83.445312 113.65625 83.488281 113.476562 83.519531 L 113.476562 83.625 L 115.050781 83.625 L 115.050781 83.519531 C 114.886719 83.519531 114.78125 83.488281 114.691406 83.398438 C 114.644531 83.324219 114.613281 83.203125 114.613281 83.023438 "/>
<path style=" stroke:none;fill-rule:nonzero;fill:rgb(0%,0%,0%);fill-opacity:1;" d="M 116.953125 83.21875 C 116.894531 83.25 116.820312 83.28125 116.730469 83.28125 C 116.566406 83.28125 116.445312 83.191406 116.386719 83.023438 C 116.355469 82.933594 116.355469 82.785156 116.355469 82.605469 L 116.355469 80.503906 L 117.105469 80.503906 L 117.105469 80.25 L 116.355469 80.25 L 116.355469 79.351562 C 116.355469 79.320312 116.355469 79.304688 116.355469 79.304688 C 116.355469 79.304688 116.324219 79.289062 116.28125 79.289062 C 116.011719 79.664062 115.84375 79.890625 115.753906 79.980469 C 115.695312 80.070312 115.558594 80.191406 115.394531 80.324219 C 115.335938 80.371094 115.289062 80.398438 115.273438 80.414062 C 115.273438 80.429688 115.273438 80.445312 115.273438 80.476562 C 115.273438 80.476562 115.273438 80.488281 115.273438 80.503906 C 115.273438 80.519531 115.289062 80.519531 115.304688 80.535156 L 115.695312 80.535156 L 115.695312 82.753906 C 115.695312 83.011719 115.726562 83.191406 115.785156 83.339844 C 115.875 83.59375 116.085938 83.714844 116.371094 83.714844 C 116.519531 83.714844 116.640625 83.699219 116.789062 83.609375 C 116.925781 83.535156 117.058594 83.414062 117.195312 83.25 L 117.269531 83.128906 L 117.179688 83.054688 C 117.105469 83.113281 117.015625 83.175781 116.953125 83.21875 "/>
<path style=" stroke:none;fill-rule:nonzero;fill:rgb(0%,0%,0%);fill-opacity:1;" d="M 101.910156 83.21875 C 101.851562 83.25 101.773438 83.28125 101.683594 83.28125 C 101.519531 83.28125 101.398438 83.191406 101.339844 83.023438 C 101.308594 82.933594 101.296875 82.785156 101.296875 82.605469 L 101.308594 80.503906 L 102.074219 80.503906 L 102.074219 80.25 L 101.324219 80.25 L 101.324219 79.351562 C 101.324219 79.320312 101.324219 79.304688 101.324219 79.304688 C 101.308594 79.304688 101.296875 79.289062 101.265625 79.289062 C 100.996094 79.664062 100.816406 79.890625 100.726562 79.980469 C 100.664062 80.070312 100.546875 80.191406 100.363281 80.324219 C 100.304688 80.371094 100.273438 80.398438 100.261719 80.414062 C 100.246094 80.429688 100.246094 80.445312 100.246094 80.476562 C 100.246094 80.476562 100.246094 80.488281 100.246094 80.503906 C 100.246094 80.519531 100.261719 80.519531 100.273438 80.535156 L 100.679688 80.535156 L 100.679688 82.753906 C 100.679688 83.011719 100.710938 83.191406 100.769531 83.339844 C 100.859375 83.59375 101.070312 83.714844 101.355469 83.714844 C 101.488281 83.714844 101.625 83.699219 101.761719 83.609375 C 101.894531 83.535156 102.046875 83.414062 102.164062 83.25 L 102.253906 83.128906 L 102.148438 83.054688 C 102.058594 83.113281 101.984375 83.175781 101.910156 83.21875 "/>
<path style=" stroke:none;fill-rule:nonzero;fill:rgb(0%,0%,0%);fill-opacity:1;" d="M 107.503906 83.054688 L 107.503906 81.539062 C 107.503906 81.148438 107.476562 80.863281 107.386719 80.683594 C 107.265625 80.355469 106.996094 80.203125 106.589844 80.203125 C 106.351562 80.203125 106.125 80.28125 105.898438 80.429688 C 105.765625 80.519531 105.601562 80.65625 105.421875 80.835938 C 105.375 80.671875 105.316406 80.550781 105.238281 80.460938 C 105.089844 80.296875 104.878906 80.203125 104.640625 80.203125 C 104.460938 80.203125 104.28125 80.25 104.101562 80.324219 C 103.933594 80.414062 103.726562 80.566406 103.484375 80.789062 L 103.484375 80.296875 C 103.484375 80.265625 103.484375 80.234375 103.484375 80.21875 C 103.484375 80.203125 103.46875 80.203125 103.453125 80.203125 C 103.441406 80.203125 103.335938 80.25 103.109375 80.324219 C 102.886719 80.414062 102.71875 80.476562 102.628906 80.503906 L 102.375 80.578125 L 102.375 80.714844 C 102.421875 80.699219 102.433594 80.699219 102.464844 80.683594 C 102.480469 80.683594 102.523438 80.683594 102.570312 80.683594 C 102.691406 80.683594 102.765625 80.714844 102.808594 80.761719 C 102.855469 80.820312 102.871094 80.941406 102.871094 81.121094 L 102.871094 83.011719 C 102.871094 83.21875 102.824219 83.355469 102.734375 83.429688 C 102.675781 83.488281 102.539062 83.503906 102.359375 83.519531 L 102.359375 83.625 L 104.039062 83.625 L 104.039062 83.519531 C 103.828125 83.519531 103.679688 83.488281 103.605469 83.414062 C 103.546875 83.339844 103.515625 83.21875 103.515625 83.039062 L 103.515625 81.015625 C 103.621094 80.878906 103.738281 80.773438 103.875 80.683594 C 104.023438 80.609375 104.175781 80.566406 104.324219 80.566406 C 104.59375 80.566406 104.761719 80.683594 104.835938 80.925781 C 104.878906 81.074219 104.910156 81.328125 104.910156 81.703125 L 104.910156 82.726562 C 104.910156 83.070312 104.878906 83.265625 104.820312 83.339844 C 104.746094 83.414062 104.59375 83.476562 104.371094 83.503906 L 104.371094 83.609375 L 106.050781 83.609375 L 106.050781 83.503906 C 105.808594 83.503906 105.675781 83.445312 105.601562 83.339844 C 105.539062 83.234375 105.496094 83.085938 105.496094 82.90625 L 105.496094 81.015625 C 105.613281 80.878906 105.734375 80.773438 105.824219 80.714844 C 105.988281 80.609375 106.140625 80.550781 106.304688 80.550781 C 106.558594 80.550781 106.738281 80.65625 106.84375 80.851562 C 106.890625 80.96875 106.90625 81.136719 106.90625 81.390625 L 106.90625 82.980469 C 106.90625 83.175781 106.875 83.308594 106.816406 83.386719 C 106.738281 83.445312 106.589844 83.488281 106.378906 83.503906 L 106.378906 83.609375 L 108.046875 83.609375 L 108.046875 83.503906 C 107.835938 83.488281 107.699219 83.460938 107.625 83.386719 C 107.550781 83.339844 107.503906 83.21875 107.503906 83.054688 "/>
<path style=" stroke:none;fill-rule:nonzero;fill:rgb(0%,0%,0%);fill-opacity:1;" d="M 89.550781 83.023438 L 89.550781 81.300781 C 89.550781 80.820312 89.398438 80.488281 89.144531 80.308594 C 88.996094 80.203125 88.859375 80.160156 88.695312 80.160156 C 88.5 80.160156 88.289062 80.21875 88.09375 80.339844 C 87.960938 80.429688 87.796875 80.566406 87.570312 80.773438 L 87.570312 80.25 C 87.570312 80.21875 87.570312 80.203125 87.554688 80.191406 C 87.539062 80.191406 87.539062 80.175781 87.523438 80.175781 L 87.179688 80.296875 C 86.804688 80.398438 86.566406 80.476562 86.460938 80.503906 L 86.460938 80.625 C 86.488281 80.625 86.535156 80.609375 86.550781 80.609375 C 86.578125 80.609375 86.59375 80.609375 86.625 80.609375 C 86.773438 80.609375 86.863281 80.65625 86.910156 80.746094 C 86.941406 80.804688 86.953125 80.925781 86.953125 81.074219 L 86.953125 82.964844 C 86.953125 83.191406 86.925781 83.324219 86.851562 83.398438 C 86.773438 83.460938 86.65625 83.488281 86.488281 83.519531 L 86.488281 83.625 L 88.09375 83.625 L 88.09375 83.519531 C 87.914062 83.519531 87.796875 83.488281 87.71875 83.429688 C 87.644531 83.371094 87.601562 83.25 87.601562 83.085938 L 87.601562 81.015625 C 87.734375 80.878906 87.824219 80.789062 87.929688 80.730469 C 88.078125 80.640625 88.214844 80.578125 88.363281 80.578125 C 88.574219 80.578125 88.710938 80.640625 88.785156 80.789062 C 88.859375 80.925781 88.90625 81.105469 88.90625 81.316406 L 88.90625 82.890625 C 88.90625 83.144531 88.859375 83.308594 88.785156 83.371094 C 88.726562 83.445312 88.589844 83.488281 88.394531 83.519531 L 88.394531 83.625 L 90 83.625 L 90 83.519531 C 89.835938 83.519531 89.714844 83.488281 89.640625 83.398438 C 89.566406 83.324219 89.550781 83.203125 89.550781 83.023438 "/>
<path style=" stroke:none;fill-rule:nonzero;fill:rgb(0%,0%,0%);fill-opacity:1;" d="M 92.640625 80.308594 C 92.746094 80.308594 92.820312 80.324219 92.863281 80.355469 C 92.96875 80.398438 93 80.476562 93 80.566406 C 93 80.609375 92.984375 80.683594 92.96875 80.773438 C 92.941406 80.863281 92.910156 80.941406 92.878906 81.03125 L 92.21875 82.664062 L 91.441406 80.804688 C 91.410156 80.746094 91.394531 80.683594 91.378906 80.640625 C 91.378906 80.609375 91.363281 80.578125 91.363281 80.535156 C 91.363281 80.460938 91.378906 80.414062 91.441406 80.371094 C 91.5 80.355469 91.589844 80.324219 91.710938 80.308594 L 91.710938 80.203125 L 90.238281 80.203125 L 90.238281 80.308594 C 90.359375 80.324219 90.433594 80.355469 90.496094 80.398438 C 90.601562 80.476562 90.691406 80.625 90.78125 80.851562 L 91.90625 83.550781 C 91.921875 83.59375 91.949219 83.625 91.964844 83.65625 C 91.980469 83.671875 91.996094 83.683594 92.011719 83.683594 C 92.039062 83.683594 92.054688 83.683594 92.085938 83.671875 C 92.101562 83.65625 92.113281 83.625 92.144531 83.566406 L 93.195312 80.910156 C 93.269531 80.65625 93.375 80.503906 93.421875 80.429688 C 93.464844 80.355469 93.554688 80.324219 93.691406 80.296875 L 93.691406 80.191406 L 92.640625 80.191406 Z M 92.640625 80.308594 "/>
<path style=" stroke:none;fill-rule:nonzero;fill:rgb(0%,0%,0%);fill-opacity:1;" d="M 99.046875 81.71875 L 98.566406 81.464844 C 98.21875 81.285156 98.054688 81.089844 98.054688 80.863281 C 98.054688 80.714844 98.113281 80.59375 98.203125 80.488281 C 98.308594 80.386719 98.445312 80.339844 98.609375 80.339844 C 98.910156 80.339844 99.121094 80.460938 99.269531 80.699219 C 99.359375 80.835938 99.421875 81.015625 99.480469 81.253906 L 99.585938 81.253906 L 99.570312 80.234375 L 99.496094 80.234375 C 99.480469 80.25 99.449219 80.28125 99.433594 80.28125 C 99.421875 80.296875 99.390625 80.296875 99.34375 80.296875 C 99.316406 80.296875 99.238281 80.265625 99.074219 80.21875 C 98.925781 80.175781 98.773438 80.144531 98.65625 80.144531 C 98.355469 80.144531 98.101562 80.234375 97.90625 80.398438 C 97.710938 80.578125 97.621094 80.804688 97.621094 81.074219 C 97.621094 81.300781 97.695312 81.496094 97.828125 81.660156 C 97.980469 81.824219 98.191406 81.988281 98.503906 82.15625 L 98.910156 82.378906 C 99.074219 82.46875 99.164062 82.558594 99.238281 82.664062 C 99.300781 82.753906 99.316406 82.859375 99.316406 82.964844 C 99.316406 83.128906 99.269531 83.265625 99.164062 83.371094 C 99.058594 83.476562 98.910156 83.519531 98.730469 83.519531 C 98.398438 83.519531 98.144531 83.386719 97.980469 83.113281 C 97.875 82.964844 97.800781 82.738281 97.738281 82.46875 L 97.621094 82.46875 L 97.621094 83.65625 L 97.726562 83.65625 C 97.738281 83.625 97.769531 83.59375 97.785156 83.578125 C 97.816406 83.566406 97.828125 83.550781 97.859375 83.550781 C 97.890625 83.550781 97.996094 83.578125 98.191406 83.625 C 98.371094 83.683594 98.535156 83.699219 98.683594 83.699219 C 99.03125 83.699219 99.300781 83.609375 99.523438 83.429688 C 99.75 83.25 99.855469 83.011719 99.855469 82.726562 C 99.839844 82.335938 99.570312 82.003906 99.046875 81.71875 "/>
<path style=" stroke:none;fill-rule:nonzero;fill:rgb(0%,0%,0%);fill-opacity:1;" d="M 94.753906 80.835938 C 94.90625 80.59375 95.113281 80.460938 95.386719 80.460938 C 95.671875 80.460938 95.863281 80.566406 96 80.789062 C 96.058594 80.910156 96.105469 81.089844 96.136719 81.328125 L 94.574219 81.328125 C 94.621094 81.121094 94.679688 80.96875 94.753906 80.835938 M 96.421875 82.980469 C 96.253906 83.113281 96.03125 83.175781 95.773438 83.175781 C 95.460938 83.175781 95.191406 83.054688 94.949219 82.785156 C 94.710938 82.53125 94.574219 82.109375 94.558594 81.554688 L 96.898438 81.554688 C 96.898438 81.121094 96.78125 80.789062 96.511719 80.550781 C 96.238281 80.308594 95.953125 80.191406 95.59375 80.191406 C 95.128906 80.191406 94.738281 80.371094 94.453125 80.714844 C 94.171875 81.074219 94.035156 81.496094 94.035156 81.988281 C 94.035156 82.453125 94.15625 82.84375 94.410156 83.191406 C 94.664062 83.535156 95.011719 83.714844 95.476562 83.714844 C 95.863281 83.714844 96.210938 83.578125 96.496094 83.324219 C 96.765625 83.054688 96.960938 82.769531 97.050781 82.453125 L 96.914062 82.410156 C 96.765625 82.648438 96.601562 82.84375 96.421875 82.980469 "/>
<path style=" stroke:none;fill-rule:nonzero;fill:rgb(0%,0%,0%);fill-opacity:1;" d="M 126.328125 82.769531 C 126.328125 82.90625 126.269531 83.023438 126.105469 83.113281 C 125.96875 83.203125 125.804688 83.25 125.640625 83.25 C 125.503906 83.25 125.414062 83.21875 125.324219 83.144531 C 125.160156 83.023438 125.101562 82.859375 125.101562 82.636719 C 125.101562 82.351562 125.28125 82.109375 125.640625 81.886719 C 125.820312 81.765625 126.058594 81.675781 126.328125 81.570312 Z M 127.171875 83.265625 C 127.078125 83.265625 127.003906 83.21875 126.976562 83.128906 C 126.960938 83.085938 126.960938 82.980469 126.960938 82.84375 L 126.960938 81.359375 C 126.960938 81.046875 126.898438 80.789062 126.824219 80.625 C 126.644531 80.324219 126.328125 80.160156 125.851562 80.160156 C 125.445312 80.160156 125.128906 80.265625 124.921875 80.445312 C 124.710938 80.625 124.589844 80.804688 124.589844 80.984375 C 124.589844 81.074219 124.621094 81.148438 124.695312 81.226562 C 124.738281 81.300781 124.828125 81.328125 124.949219 81.328125 C 125.023438 81.328125 125.085938 81.316406 125.144531 81.285156 C 125.234375 81.226562 125.28125 81.136719 125.28125 81 C 125.28125 80.984375 125.265625 80.941406 125.265625 80.863281 C 125.265625 80.789062 125.265625 80.746094 125.265625 80.714844 C 125.265625 80.59375 125.324219 80.503906 125.414062 80.429688 C 125.535156 80.371094 125.65625 80.339844 125.773438 80.339844 C 126.046875 80.339844 126.210938 80.414062 126.300781 80.578125 C 126.34375 80.683594 126.359375 80.851562 126.359375 81.105469 L 126.359375 81.421875 C 125.683594 81.675781 125.25 81.871094 125.011719 82.019531 C 124.648438 82.273438 124.46875 82.558594 124.46875 82.921875 C 124.46875 83.144531 124.558594 83.339844 124.710938 83.488281 C 124.859375 83.625 125.054688 83.699219 125.25 83.699219 C 125.460938 83.699219 125.671875 83.640625 125.894531 83.503906 C 126.03125 83.429688 126.195312 83.308594 126.359375 83.144531 C 126.375 83.296875 126.421875 83.414062 126.496094 83.519531 C 126.570312 83.625 126.691406 83.671875 126.855469 83.671875 C 126.988281 83.671875 127.125 83.625 127.273438 83.535156 C 127.363281 83.476562 127.453125 83.398438 127.53125 83.296875 L 127.53125 83.113281 C 127.441406 83.175781 127.378906 83.21875 127.335938 83.234375 C 127.273438 83.265625 127.230469 83.265625 127.171875 83.265625 "/>
<path style=" stroke:none;fill-rule:nonzero;fill:rgb(0%,0%,0%);fill-opacity:1;" d="M 52.605469 74.085938 L 52.605469 75.691406 C 52.605469 76.246094 52.484375 76.980469 51.34375 76.679688 C 52.378906 77.488281 53.683594 76.84375 53.683594 75.75 L 53.683594 73.140625 C 53.414062 73.921875 52.90625 74.085938 52.605469 74.085938 M 98.265625 73.335938 C 98.265625 73.335938 98.085938 73.394531 97.933594 73.441406 C 97.351562 73.574219 97.183594 73.769531 97.183594 74.191406 L 97.183594 74.59375 L 98.265625 74.59375 Z M 111.253906 66.269531 C 111.480469 66.523438 111.765625 66.824219 112.261719 67.183594 L 112.261719 75.691406 L 99.34375 75.691406 L 99.34375 75.75 C 99.34375 76.84375 98.039062 77.488281 97.003906 76.679688 C 98.144531 76.980469 98.265625 76.246094 98.265625 75.691406 L 98.265625 75.675781 L 96.121094 75.675781 L 96.121094 74.144531 C 96.121094 73.320312 96.496094 72.660156 97.679688 72.449219 C 98.476562 72.300781 99.015625 72.148438 99.359375 71.863281 L 99.359375 74.59375 L 100.363281 74.59375 L 100.363281 73.574219 C 100.363281 72.988281 100.738281 72.585938 101.535156 72.585938 L 102.660156 72.585938 L 102.660156 73.378906 L 101.671875 73.378906 C 101.488281 73.378906 101.429688 73.46875 101.429688 73.710938 L 101.429688 74.609375 L 104.851562 74.609375 L 104.851562 73.066406 C 105.015625 73.035156 105.164062 73.003906 105.328125 72.976562 C 105.523438 72.929688 105.734375 72.871094 105.929688 72.824219 L 105.929688 74.609375 L 106.996094 74.609375 L 106.996094 72.480469 C 107.371094 72.34375 107.730469 72.195312 108.074219 72.015625 L 108.074219 74.609375 L 109.125 74.609375 L 109.125 71.398438 C 109.558594 71.113281 109.90625 70.816406 110.203125 70.5 L 110.203125 74.609375 L 111.269531 74.609375 L 111.269531 66.269531 Z M 57.960938 75.929688 C 58.378906 75.929688 58.695312 75.601562 58.695312 75.179688 C 58.695312 74.761719 58.363281 74.429688 57.960938 74.429688 C 57.554688 74.429688 57.226562 74.761719 57.226562 75.179688 C 57.226562 75.601562 57.554688 75.929688 57.960938 75.929688 M 72.074219 71.398438 C 72.496094 71.113281 72.871094 70.816406 73.15625 70.5 L 73.15625 75.691406 L 59.566406 75.691406 C 59.355469 76.378906 58.710938 76.875 57.960938 76.875 C 57.210938 76.875 56.566406 76.378906 56.371094 75.691406 L 54.691406 75.691406 L 54.691406 67.15625 C 54.886719 67.050781 55.363281 66.765625 55.769531 66.285156 L 55.769531 74.609375 L 56.398438 74.609375 C 56.640625 73.980469 57.253906 73.53125 57.960938 73.53125 C 58.679688 73.53125 59.28125 73.980469 59.519531 74.609375 L 62.070312 74.609375 L 62.070312 71.308594 C 62.488281 71.070312 62.925781 70.769531 63.148438 70.515625 L 63.148438 74.609375 L 65.671875 74.609375 L 65.671875 71.308594 C 66.121094 71.070312 66.523438 70.769531 66.734375 70.5 L 66.734375 74.609375 L 67.800781 74.609375 L 67.800781 73.078125 C 67.949219 73.050781 68.101562 73.019531 68.265625 72.988281 C 68.476562 72.945312 68.65625 72.898438 68.878906 72.839844 L 68.878906 74.625 L 69.960938 74.625 L 69.960938 72.496094 C 70.320312 72.34375 70.679688 72.195312 71.023438 72.03125 L 71.023438 74.625 L 72.089844 74.625 L 72.089844 71.398438 Z M 62.578125 68.25 C 62.878906 68.25 63.105469 68.011719 63.105469 67.710938 C 63.105469 67.410156 62.863281 67.171875 62.578125 67.171875 C 62.265625 67.171875 62.054688 67.410156 62.054688 67.710938 C 62.054688 68.011719 62.265625 68.25 62.578125 68.25 M 127.230469 69.105469 C 127.53125 69.105469 127.769531 68.863281 127.769531 68.566406 C 127.769531 68.28125 127.53125 68.039062 127.230469 68.039062 C 126.945312 68.039062 126.691406 68.28125 126.691406 68.566406 C 126.691406 68.863281 126.945312 69.105469 127.230469 69.105469 M 129.644531 76.199219 C 129.34375 76.199219 129.105469 76.441406 129.105469 76.738281 C 129.105469 77.023438 129.34375 77.28125 129.644531 77.28125 C 129.945312 77.28125 130.171875 77.039062 130.171875 76.738281 C 130.171875 76.441406 129.929688 76.199219 129.644531 76.199219 M 87.210938 76.199219 C 86.910156 76.199219 86.671875 76.441406 86.671875 76.738281 C 86.671875 77.023438 86.910156 77.28125 87.210938 77.28125 C 87.511719 77.28125 87.75 77.039062 87.75 76.738281 C 87.75 76.441406 87.511719 76.199219 87.210938 76.199219 M 85.84375 76.199219 C 85.546875 76.199219 85.320312 76.441406 85.320312 76.738281 C 85.320312 77.023438 85.546875 77.28125 85.84375 77.28125 C 86.144531 77.28125 86.386719 77.039062 86.386719 76.738281 C 86.371094 76.441406 86.128906 76.199219 85.84375 76.199219 M 67.035156 69.359375 C 67.320312 69.359375 67.558594 69.121094 67.558594 68.835938 C 67.558594 68.535156 67.320312 68.296875 67.035156 68.296875 C 66.75 68.296875 66.511719 68.535156 66.511719 68.835938 C 66.511719 69.121094 66.75 69.359375 67.035156 69.359375 M 65.671875 69.359375 C 65.96875 69.359375 66.210938 69.121094 66.210938 68.835938 C 66.210938 68.535156 65.984375 68.296875 65.671875 68.296875 C 65.386719 68.296875 65.128906 68.535156 65.128906 68.835938 C 65.144531 69.121094 65.386719 69.359375 65.671875 69.359375 M 62.714844 68.820312 C 62.714844 69.105469 62.953125 69.34375 63.253906 69.34375 C 63.554688 69.34375 63.796875 69.105469 63.796875 68.820312 C 63.796875 68.519531 63.554688 68.296875 63.253906 68.296875 C 62.953125 68.296875 62.714844 68.535156 62.714844 68.820312 M 61.890625 69.359375 C 62.191406 69.359375 62.429688 69.121094 62.429688 68.835938 C 62.429688 68.535156 62.191406 68.296875 61.890625 68.296875 C 61.589844 68.296875 61.351562 68.535156 61.351562 68.835938 C 61.351562 69.121094 61.589844 69.359375 61.890625 69.359375 M 93.359375 72.523438 L 92.113281 72.523438 L 92.113281 73.363281 L 93.074219 73.363281 C 93.660156 73.363281 93.75 73.664062 93.75 74.113281 L 93.75 74.59375 L 92.160156 74.59375 L 92.160156 75.675781 L 94.816406 75.675781 L 94.816406 73.875 C 94.816406 73.125 94.335938 72.523438 93.359375 72.523438 M 87.585938 71.746094 C 87.585938 72.105469 87.585938 73.5 87.585938 73.546875 L 89.671875 73.546875 L 89.671875 74.59375 L 83.953125 74.59375 L 83.953125 72.226562 C 83.578125 72.675781 83.023438 72.960938 82.859375 73.066406 L 82.859375 75.675781 L 90.75 75.675781 L 90.75 72.570312 L 88.605469 72.570312 L 88.605469 71.851562 C 88.605469 70.738281 89.835938 70.183594 90.765625 70.09375 L 90.765625 69.046875 C 88.171875 69.511719 87.585938 71.011719 87.585938 71.746094 M 122.894531 71.429688 L 121.035156 71.429688 L 121.035156 70.90625 C 121.035156 70.453125 121.09375 70.351562 121.664062 70.351562 C 122.191406 70.351562 122.355469 70.261719 122.429688 70.199219 L 122.429688 69.808594 C 122.296875 69.886719 122.21875 69.929688 121.90625 69.929688 L 121.125 69.929688 C 120.734375 69.929688 120.40625 70.199219 120.40625 70.679688 L 120.40625 71.414062 L 118.890625 71.414062 C 118.816406 71.535156 118.664062 71.804688 118.5 72.089844 L 122.910156 72.089844 L 122.910156 71.429688 Z M 131.699219 66.269531 L 131.699219 74.59375 L 130.261719 74.59375 L 130.261719 70.5 C 129.960938 70.828125 129.421875 71.113281 129.195312 71.28125 L 129.195312 74.59375 L 127.605469 74.59375 L 127.605469 70.5 C 127.289062 70.84375 126.734375 71.144531 126.523438 71.308594 L 126.523438 74.59375 L 125.25 74.59375 L 125.25 66.238281 C 124.90625 66.613281 124.441406 66.976562 124.183594 67.15625 L 124.183594 74.59375 L 117.585938 74.59375 C 117.375 74.59375 117.210938 74.503906 117.089844 74.414062 C 116.96875 74.789062 116.714844 75.675781 116.714844 75.675781 L 132.71875 75.675781 L 132.71875 67.15625 C 132.269531 66.839844 131.925781 66.523438 131.699219 66.269531 M 79.363281 67.140625 L 79.363281 74.59375 L 78.089844 74.59375 L 78.089844 67.140625 C 77.894531 67.035156 77.429688 66.75 77.023438 66.269531 L 77.023438 74.59375 L 74.65625 74.59375 L 74.65625 75.675781 L 80.429688 75.675781 L 80.429688 66.269531 C 80.039062 66.75 79.558594 67.035156 79.363281 67.140625 M 75.75 66.269531 C 75.34375 66.75 74.878906 67.019531 74.683594 67.140625 L 74.683594 73.425781 L 75.75 73.425781 Z M 113.535156 67.140625 L 113.535156 75.675781 L 114.601562 75.675781 L 114.601562 66.269531 C 114.195312 66.765625 113.714844 67.035156 113.535156 67.140625 M 133.964844 67.140625 C 134.160156 67.035156 134.640625 66.75 135.03125 66.269531 L 135.03125 75.675781 L 133.964844 75.675781 Z M 133.964844 67.140625 "/>
<path style=" stroke:none;fill-rule:nonzero;fill:rgb(0%,0%,0%);fill-opacity:1;" d="M 25.726562 68.953125 C 25.453125 69.226562 25.453125 69.675781 25.726562 69.945312 L 24.148438 68.371094 C 22.949219 67.171875 22.949219 65.21875 24.148438 64.035156 L 30.734375 57.449219 L 37.320312 64.035156 C 38.519531 65.234375 38.519531 67.183594 37.320312 68.371094 L 35.746094 69.945312 C 36.015625 69.675781 36.015625 69.226562 35.746094 68.953125 L 30.75 63.945312 Z M 25.726562 68.953125 "/>
<path style=" stroke:none;fill-rule:nonzero;fill:rgb(0%,0%,0%);fill-opacity:1;" d="M 29.941406 85.246094 C 30.480469 85.785156 30.75 86.488281 30.734375 87.195312 C 30.734375 86.488281 31.003906 85.785156 31.53125 85.246094 L 41.773438 75 L 36.808594 70.035156 L 40.066406 66.78125 L 45.496094 72.210938 C 47.023438 73.738281 47.023438 76.261719 45.496094 77.789062 L 30.75 92.550781 L 15.988281 77.789062 C 14.460938 76.261719 14.460938 73.738281 15.988281 72.210938 L 21.421875 66.78125 L 24.675781 70.035156 L 19.695312 75 Z M 29.941406 85.246094 "/>
</g>
</svg>
