<?xml version="1.0" encoding="UTF-8"?>
<svg xmlns="http://www.w3.org/2000/svg" xmlns:xlink="http://www.w3.org/1999/xlink" width="150px" height="150px" viewBox="0 0 150 150" version="1.1">
<g id="surface1">
<path style=" stroke:none;fill-rule:nonzero;fill:rgb(7.843137%,28.627451%,57.254902%);fill-opacity:1;" d="M 15.734375 7.34375 C 19.1875 8.703125 23.792969 15.433594 26.640625 25.800781 C 22.90625 10.800781 17.867188 0.617188 13 0 C 5.113281 -0.925781 0.71875 23.828125 3.167969 55.183594 C 3.507812 59.566406 3.960938 63.828125 4.527344 67.964844 C 5.300781 74.320312 6.394531 80.742188 7.792969 86.914062 C 8.71875 90.988281 9.734375 94.875 10.8125 98.457031 C 10.039062 95.800781 9.320312 93.023438 8.660156 90.0625 C 2.226562 61.605469 3.039062 30.183594 10.8125 21.050781 C 14.207031 17.035156 18.585938 18.828125 22.660156 23.273438 C 18.832031 14.445312 14.167969 8.949219 8.980469 14.691406 C 7.074219 16.789062 5.621094 20.679688 4.621094 25.800781 C 6.246094 12.46875 9.847656 5.0625 15.734375 7.34375 "/>
<path style=" stroke:none;fill-rule:nonzero;fill:rgb(96.470588%,54.509804%,13.333333%);fill-opacity:1;" d="M 32.71875 66.171875 L 32.640625 66.171875 C 37.246094 91.050781 38.246094 116.542969 35.226562 130.125 C 31.113281 148.640625 20.394531 138.457031 11.28125 107.34375 C 2.378906 76.976562 -1.699219 37.902344 1.960938 18.890625 C 1.886719 19.257812 1.792969 19.566406 1.71875 19.9375 C -2.679688 39.691406 1.660156 82.714844 11.394531 115.925781 C 21.152344 149.136719 32.605469 160.0625 37 140.308594 C 40.472656 124.691406 38.492188 94.566406 32.71875 66.171875 "/>
<path style=" stroke:none;fill-rule:nonzero;fill:rgb(96.470588%,54.509804%,13.333333%);fill-opacity:1;" d="M 30.566406 53.890625 C 31.71875 58.519531 32.074219 63.765625 31.359375 65.742188 C 30.640625 67.714844 29.113281 65.554688 27.960938 60.988281 C 26.8125 56.417969 26.453125 51.109375 27.167969 49.199219 C 27.867188 47.222656 29.394531 49.320312 30.566406 53.890625 "/>
<path style=" stroke:none;fill-rule:nonzero;fill:rgb(7.843137%,28.627451%,57.254902%);fill-opacity:1;" d="M 44.378906 55.308594 C 44.527344 55.308594 44.71875 55.492188 44.90625 55.863281 C 45.074219 56.234375 45.226562 56.605469 45.378906 56.914062 C 45.773438 54.9375 45.980469 53.890625 45.980469 53.703125 C 45.980469 53.023438 45.886719 52.40625 45.699219 51.914062 C 45.507812 51.359375 45.300781 51.109375 45.09375 51.109375 C 44.472656 51.109375 43.90625 51.976562 43.359375 53.640625 C 42.832031 55.308594 42.546875 57.160156 42.546875 59.199219 C 42.546875 60.0625 42.71875 60.679688 43.039062 60.988281 C 43.320312 61.234375 43.585938 61.480469 43.847656 61.726562 C 43.566406 62.222656 43.320312 62.839844 43.074219 63.582031 C 42.792969 64.566406 42.640625 65.433594 42.660156 66.171875 L 42.660156 66.480469 C 43.621094 63.640625 44.753906 62.160156 46.039062 62.035156 C 46.339844 60.679688 46.621094 59.320312 46.847656 58.085938 C 45.019531 58.085938 43.945312 57.53125 43.621094 56.359375 C 43.960938 55.679688 44.207031 55.308594 44.378906 55.308594 "/>
<path style=" stroke:none;fill-rule:nonzero;fill:rgb(7.843137%,28.627451%,57.254902%);fill-opacity:1;" d="M 54.753906 55.246094 C 54.753906 53.765625 54.660156 52.285156 54.472656 50.742188 C 54.28125 49.199219 54 48.023438 53.679688 47.160156 L 52.867188 51.914062 C 53.039062 52.40625 53.207031 53.210938 53.414062 54.382812 C 53.621094 55.554688 53.71875 56.480469 53.71875 57.097656 C 53.71875 57.222656 53.699219 57.222656 53.699219 57.222656 L 50.566406 57.222656 C 50.28125 57.222656 50.152344 56.976562 50.113281 56.480469 C 50 54.816406 49.886719 52.160156 49.8125 48.457031 C 49.753906 45.679688 49.699219 42.902344 49.640625 40.125 C 49.546875 40.371094 49.378906 41.109375 49.09375 42.160156 C 48.8125 43.332031 48.679688 44.074219 48.679688 44.257812 L 49.167969 62.222656 L 54.320312 62.222656 C 54.605469 62.160156 54.753906 59.816406 54.753906 55.246094 "/>
<path style=" stroke:none;fill-rule:nonzero;fill:rgb(7.843137%,28.627451%,57.254902%);fill-opacity:1;" d="M 53.09375 66.109375 C 52.753906 65.125 52.546875 64.628906 52.492188 64.628906 C 52.433594 64.628906 52.246094 65.125 51.925781 66.109375 C 51.605469 67.160156 51.453125 67.714844 51.453125 67.902344 C 51.453125 68.085938 51.605469 68.582031 51.925781 69.382812 C 52.226562 70.183594 52.433594 70.679688 52.507812 70.679688 C 53.246094 69.320312 53.605469 68.394531 53.605469 67.902344 C 53.605469 67.714844 53.433594 67.160156 53.09375 66.109375 "/>
<path style=" stroke:none;fill-rule:nonzero;fill:rgb(7.843137%,28.627451%,57.254902%);fill-opacity:1;" d="M 63.246094 54.9375 C 62.960938 55.308594 62.640625 55.679688 62.359375 56.109375 L 62.265625 56.109375 C 62.832031 53.640625 63.300781 52.035156 63.640625 51.359375 C 63.679688 51.667969 63.679688 51.976562 63.679688 52.40625 C 63.679688 53.582031 63.546875 54.445312 63.246094 54.9375 M 63.679688 63.765625 L 63.359375 63.765625 C 63.132812 63.765625 62.886719 63.457031 62.660156 62.964844 C 62.433594 62.46875 62.28125 61.789062 62.167969 61.050781 C 62.433594 61.050781 62.71875 61.234375 63.019531 61.667969 C 63.339844 62.160156 63.566406 62.714844 63.660156 63.394531 L 63.660156 63.765625 Z M 74.90625 43.640625 C 74.453125 42.777344 74.226562 42.097656 74.167969 41.726562 C 74.132812 41.359375 74.113281 40.800781 74.09375 40.183594 L 74 39.9375 C 73.699219 41.050781 73.378906 42.839844 73.019531 45.308594 C 73.152344 45.925781 73.300781 46.417969 73.453125 46.726562 C 73.527344 47.40625 73.640625 49.011719 73.753906 51.542969 C 73.867188 54.074219 73.945312 55.800781 73.945312 56.667969 C 73.945312 56.789062 73.925781 56.976562 73.90625 57.160156 L 72.832031 57.160156 C 72.605469 57.160156 72.472656 57.160156 72.453125 57.097656 C 72.320312 57.035156 72.246094 56.789062 72.226562 56.359375 C 72.167969 55.246094 72.113281 52.53125 72.039062 48.148438 C 71.980469 44.691406 71.847656 41.976562 71.699219 39.9375 L 71.640625 39.816406 L 70.566406 44.816406 L 71.132812 57.222656 L 69.414062 57.222656 C 69.019531 57.222656 68.453125 55.925781 67.753906 53.332031 C 67.265625 51.480469 66.773438 49.566406 66.265625 47.777344 L 69.433594 45.679688 C 69.605469 43.949219 69.734375 42.285156 69.847656 40.742188 C 69.734375 40.679688 68.339844 41.605469 65.660156 43.519531 C 65.394531 45.742188 65.207031 48.023438 65.09375 50.371094 L 67.28125 57.222656 L 63.773438 57.222656 C 63.945312 55.988281 64.074219 54.816406 64.246094 53.640625 C 64.433594 52.035156 64.527344 50.800781 64.527344 50 L 64.527344 47.40625 C 64.09375 47.40625 63.605469 48.210938 63.074219 49.816406 C 62.605469 51.171875 62.246094 52.53125 61.980469 54.074219 C 61.792969 55.492188 61.640625 56.542969 61.566406 57.34375 L 60.832031 57.34375 C 60.246094 57.34375 59.8125 56.667969 59.492188 55.371094 C 59.207031 54.011719 58.925781 52.59375 58.660156 51.234375 C 58.585938 51.542969 58.433594 52.285156 58.207031 53.519531 C 57.980469 54.753906 57.867188 55.433594 57.867188 55.617188 C 57.867188 55.679688 58 56.296875 58.265625 57.46875 C 58.527344 58.640625 58.679688 59.445312 58.679688 59.9375 C 58.679688 61.050781 58.28125 62.40625 57.507812 64.074219 C 56.753906 65.800781 56.152344 66.667969 55.753906 66.667969 C 55.507812 66.667969 55.1875 66.359375 54.867188 65.679688 C 54.527344 65.0625 54.378906 64.753906 54.414062 64.753906 C 54.359375 64.753906 54.339844 64.753906 54.339844 64.875 L 54.339844 65.433594 C 54.585938 66.359375 55.054688 67.34375 55.699219 68.457031 C 56.359375 69.507812 56.867188 70 57.207031 70 C 57.71875 70 58.1875 69.011719 58.605469 67.035156 C 58.90625 65.308594 59.1875 63.640625 59.472656 61.976562 L 59.546875 61.726562 C 59.773438 62.097656 59.960938 62.285156 60.09375 62.285156 L 61.132812 62.285156 C 61.167969 62.285156 61.28125 62.839844 61.453125 63.949219 C 61.679688 65.371094 61.886719 66.417969 62.054688 67.097656 C 62.339844 68.210938 62.640625 68.765625 62.925781 68.765625 C 63.679688 68.765625 64.265625 66.605469 64.699219 62.285156 L 67.359375 62.285156 L 67.945312 59.199219 L 68.960938 62.285156 L 70.71875 62.285156 L 71.207031 59.257812 C 71.226562 59.816406 71.246094 60.433594 71.246094 60.988281 C 71.28125 61.851562 71.359375 62.285156 71.472656 62.285156 L 74.339844 62.285156 C 74.472656 62.035156 74.546875 61.914062 74.566406 61.789062 C 74.621094 61.542969 74.71875 60.617188 74.8125 59.074219 C 74.925781 57.46875 74.960938 56.542969 74.945312 56.171875 L 74.71875 49.816406 L 75.8125 45.183594 C 75.546875 44.816406 75.246094 44.320312 74.90625 43.640625 "/>
<path style=" stroke:none;fill-rule:nonzero;fill:rgb(7.843137%,28.627451%,57.254902%);fill-opacity:1;" d="M 80.492188 42.65625 C 81.132812 43.949219 81.507812 44.566406 81.640625 44.566406 C 81.699219 44.566406 81.832031 44.136719 82.054688 43.210938 C 82.265625 42.40625 82.394531 41.851562 82.472656 41.480469 L 81.300781 39.445312 C 80.792969 40.679688 80.546875 41.359375 80.566406 41.359375 C 80.394531 41.359375 80.054688 40.742188 79.507812 39.445312 C 79.039062 41.109375 78.773438 42.097656 78.679688 42.46875 C 79.167969 43.519531 79.566406 44.136719 79.847656 44.445312 C 80.167969 43.519531 80.394531 42.902344 80.492188 42.65625 "/>
<path style=" stroke:none;fill-rule:nonzero;fill:rgb(7.843137%,28.627451%,57.254902%);fill-opacity:1;" d="M 86.773438 66.296875 C 86.605469 66.914062 86.492188 67.222656 86.414062 67.222656 C 86.320312 67.222656 85.980469 66.605469 85.414062 65.308594 C 85.132812 66.359375 84.886719 67.40625 84.660156 68.457031 C 84.886719 69.136719 85.246094 69.875 85.734375 70.679688 C 86.019531 69.753906 86.226562 69.011719 86.359375 68.640625 L 87.414062 70.679688 C 87.660156 70 87.925781 69.011719 88.207031 67.46875 L 87.113281 65.246094 C 87.074219 65.371094 86.960938 65.679688 86.773438 66.296875 "/>
<path style=" stroke:none;fill-rule:nonzero;fill:rgb(7.843137%,28.627451%,57.254902%);fill-opacity:1;" d="M 81.019531 54.566406 C 81.226562 54.011719 81.394531 53.582031 81.546875 53.394531 C 81.847656 52.46875 82.054688 51.726562 82.167969 51.109375 L 82.433594 55.183594 Z M 87 51.976562 C 87.394531 53.765625 87.679688 55.492188 87.867188 57.160156 L 84.265625 57.160156 C 83.886719 57.160156 83.679688 56.789062 83.605469 56.050781 C 83.472656 54.753906 83.320312 52.59375 83.167969 49.566406 C 83 46.050781 82.867188 43.765625 82.773438 42.714844 L 82.699219 42.53125 L 81.867188 47.222656 C 81.90625 47.65625 81.945312 48.148438 82 48.640625 C 81.492188 49.566406 80.980469 50.492188 80.472656 51.480469 C 80.113281 52.222656 79.867188 53.085938 79.679688 54.136719 C 79.507812 55.125 79.320312 56.976562 79.113281 59.691406 L 81.640625 61.171875 C 81.773438 61.234375 81.925781 60.742188 82.113281 59.691406 C 82.339844 58.394531 82.453125 57.65625 82.527344 57.46875 C 82.621094 58.457031 82.71875 59.445312 82.8125 60.433594 C 82.980469 61.605469 83.1875 62.160156 83.507812 62.160156 L 88.546875 62.160156 C 88.753906 58.640625 88.847656 56.296875 88.847656 55.0625 C 88.847656 52.902344 88.492188 50.371094 87.773438 47.53125 Z M 87 51.976562 "/>
<path style=" stroke:none;fill-rule:nonzero;fill:rgb(7.843137%,28.627451%,57.254902%);fill-opacity:1;" d="M 91.359375 46.417969 L 90.867188 51.667969 C 91.152344 51.789062 91.472656 52.53125 91.90625 53.765625 C 92.320312 55.0625 92.527344 56.109375 92.527344 56.976562 C 92.527344 57.035156 92.527344 57.097656 92.507812 57.160156 L 89.773438 57.160156 L 89.640625 62.160156 L 93.019531 62.160156 C 93.320312 62.160156 93.492188 60.433594 93.492188 56.914062 C 93.472656 51.976562 92.773438 48.457031 91.359375 46.417969 "/>
<path style=" stroke:none;fill-rule:nonzero;fill:rgb(7.843137%,28.627451%,57.254902%);fill-opacity:1;" d="M 97.039062 57.160156 C 96.621094 57.160156 96.359375 56.667969 96.1875 55.800781 C 96.207031 55.742188 96.207031 55.679688 96.1875 55.617188 C 96.167969 55.371094 96.226562 55.0625 96.359375 54.691406 C 96.492188 54.320312 96.585938 54.074219 96.640625 54.074219 C 96.792969 54.074219 96.925781 54.445312 97.054688 55.183594 C 97.074219 55.246094 97.152344 55.863281 97.320312 56.914062 C 97.226562 57.035156 97.132812 57.160156 97.039062 57.160156 M 112.980469 43.640625 C 112.527344 42.777344 112.28125 42.097656 112.246094 41.726562 C 112.1875 41.359375 112.167969 40.800781 112.167969 40.183594 L 112.074219 39.9375 C 111.773438 41.050781 111.453125 42.777344 111.09375 45.308594 C 111.246094 45.925781 111.378906 46.417969 111.527344 46.726562 C 111.605469 47.40625 111.71875 49.011719 111.832031 51.542969 C 111.960938 54.074219 112.019531 55.800781 112.019531 56.667969 C 112.019531 56.789062 112 56.976562 111.980469 57.160156 L 110.640625 57.160156 C 110.207031 57.160156 109.980469 56.171875 109.980469 54.320312 C 110 54.199219 110 53.949219 110 53.640625 C 110 53.332031 109.980469 53.085938 109.980469 52.964844 C 109.980469 52.160156 109.960938 51.542969 109.925781 50.988281 C 109.8125 51.234375 109.640625 51.851562 109.378906 52.839844 C 109.113281 53.890625 109 54.566406 109 54.9375 C 109 55.125 109.019531 55.371094 109.039062 55.742188 C 109.054688 56.109375 109.074219 56.359375 109.074219 56.542969 C 109.074219 56.726562 109.039062 56.914062 109 57.097656 C 108.339844 56.976562 108 56.976562 107.945312 57.097656 C 108.09375 54.9375 108.167969 52.964844 108.167969 51.050781 C 108.167969 50.925781 108.152344 50.679688 108.132812 50.554688 C 107.980469 50.988281 107.773438 51.726562 107.527344 52.839844 C 107.246094 54.074219 107.113281 54.9375 107.113281 55.371094 C 107.113281 56.234375 107.054688 56.789062 106.980469 57.035156 L 105.734375 57.035156 C 106.019531 54.382812 106.167969 52.65625 106.167969 51.789062 L 106.132812 50.617188 C 106 50.800781 105.792969 51.417969 105.527344 52.40625 C 105.246094 53.457031 105.113281 54.136719 105.113281 54.566406 C 105.113281 55.433594 105.054688 56.234375 104.945312 56.976562 L 102.886719 56.976562 C 103 56.417969 103.09375 55.863281 103.167969 55.371094 C 103.300781 54.691406 103.359375 54.136719 103.359375 53.703125 C 103.359375 52.46875 103.152344 51.359375 102.734375 50.433594 C 102.359375 49.566406 101.960938 49.136719 101.566406 49.136719 C 100.925781 49.136719 100.433594 49.628906 100.132812 50.742188 C 99.945312 51.359375 99.71875 52.777344 99.394531 55.125 C 99.71875 55 99.867188 54.9375 99.90625 54.9375 C 100.339844 54.9375 100.71875 55.617188 101 56.914062 L 98.433594 56.914062 C 98.1875 51.667969 97.753906 49.011719 97.113281 49.011719 C 96.699219 49.011719 96.300781 50.308594 95.886719 52.839844 C 95.527344 55.125 95.339844 56.976562 95.339844 58.394531 C 95.339844 59.753906 95.585938 60.679688 96.039062 61.171875 C 96.09375 61.234375 96.507812 61.542969 97.246094 61.976562 C 96.90625 63.023438 96.492188 64.011719 96.019531 64.875 C 95.472656 65.800781 94.980469 66.296875 94.585938 66.296875 C 94.472656 66.296875 94.265625 66.171875 93.980469 65.925781 C 93.699219 65.679688 93.507812 65.554688 93.359375 65.554688 C 93.320312 65.554688 93.28125 65.617188 93.246094 65.742188 L 93.246094 66.171875 C 93.472656 67.097656 93.867188 67.839844 94.394531 68.519531 C 94.90625 69.136719 95.359375 69.507812 95.753906 69.507812 C 96.226562 69.507812 96.734375 68.582031 97.246094 66.789062 C 97.640625 65.371094 97.960938 63.765625 98.207031 61.976562 L 101.167969 61.976562 C 101.378906 60.988281 101.527344 60.183594 101.621094 59.691406 C 101.8125 60.679688 101.945312 61.480469 102.039062 61.976562 L 104.585938 61.976562 C 104.660156 61.976562 104.753906 61.789062 104.867188 61.417969 C 104.980469 61.050781 105.039062 60.800781 105.074219 60.679688 C 105.152344 61.109375 105.207031 61.605469 105.207031 61.976562 L 106.867188 61.976562 C 106.867188 61.976562 106.945312 61.851562 107.019531 61.605469 C 107.09375 61.296875 107.152344 61.171875 107.1875 61.171875 C 107.246094 61.171875 107.339844 61.480469 107.453125 61.976562 L 109.339844 61.976562 C 109.453125 61.417969 109.546875 60.988281 109.621094 60.679688 C 109.699219 61.234375 109.773438 61.667969 109.8125 61.976562 L 112.339844 61.976562 C 112.472656 61.726562 112.546875 61.605469 112.566406 61.542969 C 112.621094 61.296875 112.71875 60.371094 112.8125 58.828125 C 112.90625 57.222656 112.960938 56.296875 112.945312 55.925781 L 112.792969 49.691406 L 113.886719 45.0625 C 113.621094 44.816406 113.339844 44.320312 112.980469 43.640625 "/>
<path style=" stroke:none;fill-rule:nonzero;fill:rgb(7.843137%,28.627451%,57.254902%);fill-opacity:1;" d="M 115.039062 47.777344 L 115.660156 62.53125 C 116.207031 60.433594 116.472656 57.839844 116.472656 54.753906 C 116.472656 52.035156 116.339844 47.777344 116.054688 41.789062 C 115.566406 44.074219 115.226562 46.109375 115.039062 47.777344 "/>
<path style=" stroke:none;fill-rule:nonzero;fill:rgb(7.843137%,28.627451%,57.254902%);fill-opacity:1;" d="M 121.792969 42.65625 C 122.433594 43.949219 122.8125 44.566406 122.945312 44.566406 C 123 44.566406 123.152344 44.136719 123.378906 43.210938 C 123.585938 42.40625 123.71875 41.851562 123.773438 41.480469 L 122.605469 39.445312 C 122.09375 40.679688 121.847656 41.359375 121.867188 41.359375 C 121.71875 41.359375 121.359375 40.742188 120.8125 39.445312 C 120.339844 41.109375 120.054688 42.097656 120 42.46875 C 120.492188 43.519531 120.886719 44.136719 121.152344 44.445312 C 121.492188 43.519531 121.699219 42.902344 121.792969 42.65625 "/>
<path style=" stroke:none;fill-rule:nonzero;fill:rgb(7.843137%,28.627451%,57.254902%);fill-opacity:1;" d="M 122.320312 54.566406 C 122.546875 54.011719 122.71875 53.582031 122.847656 53.394531 C 123.152344 52.46875 123.359375 51.726562 123.472656 51.109375 L 123.734375 55.183594 Z M 129.1875 51.914062 C 128.640625 50.492188 128.074219 49.074219 127.546875 47.65625 C 128.867188 46.296875 129.867188 45.308594 130.527344 44.691406 C 130.699219 42.839844 130.832031 41.171875 130.925781 39.628906 L 126.507812 43.890625 C 126.433594 44.9375 126.359375 45.925781 126.28125 46.914062 C 126.167969 48.148438 126.132812 49.136719 126.132812 49.875 C 126.132812 50.125 126.300781 50.863281 126.640625 51.976562 C 126.980469 53.148438 127.207031 53.703125 127.28125 53.703125 C 127.394531 53.703125 127.472656 53.519531 127.507812 53.148438 L 129.074219 57.097656 L 125.566406 57.097656 C 125.207031 57.097656 125 56.726562 124.90625 55.988281 C 124.773438 54.691406 124.640625 52.53125 124.472656 49.507812 C 124.300781 45.988281 124.167969 43.640625 124.09375 42.65625 L 124.019531 42.46875 L 123.167969 47.160156 C 123.1875 47.59375 123.246094 48.085938 123.300781 48.582031 C 122.792969 49.566406 122.28125 50.433594 121.773438 51.417969 C 121.433594 52.160156 121.167969 53.023438 121 54.074219 C 120.832031 55.0625 120.640625 56.914062 120.433594 59.628906 L 122.980469 61.109375 C 123.09375 61.171875 123.265625 60.679688 123.453125 59.566406 C 123.660156 58.273438 123.792969 57.53125 123.867188 57.40625 C 123.960938 58.394531 124.054688 59.382812 124.152344 60.371094 C 124.300781 61.542969 124.546875 62.097656 124.847656 62.097656 L 129.925781 62.097656 C 130.226562 58.949219 130.378906 57.160156 130.378906 56.667969 C 130.414062 55.863281 130 54.257812 129.1875 51.914062 "/>
<path style=" stroke:none;fill-rule:nonzero;fill:rgb(7.843137%,28.627451%,57.254902%);fill-opacity:1;" d="M 140.472656 46.605469 L 141.660156 48.519531 C 142.113281 47.46875 142.414062 46.417969 142.507812 45.492188 L 141.300781 43.273438 C 141.167969 43.703125 141.054688 44.011719 140.925781 44.445312 C 140.699219 45.0625 140.585938 45.371094 140.566406 45.371094 C 140.414062 45.371094 140.054688 44.753906 139.507812 43.394531 C 139.074219 44.691406 138.773438 45.742188 138.621094 46.417969 C 139.320312 47.777344 139.71875 48.457031 139.8125 48.457031 C 139.792969 48.457031 140.019531 47.839844 140.472656 46.605469 "/>
<path style=" stroke:none;fill-rule:nonzero;fill:rgb(7.843137%,28.627451%,57.254902%);fill-opacity:1;" d="M 140.019531 42.964844 C 140.265625 43.640625 140.414062 44.011719 140.453125 44.011719 C 140.527344 44.011719 140.699219 43.703125 140.925781 43.023438 C 141.113281 42.46875 141.246094 42.035156 141.300781 41.726562 C 140.8125 40.125 140.527344 39.320312 140.453125 39.257812 C 139.90625 40.617188 139.621094 41.417969 139.621094 41.789062 C 139.640625 41.851562 139.753906 42.285156 140.019531 42.964844 "/>
<path style=" stroke:none;fill-rule:nonzero;fill:rgb(7.843137%,28.627451%,57.254902%);fill-opacity:1;" d="M 146.1875 43.640625 C 145.734375 42.777344 145.492188 42.097656 145.453125 41.726562 C 145.394531 41.359375 145.378906 40.800781 145.378906 40.183594 L 145.300781 39.9375 C 145 41.050781 144.660156 42.839844 144.320312 45.308594 C 144.453125 45.925781 144.605469 46.417969 144.734375 46.726562 C 144.832031 47.40625 144.925781 49.011719 145.039062 51.542969 C 145.152344 54.074219 145.226562 55.800781 145.226562 56.667969 C 145.226562 56.789062 145.207031 56.976562 145.167969 57.097656 L 143.832031 57.097656 C 143.394531 57.097656 143.1875 56.109375 143.1875 54.257812 C 143.1875 54.136719 143.207031 53.890625 143.207031 53.582031 C 143.207031 53.273438 143.207031 53.023438 143.1875 52.902344 C 143.1875 52.097656 143.167969 51.480469 143.132812 50.988281 C 143.019531 51.234375 142.832031 51.851562 142.585938 52.839844 C 142.339844 53.890625 142.207031 54.566406 142.207031 54.9375 C 142.207031 55.125 142.226562 55.371094 142.246094 55.742188 C 142.28125 56.109375 142.28125 56.359375 142.28125 56.542969 C 142.28125 56.726562 142.265625 56.914062 142.207031 57.097656 C 141.566406 56.976562 141.207031 56.976562 141.152344 57.097656 C 141.300781 55 141.378906 52.964844 141.378906 51.050781 C 141.378906 50.925781 141.359375 50.742188 141.339844 50.554688 C 141.1875 50.988281 141 51.726562 140.734375 52.839844 C 140.453125 54.136719 140.320312 54.9375 140.320312 55.371094 C 140.320312 56.171875 140.265625 56.789062 140.1875 57.035156 L 138.945312 57.035156 C 139.226562 54.382812 139.359375 52.65625 139.359375 51.789062 L 139.320312 50.617188 C 139.1875 50.800781 138.980469 51.417969 138.71875 52.40625 C 138.453125 53.457031 138.320312 54.136719 138.320312 54.566406 C 138.320312 55.433594 138.265625 56.234375 138.132812 56.976562 L 136.792969 56.976562 C 136.207031 56.976562 135.773438 56.296875 135.453125 55 C 135.1875 53.640625 134.90625 52.222656 134.621094 50.863281 C 134.546875 51.171875 134.394531 51.914062 134.167969 53.148438 C 133.945312 54.382812 133.847656 55.0625 133.847656 55.246094 C 133.847656 55.308594 133.980469 55.925781 134.246094 57.097656 C 134.507812 58.273438 134.660156 59.074219 134.660156 59.566406 C 134.660156 60.679688 134.265625 62.035156 133.492188 63.703125 C 132.71875 65.433594 132.132812 66.296875 131.734375 66.296875 C 131.472656 66.296875 131.167969 65.988281 130.847656 65.308594 C 130.507812 64.691406 130.359375 64.382812 130.378906 64.382812 C 130.320312 64.382812 130.300781 64.382812 130.300781 64.507812 L 130.300781 65.0625 C 130.546875 65.988281 131 66.976562 131.660156 68.085938 C 132.320312 69.136719 132.8125 69.691406 133.152344 69.691406 C 133.679688 69.691406 134.152344 68.703125 134.585938 66.726562 C 134.867188 65 135.167969 63.332031 135.453125 61.726562 L 135.527344 61.480469 C 135.773438 61.851562 135.945312 62.035156 136.074219 62.035156 L 137.847656 62.035156 C 137.925781 62.035156 138.019531 61.851562 138.132812 61.480469 C 138.226562 61.109375 138.300781 60.863281 138.339844 60.742188 C 138.414062 61.234375 138.472656 61.667969 138.472656 62.035156 L 140.132812 62.035156 C 140.167969 62.035156 140.207031 61.914062 140.300781 61.667969 C 140.378906 61.359375 140.433594 61.234375 140.453125 61.234375 C 140.527344 61.234375 140.605469 61.542969 140.734375 62.035156 L 142.605469 62.035156 C 142.71875 61.480469 142.832031 61.050781 142.886719 60.742188 C 142.960938 61.296875 143.039062 61.726562 143.074219 62.035156 L 145.605469 62.035156 C 145.734375 61.789062 145.8125 61.667969 145.832031 61.605469 C 145.886719 61.359375 145.980469 60.433594 146.074219 58.890625 C 146.1875 57.285156 146.226562 56.359375 146.207031 55.988281 L 146.039062 49.753906 L 147.132812 45.183594 C 146.847656 44.816406 146.546875 44.320312 146.1875 43.640625 "/>
<path style=" stroke:none;fill-rule:nonzero;fill:rgb(7.843137%,28.627451%,57.254902%);fill-opacity:1;" d="M 149.28125 41.789062 C 148.773438 44.136719 148.414062 46.109375 148.246094 47.839844 L 148.886719 62.59375 C 149.433594 60.492188 149.699219 57.902344 149.699219 54.816406 C 149.699219 52.035156 149.566406 47.714844 149.28125 41.789062 "/>
<path style=" stroke:none;fill-rule:nonzero;fill:rgb(7.843137%,28.627451%,57.254902%);fill-opacity:1;" d="M 63.507812 87.777344 L 64.679688 87.777344 L 64.679688 91.359375 L 63.507812 91.359375 Z M 63.507812 87.777344 "/>
<path style=" stroke:none;fill-rule:nonzero;fill:rgb(7.843137%,28.627451%,57.254902%);fill-opacity:1;" d="M 92.132812 87.777344 L 93.320312 87.777344 L 93.320312 91.359375 L 92.132812 91.359375 Z M 92.132812 87.777344 "/>
<path style=" stroke:none;fill-rule:nonzero;fill:rgb(7.843137%,28.627451%,57.254902%);fill-opacity:1;" d="M 99.28125 87.777344 L 100.453125 87.777344 L 100.453125 91.359375 L 99.28125 91.359375 Z M 99.28125 87.777344 "/>
<path style=" stroke:none;fill-rule:nonzero;fill:rgb(7.843137%,28.627451%,57.254902%);fill-opacity:1;" d="M 46.300781 96.851562 C 46.019531 96.359375 45.566406 95.863281 44.960938 95.433594 C 44.359375 94.9375 43.980469 94.507812 43.832031 94.074219 C 43.71875 93.703125 43.640625 93.332031 43.640625 92.839844 C 43.640625 92.34375 43.699219 91.914062 43.832031 91.605469 C 44.039062 91.109375 44.320312 90.863281 44.679688 90.863281 C 45.019531 90.863281 45.300781 91.109375 45.453125 91.542969 C 45.621094 91.976562 45.734375 92.714844 45.792969 93.765625 L 47.039062 93.640625 C 47.019531 91.789062 46.8125 90.308594 46.414062 89.199219 C 46.019531 88.085938 45.453125 87.53125 44.679688 87.53125 C 44.207031 87.53125 43.8125 87.777344 43.472656 88.273438 C 43.152344 88.765625 42.886719 89.445312 42.71875 90.308594 C 42.527344 91.171875 42.433594 92.160156 42.433594 93.210938 C 42.433594 94.816406 42.621094 96.109375 43 97.222656 C 43.265625 98.023438 43.734375 98.640625 44.394531 99.199219 C 44.925781 99.566406 45.246094 99.875 45.378906 100.0625 C 45.585938 100.308594 45.734375 100.617188 45.832031 100.925781 C 45.90625 101.234375 45.945312 101.667969 45.945312 102.097656 C 45.945312 102.839844 45.847656 103.457031 45.640625 104.011719 C 45.433594 104.566406 45.132812 104.816406 44.734375 104.816406 C 44.359375 104.816406 44.074219 104.507812 43.832031 103.890625 C 43.621094 103.273438 43.472656 102.285156 43.394531 100.925781 L 42.1875 101.296875 C 42.265625 103.582031 42.507812 105.246094 42.925781 106.480469 C 43.339844 107.65625 43.945312 108.273438 44.71875 108.273438 C 45.246094 108.273438 45.699219 108.023438 46.039062 107.53125 C 46.394531 107.035156 46.679688 106.296875 46.886719 105.308594 C 47.074219 104.320312 47.167969 103.210938 47.167969 102.097656 C 47.167969 100.863281 47.09375 99.753906 46.925781 98.890625 C 46.8125 98.023438 46.585938 97.40625 46.300781 96.851562 "/>
<path style=" stroke:none;fill-rule:nonzero;fill:rgb(7.843137%,28.627451%,57.254902%);fill-opacity:1;" d="M 50.71875 101.726562 C 50.71875 102.65625 50.699219 103.273438 50.660156 103.640625 C 50.621094 104.136719 50.527344 104.566406 50.378906 104.9375 C 50.1875 105.371094 49.980469 105.617188 49.773438 105.617188 C 49.585938 105.617188 49.414062 105.433594 49.300781 105 C 49.1875 104.628906 49.113281 104.136719 49.113281 103.640625 C 49.113281 103.085938 49.207031 102.65625 49.339844 102.285156 C 49.433594 102.035156 49.640625 101.851562 49.980469 101.605469 C 50.300781 101.417969 50.527344 101.171875 50.699219 100.988281 L 50.699219 101.726562 Z M 51.867188 103.148438 L 51.886719 98.640625 C 51.886719 96.976562 51.832031 95.800781 51.734375 95.183594 C 51.621094 94.566406 51.453125 94.011719 51.1875 93.582031 C 50.945312 93.210938 50.546875 93.023438 50.019531 93.023438 C 49.433594 93.023438 49 93.332031 48.71875 94.011719 C 48.433594 94.691406 48.226562 95.742188 48.09375 97.160156 L 49.152344 97.777344 C 49.226562 97.097656 49.320312 96.605469 49.453125 96.359375 C 49.566406 96.109375 49.734375 95.988281 49.945312 95.988281 C 50.246094 95.988281 50.453125 96.171875 50.585938 96.480469 C 50.699219 96.789062 50.753906 97.34375 50.753906 98.085938 L 50.753906 98.457031 C 50.546875 98.765625 50.167969 99.074219 49.605469 99.445312 C 49.207031 99.691406 48.886719 100 48.679688 100.308594 C 48.472656 100.679688 48.300781 101.171875 48.167969 101.789062 C 48.039062 102.40625 47.980469 103.210938 47.980469 104.011719 C 47.980469 105.246094 48.113281 106.296875 48.378906 107.097656 C 48.640625 107.902344 49 108.332031 49.453125 108.332031 C 49.71875 108.332031 49.945312 108.148438 50.1875 107.839844 C 50.414062 107.53125 50.621094 107.035156 50.832031 106.417969 C 50.832031 106.480469 50.847656 106.605469 50.867188 106.851562 C 50.90625 107.34375 50.945312 107.714844 50.980469 107.964844 L 52.152344 107.964844 C 52.054688 107.285156 51.980469 106.605469 51.945312 105.988281 C 51.886719 105.371094 51.867188 104.445312 51.867188 103.148438 "/>
<path style=" stroke:none;fill-rule:nonzero;fill:rgb(7.843137%,28.627451%,57.254902%);fill-opacity:1;" d="M 55.90625 99.566406 C 55.90625 101.667969 55.886719 102.964844 55.8125 103.519531 C 55.753906 104.074219 55.640625 104.507812 55.492188 104.875 C 55.320312 105.246094 55.152344 105.433594 54.945312 105.433594 C 54.773438 105.433594 54.621094 105.308594 54.492188 105 C 54.378906 104.753906 54.300781 104.382812 54.246094 103.949219 C 54.207031 103.457031 54.1875 102.160156 54.1875 100.125 L 54.1875 93.394531 L 53.019531 93.394531 L 53.019531 102.65625 C 53.019531 104.011719 53.054688 105.125 53.167969 105.863281 C 53.28125 106.605469 53.433594 107.285156 53.679688 107.714844 C 53.925781 108.148438 54.1875 108.394531 54.492188 108.394531 C 54.773438 108.394531 55.074219 108.148438 55.339844 107.714844 C 55.605469 107.222656 55.8125 106.605469 55.980469 105.863281 L 55.980469 108.023438 L 57.074219 108.023438 L 57.074219 93.394531 L 55.90625 93.394531 Z M 55.90625 99.566406 "/>
<path style=" stroke:none;fill-rule:nonzero;fill:rgb(7.843137%,28.627451%,57.254902%);fill-opacity:1;" d="M 60.90625 104.136719 C 60.71875 104.875 60.472656 105.246094 60.207031 105.246094 C 59.867188 105.246094 59.605469 104.753906 59.414062 103.703125 C 59.28125 103.023438 59.207031 101.851562 59.207031 100.308594 C 59.207031 98.828125 59.300781 97.714844 59.492188 97.035156 C 59.679688 96.296875 59.925781 95.925781 60.1875 95.925781 C 60.472656 95.925781 60.699219 96.296875 60.886719 97.035156 C 61.074219 97.777344 61.167969 99.011719 61.167969 100.679688 C 61.1875 102.285156 61.09375 103.394531 60.90625 104.136719 M 61.1875 95.125 C 60.832031 93.765625 60.394531 93.085938 59.90625 93.085938 C 59.359375 93.085938 58.90625 93.765625 58.566406 95 C 58.207031 96.296875 58.039062 98.210938 58.039062 100.679688 C 58.039062 103.085938 58.207031 105 58.585938 106.359375 C 58.945312 107.714844 59.378906 108.394531 59.886719 108.394531 C 60.132812 108.394531 60.394531 108.148438 60.640625 107.714844 C 60.886719 107.285156 61.09375 106.667969 61.28125 105.863281 L 61.28125 108.023438 L 62.378906 108.023438 L 62.378906 87.902344 L 61.207031 87.902344 L 61.207031 95.125 Z M 61.1875 95.125 "/>
<path style=" stroke:none;fill-rule:nonzero;fill:rgb(7.843137%,28.627451%,57.254902%);fill-opacity:1;" d="M 63.507812 93.332031 L 64.679688 93.332031 L 64.679688 107.964844 L 63.507812 107.964844 Z M 63.507812 93.332031 "/>
<path style=" stroke:none;fill-rule:nonzero;fill:rgb(7.843137%,28.627451%,57.254902%);fill-opacity:1;" d="M 69.527344 99.074219 L 72.621094 99.074219 L 72.621094 95.679688 L 69.527344 95.679688 L 69.527344 91.234375 L 72.832031 91.234375 L 72.832031 87.777344 L 68.300781 87.777344 L 68.300781 107.964844 L 72.960938 107.964844 L 72.960938 104.507812 L 69.527344 104.507812 Z M 69.527344 99.074219 "/>
<path style=" stroke:none;fill-rule:nonzero;fill:rgb(7.843137%,28.627451%,57.254902%);fill-opacity:1;" d="M 74 87.777344 L 75.167969 87.777344 L 75.167969 107.902344 L 74 107.902344 Z M 74 87.777344 "/>
<path style=" stroke:none;fill-rule:nonzero;fill:rgb(7.843137%,28.627451%,57.254902%);fill-opacity:1;" d="M 77.28125 99.445312 C 77.28125 98.394531 77.359375 97.53125 77.527344 96.914062 C 77.699219 96.234375 77.90625 95.988281 78.167969 95.988281 C 78.414062 95.988281 78.621094 96.234375 78.792969 96.851562 C 78.960938 97.40625 79.054688 98.273438 79.054688 99.445312 Z M 79.660156 95.246094 C 79.28125 93.828125 78.753906 93.085938 78.09375 93.085938 C 77.507812 93.085938 77.019531 93.765625 76.621094 95.183594 C 76.246094 96.542969 76.054688 98.394531 76.054688 100.863281 C 76.054688 102.902344 76.207031 104.566406 76.492188 105.863281 C 76.867188 107.53125 77.433594 108.332031 78.207031 108.332031 C 78.71875 108.332031 79.113281 107.964844 79.433594 107.222656 C 79.753906 106.480469 80 105.433594 80.152344 104.011719 L 78.980469 103.394531 C 78.925781 104.136719 78.8125 104.691406 78.699219 105 C 78.585938 105.371094 78.414062 105.492188 78.226562 105.492188 C 77.960938 105.492188 77.734375 105.183594 77.546875 104.566406 C 77.359375 103.949219 77.265625 103.023438 77.265625 101.914062 L 80.1875 101.914062 C 80.207031 98.828125 80.039062 96.667969 79.660156 95.246094 "/>
<path style=" stroke:none;fill-rule:nonzero;fill:rgb(7.843137%,28.627451%,57.254902%);fill-opacity:1;" d="M 83.621094 104.566406 C 83.492188 105 83.300781 105.246094 83.074219 105.246094 C 82.773438 105.246094 82.546875 104.875 82.378906 104.199219 C 82.207031 103.457031 82.113281 102.222656 82.113281 100.492188 C 82.113281 98.949219 82.207031 97.839844 82.378906 97.160156 C 82.546875 96.480469 82.773438 96.171875 83.074219 96.171875 C 83.28125 96.171875 83.472656 96.359375 83.605469 96.726562 C 83.734375 97.097656 83.832031 97.65625 83.867188 98.394531 L 85.039062 97.714844 C 84.886719 96.171875 84.679688 95 84.339844 94.257812 C 84.019531 93.519531 83.605469 93.148438 83.039062 93.148438 C 82.378906 93.148438 81.847656 93.828125 81.472656 95.183594 C 81.074219 96.542969 80.886719 98.394531 80.886719 100.800781 C 80.886719 103.210938 81.074219 105.0625 81.472656 106.417969 C 81.847656 107.777344 82.378906 108.457031 83.019531 108.457031 C 83.585938 108.457031 84.039062 108.023438 84.378906 107.097656 C 84.71875 106.234375 84.960938 104.875 85.074219 103.148438 L 83.90625 102.53125 C 83.867188 103.394531 83.773438 104.136719 83.621094 104.566406 "/>
<path style=" stroke:none;fill-rule:nonzero;fill:rgb(7.843137%,28.627451%,57.254902%);fill-opacity:1;" d="M 87.507812 105.125 C 87.433594 105.125 87.359375 105.0625 87.300781 104.9375 C 87.246094 104.816406 87.226562 104.628906 87.207031 104.445312 C 87.1875 104.199219 87.1875 103.519531 87.1875 102.34375 L 87.1875 96.417969 L 88 96.417969 L 88 93.394531 L 87.1875 93.394531 L 87.1875 88.273438 L 86 90.492188 L 86 93.394531 L 85.472656 93.394531 L 85.472656 96.417969 L 86 96.417969 L 86 102.839844 C 86 104.199219 86.019531 105.125 86.039062 105.554688 C 86.074219 106.171875 86.132812 106.667969 86.207031 107.097656 C 86.28125 107.46875 86.414062 107.777344 86.566406 108.023438 C 86.734375 108.273438 86.925781 108.394531 87.132812 108.394531 C 87.492188 108.394531 87.792969 108.210938 88.054688 107.777344 L 87.980469 104.753906 C 87.792969 105 87.621094 105.125 87.507812 105.125 "/>
<path style=" stroke:none;fill-rule:nonzero;fill:rgb(7.843137%,28.627451%,57.254902%);fill-opacity:1;" d="M 90.339844 93.519531 C 90.1875 93.828125 90.039062 94.445312 89.847656 95.433594 L 89.847656 93.332031 L 88.753906 93.332031 L 88.753906 107.902344 L 89.925781 107.902344 L 89.925781 103.394531 C 89.925781 100.925781 89.960938 99.320312 90.019531 98.519531 C 90.074219 97.777344 90.167969 97.222656 90.28125 96.914062 C 90.394531 96.605469 90.546875 96.480469 90.699219 96.480469 C 90.867188 96.480469 91.039062 96.667969 91.246094 97.097656 L 91.605469 93.703125 C 91.339844 93.210938 91.113281 93.023438 90.832031 93.023438 C 90.660156 93.085938 90.492188 93.210938 90.339844 93.519531 "/>
<path style=" stroke:none;fill-rule:nonzero;fill:rgb(7.843137%,28.627451%,57.254902%);fill-opacity:1;" d="M 92.132812 93.332031 L 93.320312 93.332031 L 93.320312 107.964844 L 92.132812 107.964844 Z M 92.132812 93.332031 "/>
<path style=" stroke:none;fill-rule:nonzero;fill:rgb(7.843137%,28.627451%,57.254902%);fill-opacity:1;" d="M 96.980469 104.566406 C 96.847656 105 96.660156 105.246094 96.433594 105.246094 C 96.132812 105.246094 95.90625 104.875 95.71875 104.199219 C 95.546875 103.457031 95.453125 102.222656 95.453125 100.492188 C 95.453125 98.949219 95.527344 97.839844 95.71875 97.160156 C 95.886719 96.480469 96.132812 96.171875 96.414062 96.171875 C 96.621094 96.171875 96.8125 96.359375 96.945312 96.726562 C 97.09375 97.097656 97.167969 97.65625 97.207031 98.394531 L 98.378906 97.714844 C 98.246094 96.171875 98 95 97.699219 94.257812 C 97.378906 93.519531 96.945312 93.148438 96.394531 93.148438 C 95.734375 93.148438 95.207031 93.828125 94.832031 95.183594 C 94.453125 96.542969 94.246094 98.394531 94.246094 100.800781 C 94.246094 103.210938 94.453125 105.0625 94.832031 106.417969 C 95.226562 107.777344 95.734375 108.457031 96.394531 108.457031 C 96.960938 108.457031 97.414062 108.023438 97.753906 107.097656 C 98.09375 106.234375 98.320312 104.875 98.453125 103.148438 L 97.28125 102.53125 C 97.226562 103.394531 97.132812 104.136719 96.980469 104.566406 "/>
<path style=" stroke:none;fill-rule:nonzero;fill:rgb(7.843137%,28.627451%,57.254902%);fill-opacity:1;" d="M 99.28125 93.332031 L 100.453125 93.332031 L 100.453125 107.964844 L 99.28125 107.964844 Z M 99.28125 93.332031 "/>
<path style=" stroke:none;fill-rule:nonzero;fill:rgb(7.843137%,28.627451%,57.254902%);fill-opacity:1;" d="M 103.265625 105.125 C 103.1875 105.125 103.113281 105.0625 103.054688 104.9375 C 103 104.816406 102.960938 104.628906 102.945312 104.445312 C 102.925781 104.199219 102.925781 103.519531 102.925781 102.34375 L 102.925781 96.417969 L 103.734375 96.417969 L 103.734375 93.394531 L 102.925781 93.394531 L 102.925781 88.273438 L 101.734375 90.492188 L 101.734375 93.394531 L 101.1875 93.394531 L 101.1875 96.417969 L 101.734375 96.417969 L 101.734375 102.839844 C 101.734375 104.199219 101.753906 105.125 101.773438 105.554688 C 101.8125 106.171875 101.847656 106.667969 101.925781 107.097656 C 102.019531 107.46875 102.132812 107.777344 102.300781 108.023438 C 102.472656 108.273438 102.660156 108.394531 102.867188 108.394531 C 103.207031 108.394531 103.527344 108.210938 103.792969 107.777344 L 103.71875 104.753906 C 103.527344 105 103.359375 105.125 103.265625 105.125 "/>
<path style=" stroke:none;fill-rule:nonzero;fill:rgb(7.843137%,28.627451%,57.254902%);fill-opacity:1;" d="M 106.265625 103.703125 L 105.207031 93.332031 L 103.960938 93.332031 L 105.640625 107.964844 C 105.566406 108.765625 105.472656 109.445312 105.339844 110 C 105.226562 110.492188 105.019531 110.800781 104.753906 110.800781 C 104.605469 110.800781 104.433594 110.742188 104.246094 110.617188 L 104.359375 113.640625 C 104.566406 113.765625 104.792969 113.890625 105.019531 113.890625 C 105.246094 113.890625 105.433594 113.828125 105.621094 113.640625 C 105.8125 113.457031 105.945312 113.273438 106.074219 112.964844 C 106.1875 112.65625 106.300781 112.285156 106.394531 111.851562 C 106.492188 111.417969 106.585938 110.800781 106.699219 109.9375 L 107 107.34375 L 108.566406 93.332031 L 107.339844 93.332031 Z M 106.265625 103.703125 "/>
<path style=" stroke:none;fill-rule:nonzero;fill:rgb(7.843137%,28.627451%,57.254902%);fill-opacity:1;" d="M 115.113281 103.765625 C 114.867188 104.445312 114.585938 104.816406 114.265625 104.816406 C 113.832031 104.816406 113.453125 104.257812 113.167969 103.210938 C 112.90625 102.160156 112.753906 100.308594 112.753906 97.777344 C 112.753906 95.371094 112.90625 93.640625 113.167969 92.53125 C 113.453125 91.480469 113.832031 90.925781 114.28125 90.925781 C 114.605469 90.925781 114.886719 91.234375 115.132812 91.851562 C 115.378906 92.46875 115.507812 93.273438 115.585938 94.320312 L 116.8125 93.332031 C 116.679688 91.726562 116.453125 90.492188 116.1875 89.691406 C 115.71875 88.210938 115.09375 87.46875 114.339844 87.46875 C 113.472656 87.46875 112.792969 88.394531 112.246094 90.246094 C 111.71875 92.097656 111.453125 94.691406 111.453125 98.023438 C 111.453125 101.171875 111.71875 103.703125 112.246094 105.492188 C 112.773438 107.285156 113.433594 108.210938 114.265625 108.210938 C 114.925781 108.210938 115.472656 107.65625 115.90625 106.605469 C 116.339844 105.492188 116.640625 103.890625 116.832031 101.667969 L 115.621094 100.433594 C 115.527344 102.035156 115.359375 103.085938 115.113281 103.765625 "/>
<path style=" stroke:none;fill-rule:nonzero;fill:rgb(7.843137%,28.627451%,57.254902%);fill-opacity:1;" d="M 120.679688 104.011719 C 120.472656 104.816406 120.207031 105.183594 119.90625 105.183594 C 119.605469 105.183594 119.339844 104.816406 119.132812 104.011719 C 118.925781 103.273438 118.8125 102.160156 118.8125 100.679688 C 118.8125 99.257812 118.90625 98.085938 119.132812 97.34375 C 119.339844 96.605469 119.605469 96.234375 119.90625 96.234375 C 120.207031 96.234375 120.472656 96.605469 120.679688 97.34375 C 120.886719 98.085938 121 99.257812 121 100.679688 C 120.980469 102.160156 120.886719 103.273438 120.679688 104.011719 M 119.886719 93.085938 C 119.453125 93.085938 119.054688 93.394531 118.699219 94.011719 C 118.339844 94.628906 118.074219 95.554688 117.886719 96.726562 C 117.699219 97.902344 117.585938 99.199219 117.585938 100.492188 C 117.585938 102.160156 117.679688 103.582031 117.886719 104.753906 C 118.074219 105.925781 118.359375 106.789062 118.734375 107.40625 C 119.113281 108.023438 119.507812 108.332031 119.90625 108.332031 C 120.566406 108.332031 121.113281 107.59375 121.546875 106.109375 C 121.980469 104.628906 122.207031 102.839844 122.207031 100.617188 C 122.207031 98.457031 122 96.605469 121.566406 95.183594 C 121.132812 93.765625 120.566406 93.085938 119.886719 93.085938 "/>
<path style=" stroke:none;fill-rule:nonzero;fill:rgb(7.843137%,28.627451%,57.254902%);fill-opacity:1;" d="M 128.960938 93.703125 C 128.734375 93.273438 128.453125 93.085938 128.132812 93.085938 C 127.886719 93.085938 127.640625 93.273438 127.414062 93.703125 C 127.1875 94.074219 126.980469 94.628906 126.773438 95.433594 C 126.640625 94.691406 126.472656 94.074219 126.265625 93.703125 C 126.054688 93.332031 125.8125 93.085938 125.527344 93.085938 C 125 93.085938 124.527344 93.828125 124.132812 95.371094 L 124.132812 93.394531 L 123.039062 93.394531 L 123.039062 107.964844 L 124.207031 107.964844 L 124.207031 100.863281 C 124.207031 99.445312 124.226562 98.457031 124.300781 97.839844 C 124.378906 97.222656 124.472656 96.789062 124.621094 96.480469 C 124.773438 96.171875 124.945312 95.988281 125.113281 95.988281 C 125.265625 95.988281 125.378906 96.050781 125.472656 96.296875 C 125.546875 96.480469 125.621094 96.789062 125.660156 97.222656 C 125.71875 97.59375 125.71875 98.519531 125.71875 99.9375 L 125.71875 107.902344 L 126.90625 107.902344 L 126.90625 100.863281 C 126.90625 99.507812 126.945312 98.457031 127 97.839844 C 127.054688 97.222656 127.152344 96.789062 127.300781 96.417969 C 127.453125 96.109375 127.605469 95.925781 127.773438 95.925781 C 128 95.925781 128.167969 96.171875 128.28125 96.726562 C 128.359375 97.160156 128.394531 98.085938 128.394531 99.507812 L 128.394531 107.839844 L 129.585938 107.839844 L 129.585938 98.519531 C 129.585938 97.097656 129.546875 96.109375 129.453125 95.492188 C 129.359375 94.816406 129.1875 94.136719 128.960938 93.703125 "/>
<path style=" stroke:none;fill-rule:nonzero;fill:rgb(7.843137%,28.627451%,57.254902%);fill-opacity:1;" d="M 133.605469 104.199219 C 133.414062 104.9375 133.1875 105.246094 132.925781 105.246094 C 132.621094 105.246094 132.394531 104.875 132.1875 104.074219 C 131.980469 103.273438 131.886719 102.035156 131.886719 100.433594 C 131.886719 99.011719 131.980469 97.902344 132.167969 97.160156 C 132.359375 96.417969 132.605469 96.050781 132.886719 96.050781 C 133.152344 96.050781 133.394531 96.417969 133.585938 97.160156 C 133.773438 97.902344 133.867188 99.011719 133.867188 100.554688 C 133.867188 102.285156 133.773438 103.457031 133.605469 104.199219 M 133.207031 93.085938 C 132.90625 93.085938 132.640625 93.332031 132.394531 93.765625 C 132.152344 94.199219 131.960938 94.753906 131.8125 95.492188 L 131.8125 93.394531 L 130.71875 93.394531 L 130.71875 113.519531 L 131.886719 113.519531 L 131.886719 106.171875 C 132.113281 106.976562 132.320312 107.46875 132.527344 107.777344 C 132.71875 108.085938 132.945312 108.273438 133.207031 108.273438 C 133.71875 108.273438 134.167969 107.59375 134.527344 106.234375 C 134.886719 104.875 135.074219 102.964844 135.074219 100.554688 C 135.074219 98.148438 134.886719 96.296875 134.527344 95 C 134.167969 93.765625 133.734375 93.085938 133.207031 93.085938 "/>
<path style=" stroke:none;fill-rule:nonzero;fill:rgb(7.843137%,28.627451%,57.254902%);fill-opacity:1;" d="M 138.453125 101.726562 C 138.453125 102.65625 138.433594 103.273438 138.394531 103.640625 C 138.359375 104.136719 138.265625 104.566406 138.132812 104.9375 C 137.925781 105.371094 137.734375 105.617188 137.527344 105.617188 C 137.339844 105.617188 137.1875 105.433594 137.054688 105 C 136.925781 104.628906 136.867188 104.136719 136.867188 103.640625 C 136.867188 103.085938 136.945312 102.65625 137.09375 102.285156 C 137.1875 102.035156 137.414062 101.851562 137.734375 101.605469 C 138.054688 101.417969 138.300781 101.171875 138.453125 100.988281 Z M 139.605469 103.148438 L 139.621094 98.640625 C 139.621094 96.976562 139.566406 95.800781 139.472656 95.183594 C 139.359375 94.566406 139.1875 94.011719 138.925781 93.582031 C 138.660156 93.210938 138.28125 93.023438 137.734375 93.023438 C 137.167969 93.023438 136.71875 93.332031 136.433594 94.011719 C 136.132812 94.691406 135.945312 95.742188 135.8125 97.160156 L 136.867188 97.777344 C 136.945312 97.097656 137.039062 96.605469 137.152344 96.359375 C 137.265625 96.109375 137.433594 95.988281 137.640625 95.988281 C 137.960938 95.988281 138.167969 96.171875 138.28125 96.480469 C 138.394531 96.789062 138.453125 97.34375 138.453125 98.085938 L 138.453125 98.457031 C 138.246094 98.765625 137.847656 99.074219 137.300781 99.445312 C 136.886719 99.691406 136.605469 100 136.378906 100.308594 C 136.167969 100.679688 136 101.171875 135.886719 101.789062 C 135.773438 102.40625 135.699219 103.210938 135.699219 104.011719 C 135.699219 105.246094 135.832031 106.296875 136.09375 107.097656 C 136.359375 107.902344 136.734375 108.332031 137.167969 108.332031 C 137.433594 108.332031 137.660156 108.148438 137.90625 107.839844 C 138.132812 107.53125 138.339844 107.035156 138.546875 106.417969 C 138.566406 106.480469 138.566406 106.605469 138.585938 106.851562 C 138.621094 107.34375 138.660156 107.714844 138.699219 107.964844 L 139.867188 107.964844 C 139.753906 107.285156 139.699219 106.605469 139.660156 105.988281 C 139.605469 105.371094 139.605469 104.445312 139.605469 103.148438 "/>
<path style=" stroke:none;fill-rule:nonzero;fill:rgb(7.843137%,28.627451%,57.254902%);fill-opacity:1;" d="M 144.507812 94.691406 C 144.394531 94.199219 144.246094 93.890625 144.019531 93.519531 C 143.792969 93.210938 143.566406 93.085938 143.300781 93.085938 C 142.71875 93.085938 142.226562 93.890625 141.847656 95.492188 L 141.847656 93.332031 L 140.753906 93.332031 L 140.753906 107.964844 L 141.945312 107.964844 L 141.945312 101.359375 C 141.945312 99.753906 141.960938 98.640625 142.039062 98.023438 C 142.09375 97.46875 142.207031 96.914062 142.359375 96.542969 C 142.507812 96.171875 142.699219 95.988281 142.90625 95.988281 C 143.054688 95.988281 143.1875 96.109375 143.300781 96.359375 C 143.414062 96.605469 143.492188 96.976562 143.546875 97.46875 C 143.585938 97.902344 143.621094 98.949219 143.621094 100.554688 L 143.621094 107.964844 L 144.792969 107.964844 L 144.792969 98.949219 C 144.792969 97.839844 144.753906 96.976562 144.734375 96.359375 C 144.699219 95.679688 144.621094 95.183594 144.507812 94.691406 "/>
<path style=" stroke:none;fill-rule:nonzero;fill:rgb(7.843137%,28.627451%,57.254902%);fill-opacity:1;" d="M 148.773438 93.332031 L 147.734375 103.703125 L 146.660156 93.332031 L 145.414062 93.332031 L 147.09375 107.964844 C 147.019531 108.765625 146.925781 109.445312 146.792969 110 C 146.660156 110.492188 146.453125 110.800781 146.1875 110.800781 C 146.039062 110.800781 145.886719 110.742188 145.699219 110.617188 L 145.792969 113.640625 C 146 113.765625 146.226562 113.828125 146.453125 113.828125 C 146.679688 113.828125 146.867188 113.765625 147.054688 113.640625 C 147.246094 113.457031 147.394531 113.210938 147.507812 112.964844 C 147.621094 112.65625 147.734375 112.285156 147.832031 111.851562 C 147.925781 111.417969 148.019531 110.800781 148.132812 109.9375 L 148.414062 107.34375 L 149.980469 93.332031 Z M 148.773438 93.332031 "/>
</g>
</svg>
