<?xml version="1.0" encoding="UTF-8"?>
<svg xmlns="http://www.w3.org/2000/svg" xmlns:xlink="http://www.w3.org/1999/xlink" width="150px" height="150px" viewBox="0 0 150 150" version="1.1">
<g id="surface1">
<path style=" stroke:none;fill-rule:nonzero;fill:rgb(47.843137%,43.137255%,40%);fill-opacity:1;" d="M 64.367188 70 C 64.566406 69.699219 65.082031 68.6875 65.082031 68.355469 C 64.535156 67.824219 63.753906 67.726562 63.503906 67.410156 C 63.421875 67.296875 64.5 66.617188 64.515625 66.484375 L 64.699219 65.636719 C 64.648438 65.535156 62.511719 67.128906 62.527344 68.339844 L 62.527344 68.441406 C 62.511719 68.988281 64.136719 69.5 64.136719 69.5 C 63.820312 69.898438 60.816406 71.175781 60.136719 71.359375 C 61.730469 71.457031 63.472656 71.390625 64.367188 70 "/>
<path style=" stroke:none;fill-rule:nonzero;fill:rgb(47.843137%,43.137255%,40%);fill-opacity:1;" d="M 22.5 70.148438 C 21.507812 68.804688 19.449219 67.277344 16.695312 64.257812 C 16.695312 64.257812 15.335938 62.898438 14.539062 62.019531 L 14.257812 64.011719 C 15.800781 66.101562 18.6875 69.019531 22.136719 71.921875 C 22.269531 72.039062 22.019531 72.1875 21.921875 72.222656 C 19.765625 73.285156 14.273438 75.65625 12.183594 75.6875 C 8.964844 75.738281 10.195312 71.476562 10.457031 70.746094 C 10.457031 70.746094 10.558594 70.445312 10.410156 70.378906 C 9.796875 71.789062 7.191406 77.925781 11.953125 77.863281 C 14.671875 77.828125 20.429688 75.074219 22.386719 74.078125 C 23.046875 73.746094 23.046875 72.753906 23.066406 72.304688 C 23.03125 71.425781 22.933594 70.84375 22.5 70.148438 "/>
<path style=" stroke:none;fill-rule:nonzero;fill:rgb(47.843137%,43.137255%,40%);fill-opacity:1;" d="M 87.425781 69.898438 L 87.308594 69.765625 C 87.109375 70.429688 86.925781 71.058594 86.726562 71.707031 C 87.390625 72.636719 88.121094 73.648438 88.203125 74.824219 C 88.121094 75.570312 86.230469 75.835938 84.71875 75.855469 L 84.703125 75.855469 C 80.972656 75.855469 81.351562 73.613281 81.386719 72.652344 C 81.367188 72.6875 79.628906 75.738281 76.988281 75.738281 C 73.953125 75.589844 72.992188 73.699219 72.941406 72.355469 C 72.910156 68.007812 69.175781 66.332031 65.941406 61.523438 L 65.84375 61.375 C 65.84375 61.375 64.78125 59.699219 64.683594 59.566406 C 65.214844 59.050781 78.183594 56.230469 80.457031 55.785156 C 80.9375 55.71875 81.351562 55.816406 81.003906 57.042969 C 80.605469 58.402344 79.144531 62.019531 78.484375 63.710938 C 79.875 61.488281 83.375 53.925781 81.765625 54.058594 C 79.113281 54.539062 66.027344 57.542969 64.183594 58.289062 C 64 58.601562 63.703125 60.957031 63.851562 61.074219 C 66.589844 65.535156 70.554688 68.953125 71.632812 70.828125 C 71.847656 71.210938 71.929688 71.589844 71.898438 71.691406 C 70.871094 74.144531 62.277344 75.988281 59.523438 75.988281 C 59.058594 75.988281 58.480469 75.96875 57.863281 75.902344 C 61.480469 70.179688 52.625 58.984375 50.597656 55.683594 C 49.96875 54.722656 49.71875 54.289062 49.71875 54.289062 L 48.941406 55.949219 C 49.289062 57.824219 50.152344 70.628906 50.152344 71.523438 C 50.167969 72.601562 50.183594 72.621094 50.183594 73.894531 C 50.183594 75.539062 47.097656 75.472656 46.703125 75.421875 C 45.625 75.222656 45.109375 72.984375 45.042969 71.457031 C 41.410156 76.152344 37.230469 75.835938 37.214844 75.835938 C 33.230469 75.390625 33.097656 70.113281 32.96875 66.996094 C 32.933594 65.96875 32.949219 57.027344 32.75 54.175781 C 32.75 54.175781 31.523438 55.914062 31.457031 56.199219 C 31.457031 57.042969 31.789062 65.488281 31.921875 67.941406 C 32.070312 70.496094 31.425781 72.867188 29.183594 74.839844 C 29.300781 74.710938 29.617188 73.847656 29.632812 73.53125 C 30.046875 69.035156 24.671875 64.574219 21.191406 59.433594 L 21.074219 59.28125 C 21.074219 59.28125 19.582031 56.761719 19.265625 56.347656 C 19.082031 56.777344 18.835938 57.824219 18.734375 58.453125 C 23.246094 66 29.035156 70.3125 28.738281 74.078125 C 28.671875 74.824219 28.570312 75.125 28.125 75.570312 C 26.015625 77.378906 23.761719 78.523438 21.207031 79.585938 L 21.589844 79.585938 C 23.511719 79.652344 26.894531 78.871094 28.40625 77.761719 C 30.5625 76.183594 32.085938 73.300781 32.46875 71.523438 L 32.484375 71.425781 L 32.503906 71.507812 C 32.703125 73.894531 32.683594 76.78125 36.117188 77.660156 C 38.671875 78.308594 40.996094 77.179688 42.570312 76.070312 C 43.863281 75.15625 44.628906 74.226562 44.628906 74.292969 C 44.628906 75.65625 44.925781 76.699219 45.589844 77.097656 C 46.71875 77.777344 48.292969 77.460938 48.292969 77.460938 C 51.976562 76.832031 51.429688 72.421875 51.429688 70.378906 C 51.429688 67.824219 50.582031 59.5 50.484375 58.253906 C 52.324219 61.191406 59.839844 71.160156 56.851562 75.789062 C 55.925781 75.621094 55.027344 75.324219 54.515625 74.792969 C 54.515625 74.757812 53.417969 73.980469 53.4375 72.585938 C 53.453125 70.710938 54.8125 68.902344 54.8125 68.902344 C 53.351562 70.164062 52.558594 72.75 52.558594 73.664062 C 52.558594 75.820312 53.898438 77.015625 55.640625 77.546875 C 54.796875 78.523438 54.648438 78.738281 54.097656 79.304688 C 55.027344 78.824219 55.808594 78.292969 56.4375 77.726562 C 56.96875 77.828125 57.515625 77.859375 58.046875 77.859375 C 65.195312 77.859375 71.316406 75.105469 72.246094 72.851562 C 72.179688 78.523438 77.738281 77.527344 77.738281 77.527344 C 79.710938 77.195312 80.40625 76.21875 81.039062 75.4375 L 81.039062 75.472656 C 81.949219 78.972656 87.375 77.414062 87.421875 77.414062 C 88.652344 77.128906 89.066406 74.492188 89.066406 73.515625 C 89.03125 72.15625 88.253906 70.945312 87.425781 69.898438 "/>
<path style=" stroke:none;fill-rule:nonzero;fill:rgb(47.843137%,43.137255%,40%);fill-opacity:1;" d="M 82.597656 68.570312 L 80.972656 67.378906 L 80.027344 68.636719 C 80.027344 68.636719 79.925781 68.738281 80.027344 68.820312 L 81.683594 70 L 82.597656 68.804688 C 82.679688 68.671875 82.648438 68.621094 82.597656 68.570312 "/>
<path style=" stroke:none;fill-rule:nonzero;fill:rgb(47.843137%,43.137255%,40%);fill-opacity:1;" d="M 85.929688 80.480469 L 84.304688 79.269531 L 83.359375 80.53125 C 83.359375 80.53125 83.261719 80.632812 83.359375 80.714844 L 85.019531 81.890625 L 85.929688 80.699219 C 86.015625 80.582031 85.980469 80.53125 85.929688 80.480469 "/>
<path style=" stroke:none;fill-rule:nonzero;fill:rgb(47.843137%,43.137255%,40%);fill-opacity:1;" d="M 46.769531 80.480469 L 45.144531 79.289062 L 44.179688 80.546875 C 44.179688 80.546875 44.082031 80.648438 44.179688 80.730469 L 45.839844 81.910156 L 46.75 80.714844 C 46.851562 80.582031 46.816406 80.53125 46.769531 80.480469 "/>
<path style=" stroke:none;fill-rule:nonzero;fill:rgb(47.843137%,43.137255%,40%);fill-opacity:1;" d="M 12.699219 94.300781 C 12.996094 94.300781 13.296875 94.28125 13.628906 94.25 C 13.941406 94.214844 14.242188 94.132812 14.507812 94.015625 C 14.773438 93.882812 14.988281 93.703125 15.167969 93.453125 C 15.335938 93.203125 15.433594 92.871094 15.433594 92.441406 C 15.433594 92.027344 15.351562 91.695312 15.1875 91.445312 C 15.019531 91.199219 14.804688 91 14.554688 90.847656 C 14.289062 90.699219 14.027344 90.601562 13.710938 90.550781 C 13.394531 90.5 13.097656 90.46875 12.816406 90.46875 L 10.726562 90.46875 L 10.726562 94.300781 Z M 12.746094 89.058594 C 12.996094 89.058594 13.246094 89.023438 13.496094 88.957031 C 13.742188 88.890625 13.976562 88.792969 14.175781 88.660156 C 14.390625 88.527344 14.554688 88.34375 14.671875 88.128906 C 14.804688 87.914062 14.855469 87.648438 14.855469 87.332031 C 14.855469 86.984375 14.789062 86.71875 14.671875 86.503906 C 14.539062 86.289062 14.375 86.121094 14.175781 86.003906 C 13.976562 85.890625 13.742188 85.804688 13.496094 85.773438 C 13.246094 85.738281 12.996094 85.707031 12.746094 85.707031 L 10.707031 85.707031 L 10.707031 89.039062 L 12.746094 89.039062 Z M 9.113281 84.296875 L 12.980469 84.296875 C 13.578125 84.296875 14.089844 84.378906 14.523438 84.53125 C 14.953125 84.679688 15.320312 84.894531 15.601562 85.160156 C 15.882812 85.425781 16.097656 85.722656 16.230469 86.089844 C 16.378906 86.4375 16.445312 86.816406 16.445312 87.214844 C 16.445312 87.582031 16.378906 87.914062 16.246094 88.210938 C 16.113281 88.511719 15.949219 88.757812 15.765625 88.976562 C 15.582031 89.171875 15.367188 89.339844 15.152344 89.472656 C 14.921875 89.605469 14.722656 89.671875 14.539062 89.703125 C 14.769531 89.738281 15.035156 89.804688 15.335938 89.921875 C 15.632812 90.019531 15.898438 90.1875 16.148438 90.402344 C 16.398438 90.617188 16.613281 90.898438 16.777344 91.246094 C 16.945312 91.597656 17.027344 92.027344 17.027344 92.542969 C 17.027344 93.15625 16.910156 93.667969 16.695312 94.082031 C 16.480469 94.480469 16.164062 94.8125 15.78125 95.0625 C 15.402344 95.3125 14.953125 95.492188 14.421875 95.59375 C 13.890625 95.691406 13.328125 95.742188 12.746094 95.742188 L 9.082031 95.742188 Z M 9.113281 84.296875 "/>
<path style=" stroke:none;fill-rule:nonzero;fill:rgb(47.843137%,43.137255%,40%);fill-opacity:1;" d="M 23.347656 91.960938 C 23.296875 91.945312 23.214844 91.925781 23.082031 91.910156 C 22.949219 91.894531 22.800781 91.878906 22.632812 91.859375 C 22.449219 91.84375 22.269531 91.84375 22.085938 91.828125 C 21.886719 91.8125 21.703125 91.8125 21.523438 91.8125 C 21.089844 91.8125 20.726562 91.859375 20.460938 91.960938 C 20.195312 92.058594 19.980469 92.191406 19.832031 92.34375 C 19.679688 92.492188 19.566406 92.671875 19.515625 92.855469 C 19.449219 93.039062 19.433594 93.222656 19.433594 93.386719 C 19.433594 93.816406 19.582031 94.148438 19.878906 94.367188 C 20.179688 94.582031 20.59375 94.695312 21.109375 94.695312 C 21.40625 94.695312 21.6875 94.648438 21.953125 94.546875 C 22.21875 94.449219 22.453125 94.316406 22.667969 94.132812 C 22.867188 93.96875 23.03125 93.75 23.164062 93.535156 C 23.296875 93.304688 23.347656 93.070312 23.347656 92.839844 Z M 23.378906 94.765625 C 23.082031 95.160156 22.683594 95.460938 22.203125 95.660156 C 21.722656 95.859375 21.222656 95.957031 20.710938 95.957031 C 20.378906 95.957031 20.046875 95.90625 19.730469 95.824219 C 19.398438 95.742188 19.101562 95.59375 18.835938 95.394531 C 18.570312 95.195312 18.355469 94.945312 18.1875 94.613281 C 18.023438 94.300781 17.941406 93.917969 17.941406 93.453125 C 17.941406 92.589844 18.238281 91.910156 18.835938 91.394531 C 19.433594 90.882812 20.296875 90.617188 21.421875 90.617188 C 21.605469 90.617188 21.804688 90.617188 22.003906 90.632812 C 22.203125 90.648438 22.402344 90.648438 22.585938 90.667969 C 22.765625 90.683594 22.933594 90.683594 23.066406 90.699219 C 23.199219 90.714844 23.296875 90.714844 23.363281 90.734375 L 23.363281 90.433594 C 23.363281 89.835938 23.179688 89.421875 22.816406 89.15625 C 22.453125 88.890625 21.96875 88.773438 21.355469 88.773438 C 20.761719 88.773438 20.277344 88.859375 19.914062 89.023438 C 19.566406 89.191406 19.265625 89.355469 19.019531 89.523438 L 18.304688 88.476562 C 18.4375 88.359375 18.601562 88.246094 18.800781 88.128906 C 19 88.011719 19.21875 87.914062 19.484375 87.8125 C 19.75 87.714844 20.046875 87.628906 20.378906 87.582031 C 20.710938 87.515625 21.089844 87.480469 21.523438 87.480469 C 22.550781 87.480469 23.363281 87.730469 23.945312 88.226562 C 24.523438 88.726562 24.824219 89.421875 24.824219 90.335938 L 24.824219 94.960938 C 24.824219 95.242188 24.824219 95.476562 24.839844 95.675781 L 23.414062 95.675781 Z M 23.378906 94.765625 "/>
<path style=" stroke:none;fill-rule:nonzero;fill:rgb(47.843137%,43.137255%,40%);fill-opacity:1;" d="M 26.332031 89.488281 L 26.332031 88.578125 C 26.332031 88.3125 26.332031 88.046875 26.316406 87.765625 L 27.792969 87.765625 L 27.84375 88.957031 C 27.941406 88.824219 28.074219 88.675781 28.222656 88.511719 C 28.375 88.34375 28.554688 88.195312 28.769531 88.046875 C 28.988281 87.914062 29.234375 87.796875 29.535156 87.714844 C 29.832031 87.613281 30.148438 87.582031 30.511719 87.582031 C 31.558594 87.582031 32.320312 87.878906 32.835938 88.492188 C 33.332031 89.109375 33.582031 89.921875 33.582031 90.964844 L 33.582031 95.742188 L 32.039062 95.742188 L 32.039062 91.082031 C 32.039062 90.335938 31.871094 89.789062 31.558594 89.441406 C 31.242188 89.089844 30.792969 88.925781 30.214844 88.910156 C 29.765625 88.910156 29.402344 89.007812 29.101562 89.191406 C 28.804688 89.375 28.570312 89.605469 28.390625 89.902344 C 28.207031 90.1875 28.074219 90.535156 28.007812 90.898438 C 27.925781 91.265625 27.890625 91.644531 27.890625 92.027344 L 27.890625 95.726562 L 26.347656 95.726562 L 26.347656 89.488281 Z M 26.332031 89.488281 "/>
<path style=" stroke:none;fill-rule:nonzero;fill:rgb(47.843137%,43.137255%,40%);fill-opacity:1;" d="M 35.042969 84.296875 L 36.566406 84.296875 L 36.566406 91.03125 L 39.917969 87.746094 L 41.757812 87.765625 L 38.757812 90.699219 L 42.207031 95.726562 L 40.382812 95.726562 L 37.679688 91.726562 L 36.566406 92.789062 L 36.566406 95.726562 L 35.042969 95.726562 Z M 35.042969 84.296875 "/>
<path style=" stroke:none;fill-rule:nonzero;fill:rgb(47.843137%,43.137255%,40%);fill-opacity:1;" d="M 51.546875 91.148438 L 49.703125 86.121094 L 47.828125 91.148438 Z M 48.90625 84.296875 L 50.582031 84.296875 L 55.0625 95.726562 L 53.238281 95.726562 L 52.058594 92.539062 L 47.367188 92.539062 L 46.1875 95.726562 L 44.460938 95.726562 Z M 48.90625 84.296875 "/>
<path style=" stroke:none;fill-rule:nonzero;fill:rgb(47.843137%,43.137255%,40%);fill-opacity:1;" d="M 55.707031 84.296875 L 57.25 84.296875 L 57.25 95.726562 L 55.707031 95.726562 Z M 55.707031 84.296875 "/>
<path style=" stroke:none;fill-rule:nonzero;fill:rgb(47.843137%,43.137255%,40%);fill-opacity:1;" d="M 60.304688 94.398438 C 60.46875 94.449219 60.667969 94.5 60.902344 94.546875 C 61.132812 94.597656 61.480469 94.632812 61.945312 94.632812 C 62.394531 94.632812 62.792969 94.566406 63.140625 94.414062 C 63.503906 94.28125 63.804688 94.066406 64.070312 93.820312 C 64.316406 93.554688 64.515625 93.253906 64.648438 92.890625 C 64.78125 92.523438 64.847656 92.144531 64.867188 91.710938 C 64.867188 91.347656 64.816406 91 64.734375 90.667969 C 64.648438 90.335938 64.515625 90.035156 64.316406 89.769531 C 64.136719 89.523438 63.886719 89.308594 63.605469 89.15625 C 63.324219 89.007812 62.972656 88.925781 62.558594 88.925781 C 62.179688 88.925781 61.847656 88.992188 61.582031 89.125 C 61.300781 89.257812 61.066406 89.421875 60.882812 89.636719 C 60.703125 89.855469 60.554688 90.101562 60.46875 90.367188 C 60.371094 90.648438 60.335938 90.933594 60.335938 91.230469 L 60.335938 94.398438 Z M 58.777344 84.296875 L 60.320312 84.296875 L 60.320312 88.625 C 60.402344 88.527344 60.503906 88.410156 60.652344 88.277344 C 60.800781 88.144531 60.96875 88.027344 61.183594 87.929688 C 61.398438 87.8125 61.628906 87.730469 61.894531 87.664062 C 62.160156 87.597656 62.460938 87.566406 62.792969 87.566406 C 63.390625 87.566406 63.902344 87.664062 64.351562 87.878906 C 64.796875 88.09375 65.179688 88.378906 65.496094 88.757812 C 65.8125 89.125 66.042969 89.570312 66.191406 90.070312 C 66.339844 90.566406 66.425781 91.097656 66.425781 91.679688 C 66.425781 92.308594 66.324219 92.890625 66.09375 93.402344 C 65.878906 93.933594 65.5625 94.382812 65.179688 94.761719 C 64.78125 95.144531 64.316406 95.445312 63.769531 95.644531 C 63.222656 95.859375 62.609375 95.957031 61.945312 95.957031 C 61.300781 95.957031 60.683594 95.910156 60.136719 95.808594 C 59.574219 95.710938 59.125 95.578125 58.792969 95.445312 L 58.792969 84.296875 Z M 58.777344 84.296875 "/>
<path style=" stroke:none;fill-rule:nonzero;fill:rgb(47.843137%,43.137255%,40%);fill-opacity:1;" d="M 67.636719 87.765625 L 69.179688 87.765625 L 69.179688 95.726562 L 67.636719 95.726562 Z M 67.519531 84.59375 L 69.242188 84.59375 L 69.242188 86.320312 L 67.519531 86.320312 Z M 67.519531 84.59375 "/>
<path style=" stroke:none;fill-rule:nonzero;fill:rgb(47.843137%,43.137255%,40%);fill-opacity:1;" d="M 70.769531 84.296875 L 72.3125 84.296875 L 72.3125 95.726562 L 70.769531 95.726562 Z M 70.769531 84.296875 "/>
<path style=" stroke:none;fill-rule:nonzero;fill:rgb(47.843137%,43.137255%,40%);fill-opacity:1;" d="M 78.796875 91.960938 C 78.75 91.945312 78.664062 91.925781 78.53125 91.910156 C 78.402344 91.894531 78.25 91.878906 78.085938 91.859375 C 77.902344 91.84375 77.738281 91.84375 77.539062 91.828125 C 77.339844 91.8125 77.15625 91.8125 76.972656 91.8125 C 76.542969 91.8125 76.195312 91.859375 75.914062 91.960938 C 75.648438 92.058594 75.429688 92.191406 75.28125 92.34375 C 75.132812 92.492188 75.015625 92.671875 74.96875 92.855469 C 74.902344 93.039062 74.882812 93.222656 74.882812 93.386719 C 74.882812 93.816406 75.035156 94.148438 75.332031 94.367188 C 75.628906 94.582031 76.027344 94.695312 76.558594 94.695312 C 76.859375 94.695312 77.140625 94.648438 77.40625 94.53125 C 77.671875 94.433594 77.902344 94.300781 78.117188 94.117188 C 78.335938 93.949219 78.484375 93.75 78.617188 93.519531 C 78.734375 93.289062 78.800781 93.054688 78.800781 92.824219 L 78.800781 91.960938 Z M 78.816406 94.765625 C 78.515625 95.160156 78.117188 95.460938 77.636719 95.660156 C 77.15625 95.859375 76.660156 95.957031 76.144531 95.957031 C 75.8125 95.957031 75.480469 95.90625 75.164062 95.824219 C 74.835938 95.742188 74.535156 95.59375 74.269531 95.394531 C 74.003906 95.195312 73.789062 94.945312 73.625 94.613281 C 73.457031 94.300781 73.375 93.917969 73.375 93.453125 C 73.375 92.589844 73.671875 91.910156 74.269531 91.394531 C 74.867188 90.882812 75.730469 90.632812 76.859375 90.617188 C 77.039062 90.617188 77.238281 90.617188 77.4375 90.632812 C 77.636719 90.648438 77.835938 90.648438 78.019531 90.667969 C 78.203125 90.683594 78.367188 90.683594 78.5 90.699219 C 78.632812 90.714844 78.734375 90.714844 78.796875 90.734375 L 78.796875 90.449219 C 78.796875 89.851562 78.617188 89.4375 78.25 89.171875 C 77.886719 88.90625 77.40625 88.792969 76.792969 88.792969 C 76.195312 88.792969 75.714844 88.875 75.347656 89.039062 C 75 89.207031 74.703125 89.371094 74.453125 89.539062 L 73.738281 88.492188 C 73.871094 88.378906 74.039062 88.261719 74.238281 88.144531 C 74.4375 88.027344 74.652344 87.929688 74.917969 87.828125 C 75.183594 87.730469 75.480469 87.648438 75.8125 87.597656 C 76.144531 87.53125 76.527344 87.496094 76.957031 87.496094 C 77.984375 87.496094 78.800781 87.746094 79.378906 88.246094 C 79.976562 88.742188 80.257812 89.4375 80.257812 90.351562 L 80.257812 94.976562 C 80.257812 95.261719 80.257812 95.492188 80.273438 95.691406 L 78.832031 95.691406 Z M 78.816406 94.765625 "/>
<path style=" stroke:none;fill-rule:nonzero;fill:rgb(47.843137%,43.137255%,40%);fill-opacity:1;" d="M 87.523438 89.523438 C 87.40625 89.4375 87.191406 89.304688 86.894531 89.15625 C 86.578125 89.007812 86.148438 88.925781 85.566406 88.925781 C 85.183594 88.925781 84.835938 88.992188 84.539062 89.125 C 84.222656 89.257812 83.941406 89.457031 83.707031 89.703125 C 83.476562 89.953125 83.292969 90.269531 83.160156 90.632812 C 83.027344 91 82.960938 91.414062 82.960938 91.859375 C 82.960938 92.242188 83.011719 92.589844 83.09375 92.9375 C 83.195312 93.269531 83.328125 93.570312 83.511719 93.816406 C 83.691406 94.066406 83.941406 94.265625 84.222656 94.414062 C 84.523438 94.546875 84.871094 94.632812 85.269531 94.632812 C 85.667969 94.632812 86.015625 94.566406 86.296875 94.414062 C 86.578125 94.265625 86.8125 94.082031 86.992188 93.851562 C 87.175781 93.636719 87.292969 93.386719 87.390625 93.121094 C 87.472656 92.855469 87.523438 92.609375 87.523438 92.375 Z M 87.523438 94.714844 C 87.457031 94.78125 87.375 94.894531 87.242188 95.027344 C 87.109375 95.179688 86.941406 95.3125 86.710938 95.445312 C 86.496094 95.578125 86.246094 95.710938 85.949219 95.808594 C 85.648438 95.910156 85.316406 95.957031 84.9375 95.957031 C 84.4375 95.957031 83.957031 95.859375 83.527344 95.675781 C 83.09375 95.476562 82.714844 95.210938 82.398438 94.847656 C 82.082031 94.5 81.832031 94.066406 81.652344 93.554688 C 81.46875 93.039062 81.386719 92.476562 81.386719 91.84375 C 81.386719 91.097656 81.519531 90.453125 81.785156 89.902344 C 82.050781 89.355469 82.382812 88.910156 82.796875 88.558594 C 83.195312 88.210938 83.640625 87.964844 84.105469 87.796875 C 84.585938 87.632812 85.035156 87.566406 85.449219 87.566406 C 86.03125 87.566406 86.476562 87.632812 86.792969 87.765625 C 87.109375 87.898438 87.359375 88.011719 87.539062 88.078125 L 87.539062 84.296875 L 89.082031 84.296875 L 89.082031 94.898438 C 89.082031 95.160156 89.082031 95.425781 89.097656 95.710938 L 87.589844 95.710938 Z M 87.523438 94.714844 "/>
<path style=" stroke:none;fill-rule:nonzero;fill:rgb(96.078431%,70.196078%,20.784314%);fill-opacity:1;" d="M 133.820312 54.042969 L 99.382812 54.042969 L 99.382812 74.910156 C 105.304688 71.441406 112.1875 69.453125 119.535156 69.453125 C 127.398438 69.453125 134.730469 71.722656 140.917969 75.640625 L 140.917969 61.125 C 140.917969 57.210938 137.734375 54.042969 133.820312 54.042969 "/>
<path style=" stroke:none;fill-rule:nonzero;fill:rgb(80.784314%,5.490196%,17.647059%);fill-opacity:1;" d="M 113.632812 73.8125 C 108.421875 73.8125 103.5625 75.242188 99.398438 77.710938 L 99.398438 88.476562 C 99.398438 92.390625 102.566406 95.578125 106.484375 95.578125 L 140.902344 95.578125 C 138.066406 83.121094 126.933594 73.8125 113.632812 73.8125 "/>
</g>
</svg>
