<?xml version="1.0" encoding="utf-8"?>
<!-- Generator: Adobe Illustrator 22.0.1, SVG Export Plug-In . SVG Version: 6.00 Build 0)  -->
<svg version="1.1" id="Layer_1" xmlns="http://www.w3.org/2000/svg" xmlns:xlink="http://www.w3.org/1999/xlink" x="0px" y="0px"
	 viewBox="0 0 1000 1000" style="enable-background:new 0 0 1000 1000;" xml:space="preserve">
<style type="text/css">
	.st0{fill:#017CB6;}
	.st1{fill:#FFFFFF;}
</style>
<g>
	<rect x="468.4" y="564.2" width="431.8" height="3"/>
	<rect x="100" y="564.2" width="354.8" height="3"/>
	<path d="M133,518.2V518c6.9-2.1,12-5.7,12-13.3c0-12.1-11.4-14.1-21.7-14.1h-23.2v1.3c3.7,0.6,4.9,1.3,4.9,4v49.9
		c0,2.7-1.1,3.5-4.9,4v1.3h24.1c17.6,0,26.2-8.8,26.2-18C150.4,523.1,142.2,519.3,133,518.2 M114.4,495.4h8.8
		c7.1,0,13.1,3,13.1,10.6c0,6.5-5.7,10.5-16.6,10.5h-5.3V495.4z M121,546.4h-6.6v-24.6h9.7c10.7,0,17,4,17,12.6
		C141,542.2,133.4,546.4,121,546.4"/>
	<path d="M199.3,542.1L183.2,500c-1.7-4.5-3.2-7.8-3.2-10.5h-12.2v1.3c2.1,0.4,3,0.8,3,2.9c0,1.1-0.3,2.2-0.6,3.2l-17,46.7
		c-1.9,5.2-2.8,6.2-6,6.3v1.3h16.1v-1.3c-4-0.1-5-1-5-2.4c0-1.3,0.6-3.8,1.5-6.4l4.7-13.2h20.5l3.9,10.5c2,5.2,2.6,6.9,2.6,8.6
		c0,1.8-1.1,2.6-4.4,2.9v1.3h18.5v-1.3C202.3,549.2,201.8,548.5,199.3,542.1 M166.2,523.1l8.5-23.7h0.2l8.5,23.7H166.2z"/>
	<path d="M408.1,542.1L392,500c-1.8-4.5-3.3-7.8-3.3-10.5h-12.2v1.3c2.1,0.4,3.1,0.8,3.1,2.9c0,1.1-0.3,2.2-0.6,3.2l-17,46.7
		c-1.9,5.2-2.8,6.2-6,6.3v1.3h16.2v-1.3c-4-0.1-5-1-5-2.4c0-1.3,0.6-3.8,1.5-6.4l4.7-13.2h20.6l3.9,10.5c2,5.2,2.6,6.9,2.6,8.6
		c0,1.8-1,2.6-4.4,2.9v1.3h18.5v-1.3C411.1,549.2,410.6,548.5,408.1,542.1 M374.9,523.1l8.5-23.7h0.2l8.5,23.7H374.9z"/>
	<path d="M532.7,542.1L516.5,500c-1.7-4.5-3.2-7.8-3.2-10.5h-12.2l0,1.3c2.1,0.4,3.1,0.8,3.1,2.9c0,1.1-0.3,2.2-0.6,3.2l-17,46.7
		c-1.9,5.2-2.8,6.2-6,6.3v1.3h16.1v-1.3c-4-0.1-5-1-5-2.4c0-1.3,0.6-3.8,1.5-6.4l4.7-13.2h20.6l3.9,10.5c2,5.2,2.6,6.9,2.6,8.6
		c0,1.8-1,2.6-4.4,2.9v1.3h18.6v-1.3C535.6,549.2,535.1,548.5,532.7,542.1 M499.5,523.1l8.5-23.7h0.2l8.5,23.7H499.5z"/>
	<path d="M721.3,542.1L705.2,500c-1.7-4.5-3.3-7.8-3.3-10.5h-12.2l0,1.3c2.1,0.4,3.1,0.8,3.1,2.9c0,1.1-0.3,2.2-0.6,3.2l-17,46.7
		c-1.7,4.6-2.6,6-5.1,6.2c-2.7-0.4-5.1-2.7-7.8-6.3l-18-23.2c9.2-0.8,17.4-6.5,17.4-16.3c0-7.9-4.5-14.5-17.2-14.5h-27.7v1.4
		c3.7,0.6,4.9,1.3,4.9,4v51c0,2.7-1.1,3.5-4.9,4v1.3h19.1v-1.3c-3.7-0.6-4.9-1.3-4.9-4v-51h5.2c8,0,16.2,1.3,16.2,10.4
		c0,8.4-7,12.5-16.9,12.5h-2.7c0,0,18,24.1,23.5,31.5c1,1.3,3.3,1.9,4.5,1.9h8.5v0.1h16.1v-1.3c-4-0.1-5-1-5-2.4
		c0-1.3,0.6-3.8,1.5-6.4l4.7-13.2h20.6l3.9,10.5c2,5.2,2.6,6.9,2.6,8.6c0,1.8-1,2.6-4.4,2.9v1.3h18.5v-1.3
		C724.3,549.2,723.8,548.5,721.3,542.1 M688.2,523.1l8.5-23.7h0.2l8.5,23.7H688.2z"/>
	<path d="M250,489.4v1.4c5.2,0.8,6.7,2.3,6.7,8.7v34.6h-0.2L224,489.4h-15.2v1.4c3.7,0.6,4.9,1.3,4.9,4v51c0,2.7-1.1,3.5-4.9,4v1.3
		h17.5v-1.3c-5.2-0.9-6.7-2.3-6.7-8.7V500h0.2l37.2,51.2h5.7v-56.4c0-2.7,1.1-3.4,4.8-4v-1.4H250"/>
	<path d="M321.5,546.1l-14.8-17c-3.9-4.5-7.9-7.9-11.9-11.9l22.1-22.8c1.9-2,3.3-3,7.2-3.6v-1.4h-19.1v1.4c3,0.2,4.2,0.8,4.2,2
		c0,0.9-0.5,1.6-3.1,4.4l-20.3,21.7h-0.2v-24.1c0-2.7,1.1-3.4,4.9-4v-1.4h-19.1v1.4c3.7,0.6,4.9,1.3,4.9,4v51c0,2.7-1.2,3.5-4.9,4
		v1.3h19.1v-1.3c-3.8-0.6-4.9-1.3-4.9-4v-25.6c6,5.6,12,11.2,17.4,17.5l11.4,13.5h13.5v-1.3C324.9,549.6,323.5,548.4,321.5,546.1"/>
	<path d="M440.2,545.8h-9.1v-51c0-2.2,1.2-3.7,6.1-4v-1.4h-20.4v1.4c3.7,0.6,4.9,1.4,4.9,4v51c0,2.7-1.1,3.5-4.9,4v1.3h36.5
		l0.8-16.8h-1.7C451.6,543.3,449,545.8,440.2,545.8"/>
	<path d="M460.8,490.7c3.7,0.6,4.9,1.3,4.9,4v59.3c0,5.4-3,10.1-7.9,11.8l1.7,0.3c8,0,15.6-5.9,15.6-16.4v-55c0-2.7,1.2-3.5,4.9-4
		v-1.3c-2,0-19.1,0-19.1,0V490.7z"/>
	<path d="M575.8,545.8h-20.9l33.3-56.4h-41.6l-1.3,16h1.4c1.9-6.4,4.7-10.6,11.6-10.6h16.4l-33.5,56.4h47.3l1.1-17.7h-1.5
		C585.9,542.2,583.8,545.8,575.8,545.8"/>
	<path d="M593.4,490.8c3.7,0.6,4.9,1.3,4.9,4v51c0,2.7-1.2,3.5-4.9,4v1.3h19.1v-1.3c-3.7-0.6-4.9-1.3-4.9-4v-51c0-2.7,1.1-3.4,4.9-4
		v-1.4h-19.1V490.8z"/>
	<path d="M429.3,460.4c-3.7-0.6-4.9-1.3-4.9-4v-51c0-2.7,1.1-3.4,4.9-4V400h-19.1v1.4c3.7,0.6,4.9,1.3,4.9,4v51c0,2.7-1.1,3.4-4.9,4
		v1.3h19.1V460.4z"/>
	<path d="M267.6,415.7c2.8,0,5.1-2.3,5.1-5.1c0-2.8-2.3-5.1-5.1-5.1c-2.8,0-5,2.3-5,5.1C262.6,413.4,264.9,415.7,267.6,415.7"/>
	<path d="M132.4,415.7c2.8,0,5.1-2.3,5.1-5.1c0-2.8-2.3-5.1-5.1-5.1c-2.8,0-5,2.3-5,5.1C127.4,413.4,129.7,415.7,132.4,415.7"/>
	<path d="M119.7,415.7c2.8,0,5.1-2.3,5.1-5.1c0-2.8-2.3-5.1-5.1-5.1c-2.8,0-5,2.3-5,5.1C114.7,413.4,116.9,415.7,119.7,415.7"/>
	<path d="M651.9,415.7c2.8,0,5.1-2.3,5.1-5.1c0-2.8-2.3-5.1-5.1-5.1c-2.8,0-5,2.3-5,5.1C646.9,413.4,649.1,415.7,651.9,415.7"/>
	<path d="M702.1,480.1c2.8,0,5.1-2.3,5.1-5.1c0-2.8-2.4-5.1-5.1-5.1c-2.8,0-5,2.3-5,5.1C697.1,477.8,699.3,480.1,702.1,480.1"/>
	<path d="M335.5,469.8c-2.8,0-5,2.3-5,5.1c0,2.9,2.2,5.1,5,5.1c2.8,0,5.1-2.3,5.1-5.1C340.7,472.1,338.3,469.8,335.5,469.8"/>
	<path d="M224.7,474.9c0,2.9,2.2,5.1,5,5.1c2.8,0,5.1-2.3,5.1-5.1c0-2.8-2.3-5.1-5.1-5.1C226.9,469.8,224.7,472.1,224.7,474.9"/>
	<path d="M210.4,474.9c0,2.9,2.2,5.1,5,5.1c2.8,0,5.1-2.3,5.1-5.1c0-2.8-2.3-5.1-5.1-5.1C212.6,469.8,210.4,472.1,210.4,474.9"/>
	<path d="M571,418.9h-4.5c-8,0-14.4-3.6-14.8-8.4c-0.4-4.7,3.2-8.1,8.4-8.1c3.1,0,8.6,1.4,10,8.4h1.1v-8.6h-0.8l-1.2,0.4
		c-1.8,0-4-2.1-9-2.1c-9.7,0-13.3,6.1-13.3,10.8c0,3,2,5.8,4.3,7.6h-8.2v3.9H571V418.9z"/>
	<path d="M708.9,422.6v1.3c3.7,0.6,4.9,1.3,4.9,4l0,27.3h-56.9c0.2-1.3,0.3-2.5,0.3-3.9v-23.4c0-2.6,1.1-3.4,4.8-4v-1.3h-19.1v1.3
		c3.7,0.6,4.9,1.3,4.9,4v24.9c-0.2,10.9-2.9,15.8-10.6,15.8c-7.6,0-11-4.9-11.3-15.3v-47.8c0-2.7,1.1-3.4,4.9-4v-1.3h-19.1v1.3
		c3.8,0.6,4.9,1.3,4.9,4v45.8c0,1.2,0.1,2.5,0.3,3.9H486.6c-10.2,0-16.4-3.9-17.9-11.8c-1.9-10.3,7.1-18.1,19.3-18.5v-2.4
		c-15.4,0-26.4,9.5-26.4,20.7c0,8.5,6.4,18.5,25,18.5h132.2c0.5,1.1,1.1,2.2,1.9,3.2c8.5,11.2,27.7,10.3,34.2-3.2h68.2v-33.8
		c0-2.6,1.2-3.4,4.9-4v-1.3H708.9z"/>
	<path d="M150.2,476.7l1.7,0.3c7.7,0,15.1-5.5,15.6-15.3h79.2v-33.8c0-2.6,1.1-3.4,4.9-4v-1.3h-19.1v1.3c3.7,0.6,4.8,1.3,4.8,4v27.3
		h-69.8v-27.4c0-2.7,1.2-3.4,4.9-4v-1.4c-2,0-19.1,0-19.1,0v1.4c3.7,0.6,4.9,1.3,4.9,4V465C158.2,470.4,155.2,475.1,150.2,476.7"/>
	<path d="M400,461.7v-56.4c0-2.6,1.1-3.5,4.9-4v-1.4c-2,0-19.1,0.1-19.1,0v1.4c3.7,0.5,4.9,1.4,4.9,4v49.9h-31.8h0
		c-0.1-16.2-9.3-33.8-36.3-33.8c-8.8,0-15.7,5.2-19.7,5.2l-2.3-0.7h-0.8l-0.8,16.1h1.7c2.5-13,14.2-15.4,21.5-15.4
		c15.3,0,26.8,12.5,27,25.4l0,3.2h-76.2v-27.4c0-2.7,1.2-3.4,4.9-4v-1.4c-2,0-19.1,0-19.1,0v1.4c3.7,0.6,4.9,1.3,4.9,4V465
		c0,5.4-3,10.1-7.9,11.7l1.7,0.3c7.7,0,15.1-5.5,15.6-15.3H400z"/>
	<path d="M100,461.7h43.8v-1.3c-3.7-0.6-4.9-1.3-4.9-4v-29.3c0-2.7,1.2-3.4,4.9-4v-1.3h-8.9c-37.5,1.7-34.7,27.5-34.8,36.6V461.7z
		 M129.5,427.2v28h-20.8C108.8,436.7,117.8,427.2,129.5,427.2"/>
	<path class="st0" d="M99.8,579.3h0.3c1.3,0,1.8,0.5,1.8,1.8v9.5c0,1.1-0.5,1.7-1.8,1.7h-0.3v0.9h7.6v-0.9H107
		c-1.4,0-1.8-0.6-1.8-1.7v-9.4c0-1.2,0.5-1.8,1.8-1.8h0.4v-0.9h-7.6V579.3z"/>
	<path class="st0" d="M120.6,579.3h0.2c1.9,0,2.2,0.3,2.2,2v7.1l-9.7-10.1h-4.9v0.9l1.9,0.5v10.9c0,1-0.4,1.5-1.8,1.5h-0.1v0.9h5.7
		v-0.9c-1.9,0-2.3-0.5-2.3-1.9v-9l11.4,11.9h1.3v-12.7c0-0.9,0.4-1.2,1.9-1.2h0.2v-0.9h-6.1V579.3z"/>
	<path class="st0" d="M139.9,579.3h0.2c1.9,0,2.2,0.3,2.2,2v7.1l-9.7-10.1h-4.9v0.9l1.9,0.5v10.9c0,1-0.4,1.5-1.8,1.5h-0.1v0.9h5.7
		v-0.9c-1.9,0-2.4-0.5-2.4-1.9v-9l11.4,11.9h1.3v-12.7c0-0.9,0.5-1.2,2-1.2h0.2v-0.9h-6.1V579.3z"/>
	<path class="st0" d="M156.9,577.9c-5.3,0-9.1,3.4-9.1,8.1c0,4,3.2,7.4,8.6,7.4c5.7,0,8.9-3.7,8.9-8
		C165.4,581,161.8,577.9,156.9,577.9 M157,592.5c-3.4,0-5.7-3.1-5.7-7.6c0-3.6,2-5.9,5-5.9c3.6,0,5.5,3.6,5.5,7.4
		C161.8,589.6,160.3,592.5,157,592.5"/>
	<path class="st0" d="M178.2,579.3h0.5c1.3,0,1.9,0.5,1.6,1.3l-3.7,8.6l-3.7-7.9c-0.7-1.4-0.3-2,1.7-2h0.4v-0.9h-8.3v0.9h0.2
		c1.4,0,1.7,0.3,2.5,2l5.6,12.1h1.5l4.9-11.6c0.8-1.9,1.3-2.5,2.7-2.5h0.2v-0.9h-6.1V579.3z"/>
	<path class="st0" d="M199.4,590.1l-4.8-12.1h-3.5l0.2,0.7l-4.1,11.3c-0.6,1.7-1.2,2.2-2.3,2.2h-0.4v0.9h6.3v-0.9h-0.3
		c-2.3,0-2.3-0.6-1.9-1.8l1-2.8h5.2l1.1,2.8c0.5,1.2,0.3,1.8-1.2,1.8H194v0.9h7.7v-0.9C200.5,592.1,200,591.6,199.4,590.1
		 M190.2,586.4l2-5.6l2.2,5.6H190.2z"/>
	<path class="st0" d="M217.4,578l-1.1,0.4H205l-0.7-0.1l-0.5-0.4h-0.8l-0.4,4.4h1c0.5-2.5,0.7-2.8,2.6-2.8h2.8v10.8
		c0,1.3-0.5,1.8-1.8,1.8h-0.8v0.9h8.5v-0.9h-0.6c-1.6,0-2-0.6-2-1.8v-10.8h2.8c1.8,0,2.1,0.3,2.6,2.8h1l-0.4-4.4H217.4z"/>
	<path class="st0" d="M219.9,579.3h0.3c1.3,0,1.8,0.5,1.8,1.8v9.5c0,1.1-0.4,1.7-1.7,1.7h-0.3v0.9h7.5v-0.9H227
		c-1.5,0-1.8-0.6-1.8-1.7v-9.4c0-1.2,0.5-1.8,1.8-1.8h0.4v-0.9h-7.5V579.3z"/>
	<path class="st0" d="M239.6,579.3h0.5c1.4,0,1.9,0.5,1.6,1.3l-3.6,8.6l-3.7-7.9c-0.7-1.4-0.4-2,1.6-2h0.4v-0.9h-8.3v0.9h0.2
		c1.4,0,1.7,0.3,2.5,2l5.6,12.1h1.5l5-11.6c0.8-1.9,1.3-2.5,2.7-2.5h0.2v-0.9h-6.1V579.3z"/>
	<path class="st0" d="M256.7,591.8h-4l-0.9-1.2v-4.3h3.5c1.8,0,2.2,0.4,2.2,1.7h0.9v-4.7h-0.9c0,1.2-0.5,1.7-1.8,1.7h-3.8v-5.4h5.2
		c1.1,0,1.4,0.5,1.6,2.2h0.9l-0.2-3.4h-13.1v0.9h0.2c1.6,0,2,0.5,2,1.7v9.5c0,1.1-0.4,1.7-1.8,1.7h-1v0.9H260l0.3-3.7h-0.9
		C259,591.4,258.2,591.8,256.7,591.8"/>
	<path class="st0" d="M269.6,579.3h0.3c1.3,0,1.8,0.5,1.8,1.8v9.5c0,1.1-0.5,1.7-1.8,1.7h-0.3v0.9h7.5v-0.9h-0.3
		c-1.5,0-1.8-0.6-1.8-1.7v-9.4c0-1.2,0.5-1.8,1.8-1.8h0.4v-0.9h-7.5V579.3z"/>
	<path class="st0" d="M282,580.7c0-1,1-1.7,2.3-1.7c1.8,0,3.4,1.3,3.9,3.2h0.9l-0.5-3.9h-0.5l-0.5,0.2c-0.4,0-1.8-0.6-3.6-0.6
		c-2.8,0-4.8,1.6-4.8,3.8c0,4.7,7.6,4.6,7.6,8.1c0,1.4-1.2,2.4-2.8,2.4c-1.9,0-3.3-1.2-4.1-3.6h-0.9l0.6,4.3h0.6l0.5-0.4
		c0.4,0,2.2,0.7,4.1,0.7c2.8,0,5.1-1.9,5.1-4.4c0-1.1-0.4-2.2-1.3-3.2C285.9,583.3,282,582.9,282,580.7"/>
	<path class="st0" d="M304.9,589c-1.6,2.1-2.1,2.8-3.6,2.8h-3l-1.2-1.1V581c0-1.1,0.5-1.7,1.8-1.7h0.7v-0.9h-8.1v0.9h0.4
		c1.1,0,1.9,0.3,1.9,1.7v9.5c0,1.1-0.4,1.7-2,1.7h-0.4v0.9h12.7l1.7-4.1H304.9z"/>
	<path class="st0" d="M320.4,590.1l-4.8-12.1h-3.5l0.3,0.7l-4.1,11.3c-0.6,1.7-1.2,2.2-2.3,2.2h-0.3v0.9h6.3v-0.9h-0.3
		c-2.3,0-2.3-0.6-1.9-1.8l1-2.8h5.2l1.1,2.8c0.5,1.2,0.2,1.8-1.2,1.8H315v0.9h7.8v-0.9C321.5,592.1,321,591.6,320.4,590.1
		 M311.2,586.4l2-5.6l2.2,5.6H311.2z"/>
	<path class="st0" d="M342.5,589.9l-0.6-8.7c-0.1-1.7,0-1.7,1.7-1.8v-0.9h-5.1l-4.4,9.9l-4.6-9.9h-5v0.9c1.6,0.1,1.6,0.6,1.6,1.8
		l-0.5,8.6c-0.1,1.9-0.1,2.5-2,2.5v0.9h5.3v-0.9c-2,0-2.1-0.8-2-2.4l0.5-8.5h0l5.4,11.7h0.6l5.3-12h0.1l0.6,8.4l0,1.1
		c0,1.6-0.8,1.6-1.8,1.6h-0.4v0.9h7.5v-0.9C342.7,592.1,342.6,591.9,342.5,589.9"/>
	<path class="st0" d="M345.5,579.3h0.3c1.3,0,1.7,0.5,1.7,1.8v9.5c0,1.1-0.5,1.7-1.7,1.7h-0.3v0.9h7.6v-0.9h-0.4
		c-1.4,0-1.8-0.6-1.8-1.7v-9.4c0-1.2,0.5-1.8,1.8-1.8h0.4v-0.9h-7.6V579.3z"/>
	<path class="st0" d="M364.4,592.3c-3.4,0-6-2.9-6-6.7c0-3.8,2.4-6.3,5.8-6.3c2.3,0,4,1.3,4.7,3.7h0.9l-0.2-4.2H369l-0.5,0.3
		c-0.5,0-2.1-1-4.5-1c-5.1,0-9.1,3.4-9.1,7.8c0,4.3,3.8,7.6,8.7,7.6c1.8,0,3-0.4,4.1-0.4l1.4,0.2c0.6-1.2,1.1-3,1.3-4.3h-0.9
		C368.4,591.1,366.6,592.3,364.4,592.3"/>
	<path class="st0" d="M391,584.7L391,584.7c2-0.5,2.9-1.4,2.9-2.8l-0.9-2.2c-1.3-1.3-3.6-1.7-6.5-1.7c-1,0-2.4,0.1-3.9,0.2
		c-1.3,0-2.4,0.2-3,0.2v0.9h0.6c1.8,0,2.1,0.3,2.1,2.1v8.8c0,1.4-0.5,2-2.9,2v0.9h9.2c3.9,0,6.1-2,6.1-4.5
		C394.7,586.8,393.3,585.2,391,584.7 M385.6,579l1.3-0.1c2.9,0,3.6,1.6,3.6,2.9c0,1.2-0.6,2.5-3,2.5l-1.8,0V579z M387.7,592.1
		c-1.5,0-2.2-0.4-2.2-2.2v-4.6l1.8-0.1c3.1,0,3.7,2.1,3.7,3.5C391,590.4,390.4,592.1,387.7,592.1"/>
	<path class="st0" d="M410.7,590.1L406,578h-3.5l0.3,0.7l-4.1,11.3c-0.6,1.7-1.2,2.2-2.3,2.2h-0.4v0.9h6.3v-0.9h-0.3
		c-2.3,0-2.3-0.6-1.9-1.8l1-2.8h5.2l1.1,2.8c0.4,1.2,0.3,1.8-1.2,1.8h-0.9v0.9h7.7v-0.9C411.8,592.1,411.3,591.6,410.7,590.1
		 M401.5,586.4l2-5.6l2.2,5.6H401.5z"/>
	<path class="st0" d="M426,579.3h0.2c1.9,0,2.3,0.3,2.3,2v7.1l-9.7-10.1h-4.9v0.9l1.9,0.5v10.9c0,1-0.4,1.5-1.8,1.5h-0.1v0.9h5.8
		v-0.9c-1.9,0-2.4-0.5-2.4-1.9v-9l11.4,11.9h1.3v-12.7c0-0.9,0.5-1.2,2-1.2h0.2v-0.9H426V579.3z"/>
	<path class="st0" d="M446.8,590l-2-2.6l-2.5-2.5c1.7-1.4,2.8-3.6,3.9-4.7c0.7-0.7,1.2-0.8,2.6-0.9v-0.9h-6.3v0.9h0.3l1.4,0.8
		l-2.3,3.6c-1.1,1.1-2.2,1.7-3.1,1.8v-4.3c0-1.3,0.3-1.9,1.8-1.9h0.4v-0.9h-7.8v0.9h0.4c1.4,0,1.8,0.5,1.8,1.8v9.3
		c0,1.4-0.6,1.8-1.8,1.8h-0.4v0.9h7.8v-0.9h-0.4c-1.2,0-1.9-0.4-1.9-1.7v-4.3l1.7,0.9c1.5,1.5,3.7,4,3.7,4.5l-1.7,0.6v0.9h8.1v-0.9
		C448.9,592.2,448,591.6,446.8,590"/>
	<path class="st0" d="M450.7,579.3h0.3c1.3,0,1.8,0.5,1.8,1.8v9.5c0,1.1-0.5,1.7-1.7,1.7h-0.3v0.9h7.6v-0.9h-0.3
		c-1.5,0-1.9-0.6-1.9-1.7v-9.4c0-1.2,0.5-1.8,1.8-1.8h0.4v-0.9h-7.6V579.3z"/>
	<path class="st0" d="M471.6,579.3h0.2c1.9,0,2.2,0.3,2.2,2v7.1l-9.7-10.1h-4.9v0.9l1.9,0.5v10.9c0,1-0.3,1.5-1.8,1.5h-0.2v0.9h5.8
		v-0.9c-1.9,0-2.4-0.5-2.4-1.9v-9l11.4,11.9h1.3v-12.7c0-0.9,0.5-1.2,2-1.2h0.2v-0.9h-6.1V579.3z"/>
	<path class="st0" d="M488.3,586.9c2.4,0.1,2.9,0.3,2.9,1.5v3.3l-2.6,0.7c-3.3,0-5.7-2.9-5.7-6.8c0-3.9,2.3-6.5,5.7-6.5
		c2.5,0,4.3,1.4,4.9,3.9h0.9v-4.4h-0.6l-0.7,0.3c-0.8,0-2.7-0.8-5.2-0.8c-5,0-8.7,3.2-8.7,7.6c0,4.5,2.9,7.8,8.9,7.8
		c2.1,0,4.5-0.7,6.2-1.5v-3.6c0-1.1,0.4-1.5,1.7-1.5v-0.9h-7.9V586.9z"/>
	<path class="st0" d="M701.1,593.2c0.4-0.8,0.7-1.8,0.7-3v-0.7l-6.8-12c-1.1-2,0.1-3,2.2-3v-0.7h-8.9v0.7c2,0.2,2.6,0.7,4.7,4.3
		L701.1,593.2z"/>
	<path class="st0" d="M757.3,595l-2.3-0.5c-2.4,0-3.3,1.5-3.3,2.6l1.1,1.9h-2.1v1h7.1v-1h-1.1c-2,0-3.7-0.7-3.8-2.1
		c-0.1-1.2,0.9-2.2,2.3-2.2c0.9,0,2.1,0.5,2.4,2.2h0.2v-2.1h-0.2L757.3,595"/>
	<path class="st0" d="M751.7,574.2c1.2,0.1,1.6,0.4,1.6,1.3v15.9c0,0.9-0.4,1.1-1.6,1.4v0.4h6.4v-0.4c-1.2-0.2-1.6-0.5-1.6-1.4
		v-15.9c0-0.9,0.4-1.2,1.6-1.3v-0.5h-6.4V574.2z"/>
	<polygon class="st0" points="636,577.9 637.7,576.2 636,574.5 634.3,576.2 	"/>
	<polygon class="st0" points="631.8,577.9 633.5,576.2 631.8,574.5 630.1,576.2 	"/>
	<polygon class="st0" points="660.1,595.1 658.4,596.8 660.1,598.5 661.8,596.8 	"/>
	<polygon class="st0" points="655.9,595.1 654.2,596.8 655.9,598.5 657.6,596.8 	"/>
	<path class="st0" d="M687.6,579H687h-2.5c-10.5,0-13,5-13.1,11.6h-12.2v-9c0-0.9,0.4-1.1,1.6-1.3v-0.5h-6.4v0.5
		c1.3,0.2,1.6,0.5,1.6,1.3v9h-20.9v-9c0-0.9,0.4-1.1,1.6-1.3v-0.4h-2.9c-12.5,0.6-11.6,9.2-11.7,12.3v1H687h0l0-13.5L687.6,579z
		 M632.1,590.7h-6.9c0-6.2,3-9,6.9-9V590.7z M684.5,590.7h-9.9c0-6.1,2.4-10,9.9-10V590.7z"/>
	<path class="st0" d="M743.7,581.2c1.3,0.2,1.6,0.5,1.6,1.3v7.6c0,4.9-1.1,7.1-4.5,7.1c-3.4,0-4.8-2.3-4.8-7.1v-7.6
		c0-0.8,0.4-1.1,1.7-1.3v-0.4h-6.4v0.4c1.3,0.2,1.6,0.5,1.6,1.3v7.6c0,4.8-1.1,7.1-4.5,7.1c-3.4,0-4.5-2.2-4.5-7.1v-7.6
		c0-0.8,0.4-1.1,1.6-1.3v-0.4h-6.4v0.4c1.2,0.2,1.6,0.5,1.6,1.3v7.6l0,0.6h-14.1v-15.2c0-0.9,0.4-1.2,1.6-1.4v-0.5h-6.4v0.5
		c1.3,0.2,1.6,0.4,1.6,1.4v14.7c0,8.5-10.3,8.7-11.9,2l-0.9,0.2c1.3,7.5,13.2,8.7,15.5,0.8h15c1.2,3.5,4.5,5.1,7.6,5
		c0.4,0,3.8-0.3,5.6-2.9c4,5.2,13.9,3.6,13.9-5.1l0-7.6c0-0.8,0.4-1.1,1.6-1.3v-0.4h-6.4V581.2z"/>
	<polygon class="st0" points="517.5,577.9 519.3,576.2 517.5,574.5 515.9,576.2 	"/>
	<polygon class="st0" points="513.3,577.9 515,576.2 513.3,574.5 511.6,576.2 	"/>
	<polygon class="st0" points="543,573.5 544.6,571.7 543,570 541.3,571.7 	"/>
	<polygon class="st0" points="543.4,576.2 545.1,577.9 546.8,576.2 545.1,574.5 	"/>
	<polygon class="st0" points="540.9,577.9 542.5,576.2 540.9,574.5 539.2,576.2 	"/>
	<polygon class="st0" points="559.3,595.1 557.7,596.8 559.3,598.5 561.1,596.8 	"/>
	<polygon class="st0" points="555.1,595.1 553.4,596.8 555.1,598.5 556.8,596.8 	"/>
	<path class="st0" d="M556.3,580.3c1.2,0.2,1.6,0.5,1.6,1.3v9.1h-13.6v-9c0-0.9,0.4-1.1,1.6-1.3v-0.4h-6.4v0.4
		c1.3,0.2,1.6,0.5,1.6,1.3v9h-24.3v-9c0-0.9,0.4-1.1,1.6-1.3v-0.4h-2.9c-12.5,0.5-11.6,9.2-11.7,12.2v1H561v-11.6
		c0-0.8,0.4-1.1,1.6-1.3v-0.4h-6.4L556.3,580.3z M513.8,590.7h-6.9c0-6.1,3-9,6.9-9V590.7z"/>
	<path class="st0" d="M608.5,590.7c0-5.4-3.1-11.2-12.1-11.2c-2.9,0-5.2,1.7-6.6,1.7l-0.8-0.2h-0.2l-0.3,5.3h0.6
		c0.8-4.3,4.7-5.1,7.2-5.1c5.1,0,8.9,4.2,9,8.5v1h-23.6v-0.3c-0.1-6.5-2.7-11.2-12.7-11.3v1.7c7.1,0.1,9.5,3.9,9.5,10h-14.1v2.5
		l44.1,0V590.7z"/>
	<polygon class="st0" points="782.7,577.9 784.4,576.2 782.7,574.5 781,576.2 	"/>
	<polygon class="st0" points="832.9,574.5 831.3,576.2 832.9,577.9 834.7,576.2 	"/>
	<polygon class="st0" points="778.4,577.9 780.2,576.2 778.4,574.5 776.8,576.2 	"/>
	<polygon class="st0" points="810.4,595.1 808.7,596.8 810.4,598.5 812.1,596.8 	"/>
	<polygon class="st0" points="806.1,595.1 804.4,596.8 806.1,598.5 807.8,596.8 	"/>
	<path class="st0" d="M899.7,579.6l0.6-0.6h-0.6h-2.5c-10.5,0-13,5-13.1,11.6h-6.3c-0.1-5.4-3.1-11.2-12.1-11.2
		c-5.7,0-8.4,2.7-10,3.5v0v-3.4H851v0.4c1.2,0.2,1.6,0.5,1.6,1.3v9.3h-10v-9.1c0-0.9,0.4-1.1,1.6-1.4v-0.4h-6.4v0.4
		c1.3,0.2,1.6,0.5,1.6,1.4V594c0,1.8-1,3.3-2.6,3.9l0.6,0.1c2.5,0,4.9-1.8,5.2-4.8h57.1V579.6z M874.5,590.7h-18.8v-3.1
		c1-4.2,5.6-6.5,9.9-6.5c5.1,0,8.9,4.2,9,8.5V590.7z M897.2,590.7h-9.9c0-6.1,2.4-10,9.9-10V590.7z"/>
	<path class="st0" d="M831.8,579.8c-6.4,0.6-9.3,4.3-9.9,9h8.7v1.8h-21.1v-9c0-0.9,0.4-1.1,1.6-1.3v-0.5h-6.3v0.5
		c1.2,0.2,1.6,0.5,1.6,1.3v9h-24.5v-3.6V586v-4.4c0-0.9,0.4-1.1,1.6-1.3v-0.5h-1.6h-0.3h-1.1v0c-12.4,0.6-11.6,9.2-11.6,12.2v1.1
		l64.8,0v-13.3H831.8z M778.8,590.6h-6.9c0-6.1,3-9,6.9-9V590.6z M830.6,583.9v2.5h-4.9c0.8-2.2,2.4-3.7,4.9-4.4V583.9z"/>
	<path d="M795.7,400.1L795.7,400.1L795.7,400.1z"/>
	<path class="st0" d="M829.2,462.8l2.9-0.8l5.1,3v3.9l1.4,2.3c1.3,0.1,6.3-0.8,10.6-1.8c0.8-1.1,10.4-14.2,10.4-14.2l5.7-4.2
		l-0.6,8.1c0,1.2,0.3,3,0.7,3.9c1,0.9,6.3,3.7,10.2,5.8c12,6.4,12.4,6.9,12.4,8.5c0,2.1-5.3,13.6-6.2,15.2L870.9,511l-9,8.5
		l-11.4,3.6l-3.2,2.7l-0.6,3.8l-22.7,12.7l-18.3,5.3l-2.9,3.5h97.3V400.1H795.7c0.2,0.4,16,36.2,20,42.9
		C819,448.6,829.2,462.8,829.2,462.8"/>
	<polygon points="784.3,526.9 772.5,506.8 762.7,498.9 757.8,479.2 751.2,474.2 749.2,470.3 749.2,551.2 790.4,551.2 784.1,534.3 	
		"/>
	<path d="M875.7,468.8c-3.9-2.1-9.2-4.9-10.2-5.8c-0.4-0.9-0.7-2.7-0.7-3.9l0.6-8.1l-5.7,4.2c0,0-9.6,13-10.4,14.2
		c-4.3,1.1-9.3,1.9-10.6,1.8l-1.4-2.3V465l-5.1-3l-2.9,0.8c0,0-10.2-14.2-13.5-19.8c-4-6.7-19.8-42.5-20-42.9h-0.1
		c1.6,4.2,14.4,37.5,18.3,43.9c4.1,6.9,14.3,20.9,14.3,20.9l3.5-0.6l3.5,2.1v2.9l2.4,3.7l12.7-1.8l10.7-14.5l1.9-1.4l-0.3,3.8
		c0,0,0.1,3.4,1.1,5.1c1,1.7,22.3,11.9,22.3,13.2c0,1.3-4.7,12-5.9,14.1c-1.3,2.1-10.9,18.3-10.9,18.3l-8.5,7.9l-11.3,3.6l-4,3.5
		l-0.5,3.6l-21.6,12.1l-18.7,5.5l-2,5.3h0.2l2.9-3.5l18.4-5.4l22.7-12.7l0.6-3.8l3.2-2.7l11.4-3.6l9-8.5l11.1-18.5
		c0.9-1.6,6.2-13.1,6.2-15.2C888.1,475.7,887.6,475.2,875.7,468.8"/>
	<path class="st1" d="M863.8,464.2c-1-1.6-1.1-5.1-1.1-5.1l0.3-3.8l-1.9,1.4l-10.7,14.5l-12.7,1.8l-2.4-3.7v-2.9l-3.5-2.1l-3.5,0.6
		c0,0-10.2-14-14.3-20.9c-3.9-6.4-16.7-39.7-18.3-43.9h-46.6l0.1,70.2l2,3.9l6.6,5l5,19.7l9.8,7.9l11.8,20.1l-0.2,7.4l6.3,17h12.2
		l2-5.3l18.7-5.5l21.6-12l0.5-3.6l4-3.5l11.3-3.6l8.5-7.9c0,0,9.6-16.2,10.9-18.3c1.2-2.1,5.9-12.8,5.9-14.1
		C886.1,476.1,864.8,465.8,863.8,464.2"/>
</g>
</svg>
