<?xml version="1.0" encoding="UTF-8"?>
<svg xmlns="http://www.w3.org/2000/svg" xmlns:xlink="http://www.w3.org/1999/xlink" width="150px" height="150px" viewBox="0 0 150 150" version="1.1">
<g id="surface1">
<path style=" stroke:none;fill-rule:nonzero;fill:rgb(0%,0%,0%);fill-opacity:1;" d="M 70.261719 84.628906 L 135.03125 84.628906 L 135.03125 85.078125 L 70.261719 85.078125 Z M 70.261719 84.628906 "/>
<path style=" stroke:none;fill-rule:nonzero;fill:rgb(0%,0%,0%);fill-opacity:1;" d="M 15 84.628906 L 68.21875 84.628906 L 68.21875 85.078125 L 15 85.078125 Z M 15 84.628906 "/>
<path style=" stroke:none;fill-rule:nonzero;fill:rgb(0%,0%,0%);fill-opacity:1;" d="M 19.949219 77.730469 L 19.949219 77.699219 C 20.984375 77.386719 21.75 76.84375 21.75 75.703125 C 21.75 73.890625 20.039062 73.589844 18.496094 73.589844 L 15.015625 73.589844 L 15.015625 73.785156 C 15.570312 73.875 15.75 73.980469 15.75 74.386719 L 15.75 81.871094 C 15.75 82.273438 15.585938 82.394531 15.015625 82.46875 L 15.015625 82.664062 L 18.628906 82.664062 C 21.269531 82.664062 22.558594 81.34375 22.558594 79.964844 C 22.558594 78.464844 21.328125 77.894531 19.949219 77.730469 M 17.160156 74.308594 L 18.480469 74.308594 C 19.546875 74.308594 20.445312 74.761719 20.445312 75.898438 C 20.445312 76.875 19.589844 77.476562 17.953125 77.476562 L 17.160156 77.476562 Z M 18.148438 81.960938 L 17.160156 81.960938 L 17.160156 78.269531 L 18.613281 78.269531 C 20.21875 78.269531 21.164062 78.871094 21.164062 80.160156 C 21.148438 81.328125 20.011719 81.960938 18.148438 81.960938 "/>
<path style=" stroke:none;fill-rule:nonzero;fill:rgb(0%,0%,0%);fill-opacity:1;" d="M 29.894531 81.316406 L 27.480469 75 C 27.226562 74.324219 27 73.828125 27 73.425781 L 25.171875 73.425781 L 25.171875 73.621094 C 25.484375 73.679688 25.621094 73.738281 25.621094 74.054688 C 25.621094 74.21875 25.574219 74.386719 25.53125 74.535156 L 22.980469 81.539062 C 22.695312 82.320312 22.558594 82.46875 22.078125 82.484375 L 22.078125 82.679688 L 24.496094 82.679688 L 24.496094 82.484375 C 23.894531 82.46875 23.746094 82.335938 23.746094 82.125 C 23.746094 81.929688 23.835938 81.554688 23.96875 81.164062 L 24.675781 79.183594 L 27.75 79.183594 L 28.335938 80.761719 C 28.636719 81.539062 28.726562 81.796875 28.726562 82.050781 C 28.726562 82.320312 28.558594 82.441406 28.066406 82.484375 L 28.066406 82.679688 L 30.839844 82.679688 L 30.839844 82.484375 C 30.34375 82.378906 30.269531 82.273438 29.894531 81.316406 M 24.929688 78.464844 L 26.203125 74.910156 L 26.234375 74.910156 L 27.511719 78.464844 Z M 24.929688 78.464844 "/>
<path style=" stroke:none;fill-rule:nonzero;fill:rgb(0%,0%,0%);fill-opacity:1;" d="M 61.214844 81.316406 L 58.800781 75 C 58.53125 74.324219 58.304688 73.828125 58.304688 73.425781 L 56.476562 73.425781 L 56.476562 73.621094 C 56.789062 73.679688 56.941406 73.738281 56.941406 74.054688 C 56.941406 74.21875 56.894531 74.386719 56.851562 74.535156 L 54.300781 81.539062 C 54.015625 82.320312 53.878906 82.46875 53.398438 82.484375 L 53.398438 82.679688 L 55.828125 82.679688 L 55.828125 82.484375 C 55.230469 82.46875 55.078125 82.335938 55.078125 82.125 C 55.078125 81.929688 55.171875 81.554688 55.304688 81.164062 L 56.011719 79.183594 L 59.101562 79.183594 L 59.683594 80.761719 C 59.984375 81.539062 60.074219 81.796875 60.074219 82.050781 C 60.074219 82.320312 59.925781 82.441406 59.414062 82.484375 L 59.414062 82.679688 L 62.191406 82.679688 L 62.191406 82.484375 C 61.664062 82.378906 61.589844 82.273438 61.214844 81.316406 M 56.234375 78.464844 L 57.511719 74.910156 L 57.539062 74.910156 L 58.816406 78.464844 Z M 56.234375 78.464844 "/>
<path style=" stroke:none;fill-rule:nonzero;fill:rgb(0%,0%,0%);fill-opacity:1;" d="M 79.90625 81.316406 L 77.476562 75 C 77.21875 74.324219 76.996094 73.828125 76.996094 73.425781 L 75.164062 73.425781 L 75.164062 73.621094 C 75.480469 73.679688 75.628906 73.738281 75.628906 74.054688 C 75.628906 74.21875 75.585938 74.386719 75.539062 74.535156 L 72.988281 81.539062 C 72.703125 82.320312 72.570312 82.46875 72.089844 82.484375 L 72.089844 82.679688 L 74.503906 82.679688 L 74.503906 82.484375 C 73.90625 82.46875 73.753906 82.335938 73.753906 82.125 C 73.753906 81.929688 73.84375 81.554688 73.980469 81.164062 L 74.683594 79.183594 L 77.773438 79.183594 L 78.359375 80.761719 C 78.660156 81.539062 78.75 81.796875 78.75 82.050781 C 78.75 82.320312 78.601562 82.441406 78.089844 82.484375 L 78.089844 82.679688 L 80.878906 82.679688 L 80.878906 82.484375 C 80.339844 82.378906 80.265625 82.273438 79.90625 81.316406 M 74.925781 78.464844 L 76.199219 74.910156 L 76.230469 74.910156 L 77.503906 78.464844 Z M 74.925781 78.464844 "/>
<path style=" stroke:none;fill-rule:nonzero;fill:rgb(0%,0%,0%);fill-opacity:1;" d="M 108.195312 81.316406 L 105.78125 75 C 105.523438 74.324219 105.285156 73.828125 105.285156 73.425781 L 103.453125 73.425781 L 103.453125 73.621094 C 103.769531 73.679688 103.921875 73.738281 103.921875 74.054688 C 103.921875 74.21875 103.875 74.386719 103.828125 74.535156 L 101.28125 81.539062 C 101.023438 82.230469 100.890625 82.441406 100.515625 82.46875 C 100.109375 82.410156 99.75 82.066406 99.34375 81.523438 L 96.644531 78.046875 C 98.023438 77.925781 99.253906 77.070312 99.253906 75.601562 C 99.253906 74.414062 98.578125 73.425781 96.675781 73.425781 L 92.519531 73.425781 L 92.519531 73.636719 C 93.074219 73.726562 93.253906 73.828125 93.253906 74.234375 L 93.253906 81.886719 C 93.253906 82.289062 93.089844 82.410156 92.519531 82.484375 L 92.519531 82.679688 L 95.386719 82.679688 L 95.386719 82.484375 C 94.828125 82.394531 94.648438 82.289062 94.648438 81.886719 L 94.648438 74.234375 L 95.429688 74.234375 C 96.628906 74.234375 97.859375 74.429688 97.859375 75.796875 C 97.859375 77.054688 96.808594 77.671875 95.324219 77.671875 L 94.921875 77.671875 C 94.921875 77.671875 97.621094 81.285156 98.445312 82.394531 C 98.59375 82.589844 98.941406 82.679688 99.121094 82.679688 L 100.394531 82.679688 L 100.394531 82.695312 L 102.808594 82.695312 L 102.808594 82.5 C 102.210938 82.484375 102.058594 82.351562 102.058594 82.140625 C 102.058594 81.945312 102.148438 81.570312 102.285156 81.179688 L 102.988281 79.199219 L 106.078125 79.199219 L 106.664062 80.773438 C 106.964844 81.554688 107.054688 81.808594 107.054688 82.066406 C 107.054688 82.335938 106.90625 82.453125 106.394531 82.5 L 106.394531 82.695312 L 109.171875 82.695312 L 109.171875 82.5 C 108.644531 82.378906 108.570312 82.273438 108.195312 81.316406 M 103.230469 78.464844 L 104.503906 74.910156 L 104.535156 74.910156 L 105.808594 78.464844 Z M 103.230469 78.464844 "/>
<path style=" stroke:none;fill-rule:nonzero;fill:rgb(0%,0%,0%);fill-opacity:1;" d="M 37.5 73.410156 L 37.5 73.621094 C 38.28125 73.738281 38.503906 73.964844 38.503906 74.925781 L 38.503906 80.113281 L 38.476562 80.113281 L 33.601562 73.410156 L 31.320312 73.410156 L 31.320312 73.621094 C 31.875 73.710938 32.054688 73.816406 32.054688 74.21875 L 32.054688 81.871094 C 32.054688 82.273438 31.890625 82.394531 31.320312 82.46875 L 31.320312 82.664062 L 33.945312 82.664062 L 33.945312 82.46875 C 33.164062 82.335938 32.941406 82.125 32.941406 81.164062 L 32.941406 75 L 32.96875 75 L 38.550781 82.679688 L 39.40625 82.679688 L 39.40625 74.21875 C 39.40625 73.816406 39.570312 73.710938 40.125 73.621094 L 40.125 73.410156 L 37.5 73.410156 "/>
<path style=" stroke:none;fill-rule:nonzero;fill:rgb(0%,0%,0%);fill-opacity:1;" d="M 48.226562 81.914062 L 46.003906 79.363281 C 45.421875 78.691406 44.820312 78.179688 44.21875 77.578125 L 47.535156 74.160156 C 47.820312 73.859375 48.03125 73.710938 48.613281 73.621094 L 48.613281 73.410156 L 45.75 73.410156 L 45.75 73.621094 C 46.199219 73.648438 46.378906 73.738281 46.378906 73.921875 C 46.378906 74.054688 46.304688 74.160156 45.914062 74.578125 L 42.871094 77.835938 L 42.839844 77.835938 L 42.839844 74.21875 C 42.839844 73.816406 43.003906 73.710938 43.574219 73.621094 L 43.574219 73.410156 L 40.710938 73.410156 L 40.710938 73.621094 C 41.265625 73.710938 41.445312 73.816406 41.445312 74.21875 L 41.445312 81.871094 C 41.445312 82.273438 41.265625 82.394531 40.710938 82.46875 L 40.710938 82.664062 L 43.574219 82.664062 L 43.574219 82.46875 C 43.003906 82.378906 42.839844 82.273438 42.839844 81.871094 L 42.839844 78.03125 C 43.738281 78.871094 44.640625 79.710938 45.449219 80.65625 L 47.160156 82.679688 L 49.183594 82.679688 L 49.183594 82.484375 C 48.734375 82.441406 48.523438 82.261719 48.226562 81.914062 "/>
<path style=" stroke:none;fill-rule:nonzero;fill:rgb(0%,0%,0%);fill-opacity:1;" d="M 66.03125 81.871094 L 64.664062 81.871094 L 64.664062 74.21875 C 64.664062 73.890625 64.84375 73.664062 65.578125 73.621094 L 65.578125 73.410156 L 62.519531 73.410156 L 62.519531 73.621094 C 63.074219 73.710938 63.253906 73.828125 63.253906 74.21875 L 63.253906 81.871094 C 63.253906 82.273438 63.089844 82.394531 62.519531 82.46875 L 62.519531 82.664062 L 67.996094 82.664062 L 68.113281 80.144531 L 67.859375 80.144531 C 67.738281 81.496094 67.351562 81.871094 66.03125 81.871094 "/>
<path style=" stroke:none;fill-rule:nonzero;fill:rgb(0%,0%,0%);fill-opacity:1;" d="M 69.121094 73.605469 C 69.675781 73.695312 69.855469 73.800781 69.855469 74.203125 L 69.855469 83.101562 C 69.855469 83.910156 69.40625 84.613281 68.671875 84.871094 L 68.925781 84.914062 C 70.125 84.914062 71.265625 84.03125 71.265625 82.453125 L 71.265625 74.203125 C 71.265625 73.800781 71.445312 73.679688 72 73.605469 L 72 73.410156 C 71.699219 73.410156 69.136719 73.410156 69.136719 73.410156 L 69.136719 73.605469 Z M 69.121094 73.605469 "/>
<path style=" stroke:none;fill-rule:nonzero;fill:rgb(0%,0%,0%);fill-opacity:1;" d="M 86.371094 81.871094 L 83.234375 81.871094 L 88.230469 73.410156 L 81.988281 73.410156 L 81.796875 75.808594 L 82.003906 75.808594 C 82.289062 74.851562 82.710938 74.21875 83.746094 74.21875 L 86.203125 74.21875 L 81.179688 82.679688 L 88.273438 82.679688 L 88.441406 80.023438 L 88.214844 80.023438 C 87.886719 81.328125 87.570312 81.871094 86.371094 81.871094 "/>
<path style=" stroke:none;fill-rule:nonzero;fill:rgb(0%,0%,0%);fill-opacity:1;" d="M 89.011719 73.621094 C 89.566406 73.710938 89.746094 73.816406 89.746094 74.21875 L 89.746094 81.871094 C 89.746094 82.273438 89.566406 82.394531 89.011719 82.46875 L 89.011719 82.664062 L 91.875 82.664062 L 91.875 82.46875 C 91.320312 82.378906 91.140625 82.273438 91.140625 81.871094 L 91.140625 74.21875 C 91.140625 73.816406 91.304688 73.710938 91.875 73.621094 L 91.875 73.410156 L 89.011719 73.410156 Z M 89.011719 73.621094 "/>
<path style=" stroke:none;fill-rule:nonzero;fill:rgb(0%,0%,0%);fill-opacity:1;" d="M 64.394531 69.058594 C 63.839844 68.96875 63.660156 68.863281 63.660156 68.460938 L 63.660156 60.808594 C 63.660156 60.40625 63.824219 60.300781 64.394531 60.210938 L 64.394531 60 L 61.53125 60 L 61.53125 60.210938 C 62.085938 60.300781 62.265625 60.40625 62.265625 60.808594 L 62.265625 68.460938 C 62.265625 68.863281 62.101562 68.96875 61.53125 69.058594 L 61.53125 69.253906 L 64.394531 69.253906 Z M 64.394531 69.058594 "/>
<path style=" stroke:none;fill-rule:nonzero;fill:rgb(0%,0%,0%);fill-opacity:1;" d="M 40.140625 62.355469 C 40.558594 62.355469 40.90625 62.011719 40.90625 61.589844 C 40.90625 61.171875 40.558594 60.824219 40.140625 60.824219 C 39.71875 60.824219 39.390625 61.171875 39.390625 61.589844 C 39.390625 62.011719 39.734375 62.355469 40.140625 62.355469 "/>
<path style=" stroke:none;fill-rule:nonzero;fill:rgb(0%,0%,0%);fill-opacity:1;" d="M 19.859375 62.355469 C 20.28125 62.355469 20.625 62.011719 20.625 61.589844 C 20.625 61.171875 20.28125 60.824219 19.859375 60.824219 C 19.441406 60.824219 19.109375 61.171875 19.109375 61.589844 C 19.109375 62.011719 19.453125 62.355469 19.859375 62.355469 "/>
<path style=" stroke:none;fill-rule:nonzero;fill:rgb(0%,0%,0%);fill-opacity:1;" d="M 17.953125 62.355469 C 18.375 62.355469 18.71875 62.011719 18.71875 61.589844 C 18.71875 61.171875 18.375 60.824219 17.953125 60.824219 C 17.535156 60.824219 17.203125 61.171875 17.203125 61.589844 C 17.203125 62.011719 17.535156 62.355469 17.953125 62.355469 "/>
<path style=" stroke:none;fill-rule:nonzero;fill:rgb(0%,0%,0%);fill-opacity:1;" d="M 97.785156 62.355469 C 98.203125 62.355469 98.550781 62.011719 98.550781 61.589844 C 98.550781 61.171875 98.203125 60.824219 97.785156 60.824219 C 97.363281 60.824219 97.035156 61.171875 97.035156 61.589844 C 97.035156 62.011719 97.363281 62.355469 97.785156 62.355469 "/>
<path style=" stroke:none;fill-rule:nonzero;fill:rgb(0%,0%,0%);fill-opacity:1;" d="M 105.316406 72.015625 C 105.734375 72.015625 106.078125 71.671875 106.078125 71.25 C 106.078125 70.828125 105.71875 70.484375 105.316406 70.484375 C 104.894531 70.484375 104.566406 70.828125 104.566406 71.25 C 104.566406 71.671875 104.894531 72.015625 105.316406 72.015625 "/>
<path style=" stroke:none;fill-rule:nonzero;fill:rgb(0%,0%,0%);fill-opacity:1;" d="M 50.324219 70.46875 C 49.90625 70.46875 49.574219 70.816406 49.574219 71.234375 C 49.574219 71.671875 49.90625 72 50.324219 72 C 50.746094 72 51.089844 71.65625 51.089844 71.234375 C 51.105469 70.816406 50.746094 70.46875 50.324219 70.46875 "/>
<path style=" stroke:none;fill-rule:nonzero;fill:rgb(0%,0%,0%);fill-opacity:1;" d="M 33.703125 71.234375 C 33.703125 71.671875 34.035156 72 34.453125 72 C 34.875 72 35.21875 71.65625 35.21875 71.234375 C 35.21875 70.816406 34.875 70.46875 34.453125 70.46875 C 34.035156 70.46875 33.703125 70.816406 33.703125 71.234375 "/>
<path style=" stroke:none;fill-rule:nonzero;fill:rgb(0%,0%,0%);fill-opacity:1;" d="M 31.558594 71.234375 C 31.558594 71.671875 31.890625 72 32.308594 72 C 32.730469 72 33.074219 71.65625 33.074219 71.234375 C 33.074219 70.816406 32.730469 70.46875 32.308594 70.46875 C 31.890625 70.46875 31.558594 70.816406 31.558594 71.234375 "/>
<path style=" stroke:none;fill-rule:nonzero;fill:rgb(0%,0%,0%);fill-opacity:1;" d="M 85.648438 62.835938 L 84.976562 62.835938 C 83.773438 62.835938 82.816406 62.296875 82.753906 61.574219 C 82.695312 60.871094 83.234375 60.359375 84.015625 60.359375 C 84.480469 60.359375 85.304688 60.570312 85.515625 61.621094 L 85.679688 61.621094 L 85.679688 60.328125 L 85.558594 60.328125 L 85.378906 60.390625 C 85.109375 60.390625 84.78125 60.074219 84.03125 60.074219 C 82.574219 60.074219 82.035156 60.988281 82.035156 61.695312 C 82.035156 62.144531 82.335938 62.566406 82.679688 62.835938 L 81.449219 62.835938 L 81.449219 63.421875 L 85.648438 63.421875 Z M 85.648438 62.835938 "/>
<path style=" stroke:none;fill-rule:nonzero;fill:rgb(0%,0%,0%);fill-opacity:1;" d="M 106.335938 63.390625 L 106.335938 63.585938 C 106.890625 63.675781 107.070312 63.78125 107.070312 64.183594 L 107.070312 68.28125 L 98.535156 68.28125 C 98.566406 68.085938 98.578125 67.90625 98.578125 67.695312 L 98.578125 64.183594 C 98.578125 63.796875 98.746094 63.675781 99.300781 63.585938 L 99.300781 63.390625 L 96.433594 63.390625 L 96.433594 63.585938 C 96.988281 63.675781 97.171875 63.78125 97.171875 64.183594 L 97.171875 67.921875 C 97.140625 69.554688 96.734375 70.289062 95.578125 70.289062 C 94.441406 70.289062 93.929688 69.554688 93.886719 67.996094 L 93.886719 60.824219 C 93.886719 60.421875 94.050781 60.316406 94.621094 60.226562 L 94.621094 60.03125 L 91.753906 60.03125 L 91.753906 60.226562 C 92.324219 60.316406 92.488281 60.421875 92.488281 60.824219 L 92.488281 67.695312 C 92.488281 67.875 92.503906 68.070312 92.535156 68.28125 L 72.988281 68.28125 C 71.460938 68.28125 70.53125 67.695312 70.304688 66.511719 C 70.019531 64.964844 71.371094 63.796875 73.199219 63.734375 L 73.199219 63.375 C 70.890625 63.375 69.238281 64.800781 69.238281 66.480469 C 69.238281 67.753906 70.199219 69.253906 72.988281 69.253906 L 92.820312 69.253906 C 92.894531 69.421875 92.984375 69.585938 93.105469 69.734375 C 94.378906 71.414062 97.261719 71.28125 98.234375 69.253906 L 108.464844 69.253906 L 108.464844 64.183594 C 108.464844 63.796875 108.644531 63.675781 109.199219 63.585938 L 109.199219 63.390625 Z M 106.335938 63.390625 "/>
<path style=" stroke:none;fill-rule:nonzero;fill:rgb(0%,0%,0%);fill-opacity:1;" d="M 22.53125 71.503906 L 22.785156 71.550781 C 23.941406 71.550781 25.050781 70.726562 25.125 69.253906 L 37.003906 69.253906 L 37.003906 64.183594 C 37.003906 63.796875 37.171875 63.675781 37.738281 63.585938 L 37.738281 63.390625 L 34.875 63.390625 L 34.875 63.585938 C 35.429688 63.675781 35.59375 63.78125 35.59375 64.183594 L 35.59375 68.28125 L 25.125 68.28125 L 25.125 64.171875 C 25.125 63.765625 25.304688 63.660156 25.859375 63.570312 L 25.859375 63.359375 C 25.558594 63.359375 22.996094 63.359375 22.996094 63.359375 L 22.996094 63.570312 C 23.550781 63.660156 23.730469 63.765625 23.730469 64.171875 L 23.730469 69.75 C 23.730469 70.558594 23.28125 71.265625 22.53125 71.503906 "/>
<path style=" stroke:none;fill-rule:nonzero;fill:rgb(0%,0%,0%);fill-opacity:1;" d="M 60 69.253906 L 60 60.796875 C 60 60.40625 60.164062 60.269531 60.734375 60.195312 L 60.734375 59.984375 C 60.433594 59.984375 57.871094 60 57.871094 59.984375 L 57.871094 60.195312 C 58.425781 60.269531 58.605469 60.40625 58.605469 60.796875 L 58.605469 68.28125 L 53.835938 68.28125 C 53.820312 65.851562 52.441406 63.210938 48.390625 63.210938 C 47.070312 63.210938 46.035156 63.988281 45.433594 63.988281 L 45.089844 63.886719 L 44.96875 63.886719 L 44.851562 66.300781 L 45.105469 66.300781 C 45.480469 64.351562 47.234375 63.988281 48.328125 63.988281 C 50.625 63.988281 52.351562 65.863281 52.378906 67.800781 L 52.378906 68.28125 L 40.949219 68.28125 L 40.949219 64.171875 C 40.949219 63.765625 41.128906 63.660156 41.683594 63.570312 L 41.683594 63.359375 C 41.386719 63.359375 38.820312 63.359375 38.820312 63.359375 L 38.820312 63.570312 C 39.375 63.660156 39.554688 63.765625 39.554688 64.171875 L 39.554688 69.75 C 39.554688 70.558594 39.105469 71.265625 38.371094 71.503906 L 38.625 71.550781 C 39.78125 71.550781 40.890625 70.726562 40.964844 69.253906 Z M 60 69.253906 "/>
<path style=" stroke:none;fill-rule:nonzero;fill:rgb(0%,0%,0%);fill-opacity:1;" d="M 15 69.253906 L 21.570312 69.253906 L 21.570312 69.058594 C 21.015625 68.96875 20.835938 68.863281 20.835938 68.460938 L 20.835938 64.066406 C 20.835938 63.660156 21.015625 63.554688 21.570312 63.464844 L 21.570312 63.269531 L 20.234375 63.269531 C 14.609375 63.523438 15.03125 67.394531 15.015625 68.761719 L 15.015625 69.253906 Z M 19.425781 64.078125 L 19.425781 68.28125 L 16.304688 68.28125 C 16.320312 65.503906 17.671875 64.078125 19.425781 64.078125 "/>
<path style=" stroke:none;fill-rule:nonzero;fill:rgb(0.392157%,48.627451%,71.372549%);fill-opacity:1;" d="M 14.96875 86.894531 L 15.015625 86.894531 C 15.210938 86.894531 15.285156 86.96875 15.285156 87.164062 L 15.285156 88.589844 C 15.285156 88.753906 15.210938 88.84375 15.015625 88.84375 L 14.96875 88.84375 L 14.96875 88.980469 L 16.109375 88.980469 L 16.109375 88.84375 L 16.050781 88.84375 C 15.839844 88.84375 15.78125 88.753906 15.78125 88.589844 L 15.78125 87.179688 C 15.78125 87 15.855469 86.910156 16.050781 86.910156 L 16.109375 86.910156 L 16.109375 86.773438 L 14.96875 86.773438 Z M 14.96875 86.894531 "/>
<path style=" stroke:none;fill-rule:nonzero;fill:rgb(0.392157%,48.627451%,71.372549%);fill-opacity:1;" d="M 18.089844 86.894531 L 18.121094 86.894531 C 18.40625 86.894531 18.449219 86.941406 18.449219 87.195312 L 18.449219 88.261719 L 16.996094 86.746094 L 16.261719 86.746094 L 16.261719 86.878906 L 16.546875 86.953125 L 16.546875 88.589844 C 16.546875 88.738281 16.484375 88.816406 16.273438 88.816406 L 16.261719 88.816406 L 16.261719 88.949219 L 17.113281 88.949219 L 17.113281 88.816406 C 16.828125 88.816406 16.769531 88.738281 16.769531 88.53125 L 16.769531 87.179688 L 18.480469 88.964844 L 18.675781 88.964844 L 18.675781 87.058594 C 18.675781 86.925781 18.734375 86.878906 18.960938 86.878906 L 18.988281 86.878906 L 18.988281 86.746094 L 18.074219 86.746094 L 18.074219 86.894531 Z M 18.089844 86.894531 "/>
<path style=" stroke:none;fill-rule:nonzero;fill:rgb(0.392157%,48.627451%,71.372549%);fill-opacity:1;" d="M 20.984375 86.894531 L 21.015625 86.894531 C 21.300781 86.894531 21.34375 86.941406 21.34375 87.195312 L 21.34375 88.261719 L 19.890625 86.746094 L 19.15625 86.746094 L 19.15625 86.878906 L 19.441406 86.953125 L 19.441406 88.589844 C 19.441406 88.738281 19.378906 88.816406 19.171875 88.816406 L 19.15625 88.816406 L 19.15625 88.949219 L 20.011719 88.949219 L 20.011719 88.816406 C 19.726562 88.816406 19.648438 88.738281 19.648438 88.53125 L 19.648438 87.179688 L 21.359375 88.964844 L 21.554688 88.964844 L 21.554688 87.058594 C 21.554688 86.925781 21.628906 86.878906 21.855469 86.878906 L 21.886719 86.878906 L 21.886719 86.746094 L 20.96875 86.746094 L 20.96875 86.894531 Z M 20.984375 86.894531 "/>
<path style=" stroke:none;fill-rule:nonzero;fill:rgb(0.392157%,48.627451%,71.372549%);fill-opacity:1;" d="M 23.535156 86.683594 C 22.738281 86.683594 22.171875 87.195312 22.171875 87.898438 C 22.171875 88.5 22.648438 89.011719 23.460938 89.011719 C 24.316406 89.011719 24.796875 88.453125 24.796875 87.808594 C 24.808594 87.148438 24.269531 86.683594 23.535156 86.683594 M 23.550781 88.875 C 23.039062 88.875 22.695312 88.410156 22.695312 87.734375 C 22.695312 87.195312 22.996094 86.851562 23.445312 86.851562 C 23.984375 86.851562 24.269531 87.390625 24.269531 87.960938 C 24.269531 88.441406 24.046875 88.875 23.550781 88.875 "/>
<path style=" stroke:none;fill-rule:nonzero;fill:rgb(0.392157%,48.627451%,71.372549%);fill-opacity:1;" d="M 26.730469 86.894531 L 26.804688 86.894531 C 27 86.894531 27.089844 86.96875 27.046875 87.089844 L 26.488281 88.378906 L 25.933594 87.195312 C 25.828125 86.984375 25.890625 86.894531 26.191406 86.894531 L 26.25 86.894531 L 26.25 86.761719 L 25.003906 86.761719 L 25.003906 86.894531 L 25.035156 86.894531 C 25.246094 86.894531 25.289062 86.941406 25.410156 87.195312 L 26.25 89.011719 L 26.476562 89.011719 L 27.210938 87.269531 C 27.328125 86.984375 27.40625 86.894531 27.613281 86.894531 L 27.644531 86.894531 L 27.644531 86.761719 L 26.730469 86.761719 Z M 26.730469 86.894531 "/>
<path style=" stroke:none;fill-rule:nonzero;fill:rgb(0.392157%,48.627451%,71.372549%);fill-opacity:1;" d="M 29.910156 88.515625 L 29.191406 86.699219 L 28.664062 86.699219 L 28.695312 86.804688 L 28.078125 88.5 C 27.988281 88.753906 27.898438 88.828125 27.734375 88.828125 L 27.675781 88.828125 L 27.675781 88.964844 L 28.621094 88.964844 L 28.621094 88.828125 L 28.574219 88.828125 C 28.230469 88.828125 28.230469 88.738281 28.289062 88.558594 L 28.441406 88.140625 L 29.21875 88.140625 L 29.386719 88.558594 C 29.460938 88.738281 29.429688 88.828125 29.203125 88.828125 L 29.101562 88.828125 L 29.101562 88.964844 L 30.253906 88.964844 L 30.253906 88.828125 C 30.074219 88.816406 30 88.738281 29.910156 88.515625 M 28.53125 87.960938 L 28.828125 87.121094 L 29.160156 87.960938 Z M 28.53125 87.960938 "/>
<path style=" stroke:none;fill-rule:nonzero;fill:rgb(0.392157%,48.627451%,71.372549%);fill-opacity:1;" d="M 32.609375 86.699219 L 32.445312 86.761719 L 30.75 86.761719 L 30.644531 86.746094 L 30.570312 86.683594 L 30.449219 86.683594 L 30.390625 87.34375 L 30.539062 87.34375 C 30.613281 86.96875 30.644531 86.925781 30.929688 86.925781 L 31.351562 86.925781 L 31.351562 88.546875 C 31.351562 88.738281 31.273438 88.816406 31.078125 88.816406 L 30.960938 88.816406 L 30.960938 88.949219 L 32.234375 88.949219 L 32.234375 88.816406 L 32.144531 88.816406 C 31.90625 88.816406 31.84375 88.726562 31.84375 88.546875 L 31.84375 86.925781 L 32.265625 86.925781 C 32.535156 86.925781 32.578125 86.96875 32.65625 87.34375 L 32.804688 87.34375 L 32.746094 86.683594 L 32.609375 86.683594 Z M 32.609375 86.699219 "/>
<path style=" stroke:none;fill-rule:nonzero;fill:rgb(0.392157%,48.627451%,71.372549%);fill-opacity:1;" d="M 32.984375 86.894531 L 33.03125 86.894531 C 33.226562 86.894531 33.300781 86.96875 33.300781 87.164062 L 33.300781 88.589844 C 33.300781 88.753906 33.238281 88.84375 33.046875 88.84375 L 33 88.84375 L 33 88.980469 L 34.125 88.980469 L 34.125 88.84375 L 34.050781 88.84375 C 33.824219 88.84375 33.78125 88.753906 33.78125 88.589844 L 33.78125 87.179688 C 33.78125 87 33.855469 86.910156 34.050781 86.910156 L 34.109375 86.910156 L 34.109375 86.773438 L 32.984375 86.773438 Z M 32.984375 86.894531 "/>
<path style=" stroke:none;fill-rule:nonzero;fill:rgb(0.392157%,48.627451%,71.372549%);fill-opacity:1;" d="M 35.941406 86.894531 L 36.015625 86.894531 C 36.226562 86.894531 36.300781 86.96875 36.253906 87.089844 L 35.714844 88.378906 L 35.160156 87.195312 C 35.054688 86.984375 35.101562 86.894531 35.398438 86.894531 L 35.460938 86.894531 L 35.460938 86.761719 L 34.214844 86.761719 L 34.214844 86.894531 L 34.246094 86.894531 C 34.453125 86.894531 34.5 86.941406 34.621094 87.195312 L 35.460938 89.011719 L 35.683594 89.011719 L 36.433594 87.269531 C 36.554688 86.984375 36.628906 86.894531 36.839844 86.894531 L 36.871094 86.894531 L 36.871094 86.761719 L 35.953125 86.761719 L 35.953125 86.894531 Z M 35.941406 86.894531 "/>
<path style=" stroke:none;fill-rule:nonzero;fill:rgb(0.392157%,48.627451%,71.372549%);fill-opacity:1;" d="M 38.503906 88.769531 L 37.90625 88.769531 L 37.769531 88.589844 L 37.769531 87.945312 L 38.296875 87.945312 C 38.566406 87.945312 38.625 88.003906 38.625 88.199219 L 38.761719 88.199219 L 38.761719 87.496094 L 38.625 87.496094 C 38.625 87.675781 38.550781 87.75 38.355469 87.75 L 37.785156 87.75 L 37.785156 86.941406 L 38.566406 86.941406 C 38.730469 86.941406 38.773438 87.015625 38.804688 87.269531 L 38.941406 87.269531 L 38.910156 86.761719 L 36.945312 86.761719 L 36.945312 86.894531 L 36.976562 86.894531 C 37.214844 86.894531 37.273438 86.96875 37.273438 87.148438 L 37.273438 88.574219 C 37.273438 88.738281 37.214844 88.828125 37.003906 88.828125 L 36.855469 88.828125 L 36.855469 88.964844 L 39 88.964844 L 39.046875 88.410156 L 38.910156 88.410156 C 38.851562 88.710938 38.730469 88.769531 38.503906 88.769531 "/>
<path style=" stroke:none;fill-rule:nonzero;fill:rgb(0.392157%,48.627451%,71.372549%);fill-opacity:1;" d="M 40.441406 86.894531 L 40.484375 86.894531 C 40.679688 86.894531 40.753906 86.96875 40.753906 87.164062 L 40.753906 88.589844 C 40.753906 88.753906 40.679688 88.84375 40.484375 88.84375 L 40.441406 88.84375 L 40.441406 88.980469 L 41.566406 88.980469 L 41.566406 88.84375 L 41.519531 88.84375 C 41.296875 88.84375 41.25 88.753906 41.25 88.589844 L 41.25 87.179688 C 41.25 87 41.324219 86.910156 41.519531 86.910156 L 41.578125 86.910156 L 41.578125 86.773438 L 40.453125 86.773438 L 40.453125 86.894531 Z M 40.441406 86.894531 "/>
<path style=" stroke:none;fill-rule:nonzero;fill:rgb(0.392157%,48.627451%,71.372549%);fill-opacity:1;" d="M 42.300781 87.105469 C 42.300781 86.953125 42.449219 86.851562 42.644531 86.851562 C 42.914062 86.851562 43.15625 87.046875 43.230469 87.328125 L 43.363281 87.328125 L 43.289062 86.746094 L 43.214844 86.746094 L 43.140625 86.773438 C 43.078125 86.773438 42.871094 86.683594 42.601562 86.683594 C 42.179688 86.683594 41.878906 86.925781 41.878906 87.253906 C 41.878906 87.960938 43.019531 87.945312 43.019531 88.46875 C 43.019531 88.679688 42.839844 88.828125 42.601562 88.828125 C 42.316406 88.828125 42.105469 88.648438 41.984375 88.289062 L 41.851562 88.289062 L 41.941406 88.933594 L 42.03125 88.933594 L 42.105469 88.875 C 42.164062 88.875 42.433594 88.980469 42.71875 88.980469 C 43.140625 88.980469 43.484375 88.695312 43.484375 88.320312 C 43.484375 88.15625 43.425781 87.988281 43.289062 87.839844 C 42.886719 87.496094 42.300781 87.433594 42.300781 87.105469 "/>
<path style=" stroke:none;fill-rule:nonzero;fill:rgb(0.392157%,48.627451%,71.372549%);fill-opacity:1;" d="M 45.734375 88.351562 C 45.496094 88.664062 45.421875 88.769531 45.195312 88.769531 L 44.746094 88.769531 L 44.566406 88.605469 L 44.566406 87.148438 C 44.566406 86.984375 44.640625 86.894531 44.835938 86.894531 L 44.941406 86.894531 L 44.941406 86.761719 L 43.726562 86.761719 L 43.726562 86.894531 L 43.785156 86.894531 C 43.949219 86.894531 44.070312 86.941406 44.070312 87.148438 L 44.070312 88.574219 C 44.070312 88.738281 44.011719 88.828125 43.769531 88.828125 L 43.710938 88.828125 L 43.710938 88.964844 L 45.613281 88.964844 L 45.871094 88.351562 Z M 45.734375 88.351562 "/>
<path style=" stroke:none;fill-rule:nonzero;fill:rgb(0.392157%,48.627451%,71.372549%);fill-opacity:1;" d="M 48.058594 88.515625 L 47.339844 86.699219 L 46.816406 86.699219 L 46.859375 86.804688 L 46.246094 88.5 C 46.15625 88.753906 46.066406 88.828125 45.898438 88.828125 L 45.855469 88.828125 L 45.855469 88.964844 L 46.800781 88.964844 L 46.800781 88.828125 L 46.753906 88.828125 C 46.410156 88.828125 46.410156 88.738281 46.46875 88.558594 L 46.621094 88.140625 L 47.398438 88.140625 L 47.566406 88.558594 C 47.640625 88.738281 47.59375 88.828125 47.386719 88.828125 L 47.25 88.828125 L 47.25 88.964844 L 48.421875 88.964844 L 48.421875 88.828125 C 48.226562 88.816406 48.148438 88.738281 48.058594 88.515625 M 46.679688 87.960938 L 46.980469 87.121094 L 47.308594 87.960938 Z M 46.679688 87.960938 "/>
<path style=" stroke:none;fill-rule:nonzero;fill:rgb(0.392157%,48.627451%,71.372549%);fill-opacity:1;" d="M 51.375 88.484375 L 51.285156 87.179688 C 51.269531 86.925781 51.285156 86.925781 51.539062 86.910156 L 51.539062 86.773438 L 50.773438 86.773438 L 50.113281 88.261719 L 49.425781 86.773438 L 48.675781 86.773438 L 48.675781 86.910156 C 48.914062 86.925781 48.914062 87 48.914062 87.179688 L 48.839844 88.46875 C 48.824219 88.753906 48.824219 88.84375 48.539062 88.84375 L 48.539062 88.980469 L 49.335938 88.980469 L 49.335938 88.84375 C 49.035156 88.84375 49.019531 88.726562 49.035156 88.484375 L 49.109375 87.210938 L 49.921875 88.964844 L 50.011719 88.964844 L 50.804688 87.164062 L 50.820312 87.164062 L 50.910156 88.425781 L 50.910156 88.589844 C 50.910156 88.828125 50.789062 88.828125 50.640625 88.828125 L 50.578125 88.828125 L 50.578125 88.964844 L 51.703125 88.964844 L 51.703125 88.828125 C 51.40625 88.816406 51.390625 88.785156 51.375 88.484375 "/>
<path style=" stroke:none;fill-rule:nonzero;fill:rgb(0.392157%,48.627451%,71.372549%);fill-opacity:1;" d="M 51.824219 86.894531 L 51.871094 86.894531 C 52.066406 86.894531 52.125 86.96875 52.125 87.164062 L 52.125 88.589844 C 52.125 88.753906 52.050781 88.84375 51.871094 88.84375 L 51.824219 88.84375 L 51.824219 88.980469 L 52.964844 88.980469 L 52.964844 88.84375 L 52.90625 88.84375 C 52.695312 88.84375 52.636719 88.753906 52.636719 88.589844 L 52.636719 87.179688 C 52.636719 87 52.710938 86.910156 52.90625 86.910156 L 52.964844 86.910156 L 52.964844 86.773438 L 51.824219 86.773438 Z M 51.824219 86.894531 "/>
<path style=" stroke:none;fill-rule:nonzero;fill:rgb(0.392157%,48.627451%,71.372549%);fill-opacity:1;" d="M 54.660156 88.84375 C 54.148438 88.84375 53.761719 88.410156 53.761719 87.839844 C 53.761719 87.269531 54.121094 86.894531 54.628906 86.894531 C 54.976562 86.894531 55.230469 87.089844 55.335938 87.449219 L 55.46875 87.449219 L 55.441406 86.820312 L 55.351562 86.820312 L 55.273438 86.863281 C 55.199219 86.863281 54.960938 86.714844 54.601562 86.714844 C 53.835938 86.714844 53.234375 87.226562 53.234375 87.886719 C 53.234375 88.53125 53.804688 89.023438 54.539062 89.023438 C 54.808594 89.023438 54.988281 88.964844 55.15625 88.964844 L 55.363281 88.996094 C 55.453125 88.816406 55.53125 88.546875 55.558594 88.351562 L 55.425781 88.351562 C 55.261719 88.664062 54.988281 88.84375 54.660156 88.84375 "/>
<path style=" stroke:none;fill-rule:nonzero;fill:rgb(0.392157%,48.627451%,71.372549%);fill-opacity:1;" d="M 58.648438 87.703125 C 58.949219 87.628906 59.085938 87.496094 59.085938 87.285156 L 58.949219 86.953125 C 58.753906 86.761719 58.410156 86.699219 57.976562 86.699219 C 57.824219 86.699219 57.613281 86.714844 57.390625 86.730469 C 57.195312 86.730469 57.03125 86.761719 56.941406 86.761719 L 56.941406 86.894531 L 57.03125 86.894531 C 57.300781 86.894531 57.34375 86.941406 57.34375 87.210938 L 57.34375 88.53125 C 57.34375 88.738281 57.269531 88.828125 56.910156 88.828125 L 56.910156 88.964844 L 58.289062 88.964844 C 58.875 88.964844 59.203125 88.664062 59.203125 88.289062 C 59.203125 88.019531 58.996094 87.78125 58.648438 87.703125 M 57.839844 86.851562 L 58.035156 86.835938 C 58.46875 86.835938 58.574219 87.074219 58.574219 87.269531 C 58.574219 87.449219 58.484375 87.644531 58.125 87.644531 L 57.855469 87.644531 L 57.855469 86.851562 Z M 58.15625 88.816406 C 57.929688 88.816406 57.824219 88.753906 57.824219 88.484375 L 57.824219 87.796875 L 58.09375 87.78125 C 58.558594 87.78125 58.648438 88.09375 58.648438 88.304688 C 58.648438 88.558594 58.558594 88.816406 58.15625 88.816406 "/>
<path style=" stroke:none;fill-rule:nonzero;fill:rgb(0.392157%,48.627451%,71.372549%);fill-opacity:1;" d="M 61.605469 88.515625 L 60.898438 86.699219 L 60.375 86.699219 L 60.421875 86.804688 L 59.804688 88.5 C 59.714844 88.753906 59.625 88.828125 59.460938 88.828125 L 59.398438 88.828125 L 59.398438 88.964844 L 60.34375 88.964844 L 60.34375 88.828125 L 60.300781 88.828125 C 59.953125 88.828125 59.953125 88.738281 60.015625 88.558594 L 60.164062 88.140625 L 60.945312 88.140625 L 61.109375 88.558594 C 61.171875 88.738281 61.15625 88.828125 60.929688 88.828125 L 60.796875 88.828125 L 60.796875 88.964844 L 61.949219 88.964844 L 61.949219 88.828125 C 61.769531 88.816406 61.695312 88.738281 61.605469 88.515625 M 60.226562 87.960938 L 60.523438 87.121094 L 60.855469 87.960938 Z M 60.226562 87.960938 "/>
<path style=" stroke:none;fill-rule:nonzero;fill:rgb(0.392157%,48.627451%,71.372549%);fill-opacity:1;" d="M 63.898438 86.894531 L 63.929688 86.894531 C 64.214844 86.894531 64.273438 86.941406 64.273438 87.195312 L 64.273438 88.261719 L 62.820312 86.746094 L 62.085938 86.746094 L 62.085938 86.878906 L 62.371094 86.953125 L 62.371094 88.589844 C 62.371094 88.738281 62.308594 88.816406 62.101562 88.816406 L 62.085938 88.816406 L 62.085938 88.949219 L 62.953125 88.949219 L 62.953125 88.816406 C 62.671875 88.816406 62.59375 88.738281 62.59375 88.53125 L 62.59375 87.179688 L 64.304688 88.964844 L 64.5 88.964844 L 64.5 87.058594 C 64.5 86.925781 64.574219 86.878906 64.800781 86.878906 L 64.828125 86.878906 L 64.828125 86.746094 L 63.898438 86.746094 Z M 63.898438 86.894531 "/>
<path style=" stroke:none;fill-rule:nonzero;fill:rgb(0.392157%,48.627451%,71.372549%);fill-opacity:1;" d="M 67.019531 88.5 L 66.71875 88.109375 L 66.34375 87.734375 C 66.601562 87.523438 66.765625 87.195312 66.929688 87.03125 C 67.035156 86.925781 67.109375 86.910156 67.320312 86.894531 L 67.320312 86.761719 L 66.375 86.761719 L 66.375 86.894531 L 66.421875 86.894531 L 66.628906 87.015625 L 66.285156 87.554688 C 66.121094 87.71875 65.953125 87.808594 65.820312 87.824219 L 65.820312 87.179688 C 65.820312 86.984375 65.863281 86.894531 66.089844 86.894531 L 66.148438 86.894531 L 66.148438 86.761719 L 64.980469 86.761719 L 64.980469 86.894531 L 65.039062 86.894531 C 65.25 86.894531 65.308594 86.96875 65.308594 87.164062 L 65.308594 88.558594 C 65.308594 88.769531 65.21875 88.828125 65.039062 88.828125 L 64.980469 88.828125 L 64.980469 88.964844 L 66.148438 88.964844 L 66.148438 88.828125 L 66.089844 88.828125 C 65.910156 88.828125 65.804688 88.769531 65.804688 88.574219 L 65.804688 87.929688 L 66.058594 88.066406 C 66.285156 88.289062 66.613281 88.664062 66.613281 88.738281 L 66.359375 88.828125 L 66.359375 88.964844 L 67.574219 88.964844 L 67.574219 88.828125 C 67.335938 88.828125 67.199219 88.738281 67.019531 88.5 "/>
<path style=" stroke:none;fill-rule:nonzero;fill:rgb(0.392157%,48.627451%,71.372549%);fill-opacity:1;" d="M 67.605469 86.894531 L 67.648438 86.894531 C 67.84375 86.894531 67.921875 86.96875 67.921875 87.164062 L 67.921875 88.589844 C 67.921875 88.753906 67.84375 88.84375 67.664062 88.84375 L 67.621094 88.84375 L 67.621094 88.980469 L 68.761719 88.980469 L 68.761719 88.84375 L 68.714844 88.84375 C 68.488281 88.84375 68.429688 88.753906 68.429688 88.589844 L 68.429688 87.179688 C 68.429688 87 68.503906 86.910156 68.699219 86.910156 L 68.761719 86.910156 L 68.761719 86.773438 L 67.621094 86.773438 L 67.621094 86.894531 Z M 67.605469 86.894531 "/>
<path style=" stroke:none;fill-rule:nonzero;fill:rgb(0.392157%,48.627451%,71.372549%);fill-opacity:1;" d="M 70.738281 86.894531 L 70.769531 86.894531 C 71.054688 86.894531 71.101562 86.941406 71.101562 87.195312 L 71.101562 88.261719 L 69.644531 86.746094 L 68.910156 86.746094 L 68.910156 86.878906 L 69.195312 86.953125 L 69.195312 88.589844 C 69.195312 88.738281 69.148438 88.816406 68.925781 88.816406 L 68.894531 88.816406 L 68.894531 88.949219 L 69.765625 88.949219 L 69.765625 88.816406 C 69.480469 88.816406 69.40625 88.738281 69.40625 88.53125 L 69.40625 87.179688 L 71.113281 88.964844 L 71.308594 88.964844 L 71.308594 87.058594 C 71.308594 86.925781 71.386719 86.878906 71.609375 86.878906 L 71.640625 86.878906 L 71.640625 86.746094 L 70.726562 86.746094 L 70.726562 86.894531 Z M 70.738281 86.894531 "/>
<path style=" stroke:none;fill-rule:nonzero;fill:rgb(0.392157%,48.627451%,71.372549%);fill-opacity:1;" d="M 73.246094 88.035156 C 73.605469 88.050781 73.679688 88.078125 73.679688 88.261719 L 73.679688 88.753906 L 73.289062 88.859375 C 72.796875 88.859375 72.433594 88.425781 72.433594 87.839844 C 72.433594 87.253906 72.78125 86.863281 73.289062 86.863281 C 73.664062 86.863281 73.933594 87.074219 74.023438 87.449219 L 74.160156 87.449219 L 74.160156 86.789062 L 74.070312 86.789062 L 73.964844 86.835938 C 73.84375 86.835938 73.558594 86.714844 73.183594 86.714844 C 72.433594 86.714844 71.878906 87.195312 71.878906 87.855469 C 71.878906 88.53125 72.316406 89.023438 73.214844 89.023438 C 73.53125 89.023438 73.890625 88.921875 74.144531 88.800781 L 74.144531 88.261719 C 74.144531 88.09375 74.203125 88.035156 74.398438 88.035156 L 74.398438 87.898438 L 73.214844 87.898438 L 73.214844 88.035156 Z M 73.246094 88.035156 "/>
<path style=" stroke:none;fill-rule:nonzero;fill:rgb(0.392157%,48.627451%,71.372549%);fill-opacity:1;" d="M 105.164062 88.980469 C 105.226562 88.859375 105.269531 88.710938 105.269531 88.53125 L 105.269531 88.425781 L 104.25 86.625 C 104.085938 86.324219 104.265625 86.175781 104.578125 86.175781 L 104.578125 86.070312 L 103.246094 86.070312 L 103.246094 86.175781 C 103.546875 86.203125 103.636719 86.28125 103.949219 86.820312 Z M 105.164062 88.980469 "/>
<path style=" stroke:none;fill-rule:nonzero;fill:rgb(0.392157%,48.627451%,71.372549%);fill-opacity:1;" d="M 113.59375 89.25 L 113.25 89.175781 C 112.890625 89.175781 112.753906 89.398438 112.753906 89.566406 L 112.921875 89.851562 L 112.605469 89.851562 L 112.605469 90 L 113.671875 90 L 113.671875 89.851562 L 113.503906 89.851562 C 113.203125 89.851562 112.949219 89.746094 112.933594 89.535156 C 112.921875 89.355469 113.070312 89.203125 113.28125 89.203125 C 113.414062 89.203125 113.59375 89.28125 113.640625 89.535156 L 113.671875 89.535156 L 113.671875 89.21875 L 113.640625 89.21875 L 113.59375 89.25 "/>
<path style=" stroke:none;fill-rule:nonzero;fill:rgb(0.392157%,48.627451%,71.372549%);fill-opacity:1;" d="M 112.753906 86.128906 C 112.933594 86.144531 112.996094 86.191406 112.996094 86.324219 L 112.996094 88.710938 C 112.996094 88.84375 112.933594 88.875 112.753906 88.921875 L 112.753906 88.980469 L 113.714844 88.980469 L 113.714844 88.921875 C 113.535156 88.890625 113.476562 88.84375 113.476562 88.710938 L 113.476562 86.324219 C 113.476562 86.191406 113.535156 86.144531 113.714844 86.128906 L 113.714844 86.054688 L 112.753906 86.054688 Z M 112.753906 86.128906 "/>
<path style=" stroke:none;fill-rule:nonzero;fill:rgb(0.392157%,48.627451%,71.372549%);fill-opacity:1;" d="M 95.398438 86.683594 L 95.65625 86.429688 L 95.398438 86.175781 L 95.144531 86.429688 Z M 95.398438 86.683594 "/>
<path style=" stroke:none;fill-rule:nonzero;fill:rgb(0.392157%,48.627451%,71.372549%);fill-opacity:1;" d="M 94.769531 86.683594 L 95.023438 86.429688 L 94.769531 86.175781 L 94.515625 86.429688 Z M 94.769531 86.683594 "/>
<path style=" stroke:none;fill-rule:nonzero;fill:rgb(0.392157%,48.627451%,71.372549%);fill-opacity:1;" d="M 99.015625 89.265625 L 98.761719 89.519531 L 99.015625 89.773438 L 99.269531 89.519531 Z M 99.015625 89.265625 "/>
<path style=" stroke:none;fill-rule:nonzero;fill:rgb(0.392157%,48.627451%,71.372549%);fill-opacity:1;" d="M 98.386719 89.265625 L 98.128906 89.519531 L 98.386719 89.773438 L 98.640625 89.519531 Z M 98.386719 89.265625 "/>
<path style=" stroke:none;fill-rule:nonzero;fill:rgb(0.392157%,48.627451%,71.372549%);fill-opacity:1;" d="M 103.140625 86.851562 L 102.675781 86.851562 C 101.101562 86.851562 100.726562 87.601562 100.710938 88.589844 L 98.878906 88.589844 L 98.878906 87.238281 C 98.878906 87.105469 98.941406 87.074219 99.121094 87.046875 L 99.121094 86.96875 L 98.160156 86.96875 L 98.160156 87.046875 C 98.355469 87.074219 98.398438 87.121094 98.398438 87.238281 L 98.398438 88.589844 L 95.265625 88.589844 L 95.265625 87.238281 C 95.265625 87.105469 95.324219 87.074219 95.503906 87.046875 L 95.503906 86.984375 L 95.070312 86.984375 C 93.195312 87.074219 93.328125 88.363281 93.316406 88.828125 L 93.316406 88.980469 L 103.050781 88.980469 L 103.050781 86.953125 Z M 94.816406 88.605469 L 93.78125 88.605469 C 93.78125 87.675781 94.230469 87.253906 94.816406 87.253906 Z M 102.675781 88.605469 L 101.191406 88.605469 C 101.191406 87.691406 101.550781 87.105469 102.675781 87.105469 Z M 102.675781 88.605469 "/>
<path style=" stroke:none;fill-rule:nonzero;fill:rgb(0.392157%,48.627451%,71.372549%);fill-opacity:1;" d="M 111.554688 87.179688 C 111.75 87.210938 111.796875 87.253906 111.796875 87.375 L 111.796875 88.515625 C 111.796875 89.25 111.628906 89.578125 111.121094 89.578125 C 110.609375 89.578125 110.398438 89.234375 110.398438 88.515625 L 110.398438 87.375 C 110.398438 87.253906 110.460938 87.210938 110.65625 87.179688 L 110.65625 87.121094 L 109.695312 87.121094 L 109.695312 87.179688 C 109.890625 87.210938 109.933594 87.253906 109.933594 87.375 L 109.933594 88.515625 C 109.933594 89.234375 109.769531 89.578125 109.261719 89.578125 C 108.75 89.578125 108.585938 89.25 108.585938 88.515625 L 108.585938 87.375 C 108.585938 87.253906 108.644531 87.210938 108.824219 87.179688 L 108.824219 87.121094 L 107.863281 87.121094 L 107.863281 87.179688 C 108.046875 87.210938 108.105469 87.253906 108.105469 87.375 L 108.105469 88.605469 L 105.988281 88.605469 L 105.988281 86.324219 C 105.988281 86.191406 106.050781 86.144531 106.230469 86.113281 L 106.230469 86.039062 L 105.269531 86.039062 L 105.269531 86.113281 C 105.464844 86.144531 105.511719 86.175781 105.511719 86.324219 L 105.511719 88.53125 C 105.511719 89.804688 103.964844 89.835938 103.726562 88.828125 L 103.589844 88.859375 C 103.785156 89.984375 105.570312 90.164062 105.914062 88.980469 L 108.164062 88.980469 C 108.34375 89.503906 108.839844 89.746094 109.304688 89.730469 C 109.363281 89.730469 109.875 89.683594 110.144531 89.296875 C 110.746094 90.074219 112.230469 89.835938 112.230469 88.53125 L 112.230469 87.390625 C 112.230469 87.269531 112.289062 87.226562 112.46875 87.195312 L 112.46875 87.136719 L 111.511719 87.136719 L 111.511719 87.179688 Z M 111.554688 87.179688 "/>
<path style=" stroke:none;fill-rule:nonzero;fill:rgb(0.392157%,48.627451%,71.372549%);fill-opacity:1;" d="M 77.625 86.683594 L 77.894531 86.429688 L 77.625 86.175781 L 77.386719 86.429688 Z M 77.625 86.683594 "/>
<path style=" stroke:none;fill-rule:nonzero;fill:rgb(0.392157%,48.627451%,71.372549%);fill-opacity:1;" d="M 76.996094 86.683594 L 77.25 86.429688 L 76.996094 86.175781 L 76.738281 86.429688 Z M 76.996094 86.683594 "/>
<path style=" stroke:none;fill-rule:nonzero;fill:rgb(0.392157%,48.627451%,71.372549%);fill-opacity:1;" d="M 81.449219 86.023438 L 81.691406 85.753906 L 81.449219 85.5 L 81.195312 85.753906 Z M 81.449219 86.023438 "/>
<path style=" stroke:none;fill-rule:nonzero;fill:rgb(0.392157%,48.627451%,71.372549%);fill-opacity:1;" d="M 81.511719 86.429688 L 81.765625 86.683594 L 82.019531 86.429688 L 81.765625 86.175781 Z M 81.511719 86.429688 "/>
<path style=" stroke:none;fill-rule:nonzero;fill:rgb(0.392157%,48.627451%,71.372549%);fill-opacity:1;" d="M 81.136719 86.683594 L 81.375 86.429688 L 81.136719 86.175781 L 80.878906 86.429688 Z M 81.136719 86.683594 "/>
<path style=" stroke:none;fill-rule:nonzero;fill:rgb(0.392157%,48.627451%,71.372549%);fill-opacity:1;" d="M 83.894531 89.265625 L 83.65625 89.519531 L 83.894531 89.773438 L 84.164062 89.519531 Z M 83.894531 89.265625 "/>
<path style=" stroke:none;fill-rule:nonzero;fill:rgb(0.392157%,48.627451%,71.372549%);fill-opacity:1;" d="M 83.265625 89.265625 L 83.011719 89.519531 L 83.265625 89.773438 L 83.519531 89.519531 Z M 83.265625 89.265625 "/>
<path style=" stroke:none;fill-rule:nonzero;fill:rgb(0.392157%,48.627451%,71.372549%);fill-opacity:1;" d="M 83.445312 87.046875 C 83.625 87.074219 83.683594 87.121094 83.683594 87.238281 L 83.683594 88.605469 L 81.644531 88.605469 L 81.644531 87.253906 C 81.644531 87.121094 81.703125 87.089844 81.886719 87.058594 L 81.886719 87 L 80.925781 87 L 80.925781 87.058594 C 81.121094 87.089844 81.164062 87.136719 81.164062 87.253906 L 81.164062 88.605469 L 77.519531 88.605469 L 77.519531 87.253906 C 77.519531 87.121094 77.578125 87.089844 77.761719 87.058594 L 77.761719 87 L 77.324219 87 C 75.449219 87.074219 75.585938 88.378906 75.570312 88.828125 L 75.570312 88.980469 L 84.148438 88.980469 L 84.148438 87.238281 C 84.148438 87.121094 84.210938 87.074219 84.390625 87.046875 L 84.390625 86.984375 L 83.429688 86.984375 Z M 77.070312 88.605469 L 76.035156 88.605469 C 76.035156 87.691406 76.484375 87.253906 77.070312 87.253906 Z M 77.070312 88.605469 "/>
<path style=" stroke:none;fill-rule:nonzero;fill:rgb(0.392157%,48.627451%,71.372549%);fill-opacity:1;" d="M 91.273438 88.605469 C 91.273438 87.796875 90.808594 86.925781 89.460938 86.925781 C 89.023438 86.925781 88.679688 87.179688 88.46875 87.179688 L 88.351562 87.148438 L 88.320312 87.148438 L 88.273438 87.945312 L 88.363281 87.945312 C 88.484375 87.300781 89.070312 87.179688 89.445312 87.179688 C 90.210938 87.179688 90.78125 87.808594 90.796875 88.453125 L 90.796875 88.605469 L 87.253906 88.605469 L 87.253906 88.558594 C 87.238281 87.585938 86.851562 86.878906 85.351562 86.863281 L 85.351562 87.121094 C 86.414062 87.136719 86.773438 87.703125 86.773438 88.621094 L 84.660156 88.621094 L 84.660156 88.996094 L 91.273438 88.996094 Z M 91.273438 88.605469 "/>
<path style=" stroke:none;fill-rule:nonzero;fill:rgb(0.392157%,48.627451%,71.372549%);fill-opacity:1;" d="M 117.40625 86.683594 L 117.660156 86.429688 L 117.40625 86.175781 L 117.148438 86.429688 Z M 117.40625 86.683594 "/>
<path style=" stroke:none;fill-rule:nonzero;fill:rgb(0.392157%,48.627451%,71.372549%);fill-opacity:1;" d="M 124.933594 86.175781 L 124.695312 86.429688 L 124.933594 86.683594 L 125.203125 86.429688 Z M 124.933594 86.175781 "/>
<path style=" stroke:none;fill-rule:nonzero;fill:rgb(0.392157%,48.627451%,71.372549%);fill-opacity:1;" d="M 116.761719 86.683594 L 117.03125 86.429688 L 116.761719 86.175781 L 116.519531 86.429688 Z M 116.761719 86.683594 "/>
<path style=" stroke:none;fill-rule:nonzero;fill:rgb(0.392157%,48.627451%,71.372549%);fill-opacity:1;" d="M 121.558594 89.265625 L 121.304688 89.519531 L 121.558594 89.773438 L 121.816406 89.519531 Z M 121.558594 89.265625 "/>
<path style=" stroke:none;fill-rule:nonzero;fill:rgb(0.392157%,48.627451%,71.372549%);fill-opacity:1;" d="M 120.914062 89.265625 L 120.660156 89.519531 L 120.914062 89.773438 L 121.171875 89.519531 Z M 120.914062 89.265625 "/>
<path style=" stroke:none;fill-rule:nonzero;fill:rgb(0.392157%,48.627451%,71.372549%);fill-opacity:1;" d="M 134.953125 86.941406 L 135.046875 86.851562 L 134.578125 86.851562 C 133.003906 86.851562 132.628906 87.601562 132.613281 88.589844 L 131.671875 88.589844 C 131.65625 87.78125 131.203125 86.910156 129.855469 86.910156 C 129 86.910156 128.59375 87.316406 128.355469 87.433594 L 128.355469 86.925781 L 127.648438 86.925781 L 127.648438 86.984375 C 127.828125 87.015625 127.890625 87.058594 127.890625 87.179688 L 127.890625 88.574219 L 126.390625 88.574219 L 126.390625 87.210938 C 126.390625 87.074219 126.449219 87.046875 126.628906 87 L 126.628906 86.941406 L 125.671875 86.941406 L 125.671875 87 C 125.863281 87.03125 125.910156 87.074219 125.910156 87.210938 L 125.910156 89.101562 C 125.910156 89.371094 125.761719 89.59375 125.519531 89.683594 L 125.609375 89.699219 C 125.984375 89.699219 126.34375 89.429688 126.390625 88.980469 L 134.953125 88.980469 Z M 131.175781 88.605469 L 128.355469 88.605469 L 128.355469 88.140625 C 128.503906 87.511719 129.195312 87.164062 129.839844 87.164062 C 130.605469 87.164062 131.175781 87.796875 131.191406 88.441406 L 131.191406 88.605469 Z M 134.578125 88.605469 L 133.09375 88.605469 C 133.09375 87.691406 133.453125 87.105469 134.578125 87.105469 Z M 134.578125 88.605469 "/>
<path style=" stroke:none;fill-rule:nonzero;fill:rgb(0.392157%,48.627451%,71.372549%);fill-opacity:1;" d="M 124.769531 86.96875 C 123.808594 87.058594 123.375 87.613281 123.285156 88.320312 L 124.589844 88.320312 L 124.589844 88.589844 L 121.425781 88.589844 L 121.425781 87.238281 C 121.425781 87.105469 121.484375 87.074219 121.664062 87.046875 L 121.664062 86.96875 L 120.71875 86.96875 L 120.71875 87.046875 C 120.898438 87.074219 120.960938 87.121094 120.960938 87.238281 L 120.960938 88.589844 L 117.285156 88.589844 L 117.285156 87.238281 C 117.285156 87.105469 117.34375 87.074219 117.523438 87.046875 L 117.523438 86.96875 L 117.074219 86.96875 C 115.214844 87.058594 115.335938 88.351562 115.335938 88.800781 L 115.335938 88.964844 L 125.054688 88.964844 L 125.054688 86.96875 Z M 116.820312 88.589844 L 115.785156 88.589844 C 115.785156 87.675781 116.234375 87.238281 116.820312 87.238281 Z M 124.589844 87.585938 L 124.589844 87.960938 L 123.855469 87.960938 C 123.976562 87.628906 124.214844 87.40625 124.589844 87.300781 Z M 124.589844 87.585938 "/>
<path style=" stroke:none;fill-rule:nonzero;fill:rgb(0.392157%,48.627451%,71.372549%);fill-opacity:1;" d="M 124.378906 69.421875 L 124.816406 69.300781 L 125.578125 69.75 L 125.578125 70.335938 L 125.789062 70.679688 C 125.984375 70.695312 126.734375 70.558594 127.378906 70.410156 C 127.5 70.246094 128.941406 68.28125 128.941406 68.28125 L 129.796875 67.648438 L 129.703125 68.863281 C 129.703125 69.046875 129.75 69.316406 129.808594 69.449219 C 129.960938 69.585938 130.753906 70.003906 131.339844 70.320312 C 133.140625 71.28125 133.199219 71.355469 133.199219 71.59375 C 133.199219 71.910156 132.40625 73.636719 132.269531 73.875 L 130.636719 76.648438 L 129.285156 77.925781 L 127.574219 78.464844 L 127.09375 78.871094 L 127.003906 79.441406 L 123.601562 81.34375 L 120.855469 82.140625 L 120.421875 82.664062 L 135.015625 82.664062 L 135.015625 60.015625 L 119.355469 60.015625 C 119.386719 60.074219 121.753906 65.445312 122.355469 66.449219 C 122.851562 67.289062 124.378906 69.421875 124.378906 69.421875 "/>
<path style=" stroke:none;fill-rule:nonzero;fill:rgb(0%,0%,0%);fill-opacity:1;" d="M 117.644531 79.035156 L 115.875 76.019531 L 114.40625 74.835938 L 113.671875 71.878906 L 112.679688 71.128906 L 112.378906 70.546875 L 112.378906 82.679688 L 118.558594 82.679688 L 117.613281 80.144531 Z M 117.644531 79.035156 "/>
<path style=" stroke:none;fill-rule:nonzero;fill:rgb(0%,0%,0%);fill-opacity:1;" d="M 131.355469 70.320312 C 130.769531 70.003906 129.976562 69.585938 129.824219 69.449219 C 129.765625 69.316406 129.71875 69.046875 129.71875 68.863281 L 129.808594 67.648438 L 128.953125 68.28125 C 128.953125 68.28125 127.515625 70.230469 127.394531 70.410156 C 126.75 70.574219 126 70.695312 125.804688 70.679688 L 125.59375 70.335938 L 125.59375 69.75 L 124.828125 69.300781 L 124.394531 69.421875 C 124.394531 69.421875 122.863281 67.289062 122.371094 66.449219 C 121.769531 65.445312 119.398438 60.074219 119.371094 60.015625 L 119.355469 60.015625 C 119.59375 60.644531 121.515625 65.640625 122.101562 66.601562 C 122.714844 67.636719 124.246094 69.734375 124.246094 69.734375 L 124.769531 69.644531 L 125.296875 69.960938 L 125.296875 70.394531 L 125.65625 70.949219 L 127.558594 70.679688 L 129.164062 68.503906 L 129.449219 68.296875 L 129.40625 68.863281 C 129.40625 68.863281 129.421875 69.375 129.570312 69.628906 C 129.71875 69.886719 132.914062 71.414062 132.914062 71.609375 C 132.914062 71.804688 132.210938 73.410156 132.03125 73.726562 C 131.835938 74.039062 130.394531 76.46875 130.394531 76.46875 L 129.121094 77.65625 L 127.425781 78.195312 L 126.824219 78.71875 L 126.75 79.261719 L 123.511719 81.074219 L 120.703125 81.898438 L 120.40625 82.695312 L 120.433594 82.695312 L 120.871094 82.171875 L 123.628906 81.359375 L 127.035156 79.453125 L 127.125 78.886719 L 127.605469 78.480469 L 129.316406 77.941406 L 130.664062 76.664062 L 132.328125 73.890625 C 132.464844 73.648438 133.261719 71.925781 133.261719 71.609375 C 133.214844 71.355469 133.140625 71.28125 131.355469 70.320312 "/>
<path style=" stroke:none;fill-rule:nonzero;fill:rgb(100%,100%,100%);fill-opacity:1;" d="M 129.570312 69.628906 C 129.421875 69.390625 129.40625 68.863281 129.40625 68.863281 L 129.449219 68.296875 L 129.164062 68.503906 L 127.558594 70.679688 L 125.65625 70.949219 L 125.296875 70.394531 L 125.296875 69.960938 L 124.769531 69.644531 L 124.246094 69.734375 C 124.246094 69.734375 122.714844 67.636719 122.101562 66.601562 C 121.515625 65.640625 119.59375 60.644531 119.355469 60.015625 L 112.363281 60.015625 L 112.378906 70.546875 L 112.679688 71.128906 L 113.671875 71.878906 L 114.421875 74.835938 L 115.890625 76.019531 L 117.660156 79.035156 L 117.628906 80.144531 L 118.574219 82.695312 L 120.40625 82.695312 L 120.703125 81.898438 L 123.511719 81.074219 L 126.75 79.273438 L 126.824219 78.734375 L 127.425781 78.210938 L 129.121094 77.671875 L 130.394531 76.484375 C 130.394531 76.484375 131.835938 74.054688 132.03125 73.738281 C 132.210938 73.425781 132.914062 71.820312 132.914062 71.625 C 132.914062 71.414062 129.71875 69.871094 129.570312 69.628906 "/>
</g>
</svg>
