<?xml version="1.0" encoding="UTF-8"?>
<svg xmlns="http://www.w3.org/2000/svg" xmlns:xlink="http://www.w3.org/1999/xlink" width="150px" height="150px" viewBox="0 0 150 150" version="1.1">
<g id="surface1">
<path style=" stroke:none;fill-rule:nonzero;fill:rgb(16.862745%,15.294118%,39.215686%);fill-opacity:1;" d="M 23.757812 45.167969 L 35.597656 0 L 11.914062 0 L 11.914062 90.332031 L 0.0742188 135.5 L 23.757812 135.5 Z M 23.757812 45.167969 "/>
<path style=" stroke:none;fill-rule:nonzero;fill:rgb(3.137255%,68.627451%,60.784314%);fill-opacity:1;" d="M 23.757812 45.167969 L 23.757812 90.332031 L 35.597656 90.332031 L 35.597656 0 Z M 23.757812 45.167969 "/>
<path style=" stroke:none;fill-rule:nonzero;fill:rgb(3.137255%,68.627451%,60.784314%);fill-opacity:1;" d="M 0.0742188 135.5 L 11.914062 90.332031 L 11.914062 45.167969 L 0.0742188 45.167969 Z M 0.0742188 135.5 "/>
<path style=" stroke:none;fill-rule:nonzero;fill:rgb(45.882353%,49.019608%,56.862745%);fill-opacity:1;" d="M 77.496094 60.648438 L 79.914062 60.648438 L 79.914062 69.867188 L 77.496094 69.867188 Z M 77.496094 60.648438 "/>
<path style=" stroke:none;fill-rule:nonzero;fill:rgb(45.882353%,49.019608%,56.862745%);fill-opacity:1;" d="M 73.589844 60.648438 L 76.007812 60.648438 L 76.007812 69.867188 L 73.589844 69.867188 Z M 73.589844 60.648438 "/>
<path style=" stroke:none;fill-rule:nonzero;fill:rgb(45.882353%,49.019608%,56.862745%);fill-opacity:1;" d="M 68.757812 37.808594 C 68.757812 32.398438 68.480469 27.523438 67.753906 24.574219 C 66.890625 21.085938 65.667969 19.632812 64.109375 19.632812 L 59.238281 19.632812 L 59.238281 15.078125 L 56.984375 15.078125 L 56.984375 52.4375 L 53.378906 52.4375 C 52.355469 52.4375 51.332031 51.839844 50.742188 49.9375 C 50.203125 48.226562 50.019531 45.378906 50.019531 41.511719 L 50.019531 22.132812 L 47.382812 22.132812 L 47.382812 42.621094 C 47.382812 47.96875 47.699219 53.230469 48.539062 56.265625 C 49.59375 60.09375 50.933594 61.675781 52.992188 61.675781 L 59.238281 61.675781 L 59.238281 53.441406 L 68.757812 53.441406 Z M 66.339844 44.203125 L 59.242188 44.203125 L 59.242188 28.785156 L 64.359375 28.785156 C 64.984375 28.785156 65.582031 29.898438 65.878906 31.351562 C 66.195312 32.871094 66.347656 34.773438 66.347656 37.402344 L 66.347656 44.183594 Z M 66.339844 44.203125 "/>
<path style=" stroke:none;fill-rule:nonzero;fill:rgb(45.882353%,49.019608%,56.862745%);fill-opacity:1;" d="M 81.050781 16.316406 L 78.628906 16.316406 L 78.628906 44.203125 L 73.773438 44.203125 L 73.773438 0 L 71.359375 0 L 71.359375 53.441406 L 81.050781 53.441406 Z M 81.050781 16.316406 "/>
<path style=" stroke:none;fill-rule:nonzero;fill:rgb(45.882353%,49.019608%,56.862745%);fill-opacity:1;" d="M 95.898438 0 L 98.316406 0 L 98.316406 53.441406 L 95.898438 53.441406 Z M 95.898438 0 "/>
<path style=" stroke:none;fill-rule:nonzero;fill:rgb(45.882353%,49.019608%,56.862745%);fill-opacity:1;" d="M 62.011719 2.972656 L 64.417969 2.972656 L 64.417969 12.148438 L 62.011719 12.148438 Z M 62.011719 2.972656 "/>
<path style=" stroke:none;fill-rule:nonzero;fill:rgb(45.882353%,49.019608%,56.862745%);fill-opacity:1;" d="M 140.25 0 L 142.664062 0 L 142.664062 9.34375 L 140.25 9.34375 Z M 140.25 0 "/>
<path style=" stroke:none;fill-rule:nonzero;fill:rgb(45.882353%,49.019608%,56.862745%);fill-opacity:1;" d="M 147.476562 60.714844 L 149.890625 60.714844 L 149.890625 69.929688 L 147.476562 69.929688 Z M 147.476562 60.714844 "/>
<path style=" stroke:none;fill-rule:nonzero;fill:rgb(45.882353%,49.019608%,56.862745%);fill-opacity:1;" d="M 110.761719 53.441406 L 149.902344 53.441406 L 149.902344 16.382812 L 147.488281 16.382812 L 147.488281 44.269531 L 142.671875 44.269531 L 142.671875 16.382812 L 140.253906 16.382812 L 140.253906 44.269531 L 127.351562 44.269531 L 127.332031 0 L 124.914062 0 L 124.9375 44.269531 L 111.199219 44.269531 C 110.179688 44.269531 109.214844 43.667969 108.625 41.765625 C 108.089844 40.054688 107.902344 37.210938 107.902344 33.339844 L 107.902344 21.964844 L 105.230469 21.964844 L 105.230469 34.472656 C 105.230469 39.820312 105.539062 45.082031 106.382812 48.117188 C 107.4375 51.945312 108.714844 53.464844 110.773438 53.464844 Z M 110.761719 53.441406 "/>
<path style=" stroke:none;fill-rule:nonzero;fill:rgb(45.882353%,49.019608%,56.862745%);fill-opacity:1;" d="M 118.960938 25.875 L 116.410156 25.875 L 116.410156 22.175781 C 116.410156 20.785156 116.492188 19.71875 116.65625 18.96875 C 116.808594 18.261719 116.992188 17.941406 117.234375 17.941406 L 118.566406 17.941406 L 118.566406 12.597656 L 117.382812 12.597656 C 116.621094 12.597656 116.027344 13.515625 115.613281 15.332031 C 115.207031 17.085938 115.007812 19.652344 115.007812 22.945312 L 115.007812 31.246094 L 118.964844 31.246094 L 118.964844 25.898438 Z M 118.960938 25.875 "/>
<path style=" stroke:none;fill-rule:nonzero;fill:rgb(45.882353%,49.019608%,56.862745%);fill-opacity:1;" d="M 86.046875 53.441406 L 93.304688 53.441406 C 93.304688 53.441406 93.304688 0 93.304688 0 L 90.886719 0 L 90.886719 44.203125 L 86.070312 44.203125 L 86.070312 16.316406 L 83.648438 16.316406 L 83.648438 52.246094 C 83.648438 56.800781 83.324219 58.703125 82.351562 58.703125 C 82.050781 58.703125 81.769531 58.597656 81.429688 58.296875 L 81.429688 67.367188 C 81.726562 67.664062 82.183594 67.921875 82.617188 67.921875 C 84.898438 67.921875 85.917969 63.578125 86.054688 53.441406 Z M 86.046875 53.441406 "/>
<path style=" stroke:none;fill-rule:nonzero;fill:rgb(45.882353%,49.019608%,56.862745%);fill-opacity:1;" d="M 58.367188 95.980469 C 58.367188 87.253906 56.808594 78.871094 52.953125 78.871094 L 47.390625 78.871094 L 47.390625 135.5 L 50.023438 135.5 L 50.023438 113.152344 L 52.644531 113.152344 L 56.265625 135.5 L 59.230469 135.5 L 55.351562 111.761719 C 57.566406 108.960938 58.375 102.480469 58.375 95.980469 Z M 52.363281 104.425781 L 50.019531 104.425781 L 50.019531 88.238281 L 52.363281 88.238281 C 54.539062 88.238281 55.585938 90.546875 55.585938 96.191406 C 55.585938 102.757812 54.300781 104.425781 52.363281 104.425781 Z M 52.363281 104.425781 "/>
<path style=" stroke:none;fill-rule:nonzero;fill:rgb(45.882353%,49.019608%,56.862745%);fill-opacity:1;" d="M 82.542969 97.046875 C 81.203125 97.046875 79.898438 98.351562 79.125 99.808594 L 78.816406 109.175781 C 79.757812 107.398438 81.222656 105.902344 82.21875 105.902344 C 83.542969 105.902344 84.449219 107.078125 84.449219 111.269531 L 84.449219 111.785156 C 83.726562 111.398438 83.078125 111.269531 82.5625 111.269531 C 79.929688 111.269531 78.058594 115.527344 78.058594 123.78125 C 78.058594 132.828125 80.222656 136.035156 82.644531 136.035156 C 84.070312 136.035156 85.632812 134.988281 86.855469 133.148438 L 86.855469 111.65625 C 86.855469 100.917969 85.035156 97.046875 82.542969 97.046875 Z M 84.449219 126.730469 C 83.933594 127.394531 83.285156 127.78125 82.679688 127.78125 C 81.496094 127.78125 80.566406 126.605469 80.566406 123.203125 C 80.566406 119.804688 81.597656 118.476562 82.8125 118.476562 C 83.34375 118.476562 83.996094 118.796875 84.445312 119.269531 L 84.445312 126.730469 Z M 84.449219 126.730469 "/>
<path style=" stroke:none;fill-rule:nonzero;fill:rgb(45.882353%,49.019608%,56.862745%);fill-opacity:1;" d="M 95.917969 97.582031 C 95.265625 97.261719 94.675781 97.046875 94.25 97.046875 C 90.953125 97.046875 88.789062 105.625 88.789062 116.636719 C 88.789062 127.652344 90.871094 136.035156 94.441406 136.035156 C 95.832031 136.035156 97.136719 135.371094 98.320312 134.132812 L 98.320312 82.121094 L 95.917969 82.121094 Z M 95.917969 126.347656 C 95.382812 126.796875 94.882812 127.074219 94.417969 127.074219 C 92.53125 127.074219 91.3125 123.800781 91.3125 116.660156 C 91.3125 109.515625 92.53125 106.050781 94.417969 106.050781 C 94.851562 106.050781 95.328125 106.246094 95.917969 106.84375 L 95.917969 126.367188 Z M 95.917969 126.347656 "/>
<path style=" stroke:none;fill-rule:nonzero;fill:rgb(45.882353%,49.019608%,56.862745%);fill-opacity:1;" d="M 73.589844 125.425781 C 72.882812 126.21875 72.300781 126.410156 71.785156 126.410156 C 70.445312 126.410156 69.878906 124.378906 69.878906 117.621094 L 69.878906 98.289062 L 67.457031 98.289062 L 67.457031 120.230469 C 67.457031 132.355469 69.207031 135.371094 71.667969 135.371094 C 72.285156 135.371094 72.941406 135.117188 73.589844 134.582031 L 73.589844 135.371094 C 73.589844 139.691406 72.542969 141.53125 71.066406 141.53125 C 70.359375 141.53125 69.34375 140.867188 68.476562 139.882812 L 68.476562 148.652344 C 69.246094 149.402344 70.296875 149.980469 70.960938 149.980469 C 74.789062 149.980469 75.996094 145.464844 75.996094 132.421875 L 75.996094 98.289062 L 73.589844 98.289062 Z M 73.589844 125.425781 "/>
<path style=" stroke:none;fill-rule:nonzero;fill:rgb(45.882353%,49.019608%,56.862745%);fill-opacity:1;" d="M 123.035156 97.046875 C 121.695312 97.046875 120.390625 98.351562 119.617188 99.808594 L 119.308594 109.175781 C 120.25 107.398438 121.710938 105.902344 122.710938 105.902344 C 124.035156 105.902344 124.941406 107.078125 124.941406 111.269531 L 124.941406 111.785156 C 124.21875 111.398438 123.570312 111.269531 123.054688 111.269531 C 120.421875 111.269531 118.550781 115.527344 118.550781 123.78125 C 118.550781 132.828125 120.714844 136.035156 123.136719 136.035156 C 124.5625 136.035156 126.125 134.988281 127.347656 133.148438 L 127.347656 111.65625 C 127.347656 100.917969 125.523438 97.046875 123.035156 97.046875 Z M 124.941406 126.730469 C 124.425781 127.394531 123.777344 127.78125 123.175781 127.78125 C 121.992188 127.78125 121.0625 126.605469 121.0625 123.203125 C 121.0625 119.804688 122.09375 118.476562 123.3125 118.476562 C 123.84375 118.476562 124.492188 118.796875 124.941406 119.269531 Z M 124.941406 126.730469 "/>
<path style=" stroke:none;fill-rule:nonzero;fill:rgb(45.882353%,49.019608%,56.862745%);fill-opacity:1;" d="M 133.65625 97.304688 C 132.605469 97.304688 130.800781 98.160156 129.308594 99.207031 L 129.308594 135.5 L 131.714844 135.5 L 131.714844 106.992188 C 132.40625 106.542969 133.039062 106.265625 133.554688 106.265625 C 134.976562 106.265625 135.71875 108.296875 135.71875 115.035156 L 135.71875 135.480469 L 138.125 135.480469 L 138.125 112.425781 C 138.125 100.300781 136.132812 97.285156 133.660156 97.285156 Z M 133.65625 97.304688 "/>
<path style=" stroke:none;fill-rule:nonzero;fill:rgb(45.882353%,49.019608%,56.862745%);fill-opacity:1;" d="M 145.304688 116.894531 L 149.703125 98.609375 L 146.851562 98.609375 L 142.492188 116.765625 L 142.492188 82.378906 L 140.085938 82.378906 L 140.085938 135.5 L 142.492188 135.5 L 142.492188 117.300781 L 147.042969 135.5 L 149.925781 135.5 Z M 145.304688 116.894531 "/>
<path style=" stroke:none;fill-rule:nonzero;fill:rgb(45.882353%,49.019608%,56.862745%);fill-opacity:1;" d="M 113.75 105.070312 C 115.160156 102.695312 115.820312 97.882812 115.820312 93.136719 C 115.820312 85.179688 114.15625 78.890625 110.453125 78.890625 L 105.238281 78.890625 L 105.238281 135.523438 L 111.1875 135.523438 C 113.898438 135.523438 116.589844 130.773438 116.589844 118.90625 C 116.589844 113.171875 115.746094 107.378906 113.75 105.089844 Z M 107.875 88.238281 L 110.292969 88.238281 C 112.304688 88.238281 113.089844 90.953125 113.089844 94.867188 C 113.089844 99.464844 112.230469 101.710938 110.292969 101.710938 L 107.875 101.710938 Z M 110.820312 126.15625 L 107.875 126.15625 L 107.875 111.140625 L 110.746094 111.140625 C 112.6875 111.140625 113.859375 112.746094 113.859375 118.691406 C 113.859375 123.867188 112.886719 126.15625 110.820312 126.15625 Z M 110.820312 126.15625 "/>
<path style=" stroke:none;fill-rule:nonzero;fill:rgb(45.882353%,49.019608%,56.862745%);fill-opacity:1;" d="M 62.011719 98.609375 L 64.417969 98.609375 L 64.417969 135.5 L 62.011719 135.5 Z M 62.011719 98.609375 "/>
<path style=" stroke:none;fill-rule:nonzero;fill:rgb(45.882353%,49.019608%,56.862745%);fill-opacity:1;" d="M 62.011719 82.078125 L 64.417969 82.078125 L 64.417969 91.253906 L 62.011719 91.253906 Z M 62.011719 82.078125 "/>
</g>
</svg>
