<?xml version="1.0" encoding="utf-8"?>
<!-- Generator: Adobe Illustrator 23.0.6, SVG Export Plug-In . SVG Version: 6.00 Build 0)  -->
<svg version="1.1" id="Layer_1" xmlns="http://www.w3.org/2000/svg" xmlns:xlink="http://www.w3.org/1999/xlink" x="0px" y="0px"
	 viewBox="0 0 1000 1000" style="enable-background:new 0 0 1000 1000;" xml:space="preserve">
<style type="text/css">
	.st0{fill:#044A75;}
	.st1{fill:#FFFFFF;}
</style>
<g>
	<g>
		<path class="st0" d="M198.5,605.9c-9.6,5.5-18.8,11-27.5,16.2c-24.9,15-47.2,28.4-66.7,34.1c-2.2,0.6-4.4-1.1-4.4-3.5v-74.9
			C136.2,580.1,168.7,591.4,198.5,605.9"/>
	</g>
	<g>
		<defs>
			<path id="SVGID_1_" d="M99.8,205.8V557c45.7,2.7,85.7,18.5,120.7,36.8c17.8,9.3,34.2,19.2,49.5,28.4
				c24.9,14.9,47.3,28.4,66.7,34.1c2.2,0.7,4.5-1.1,4.5-3.5v-74.9c-25.3,1.6-48.7,7.6-70.6,15.9l-23.1-13c0.2-0.1,0.3-0.1,0.6-0.2
				c3.1-1.4,6.2-2.6,9.4-3.9c0.6-0.3,1.1-0.5,1.7-0.7c3-1.1,6-2.3,9-3.4c0.9-0.3,1.7-0.6,2.6-0.9c2.3-0.8,4.7-1.6,7.2-2.4
				c1.9-0.6,3.8-1.2,5.7-1.8c7-2.2,14.2-4,21.5-5.5c3.2-0.8,6.5-1.4,9.9-1.9c8.5-1.5,17.3-2.5,26.2-3.1v-224
				c0-30.5-18.5-57.9-46.6-68.8l-178.1-69.8c-1.5-0.6-3-0.9-4.4-0.9C105.6,193.4,99.8,198.7,99.8,205.8"/>
		</defs>
		<linearGradient id="SVGID_2_" gradientUnits="userSpaceOnUse" x1="408.2668" y1="89.424" x2="70.5312" y2="698.7151">
			<stop  offset="0.2789" style="stop-color:#00A69C"/>
			<stop  offset="0.3972" style="stop-color:#02969B"/>
			<stop  offset="0.8014" style="stop-color:#0A639A"/>
			<stop  offset="1" style="stop-color:#0D4F99"/>
		</linearGradient>
		<use xlink:href="#SVGID_1_"  style="overflow:visible;fill:url(#SVGID_2_);"/>
		<clipPath id="SVGID_3_">
			<use xlink:href="#SVGID_1_"  style="overflow:visible;"/>
		</clipPath>
	</g>
	<g>
		<path class="st0" d="M473.7,639.8l15.2-4.4v22h-30.7c-4.8,0-9.3-0.6-13.6-1.8c-4.3-1.2-8.1-3-11.5-5.6c-3.4-2.5-6.1-6-8-10.2
			c-1.9-4.3-2.9-9.3-2.9-15c0-3.5,0.6-7.7,1.8-12.6c1.2-4.9,3-9.6,5.4-14.3l16.1,5.9c-0.9,2.3-1.6,4.3-2.2,6c-0.6,1.8-1,3.5-1.4,5
			c-0.4,1.6-0.6,3.1-0.8,4.6c-0.2,1.5-0.3,3.1-0.3,4.7c0,3.5,0.6,6.4,1.7,8.7c1.1,2.3,2.5,4.1,4.2,5.4c1.7,1.4,3.7,2.3,5.9,2.8
			c2.2,0.5,4.4,0.8,6.6,0.8h12.2v-55.3h18.2v40.1l-13-2.2h22.9h36.6c3.1,0,5.3-0.8,6.7-2.3c1.4-1.5,2.1-4.9,2.1-10.1v-34.9h18v39.2
			c0,7.4-1.9,13.1-5.8,17.1c-3.8,4-9.2,6-16.1,6H473.7z M508,629.7v-42.9h18v44.5"/>
		<path class="st0" d="M660.5,624.7c1.2,0,9.6,0.6,10.2,1.9c0.7,1.2,1,3.3,1,6.2c0,2.3-0.2,4.1-0.5,5.2c-0.3,1.2-8.2,1.8-9,1.8h-5.7
			c-2.2,0-3.7-0.5-4.5-1.6c-0.8-1.1-1.2-3.1-1.2-5.9c0-2.3,0.3-4.2,1-5.5c0.7-1.3-1.5-2-0.2-2H660.5z"/>
		<path class="st0" d="M726.1,624.7c1.2,0,2.2,0.6,2.9,1.9c0.7,1.2,1,3.3,1,6.2c0,2.3-0.2,4.1-0.5,5.2c-0.3,1.2-0.9,1.8-1.7,1.8
			h-65.6c-2.2,0-3.3-0.5-4-1.6c-0.8-1.1-1.2-3.1-1.2-5.9c0-2.3,0.3-4.2,1-5.5c0.7-1.3,1.2-2,2.5-2H726.1z"/>
		<path class="st0" d="M745.4,557.1c0-2.8,0.9-5.1,2.7-6.9c1.8-1.8,4.1-2.7,6.8-2.7c2.7,0,5,0.9,6.7,2.7c1.7,1.8,2.6,4.1,2.6,6.9
			c0,2.9-0.9,5.2-2.6,7c-1.7,1.8-4,2.7-6.7,2.7c-2.8,0-5.1-0.9-6.9-2.7C746.3,562.1,745.4,559.8,745.4,557.1"/>
		<path class="st0" d="M816.1,669.2c-1.2-2.3-1.9-4.5-1.9-6.6c0-4.2,1.3-7.6,3.9-10.1c2.6-2.5,6.2-3.8,10.8-3.8
			c1.1,0,2.4,0.1,3.7,0.3c1.3,0.2,2.7,0.5,4.2,0.9l-1.7,7.4c-1.8-0.6-3.8-0.9-6-0.9c-2.4,0-4.2,0.6-5.4,1.7
			c-1.2,1.1-1.8,2.7-1.8,4.6c0,2.1,0.7,3.7,2,4.8c1.3,1.1,3.3,1.7,6,1.7h8.1v7.7h-27.2v-7.7H816.1z"/>
		<rect x="882" y="547.5" class="st0" width="18.2" height="92.3"/>
		<path class="st0" d="M521.6,478.3c1.2,0,2.2,0.6,2.8,1.9c0.7,1.3,1,3.3,1,6.2c0,2.3-0.2,4.1-0.5,5.2c-0.3,1.2-0.9,1.7-1.7,1.7
			h-5.5c-2.2,0-3.7-0.5-4.5-1.6c-0.8-1.1-1.2-3-1.2-5.9c0-2.3,0.3-4.2,1-5.5c0.7-1.3,1.7-2,3-2H521.6z"/>
		<path class="st0" d="M541.2,478.3c1.2,0,2.2,0.6,2.9,1.9c0.7,1.3,1,3.3,1,6.2c0,2.3-0.2,4.1-0.5,5.2c-0.3,1.2-0.9,1.7-1.7,1.7
			h-19.6c-2.2,0-3.7-0.5-4.5-1.6c-0.8-1.1-1.2-3-1.2-5.9c0-2.3,0.3-4.2,1-5.5c0.7-1.3,1.7-2,3-2H541.2z"/>
		<path class="st0" d="M560.8,478.3c1.2,0,2.2,0.6,2.9,1.9c0.7,1.3,1,3.3,1,6.2c0,2.3-0.2,4.1-0.5,5.2c-0.3,1.2-0.9,1.7-1.7,1.7
			h-19.6c-2.2,0-3.7-0.5-4.5-1.6c-0.8-1.1-1.2-3-1.2-5.9c0-2.3,0.3-4.2,1-5.5c0.7-1.3,1.7-2,3-2H560.8z"/>
		<path class="st0" d="M605.5,478.3c1.2,0,2.2,0.6,2.9,1.9c0.7,1.3,1,3.3,1,6.2c0,2.3-0.2,4.1-0.5,5.2c-0.3,1.2-0.9,1.7-1.7,1.7
			h-44.7c-2.2,0-3.7-0.5-4.5-1.6c-0.8-1.1-1.2-3-1.2-5.9c0-2.3,0.3-4.2,1-5.5c0.7-1.3,1.7-2,3-2H605.5z"/>
		<path class="st0" d="M625.2,478.3c1.2,0,29.5,0.6,30.2,1.9c0.7,1.3,1,3.3,1,6.2c0,2.3-0.2,4.1-0.5,5.2c-0.3,1.2-0.9,1.7-1.7,1.7
			h-47c-2.2,0-3.7-0.5-4.5-1.6c-0.8-1.1-1.2-3-1.2-5.9c0-2.3,0.3-4.2,1-5.5c0.7-1.3,1.7-2,3-2H625.2z"/>
		<path class="st0" d="M656.9,478.3c1.2,0,2.2,0.6,2.8,1.9c0.7,1.3,1,3.3,1,6.2c0,2.3-0.2,4.1-0.5,5.2c-0.3,1.2-0.9,1.7-1.7,1.7
			h-4.4c-2.2,0-31.1-0.5-31.8-1.6c-0.8-1.1-1.2-3-1.2-5.9c0-2.3,0.3-4.2,1-5.5c0.7-1.3,1.7-2,3-2H656.9z"/>
		<path class="st0" d="M668.9,478.3c1.2,0,2.2,0.6,2.9,1.9c0.7,1.3,1,3.3,1,6.2c0,2.3-0.2,4.1-0.5,5.2c-0.3,1.2-0.9,1.7-1.7,1.7
			h-19.6c-2.2,0-3.7-0.5-4.5-1.6c-0.8-1.1-1.2-3-1.2-5.9c0-2.3,0.3-4.2,1-5.5c0.7-1.3,1.7-2,3-2H668.9z"/>
		<path class="st0" d="M688.5,478.3c1.2,0,2.2,0.6,2.9,1.9c0.7,1.3,1,3.3,1,6.2c0,2.3-0.2,4.1-0.5,5.2c-0.3,1.2-0.9,1.7-1.7,1.7
			h-19.6c-2.2,0-3.7-0.5-4.5-1.6c-0.8-1.1-1.2-3-1.2-5.9c0-2.3,0.3-4.2,1-5.5c0.7-1.3,1.7-2,3-2H688.5z"/>
		<path class="st0" d="M688.5,478.3c2.7,0,5-0.2,6.8-0.7c1.8-0.5,3.2-1.2,4.2-2.3c1-1,1.6-2.3,2-3.8c0.3-1.5,0.5-3.3,0.5-5.5v-32.6
			h18v32.1c0,3.8,1.3,7,4,9.3c2.6,2.4,6.3,3.6,10.9,3.6c1.3,0,2.3,0.6,2.9,1.8c0.6,1.2,0.9,3.1,0.9,5.6c0,3.1-0.1,5.2-0.3,6.2
			c-0.2,1-0.6,1.5-1.2,1.5c-1.7,0-3.6-0.2-5.6-0.5c-2.1-0.3-4.1-0.8-5.9-1.5c-1.9-0.7-3.6-1.6-5.3-2.7c-1.7-1.1-3.1-2.5-4.2-4.1
			c-2,3-5.1,5.1-9.2,6.6c-4.1,1.4-9.5,2.1-16.2,2.1c-2.1,0-3.8-0.6-5-1.7c-1.2-1.2-1.9-3-1.9-5.4c0-2.6,0.4-4.6,1.2-5.9
			C686,478.9,687.1,478.3,688.5,478.3 M702.1,410.6c0-2.8,0.9-5.1,2.7-6.8c1.8-1.8,4.1-2.7,6.8-2.7c2.7,0,5,0.9,6.7,2.7
			c1.7,1.8,2.6,4.1,2.6,6.8c0,2.9-0.9,5.2-2.6,7c-1.7,1.8-4,2.7-6.7,2.7c-2.8,0-5.1-0.9-6.9-2.7C703,415.7,702.1,413.4,702.1,410.6"
			/>
		<path class="st0" d="M769.8,478.3c1.2,0,2.2,0.6,2.9,1.9c0.7,1.3,1,3.3,1,6.2c0,2.3-0.2,4.1-0.5,5.2c-0.3,1.2-0.9,1.7-1.7,1.7
			h-34.9c-2.2,0-3.7-0.5-4.5-1.6c-0.8-1.1-1.2-3-1.2-5.9c0-2.3,0.3-4.2,1-5.5c0.7-1.3,1.7-2,3-2H769.8z"/>
		<path class="st0" d="M831.6,493.3h-59.4c-2,0-3.6-0.5-4.9-1.6c-1.3-1.1-2-2.9-2-5.5c0-1.9,0.3-3.7,0.9-5.4
			c0.6-1.7,1.8-2.5,3.6-2.5H813v-17.1c0-5.4-3.8-17.6-23.3-17.6c-8.2,0-17,3-19.6,3.9l-3.8-13.7c0,0,12.3-5.5,27.6-5.5
			c15.3,0,37.7,9.4,37.7,33.7V493.3z"/>
		<rect x="584.3" y="547.5" class="st0" width="18" height="61.1"/>
		<path class="st0" d="M640,613.5c0,19.2-15,26.3-29.9,26.3h-30.3l-3.4-15h27.8c19,0,17.7-11.2,17.7-16.4v-60.8h18V613.5z"/>
		<rect x="809.8" y="547.5" class="st0" width="18" height="61.1"/>
		<path class="st0" d="M865.5,613.5c0,19.2-15,26.3-29.9,26.3h-30.3l-3.4-15h27.8c19,0,17.7-11.2,17.7-16.4v-60.8h18V613.5z"/>
		<path class="st0" d="M829,483.8v-18.2h2.6c0,8.2,8.9,12.7,17.4,12.7c1.1,0,1.8,0.5,2.3,1.5c0.5,1,0.7,3,0.7,6c0,1.7,0,3.1-0.1,4
			c-0.1,1-0.1,1.7-0.1,2.1c0,0.4-0.1,0.7-0.2,1c-0.1,0.3-0.2,0.4-0.3,0.4c-1.4,0-3-0.1-4.6-0.3c-1.7-0.2-3.4-0.7-5.2-1.3
			c-1.8-0.6-3.6-1.5-5.3-2.7c-1.7-1.2-3.3-2.7-4.6-4.6L829,483.8z"/>
		<path class="st0" d="M868.6,478.3c1.2,0,2.2,0.6,2.9,1.9c0.7,1.3,1,3.3,1,6.2c0,2.3-0.2,4.1-0.5,5.2c-0.3,1.2-0.9,1.7-1.7,1.7
			h-19.6c-2.2,0-3.7-0.5-4.5-1.6c-0.8-1.1-1.2-3-1.2-5.9c0-2.3,0.3-4.2,1-5.5c0.7-1.3,1.7-2,3-2H868.6z"/>
		<path class="st0" d="M868.6,478.3c2.7,0,5-0.2,6.8-0.7c1.8-0.5,3.2-1.3,4.2-2.3c1-1,1.6-2.3,2-3.8c0.3-1.5,0.5-3.4,0.5-5.5V401h18
			v68.1c0,4.1-0.5,7.7-1.5,10.7c-1,3-2.6,5.5-4.8,7.5c-2.3,2-5.2,3.5-9,4.5c-3.7,1-8.4,1.5-13.9,1.5c-2.2,0-3.9-0.6-5.1-1.8
			c-1.2-1.2-1.8-3-1.8-5.3c0-2.6,0.4-4.6,1.2-5.9C866.1,478.9,867.2,478.3,868.6,478.3"/>
		<path class="st0" d="M786.1,513.4c0-2.8,0.9-5.1,2.7-6.8c1.8-1.8,4.1-2.7,6.9-2.7c2.7,0,5,0.9,6.7,2.7c1.7,1.8,2.6,4.1,2.6,6.8
			c0,2.9-0.9,5.2-2.6,7c-1.7,1.8-4,2.7-6.7,2.7c-2.8,0-5.1-0.9-6.9-2.7C787,518.6,786.1,516.3,786.1,513.4"/>
		<path class="st0" d="M440.2,410.6c0-2.8,0.9-5.1,2.7-6.8c1.8-1.8,4.1-2.7,6.9-2.7c2.7,0,5,0.9,6.7,2.7c1.7,1.8,2.6,4.1,2.6,6.8
			c0,2.9-0.9,5.2-2.6,7c-1.7,1.8-4,2.7-6.7,2.7c-2.8,0-5.1-0.9-6.9-2.7C441.1,415.8,440.2,413.5,440.2,410.6"/>
		<path class="st0" d="M463.7,410.6c0-2.8,0.9-5.1,2.7-6.8c1.8-1.8,4.1-2.7,6.9-2.7c2.7,0,5,0.9,6.7,2.7c1.7,1.8,2.6,4.1,2.6,6.8
			c0,2.9-0.9,5.2-2.6,7c-1.7,1.8-4,2.7-6.7,2.7c-2.8,0-5.1-0.9-6.9-2.7C464.6,415.8,463.7,413.5,463.7,410.6"/>
		<path class="st0" d="M422.2,462c0-24.3,22.4-33.7,37.7-33.7c15.8,0,28.4,6.2,28.4,6.2l-9.7,16c-2.7-0.9-8.1-7-16.2-7
			c-19.5,0-21.6,12.2-21.6,17.6v17.1h22.9v15h-41.5V462z"/>
		<path class="st0" d="M495.8,478.3h44v15h-49c-11.3,0-20.5-9.3-20.5-20.7v-38.2h18v36.3C488.3,474.9,491.6,478.3,495.8,478.3"/>
		<path class="st0" d="M719.3,611.2c0-24.3,22.4-33.7,37.7-33.7c15.8,0,28.4,6.2,28.4,6.2l-9.7,16c-2.7-0.9-8.1-7-16.2-7
			c-19.5,0-21.6,12.2-21.6,17.6v14.3h42.3c1.8,0,3,0.9,3.6,2.6c0.6,1.7,0.9,3.5,0.9,5.4c0,2.6-0.7,4.4-2,5.5c-1.3,1.1-3,1.6-4.9,1.6
			h-58.5V611.2z"/>
		<rect x="767.3" y="583.7" class="st0" width="18" height="56.1"/>
		<path class="st0" d="M640,612.7c0,12.1,9.3,12.1,14.9,12.1c1.3,0,2.3,0.6,2.9,1.8c0.6,1.2,0.9,3,0.9,5.6c0,3.1,0.2,7.7,0.2,7.7
			h-4.5c-20.6,0-23.4-13.6-23.6-16.7L640,612.7z"/>
	</g>
	<path class="st0" d="M99.9,750.8h18c1.9,0,3.7,0.2,5.3,0.6c1.6,0.4,3,1.1,4.2,2c1.2,0.9,2.1,2,2.8,3.4c0.7,1.4,1,3.1,1,5
		c0,2.8-0.7,5-2,6.5c-1.3,1.6-3,2.7-4.9,3.4v0.1c1.2,0.3,2.2,0.8,3.1,1.3c0.9,0.5,1.8,1.2,2.5,2c0.7,0.8,1.3,1.8,1.8,3
		c0.4,1.2,0.6,2.6,0.6,4.2c0,1.6-0.3,3.2-0.8,4.7c-0.5,1.5-1.4,2.8-2.5,3.9c-1.1,1.1-2.6,2-4.4,2.7c-1.8,0.7-3.8,1-6.3,1H99.9V750.8
		z M108.7,768.7h6.2c2.4,0,4.3-0.4,5.5-1.3c1.2-0.9,1.9-2.3,1.9-4.2c0-1-0.2-1.9-0.6-2.6c-0.4-0.7-0.9-1.2-1.5-1.6
		c-0.6-0.4-1.4-0.6-2.2-0.8c-0.8-0.1-1.7-0.2-2.6-0.2h-6.7V768.7z M108.7,787.4h7.1c1.1,0,2.2-0.1,3.1-0.2c0.9-0.2,1.7-0.5,2.4-0.9
		c0.7-0.4,1.2-1,1.6-1.8c0.4-0.7,0.5-1.7,0.5-2.8s-0.2-2.1-0.7-2.8c-0.4-0.8-1-1.4-1.8-1.8c-0.7-0.4-1.7-0.7-2.7-0.9
		c-1.1-0.2-2.2-0.3-3.5-0.3h-6.1V787.4z"/>
	<path class="st0" d="M162.5,773.5c0-1.7-0.6-3.1-1.8-4c-1.2-0.9-2.9-1.4-5.3-1.4c-1.2,0-2.4,0.1-3.8,0.4c-1.4,0.2-2.9,0.6-4.4,1.2
		l-1.6-6.3c1.4-0.5,3.1-1,5-1.3c2-0.4,3.8-0.6,5.4-0.6c5.3,0,9.1,1.1,11.5,3.2c2.4,2.2,3.6,5.2,3.5,9.1v13.4c0,1.2,0,2.5,0.1,3.8
		c0.1,1.4,0.2,2.5,0.4,3.5h-7.6c-0.2-0.5-0.3-1.2-0.4-2c-0.1-0.8-0.2-1.5-0.2-2h-0.1c-0.8,1.4-2,2.6-3.6,3.4
		c-1.6,0.9-3.5,1.3-5.6,1.3c-1.4,0-2.8-0.2-4.2-0.5c-1.4-0.4-2.6-0.9-3.8-1.7c-1.1-0.8-2-1.8-2.6-3.1c-0.6-1.2-1-2.8-1-4.7
		c0-2.3,0.5-4.2,1.6-5.7c1-1.5,2.5-2.6,4.4-3.4c1.9-0.8,4-1.3,6.5-1.6c2.5-0.3,5.1-0.4,7.7-0.4V773.5z M161.3,779.7
		c-1.4,0-2.8,0.1-4.1,0.2c-1.3,0.1-2.4,0.4-3.4,0.8c-1,0.4-1.8,0.9-2.3,1.6c-0.5,0.7-0.8,1.6-0.8,2.6c0,1.4,0.4,2.5,1.3,3.2
		c0.8,0.8,2,1.2,3.5,1.2c1.2,0,2.3-0.2,3.2-0.6c0.9-0.4,1.7-1,2.2-1.7c0.6-0.7,1-1.5,1.3-2.4s0.4-1.8,0.4-2.7v-2.3H161.3z"/>
	<path class="st0" d="M192.7,762.3v4.3h0.1c0.8-1.6,2.1-2.9,3.9-3.8c1.8-0.9,3.7-1.3,5.8-1.3c1.8,0,3.5,0.3,4.9,0.8
		c1.5,0.5,2.7,1.3,3.7,2.4c1,1,1.8,2.3,2.4,3.7c0.6,1.5,0.8,3.1,0.8,4.8v21.3h-8.6v-18.1c0-1.3-0.1-2.5-0.3-3.6
		c-0.2-1.1-0.5-2-0.9-2.7c-0.4-0.7-1-1.2-1.8-1.6c-0.8-0.4-1.7-0.6-2.9-0.6c-0.8,0-1.7,0.2-2.5,0.5c-0.8,0.3-1.5,0.8-2.2,1.5
		c-0.7,0.7-1.2,1.7-1.6,2.8c-0.4,1.2-0.6,2.6-0.6,4.2v17.5h-8.6v-32.4H192.7z"/>
	<polygon class="st0" points="257,762.3 245.2,776.7 257.7,794.6 247.3,794.6 236.1,777.6 236,777.6 236,794.6 227.4,794.6 
		227.4,749.6 236,749.6 236,776.2 236.1,776.2 246.7,762.3 	"/>
	<path class="st0" d="M285.8,768.3c-0.4-0.1-0.8-0.1-1.2-0.2c-0.4,0-0.8-0.1-1.3-0.1c-1,0-2,0.2-3,0.5c-0.9,0.4-1.8,1-2.5,1.8
		c-0.7,0.9-1.3,2-1.7,3.4c-0.4,1.4-0.6,3.1-0.6,5.1v15.6H267v-32.4h8.4v4.2h0.1c1.5-3.3,4.3-5,8.4-5c0.4,0,0.8,0,1.2,0
		c0.4,0,0.8,0.1,1.2,0.1L285.8,768.3z"/>
	<path class="st0" d="M317.2,794.6v-4.4h-0.1c-0.8,1.6-2.1,2.9-3.9,3.8c-1.8,0.9-3.7,1.3-5.7,1.3c-1.8,0-3.5-0.3-4.9-0.9
		c-1.5-0.6-2.7-1.4-3.7-2.4c-1-1-1.8-2.3-2.4-3.7c-0.6-1.4-0.8-3.1-0.8-4.9v-21.3h8.6v18.1c0,1.3,0.1,2.5,0.3,3.5
		c0.2,1,0.5,1.9,1,2.7c0.5,0.8,1.1,1.3,1.8,1.7c0.8,0.4,1.7,0.6,2.9,0.6c0.8,0,1.7-0.2,2.5-0.5c0.8-0.3,1.5-0.8,2.2-1.5
		c0.6-0.7,1.2-1.6,1.6-2.8c0.4-1.2,0.6-2.6,0.6-4.2v-17.5h8.6v32.4H317.2z"/>
	<path class="st0" d="M347.6,806.6H339v-44.3h8.4v4.2h0.1c1.2-1.7,2.7-2.9,4.5-3.7c1.7-0.8,3.5-1.2,5.4-1.2c2.2,0,4.1,0.4,5.8,1.3
		c1.7,0.9,3.1,2.1,4.2,3.6c1.1,1.5,2,3.3,2.6,5.4c0.6,2,0.9,4.2,0.9,6.6s-0.3,4.6-0.9,6.6c-0.6,2.1-1.5,3.9-2.7,5.4
		c-1.2,1.5-2.6,2.7-4.3,3.6c-1.7,0.9-3.6,1.3-5.8,1.3c-1.8,0-3.5-0.3-5.2-0.9c-1.7-0.7-3.1-1.8-4.3-3.3h-0.1V806.6z M362.2,778.4
		c0-1.5-0.1-2.8-0.4-4.1c-0.3-1.3-0.7-2.4-1.3-3.3c-0.6-0.9-1.3-1.6-2.2-2.2c-0.9-0.5-2-0.8-3.2-0.8c-1.2,0-2.3,0.3-3.3,0.8
		c-1,0.5-1.8,1.2-2.5,2.1c-0.7,0.9-1.2,2-1.6,3.3c-0.4,1.3-0.6,2.7-0.6,4.2c0,1.5,0.2,2.9,0.6,4.2c0.4,1.3,0.9,2.4,1.5,3.3
		c0.7,0.9,1.5,1.6,2.5,2.2c1,0.5,2.1,0.8,3.4,0.8c1.3,0,2.3-0.3,3.2-0.8c0.9-0.5,1.7-1.3,2.2-2.2c0.6-0.9,1-2.1,1.3-3.3
		C362.1,781.3,362.2,779.9,362.2,778.4"/>
	<path class="st0" d="M378.5,762.3h4.9v-8.6h8.6v8.6h6.7v6.6H392v14.5c0,1.1,0.1,2,0.2,2.7c0.1,0.7,0.3,1.2,0.6,1.5
		c0.3,0.3,0.6,0.5,1.1,0.7c0.5,0.1,1.1,0.2,1.8,0.2c0.5,0,1,0,1.4-0.1c0.4,0,0.9-0.1,1.4-0.2v6.5c-0.8,0.1-1.7,0.2-2.7,0.2
		c-1,0.1-1.9,0.1-2.9,0.1c-2,0-3.6-0.2-4.9-0.6c-1.2-0.4-2.2-1-2.9-1.8c-0.7-0.8-1.2-1.7-1.4-2.9c-0.2-1.2-0.4-2.5-0.4-4.1v-16.7
		h-4.9V762.3z"/>
	<path class="st0" d="M430.1,769.1c-0.8-0.3-1.7-0.6-2.6-0.7s-1.8-0.3-2.6-0.3c-1.5,0-2.9,0.3-4.1,0.8c-1.2,0.5-2.1,1.3-2.9,2.2
		c-0.7,0.9-1.3,2-1.7,3.3c-0.4,1.3-0.6,2.6-0.6,4.1s0.2,2.8,0.6,4c0.4,1.3,1,2.3,1.7,3.3c0.8,0.9,1.8,1.7,2.9,2.2
		c1.2,0.5,2.6,0.8,4.2,0.8c0.8,0,1.7-0.1,2.6-0.2c0.9-0.1,1.8-0.4,2.6-0.7l1.3,6.4c-1.2,0.4-2.4,0.7-3.6,0.9
		c-1.2,0.2-2.4,0.2-3.7,0.2c-2.9,0-5.4-0.4-7.5-1.3c-2.2-0.9-4-2-5.4-3.5c-1.4-1.5-2.5-3.3-3.3-5.3c-0.7-2.1-1.1-4.3-1.1-6.7
		c0-2.4,0.4-4.7,1.2-6.8c0.8-2.1,1.9-3.9,3.4-5.4c1.4-1.5,3.3-2.7,5.4-3.5c2.2-0.9,4.6-1.3,7.3-1.3c2.8,0,5.2,0.3,7.2,1L430.1,769.1
		z"/>
	<polygon class="st0" points="455.5,784 455.6,784 463.3,762.3 472.3,762.3 455,806.6 445.8,806.6 451,793.9 438.4,762.3 
		447.7,762.3 	"/>
	<path class="st0" d="M531.5,758.8c-1.2-0.4-2.4-0.8-3.8-1.1c-1.3-0.3-2.7-0.4-4-0.4c-2.3,0-4.3,0.4-6.1,1.3c-1.8,0.8-3.2,2-4.3,3.4
		c-1.1,1.4-2,3.1-2.6,5c-0.6,1.9-0.9,3.9-0.9,6c0,2,0.3,3.9,0.9,5.8c0.6,1.8,1.4,3.5,2.6,4.9c1.2,1.4,2.6,2.5,4.3,3.4
		c1.7,0.8,3.7,1.3,6,1.3c1.6,0,3.1-0.1,4.4-0.4c1.3-0.3,2.6-0.7,3.8-1.2l1.5,6.9c-1.5,0.7-3.2,1.1-5.1,1.4c-1.8,0.3-3.7,0.5-5.7,0.5
		c-3.3,0-6.2-0.5-8.9-1.7c-2.7-1.1-4.9-2.6-6.8-4.6c-1.9-2-3.4-4.4-4.4-7.1c-1-2.7-1.5-5.8-1.5-9.1s0.5-6.4,1.5-9.1
		c1-2.8,2.4-5.2,4.3-7.2c1.9-2,4.2-3.6,6.9-4.7c2.7-1.1,5.8-1.7,9.2-1.7c1.9,0,3.8,0.1,5.5,0.4c1.7,0.3,3.3,0.7,4.7,1.3L531.5,758.8
		z"/>
	<path class="st0" d="M574.6,778.4c0,2.6-0.4,5-1.2,7.1c-0.8,2.1-1.9,3.9-3.3,5.3c-1.4,1.4-3.1,2.6-5.1,3.3c-2,0.8-4.2,1.2-6.7,1.2
		c-2.5,0-4.8-0.4-6.8-1.2c-2-0.8-3.7-1.9-5.1-3.4c-1.4-1.5-2.5-3.3-3.3-5.3c-0.8-2.1-1.2-4.5-1.2-7.1c0-2.6,0.4-5,1.2-7.1
		c0.8-2.1,1.9-3.9,3.3-5.3c1.4-1.4,3.1-2.5,5.1-3.3c2-0.8,4.3-1.2,6.8-1.2c2.5,0,4.8,0.4,6.8,1.2c2,0.8,3.7,1.9,5.1,3.3
		c1.4,1.4,2.5,3.2,3.3,5.3C574.2,773.4,574.6,775.8,574.6,778.4 M566,778.4c0-1.5-0.2-2.9-0.5-4.2c-0.3-1.3-0.8-2.4-1.4-3.2
		c-0.6-0.9-1.4-1.6-2.4-2.1c-1-0.5-2.1-0.8-3.4-0.8c-2.5,0-4.4,0.9-5.7,2.8c-1.3,1.8-2,4.3-2,7.5c0,3.2,0.6,5.8,1.9,7.6
		c1.3,1.8,3.2,2.8,5.7,2.8c2.6,0,4.5-1,5.8-2.8C565.4,784.1,566,781.6,566,778.4"/>
	<path class="st0" d="M594.9,762.3v4.4h0.1c0.8-1.6,2-2.9,3.7-3.8c1.7-0.9,3.5-1.3,5.5-1.3c2.3,0,4.2,0.4,5.8,1.3
		c1.6,0.9,2.8,2.2,3.5,4h0.1c1.1-1.8,2.5-3.2,4.3-4c1.8-0.8,3.6-1.3,5.7-1.3c2.2,0,4,0.3,5.4,0.9c1.4,0.5,2.6,1.3,3.6,2.3
		c1,1,1.7,2.2,2.2,3.7c0.5,1.5,0.7,3.1,0.7,4.9v21.3h-8.6v-18.1c0-1.3-0.1-2.5-0.2-3.5c-0.1-1-0.4-1.9-0.8-2.7
		c-0.4-0.7-0.9-1.3-1.7-1.7c-0.7-0.4-1.7-0.6-2.8-0.6c-0.7,0-1.5,0.1-2.2,0.4c-0.8,0.3-1.4,0.6-2,1.2c-0.6,0.5-1,1.2-1.4,2.1
		c-0.4,0.9-0.6,2-0.6,3.2v19.6h-8.6v-18.2c0-1.3-0.1-2.5-0.2-3.5c-0.1-1-0.4-1.9-0.7-2.6c-0.4-0.7-0.9-1.3-1.7-1.7
		c-0.7-0.4-1.7-0.6-2.8-0.6c-0.8,0-1.6,0.2-2.4,0.5c-0.8,0.3-1.4,0.9-2,1.6c-0.6,0.7-1,1.6-1.4,2.7c-0.3,1.1-0.5,2.5-0.5,4.1v17.7
		h-8.6v-32.4H594.9z"/>
	<path class="st0" d="M657,762.3v4.4h0.1c0.8-1.6,2-2.9,3.7-3.8c1.7-0.9,3.5-1.3,5.5-1.3c2.3,0,4.2,0.4,5.8,1.3
		c1.6,0.9,2.8,2.2,3.5,4h0.1c1.1-1.8,2.5-3.2,4.3-4c1.8-0.8,3.7-1.3,5.7-1.3c2.2,0,4,0.3,5.4,0.9c1.4,0.5,2.6,1.3,3.6,2.3
		c1,1,1.7,2.2,2.2,3.7c0.5,1.5,0.7,3.1,0.7,4.9v21.3h-8.6v-18.1c0-1.3-0.1-2.5-0.2-3.5c-0.1-1-0.4-1.9-0.8-2.7
		c-0.4-0.7-0.9-1.3-1.7-1.7c-0.7-0.4-1.7-0.6-2.8-0.6c-0.7,0-1.5,0.1-2.2,0.4c-0.8,0.3-1.4,0.6-2,1.2c-0.6,0.5-1,1.2-1.4,2.1
		c-0.4,0.9-0.6,2-0.6,3.2v19.6H669v-18.2c0-1.3-0.1-2.5-0.2-3.5c-0.1-1-0.4-1.9-0.8-2.6c-0.4-0.7-0.9-1.3-1.7-1.7
		c-0.7-0.4-1.7-0.6-2.8-0.6c-0.8,0-1.6,0.2-2.4,0.5c-0.8,0.3-1.4,0.9-2,1.6c-0.6,0.7-1,1.6-1.4,2.7c-0.3,1.1-0.5,2.5-0.5,4.1v17.7
		h-8.6v-32.4H657z"/>
	<path class="st0" d="M719.4,757.3h-8.6v-7.5h8.6V757.3z M719.4,794.6h-8.6v-32.4h8.6V794.6z"/>
	<path class="st0" d="M752.3,769.8c-1.7-0.7-3.2-1.1-4.6-1.3c-1.4-0.3-2.8-0.4-4.1-0.4c-1.3,0-2.3,0.2-3,0.6
		c-0.8,0.4-1.2,1.1-1.2,2.1c0,0.9,0.4,1.7,1.2,2.3c0.8,0.6,2.4,1.2,4.7,2c1.7,0.5,3.2,1.1,4.5,1.8c1.3,0.6,2.4,1.4,3.4,2.2
		c0.9,0.8,1.6,1.8,2.1,2.9c0.5,1.1,0.7,2.3,0.7,3.7c0,1.8-0.4,3.4-1.2,4.7c-0.8,1.3-1.8,2.3-3.1,3c-1.3,0.7-2.7,1.3-4.3,1.7
		c-1.6,0.3-3.2,0.5-4.8,0.5c-2,0-4-0.2-6.2-0.6c-2.2-0.4-4.1-1-5.8-1.7l1.7-6.6c1.8,0.8,3.6,1.4,5.5,1.8c1.9,0.4,3.5,0.6,4.8,0.6
		c1.7,0,2.9-0.2,3.8-0.6c0.9-0.4,1.3-1.2,1.3-2.2c0-0.9-0.5-1.7-1.5-2.4c-1-0.6-2.7-1.3-5.2-2.1c-3.4-1.1-5.9-2.5-7.5-4
		c-1.6-1.6-2.3-3.5-2.3-5.8c0-1.8,0.4-3.3,1.1-4.5c0.7-1.3,1.6-2.3,2.8-3.1c1.2-0.8,2.5-1.4,4-1.8c1.5-0.4,3-0.6,4.5-0.6
		c1.7,0,3.5,0.2,5.3,0.5c1.9,0.3,3.6,0.8,5.2,1.4L752.3,769.8z"/>
	<path class="st0" d="M786.2,769.8c-1.7-0.7-3.2-1.1-4.6-1.3c-1.4-0.3-2.8-0.4-4.1-0.4c-1.3,0-2.3,0.2-3,0.6
		c-0.8,0.4-1.2,1.1-1.2,2.1c0,0.9,0.4,1.7,1.2,2.3c0.8,0.6,2.4,1.2,4.7,2c1.7,0.5,3.2,1.1,4.5,1.8c1.3,0.6,2.4,1.4,3.4,2.2
		c0.9,0.8,1.6,1.8,2.1,2.9c0.5,1.1,0.7,2.3,0.7,3.7c0,1.8-0.4,3.4-1.2,4.7c-0.8,1.3-1.8,2.3-3.1,3c-1.3,0.7-2.7,1.3-4.3,1.7
		c-1.6,0.3-3.2,0.5-4.8,0.5c-2,0-4.1-0.2-6.2-0.6c-2.2-0.4-4.1-1-5.8-1.7l1.7-6.6c1.8,0.8,3.6,1.4,5.5,1.8c1.9,0.4,3.5,0.6,4.8,0.6
		c1.7,0,2.9-0.2,3.8-0.6c0.9-0.4,1.3-1.2,1.3-2.2c0-0.9-0.5-1.7-1.5-2.4c-1-0.6-2.7-1.3-5.2-2.1c-3.4-1.1-5.9-2.5-7.5-4
		c-1.6-1.6-2.3-3.5-2.3-5.8c0-1.8,0.4-3.3,1.1-4.5c0.7-1.3,1.6-2.3,2.8-3.1c1.2-0.8,2.5-1.4,4-1.8c1.5-0.4,3-0.6,4.5-0.6
		c1.7,0,3.5,0.2,5.3,0.5c1.9,0.3,3.6,0.8,5.2,1.4L786.2,769.8z"/>
	<path class="st0" d="M809.8,757.3h-8.6v-7.5h8.6V757.3z M809.8,794.6h-8.6v-32.4h8.6V794.6z"/>
	<path class="st0" d="M854.3,778.4c0,2.6-0.4,5-1.2,7.1c-0.8,2.1-1.9,3.9-3.3,5.3c-1.4,1.4-3.1,2.6-5.1,3.3c-2,0.8-4.2,1.2-6.7,1.2
		c-2.5,0-4.8-0.4-6.8-1.2c-2-0.8-3.7-1.9-5.1-3.4c-1.4-1.5-2.5-3.3-3.3-5.3c-0.8-2.1-1.2-4.5-1.2-7.1c0-2.6,0.4-5,1.2-7.1
		c0.8-2.1,1.9-3.9,3.3-5.3c1.4-1.4,3.1-2.5,5.1-3.3c2-0.8,4.2-1.2,6.8-1.2c2.5,0,4.8,0.4,6.8,1.2c2,0.8,3.7,1.9,5.1,3.3
		c1.4,1.4,2.5,3.2,3.3,5.3C853.9,773.4,854.3,775.8,854.3,778.4 M845.7,778.4c0-1.5-0.2-2.9-0.5-4.2c-0.3-1.3-0.8-2.4-1.4-3.2
		c-0.6-0.9-1.4-1.6-2.4-2.1c-1-0.5-2.1-0.8-3.4-0.8c-2.5,0-4.4,0.9-5.7,2.8c-1.3,1.8-2,4.3-2,7.5c0,3.2,0.6,5.8,1.9,7.6
		c1.3,1.8,3.2,2.8,5.7,2.8c2.6,0,4.5-1,5.8-2.8C845.1,784.1,845.7,781.6,845.7,778.4"/>
	<path class="st0" d="M874.6,762.3v4.3h0.1c0.8-1.6,2.1-2.9,3.9-3.8c1.8-0.9,3.7-1.3,5.8-1.3c1.8,0,3.4,0.3,4.9,0.8
		c1.5,0.5,2.7,1.3,3.7,2.4c1,1,1.8,2.3,2.4,3.7c0.6,1.5,0.8,3.1,0.8,4.8v21.3h-8.6v-18.1c0-1.3-0.1-2.5-0.3-3.6
		c-0.2-1.1-0.5-2-0.9-2.7c-0.4-0.7-1-1.2-1.8-1.6c-0.8-0.4-1.7-0.6-2.9-0.6c-0.8,0-1.7,0.2-2.4,0.5c-0.8,0.3-1.5,0.8-2.2,1.5
		c-0.7,0.7-1.2,1.7-1.6,2.8c-0.4,1.2-0.6,2.6-0.6,4.2v17.5h-8.6v-32.4H874.6z"/>
	<path class="st1" d="M173.9,327.4L173.9,327.4c7.1-9.3,20.5-10.2,28.7-2c5.6,5.6,12,12.7,18.3,21c6.2-8.2,12.7-15.3,18.2-20.9
		c8.2-8.3,21.6-7.3,28.7,1.9c-0.3,0.2-18.3,14.4-33.4,35.6c17.7-6.4,35.7-9,49.1-10c11.5-0.9,21.1,8.7,20.5,20.3l0,0.1
		c-0.4-0.1-29.5-1.3-58.2,7.8c17.7,5.7,33.3,14.5,44.5,21.9c9.7,6.3,11.6,19.8,4.2,28.7l0,0c-0.3-0.2-24.4-20.6-54.3-30.5
		c13.2,13.3,23.2,28.5,29.9,40.2c5.7,10.1,1.4,23-9.2,27.5l-0.1,0c-0.1-0.3-10.5-25-29.4-46.6v152.2c-7.1-3.4-14.1-6.4-20.7-8.8
		V421.5c-19.4,21.7-30,47.1-30.2,47.5l0,0c-10.6-4.5-15-17.4-9.2-27.5c6.7-11.7,16.7-26.8,29.9-40.1c-29.9,9.9-54.1,30.3-54.4,30.5
		l0,0c-7.4-8.9-5.5-22.4,4.2-28.7c11.2-7.3,26.8-16.1,44.5-21.9c-28.7-9.2-57.8-7.8-58.2-7.8v-0.1c-0.6-11.6,9.1-21.2,20.5-20.3
		c13.6,1,32,3.7,50.1,10.4C192.5,342,174.2,327.6,173.9,327.4"/>
</g>
</svg>
