<?xml version="1.0" encoding="UTF-8"?>
<svg xmlns="http://www.w3.org/2000/svg" xmlns:xlink="http://www.w3.org/1999/xlink" width="150px" height="150px" viewBox="0 0 150 150" version="1.1">
<defs>
<linearGradient id="linear0" gradientUnits="userSpaceOnUse" x1="408.2668" y1="89.424" x2="70.5312" y2="698.7151" gradientTransform="matrix(0.15,0,0,0.15,0,0)">
<stop offset="0.2789" style="stop-color:rgb(0%,65.098039%,61.176471%);stop-opacity:1;"/>
<stop offset="0.3972" style="stop-color:rgb(0.784314%,58.823529%,60.784314%);stop-opacity:1;"/>
<stop offset="0.8014" style="stop-color:rgb(3.921569%,38.823529%,60.392157%);stop-opacity:1;"/>
<stop offset="1" style="stop-color:rgb(5.098039%,30.980392%,60%);stop-opacity:1;"/>
</linearGradient>
</defs>
<g id="surface1">
<path style=" stroke:none;fill-rule:nonzero;fill:rgb(1.568627%,29.019608%,45.882353%);fill-opacity:1;" d="M 29.773438 90.886719 C 28.335938 91.710938 26.953125 92.535156 25.648438 93.316406 C 21.914062 95.566406 18.570312 97.574219 15.644531 98.429688 C 15.316406 98.519531 14.984375 98.265625 14.984375 97.90625 L 14.984375 86.671875 C 20.429688 87.015625 25.304688 88.710938 29.773438 90.886719 "/>
<path style=" stroke:none;fill-rule:nonzero;fill:url(#linear0);" d="M 14.96875 30.871094 L 14.96875 83.550781 C 21.824219 83.953125 27.824219 86.324219 33.074219 89.070312 C 35.746094 90.464844 38.203125 91.949219 40.5 93.328125 C 44.234375 95.566406 47.59375 97.589844 50.503906 98.445312 C 50.835938 98.550781 51.179688 98.28125 51.179688 97.921875 L 51.179688 86.683594 C 47.386719 86.925781 43.875 87.824219 40.589844 89.070312 L 37.125 87.121094 C 37.15625 87.105469 37.171875 87.105469 37.214844 87.089844 C 37.679688 86.878906 38.144531 86.699219 38.625 86.503906 C 38.714844 86.460938 38.789062 86.429688 38.878906 86.398438 C 39.328125 86.234375 39.78125 86.054688 40.230469 85.890625 C 40.363281 85.84375 40.484375 85.800781 40.621094 85.753906 C 40.964844 85.636719 41.324219 85.515625 41.699219 85.394531 C 41.984375 85.304688 42.269531 85.214844 42.554688 85.125 C 43.605469 84.796875 44.683594 84.523438 45.78125 84.300781 C 46.261719 84.179688 46.753906 84.089844 47.265625 84.015625 C 48.539062 83.789062 49.859375 83.640625 51.195312 83.550781 L 51.195312 49.949219 C 51.195312 45.375 48.421875 41.265625 44.203125 39.628906 L 17.488281 29.160156 C 17.265625 29.070312 17.039062 29.023438 16.828125 29.023438 C 15.839844 29.011719 14.96875 29.804688 14.96875 30.871094 "/>
<path style=" stroke:none;fill-rule:nonzero;fill:rgb(1.568627%,29.019608%,45.882353%);fill-opacity:1;" d="M 71.054688 95.96875 L 73.335938 95.308594 L 73.335938 98.609375 L 68.730469 98.609375 C 68.011719 98.609375 67.335938 98.519531 66.691406 98.339844 C 66.046875 98.160156 65.476562 97.890625 64.964844 97.5 C 64.453125 97.125 64.050781 96.601562 63.765625 95.96875 C 63.480469 95.324219 63.328125 94.574219 63.328125 93.71875 C 63.328125 93.195312 63.421875 92.566406 63.601562 91.828125 C 63.78125 91.09375 64.050781 90.390625 64.410156 89.683594 L 66.824219 90.570312 C 66.691406 90.914062 66.585938 91.214844 66.496094 91.46875 C 66.40625 91.738281 66.34375 91.996094 66.285156 92.21875 C 66.226562 92.460938 66.195312 92.683594 66.164062 92.910156 C 66.136719 93.136719 66.121094 93.375 66.121094 93.613281 C 66.121094 94.140625 66.210938 94.574219 66.375 94.921875 C 66.539062 95.265625 66.75 95.535156 67.003906 95.730469 C 67.261719 95.941406 67.558594 96.074219 67.890625 96.148438 C 68.21875 96.226562 68.550781 96.269531 68.878906 96.269531 L 70.710938 96.269531 L 70.710938 87.976562 L 73.441406 87.976562 L 73.441406 93.988281 L 71.488281 93.660156 L 80.414062 93.660156 C 80.878906 93.660156 81.210938 93.539062 81.421875 93.316406 C 81.628906 93.089844 81.734375 92.578125 81.734375 91.800781 L 81.734375 86.566406 L 84.433594 86.566406 L 84.433594 92.445312 C 84.433594 93.554688 84.148438 94.410156 83.566406 95.011719 C 82.996094 95.609375 82.183594 95.910156 81.148438 95.910156 L 71.054688 95.910156 Z M 76.199219 94.453125 L 76.199219 88.019531 L 78.898438 88.019531 L 78.898438 94.695312 "/>
<path style=" stroke:none;fill-rule:nonzero;fill:rgb(1.568627%,29.019608%,45.882353%);fill-opacity:1;" d="M 99.074219 93.703125 C 99.253906 93.703125 100.515625 93.796875 100.605469 93.988281 C 100.710938 94.171875 100.753906 94.484375 100.753906 94.921875 C 100.753906 95.265625 100.726562 95.535156 100.679688 95.699219 C 100.636719 95.878906 99.449219 95.96875 99.328125 95.96875 L 98.476562 95.96875 C 98.144531 95.96875 97.921875 95.894531 97.800781 95.730469 C 97.679688 95.566406 97.621094 95.265625 97.621094 94.84375 C 97.621094 94.5 97.664062 94.214844 97.769531 94.019531 C 97.875 93.824219 97.546875 93.71875 97.738281 93.71875 L 99.074219 93.71875 Z M 99.074219 93.703125 "/>
<path style=" stroke:none;fill-rule:nonzero;fill:rgb(1.568627%,29.019608%,45.882353%);fill-opacity:1;" d="M 108.914062 93.703125 C 109.09375 93.703125 109.246094 93.796875 109.351562 93.988281 C 109.453125 94.171875 109.5 94.484375 109.5 94.921875 C 109.5 95.265625 109.46875 95.535156 109.425781 95.699219 C 109.378906 95.878906 109.289062 95.96875 109.171875 95.96875 L 99.328125 95.96875 C 99 95.96875 98.835938 95.894531 98.730469 95.730469 C 98.609375 95.566406 98.550781 95.265625 98.550781 94.84375 C 98.550781 94.5 98.59375 94.214844 98.699219 94.019531 C 98.804688 93.824219 98.878906 93.71875 99.074219 93.71875 L 108.914062 93.71875 Z M 108.914062 93.703125 "/>
<path style=" stroke:none;fill-rule:nonzero;fill:rgb(1.568627%,29.019608%,45.882353%);fill-opacity:1;" d="M 111.808594 83.566406 C 111.808594 83.144531 111.945312 82.800781 112.214844 82.53125 C 112.484375 82.261719 112.828125 82.125 113.234375 82.125 C 113.640625 82.125 113.984375 82.261719 114.238281 82.53125 C 114.496094 82.800781 114.628906 83.144531 114.628906 83.566406 C 114.628906 84 114.496094 84.34375 114.238281 84.613281 C 113.984375 84.886719 113.640625 85.019531 113.234375 85.019531 C 112.816406 85.019531 112.46875 84.886719 112.199219 84.613281 C 111.945312 84.316406 111.808594 83.96875 111.808594 83.566406 "/>
<path style=" stroke:none;fill-rule:nonzero;fill:rgb(1.568627%,29.019608%,45.882353%);fill-opacity:1;" d="M 122.414062 100.378906 C 122.234375 100.035156 122.128906 99.703125 122.128906 99.390625 C 122.128906 98.761719 122.324219 98.25 122.714844 97.875 C 123.105469 97.5 123.644531 97.304688 124.335938 97.304688 C 124.5 97.304688 124.695312 97.320312 124.890625 97.351562 C 125.085938 97.378906 125.296875 97.425781 125.519531 97.484375 L 125.265625 98.59375 C 124.996094 98.503906 124.695312 98.460938 124.363281 98.460938 C 124.003906 98.460938 123.734375 98.550781 123.554688 98.714844 C 123.375 98.878906 123.285156 99.121094 123.285156 99.40625 C 123.285156 99.71875 123.390625 99.960938 123.585938 100.125 C 123.78125 100.289062 124.078125 100.378906 124.484375 100.378906 L 125.699219 100.378906 L 125.699219 101.535156 L 121.621094 101.535156 L 121.621094 100.378906 Z M 122.414062 100.378906 "/>
<path style=" stroke:none;fill-rule:nonzero;fill:rgb(1.568627%,29.019608%,45.882353%);fill-opacity:1;" d="M 132.300781 82.125 L 135.03125 82.125 L 135.03125 95.96875 L 132.300781 95.96875 Z M 132.300781 82.125 "/>
<path style=" stroke:none;fill-rule:nonzero;fill:rgb(1.568627%,29.019608%,45.882353%);fill-opacity:1;" d="M 78.238281 71.746094 C 78.421875 71.746094 78.570312 71.835938 78.660156 72.03125 C 78.765625 72.226562 78.808594 72.523438 78.808594 72.960938 C 78.808594 73.304688 78.78125 73.574219 78.734375 73.738281 C 78.691406 73.921875 78.601562 73.996094 78.480469 73.996094 L 77.65625 73.996094 C 77.324219 73.996094 77.101562 73.921875 76.980469 73.753906 C 76.859375 73.589844 76.800781 73.304688 76.800781 72.871094 C 76.800781 72.523438 76.84375 72.238281 76.949219 72.046875 C 77.054688 71.851562 77.203125 71.746094 77.398438 71.746094 Z M 78.238281 71.746094 "/>
<path style=" stroke:none;fill-rule:nonzero;fill:rgb(1.568627%,29.019608%,45.882353%);fill-opacity:1;" d="M 81.179688 71.746094 C 81.359375 71.746094 81.511719 71.835938 81.613281 72.03125 C 81.71875 72.226562 81.765625 72.523438 81.765625 72.960938 C 81.765625 73.304688 81.734375 73.574219 81.691406 73.738281 C 81.644531 73.921875 81.554688 73.996094 81.433594 73.996094 L 78.496094 73.996094 C 78.164062 73.996094 77.941406 73.921875 77.820312 73.753906 C 77.699219 73.589844 77.640625 73.304688 77.640625 72.871094 C 77.640625 72.523438 77.683594 72.238281 77.789062 72.046875 C 77.894531 71.851562 78.046875 71.746094 78.238281 71.746094 Z M 81.179688 71.746094 "/>
<path style=" stroke:none;fill-rule:nonzero;fill:rgb(1.568627%,29.019608%,45.882353%);fill-opacity:1;" d="M 84.121094 71.746094 C 84.300781 71.746094 84.449219 71.835938 84.554688 72.03125 C 84.660156 72.226562 84.703125 72.523438 84.703125 72.960938 C 84.703125 73.304688 84.675781 73.574219 84.628906 73.738281 C 84.585938 73.921875 84.496094 73.996094 84.375 73.996094 L 81.433594 73.996094 C 81.105469 73.996094 80.878906 73.921875 80.761719 73.753906 C 80.640625 73.589844 80.578125 73.304688 80.578125 72.871094 C 80.578125 72.523438 80.625 72.238281 80.730469 72.046875 C 80.835938 71.851562 80.984375 71.746094 81.179688 71.746094 Z M 84.121094 71.746094 "/>
<path style=" stroke:none;fill-rule:nonzero;fill:rgb(1.568627%,29.019608%,45.882353%);fill-opacity:1;" d="M 90.824219 71.746094 C 91.003906 71.746094 91.15625 71.835938 91.261719 72.03125 C 91.363281 72.226562 91.410156 72.523438 91.410156 72.960938 C 91.410156 73.304688 91.378906 73.574219 91.335938 73.738281 C 91.289062 73.921875 91.199219 73.996094 91.078125 73.996094 L 84.375 73.996094 C 84.046875 73.996094 83.820312 73.921875 83.699219 73.753906 C 83.578125 73.589844 83.519531 73.304688 83.519531 72.871094 C 83.519531 72.523438 83.566406 72.238281 83.671875 72.046875 C 83.773438 71.851562 83.925781 71.746094 84.121094 71.746094 Z M 90.824219 71.746094 "/>
<path style=" stroke:none;fill-rule:nonzero;fill:rgb(1.568627%,29.019608%,45.882353%);fill-opacity:1;" d="M 93.78125 71.746094 C 93.960938 71.746094 98.203125 71.835938 98.308594 72.03125 C 98.414062 72.226562 98.460938 72.523438 98.460938 72.960938 C 98.460938 73.304688 98.429688 73.574219 98.386719 73.738281 C 98.339844 73.921875 98.25 73.996094 98.128906 73.996094 L 91.078125 73.996094 C 90.75 73.996094 90.523438 73.921875 90.40625 73.753906 C 90.285156 73.589844 90.226562 73.304688 90.226562 72.871094 C 90.226562 72.523438 90.269531 72.238281 90.375 72.046875 C 90.480469 71.851562 90.628906 71.746094 90.824219 71.746094 Z M 93.78125 71.746094 "/>
<path style=" stroke:none;fill-rule:nonzero;fill:rgb(1.568627%,29.019608%,45.882353%);fill-opacity:1;" d="M 98.535156 71.746094 C 98.714844 71.746094 98.863281 71.835938 98.953125 72.03125 C 99.058594 72.226562 99.105469 72.523438 99.105469 72.960938 C 99.105469 73.304688 99.074219 73.574219 99.03125 73.738281 C 98.984375 73.921875 98.894531 73.996094 98.773438 73.996094 L 98.113281 73.996094 C 97.785156 73.996094 93.449219 73.921875 93.34375 73.753906 C 93.226562 73.589844 93.164062 73.304688 93.164062 72.871094 C 93.164062 72.523438 93.210938 72.238281 93.316406 72.046875 C 93.421875 71.851562 93.570312 71.746094 93.765625 71.746094 Z M 98.535156 71.746094 "/>
<path style=" stroke:none;fill-rule:nonzero;fill:rgb(1.568627%,29.019608%,45.882353%);fill-opacity:1;" d="M 100.335938 71.746094 C 100.515625 71.746094 100.664062 71.835938 100.769531 72.03125 C 100.875 72.226562 100.921875 72.523438 100.921875 72.960938 C 100.921875 73.304688 100.890625 73.574219 100.84375 73.738281 C 100.800781 73.921875 100.710938 73.996094 100.589844 73.996094 L 97.648438 73.996094 C 97.320312 73.996094 97.09375 73.921875 96.976562 73.753906 C 96.855469 73.589844 96.796875 73.304688 96.796875 72.871094 C 96.796875 72.523438 96.839844 72.238281 96.945312 72.046875 C 97.050781 71.851562 97.199219 71.746094 97.394531 71.746094 Z M 100.335938 71.746094 "/>
<path style=" stroke:none;fill-rule:nonzero;fill:rgb(1.568627%,29.019608%,45.882353%);fill-opacity:1;" d="M 103.273438 71.746094 C 103.453125 71.746094 103.605469 71.835938 103.710938 72.03125 C 103.816406 72.226562 103.859375 72.523438 103.859375 72.960938 C 103.859375 73.304688 103.828125 73.574219 103.785156 73.738281 C 103.738281 73.921875 103.648438 73.996094 103.53125 73.996094 L 100.589844 73.996094 C 100.261719 73.996094 100.035156 73.921875 99.914062 73.753906 C 99.796875 73.589844 99.734375 73.304688 99.734375 72.871094 C 99.734375 72.523438 99.78125 72.238281 99.886719 72.046875 C 99.988281 71.851562 100.140625 71.746094 100.335938 71.746094 Z M 103.273438 71.746094 "/>
<path style=" stroke:none;fill-rule:nonzero;fill:rgb(1.568627%,29.019608%,45.882353%);fill-opacity:1;" d="M 103.273438 71.746094 C 103.679688 71.746094 104.023438 71.714844 104.296875 71.640625 C 104.566406 71.566406 104.773438 71.460938 104.925781 71.296875 C 105.074219 71.144531 105.164062 70.949219 105.226562 70.726562 C 105.269531 70.5 105.300781 70.230469 105.300781 69.898438 L 105.300781 65.011719 L 108 65.011719 L 108 69.824219 C 108 70.394531 108.195312 70.875 108.601562 71.21875 C 108.988281 71.578125 109.546875 71.761719 110.234375 71.761719 C 110.429688 71.761719 110.578125 71.851562 110.671875 72.03125 C 110.761719 72.210938 110.804688 72.496094 110.804688 72.871094 C 110.804688 73.335938 110.789062 73.648438 110.761719 73.800781 C 110.730469 73.949219 110.671875 74.023438 110.578125 74.023438 C 110.324219 74.023438 110.039062 73.996094 109.738281 73.949219 C 109.425781 73.90625 109.125 73.828125 108.855469 73.726562 C 108.570312 73.621094 108.316406 73.484375 108.058594 73.320312 C 107.804688 73.15625 107.59375 72.945312 107.429688 72.703125 C 107.128906 73.15625 106.664062 73.46875 106.050781 73.695312 C 105.433594 73.90625 104.625 74.011719 103.621094 74.011719 C 103.304688 74.011719 103.050781 73.921875 102.871094 73.753906 C 102.691406 73.574219 102.585938 73.304688 102.585938 72.945312 C 102.585938 72.554688 102.644531 72.253906 102.765625 72.058594 C 102.898438 71.835938 103.066406 71.746094 103.273438 71.746094 M 105.316406 61.589844 C 105.316406 61.171875 105.449219 60.824219 105.71875 60.570312 C 105.988281 60.300781 106.335938 60.164062 106.738281 60.164062 C 107.144531 60.164062 107.488281 60.300781 107.746094 60.570312 C 108 60.839844 108.136719 61.183594 108.136719 61.589844 C 108.136719 62.023438 108 62.371094 107.746094 62.640625 C 107.488281 62.910156 107.144531 63.046875 106.738281 63.046875 C 106.320312 63.046875 105.976562 62.910156 105.703125 62.640625 C 105.449219 62.355469 105.316406 62.011719 105.316406 61.589844 "/>
<path style=" stroke:none;fill-rule:nonzero;fill:rgb(1.568627%,29.019608%,45.882353%);fill-opacity:1;" d="M 115.46875 71.746094 C 115.648438 71.746094 115.800781 71.835938 115.90625 72.03125 C 116.011719 72.226562 116.054688 72.523438 116.054688 72.960938 C 116.054688 73.304688 116.023438 73.574219 115.980469 73.738281 C 115.933594 73.921875 115.84375 73.996094 115.726562 73.996094 L 110.488281 73.996094 C 110.160156 73.996094 109.933594 73.921875 109.816406 73.753906 C 109.695312 73.589844 109.636719 73.304688 109.636719 72.871094 C 109.636719 72.523438 109.679688 72.238281 109.785156 72.046875 C 109.890625 71.851562 110.039062 71.746094 110.234375 71.746094 Z M 115.46875 71.746094 "/>
<path style=" stroke:none;fill-rule:nonzero;fill:rgb(1.568627%,29.019608%,45.882353%);fill-opacity:1;" d="M 124.738281 73.996094 L 115.828125 73.996094 C 115.53125 73.996094 115.289062 73.921875 115.09375 73.753906 C 114.898438 73.589844 114.796875 73.320312 114.796875 72.929688 C 114.796875 72.644531 114.839844 72.375 114.929688 72.121094 C 115.019531 71.863281 115.199219 71.746094 115.46875 71.746094 L 121.949219 71.746094 L 121.949219 69.179688 C 121.949219 68.371094 121.378906 66.539062 118.453125 66.539062 C 117.226562 66.539062 115.90625 66.988281 115.515625 67.125 L 114.945312 65.070312 C 114.945312 65.070312 116.789062 64.246094 119.085938 64.246094 C 121.378906 64.246094 124.738281 65.65625 124.738281 69.300781 Z M 124.738281 73.996094 "/>
<path style=" stroke:none;fill-rule:nonzero;fill:rgb(1.568627%,29.019608%,45.882353%);fill-opacity:1;" d="M 87.644531 82.125 L 90.34375 82.125 L 90.34375 91.289062 L 87.644531 91.289062 Z M 87.644531 82.125 "/>
<path style=" stroke:none;fill-rule:nonzero;fill:rgb(1.568627%,29.019608%,45.882353%);fill-opacity:1;" d="M 96 92.023438 C 96 94.90625 93.75 95.96875 91.515625 95.96875 L 86.96875 95.96875 L 86.460938 93.71875 L 90.628906 93.71875 C 93.480469 93.71875 93.285156 92.039062 93.285156 91.261719 L 93.285156 82.140625 L 95.984375 82.140625 L 95.984375 92.023438 Z M 96 92.023438 "/>
<path style=" stroke:none;fill-rule:nonzero;fill:rgb(1.568627%,29.019608%,45.882353%);fill-opacity:1;" d="M 121.46875 82.125 L 124.171875 82.125 L 124.171875 91.289062 L 121.46875 91.289062 Z M 121.46875 82.125 "/>
<path style=" stroke:none;fill-rule:nonzero;fill:rgb(1.568627%,29.019608%,45.882353%);fill-opacity:1;" d="M 129.824219 92.023438 C 129.824219 94.90625 127.574219 95.96875 125.339844 95.96875 L 120.796875 95.96875 L 120.285156 93.71875 L 124.453125 93.71875 C 127.304688 93.71875 127.109375 92.039062 127.109375 91.261719 L 127.109375 82.140625 L 129.808594 82.140625 L 129.808594 92.023438 Z M 129.824219 92.023438 "/>
<path style=" stroke:none;fill-rule:nonzero;fill:rgb(1.568627%,29.019608%,45.882353%);fill-opacity:1;" d="M 124.351562 72.570312 L 124.351562 69.839844 L 124.738281 69.839844 C 124.738281 71.070312 126.074219 71.746094 127.351562 71.746094 C 127.515625 71.746094 127.621094 71.820312 127.695312 71.96875 C 127.769531 72.121094 127.800781 72.421875 127.800781 72.871094 C 127.800781 73.125 127.800781 73.335938 127.785156 73.46875 C 127.769531 73.621094 127.769531 73.726562 127.769531 73.785156 C 127.769531 73.84375 127.753906 73.890625 127.738281 73.933594 C 127.726562 73.980469 127.710938 73.996094 127.695312 73.996094 C 127.484375 73.996094 127.246094 73.980469 127.003906 73.949219 C 126.75 73.921875 126.496094 73.84375 126.226562 73.753906 C 125.953125 73.664062 125.683594 73.53125 125.429688 73.351562 C 125.175781 73.171875 124.933594 72.945312 124.738281 72.660156 Z M 124.351562 72.570312 "/>
<path style=" stroke:none;fill-rule:nonzero;fill:rgb(1.568627%,29.019608%,45.882353%);fill-opacity:1;" d="M 130.289062 71.746094 C 130.46875 71.746094 130.621094 71.835938 130.726562 72.03125 C 130.828125 72.226562 130.875 72.523438 130.875 72.960938 C 130.875 73.304688 130.84375 73.574219 130.800781 73.738281 C 130.753906 73.921875 130.664062 73.996094 130.546875 73.996094 L 127.605469 73.996094 C 127.273438 73.996094 127.050781 73.921875 126.929688 73.753906 C 126.808594 73.589844 126.75 73.304688 126.75 72.871094 C 126.75 72.523438 126.796875 72.238281 126.898438 72.046875 C 127.003906 71.851562 127.15625 71.746094 127.351562 71.746094 Z M 130.289062 71.746094 "/>
<path style=" stroke:none;fill-rule:nonzero;fill:rgb(1.568627%,29.019608%,45.882353%);fill-opacity:1;" d="M 130.289062 71.746094 C 130.695312 71.746094 131.039062 71.714844 131.308594 71.640625 C 131.578125 71.566406 131.789062 71.445312 131.941406 71.296875 C 132.089844 71.144531 132.179688 70.949219 132.238281 70.726562 C 132.285156 70.5 132.316406 70.214844 132.316406 69.898438 L 132.316406 60.148438 L 135.015625 60.148438 L 135.015625 70.363281 C 135.015625 70.980469 134.941406 71.519531 134.789062 71.96875 C 134.640625 72.421875 134.398438 72.796875 134.070312 73.09375 C 133.726562 73.394531 133.289062 73.621094 132.71875 73.769531 C 132.164062 73.921875 131.460938 73.996094 130.636719 73.996094 C 130.304688 73.996094 130.050781 73.90625 129.871094 73.726562 C 129.691406 73.546875 129.601562 73.273438 129.601562 72.929688 C 129.601562 72.539062 129.660156 72.238281 129.78125 72.046875 C 129.914062 71.835938 130.078125 71.746094 130.289062 71.746094 "/>
<path style=" stroke:none;fill-rule:nonzero;fill:rgb(1.568627%,29.019608%,45.882353%);fill-opacity:1;" d="M 117.914062 77.011719 C 117.914062 76.589844 118.050781 76.246094 118.320312 75.988281 C 118.589844 75.71875 118.933594 75.585938 119.355469 75.585938 C 119.761719 75.585938 120.105469 75.71875 120.359375 75.988281 C 120.613281 76.261719 120.75 76.605469 120.75 77.011719 C 120.75 77.445312 120.613281 77.789062 120.359375 78.058594 C 120.105469 78.328125 119.761719 78.464844 119.355469 78.464844 C 118.933594 78.464844 118.589844 78.328125 118.320312 78.058594 C 118.050781 77.789062 117.914062 77.445312 117.914062 77.011719 "/>
<path style=" stroke:none;fill-rule:nonzero;fill:rgb(1.568627%,29.019608%,45.882353%);fill-opacity:1;" d="M 66.03125 61.589844 C 66.03125 61.171875 66.164062 60.824219 66.433594 60.570312 C 66.703125 60.300781 67.050781 60.164062 67.46875 60.164062 C 67.875 60.164062 68.21875 60.300781 68.476562 60.570312 C 68.730469 60.839844 68.863281 61.183594 68.863281 61.589844 C 68.863281 62.023438 68.730469 62.371094 68.476562 62.640625 C 68.21875 62.910156 67.875 63.046875 67.46875 63.046875 C 67.050781 63.046875 66.703125 62.910156 66.433594 62.640625 C 66.164062 62.371094 66.03125 62.023438 66.03125 61.589844 "/>
<path style=" stroke:none;fill-rule:nonzero;fill:rgb(1.568627%,29.019608%,45.882353%);fill-opacity:1;" d="M 69.554688 61.589844 C 69.554688 61.171875 69.691406 60.824219 69.960938 60.570312 C 70.230469 60.300781 70.574219 60.164062 70.996094 60.164062 C 71.398438 60.164062 71.746094 60.300781 72 60.570312 C 72.253906 60.839844 72.390625 61.183594 72.390625 61.589844 C 72.390625 62.023438 72.253906 62.371094 72 62.640625 C 71.746094 62.910156 71.398438 63.046875 70.996094 63.046875 C 70.574219 63.046875 70.230469 62.910156 69.960938 62.640625 C 69.691406 62.371094 69.554688 62.023438 69.554688 61.589844 "/>
<path style=" stroke:none;fill-rule:nonzero;fill:rgb(1.568627%,29.019608%,45.882353%);fill-opacity:1;" d="M 63.328125 69.300781 C 63.328125 65.65625 66.691406 64.246094 68.984375 64.246094 C 71.355469 64.246094 73.246094 65.175781 73.246094 65.175781 L 71.789062 67.574219 C 71.386719 67.441406 70.574219 66.523438 69.359375 66.523438 C 66.433594 66.523438 66.121094 68.355469 66.121094 69.164062 L 66.121094 71.730469 L 69.554688 71.730469 L 69.554688 73.980469 L 63.328125 73.980469 Z M 63.328125 69.300781 "/>
<path style=" stroke:none;fill-rule:nonzero;fill:rgb(1.568627%,29.019608%,45.882353%);fill-opacity:1;" d="M 74.371094 71.746094 L 80.96875 71.746094 L 80.96875 73.996094 L 73.621094 73.996094 C 71.925781 73.996094 70.546875 72.601562 70.546875 70.890625 L 70.546875 65.160156 L 73.246094 65.160156 L 73.246094 70.605469 C 73.246094 71.234375 73.738281 71.746094 74.371094 71.746094 "/>
<path style=" stroke:none;fill-rule:nonzero;fill:rgb(1.568627%,29.019608%,45.882353%);fill-opacity:1;" d="M 107.894531 91.679688 C 107.894531 88.035156 111.253906 86.625 113.550781 86.625 C 115.921875 86.625 117.808594 87.554688 117.808594 87.554688 L 116.355469 89.953125 C 115.949219 89.820312 115.140625 88.90625 113.925781 88.90625 C 111 88.90625 110.683594 90.734375 110.683594 91.546875 L 110.683594 93.691406 L 117.03125 93.691406 C 117.300781 93.691406 117.480469 93.824219 117.570312 94.078125 C 117.660156 94.335938 117.703125 94.605469 117.703125 94.890625 C 117.703125 95.28125 117.601562 95.550781 117.40625 95.714844 C 117.210938 95.878906 116.953125 95.953125 116.671875 95.953125 L 107.894531 95.953125 Z M 107.894531 91.679688 "/>
<path style=" stroke:none;fill-rule:nonzero;fill:rgb(1.568627%,29.019608%,45.882353%);fill-opacity:1;" d="M 115.09375 87.554688 L 117.796875 87.554688 L 117.796875 95.96875 L 115.09375 95.96875 Z M 115.09375 87.554688 "/>
<path style=" stroke:none;fill-rule:nonzero;fill:rgb(1.568627%,29.019608%,45.882353%);fill-opacity:1;" d="M 96 91.90625 C 96 93.71875 97.394531 93.71875 98.234375 93.71875 C 98.429688 93.71875 98.578125 93.808594 98.671875 93.988281 C 98.761719 94.171875 98.804688 94.441406 98.804688 94.828125 C 98.804688 95.296875 98.835938 95.984375 98.835938 95.984375 L 98.160156 95.984375 C 95.070312 95.984375 94.648438 93.945312 94.621094 93.480469 Z M 96 91.90625 "/>
<path style=" stroke:none;fill-rule:nonzero;fill:rgb(1.568627%,29.019608%,45.882353%);fill-opacity:1;" d="M 14.984375 112.621094 L 17.683594 112.621094 C 17.96875 112.621094 18.238281 112.648438 18.480469 112.710938 C 18.71875 112.769531 18.929688 112.875 19.109375 113.011719 C 19.289062 113.144531 19.425781 113.308594 19.53125 113.519531 C 19.636719 113.730469 19.679688 113.984375 19.679688 114.269531 C 19.679688 114.691406 19.574219 115.019531 19.378906 115.246094 C 19.183594 115.484375 18.929688 115.648438 18.644531 115.753906 L 18.644531 115.769531 C 18.824219 115.816406 18.976562 115.890625 19.109375 115.964844 C 19.246094 116.039062 19.378906 116.144531 19.484375 116.265625 C 19.589844 116.386719 19.679688 116.535156 19.753906 116.714844 C 19.816406 116.894531 19.84375 117.105469 19.84375 117.34375 C 19.84375 117.585938 19.800781 117.824219 19.726562 118.050781 C 19.648438 118.273438 19.515625 118.46875 19.351562 118.636719 C 19.183594 118.800781 18.960938 118.933594 18.691406 119.039062 C 18.421875 119.144531 18.121094 119.191406 17.746094 119.191406 L 14.984375 119.191406 Z M 16.304688 115.304688 L 17.234375 115.304688 C 17.59375 115.304688 17.878906 115.246094 18.058594 115.109375 C 18.238281 114.976562 18.34375 114.765625 18.34375 114.480469 C 18.34375 114.328125 18.316406 114.195312 18.253906 114.089844 C 18.195312 113.984375 18.121094 113.910156 18.03125 113.851562 C 17.941406 113.789062 17.820312 113.761719 17.699219 113.730469 C 17.578125 113.714844 17.445312 113.699219 17.308594 113.699219 L 16.304688 113.699219 Z M 16.304688 118.109375 L 17.371094 118.109375 C 17.535156 118.109375 17.699219 118.09375 17.835938 118.078125 C 17.96875 118.050781 18.089844 118.003906 18.195312 117.945312 C 18.300781 117.886719 18.375 117.796875 18.433594 117.675781 C 18.496094 117.570312 18.511719 117.421875 18.511719 117.253906 C 18.511719 117.089844 18.480469 116.941406 18.40625 116.835938 C 18.34375 116.714844 18.253906 116.625 18.136719 116.566406 C 18.03125 116.503906 17.878906 116.460938 17.730469 116.429688 C 17.566406 116.398438 17.398438 116.386719 17.203125 116.386719 L 16.289062 116.386719 L 16.289062 118.109375 Z M 16.304688 118.109375 "/>
<path style=" stroke:none;fill-rule:nonzero;fill:rgb(1.568627%,29.019608%,45.882353%);fill-opacity:1;" d="M 24.375 116.023438 C 24.375 115.769531 24.285156 115.558594 24.105469 115.425781 C 23.925781 115.289062 23.671875 115.214844 23.308594 115.214844 C 23.128906 115.214844 22.949219 115.230469 22.738281 115.273438 C 22.53125 115.304688 22.304688 115.363281 22.078125 115.453125 L 21.839844 114.511719 C 22.050781 114.433594 22.304688 114.359375 22.589844 114.316406 C 22.890625 114.253906 23.160156 114.226562 23.398438 114.226562 C 24.195312 114.226562 24.765625 114.390625 25.125 114.703125 C 25.484375 115.035156 25.664062 115.484375 25.648438 116.070312 L 25.648438 118.078125 C 25.648438 118.261719 25.648438 118.453125 25.664062 118.648438 C 25.679688 118.859375 25.695312 119.023438 25.726562 119.175781 L 24.585938 119.175781 C 24.554688 119.101562 24.539062 118.996094 24.523438 118.875 C 24.511719 118.753906 24.496094 118.648438 24.496094 118.574219 L 24.480469 118.574219 C 24.359375 118.785156 24.179688 118.964844 23.941406 119.085938 C 23.699219 119.21875 23.414062 119.28125 23.101562 119.28125 C 22.890625 119.28125 22.679688 119.25 22.46875 119.203125 C 22.261719 119.144531 22.078125 119.070312 21.898438 118.949219 C 21.734375 118.828125 21.601562 118.679688 21.511719 118.484375 C 21.421875 118.304688 21.359375 118.066406 21.359375 117.78125 C 21.359375 117.433594 21.433594 117.148438 21.601562 116.925781 C 21.75 116.699219 21.976562 116.535156 22.261719 116.414062 C 22.546875 116.296875 22.859375 116.21875 23.234375 116.175781 C 23.609375 116.128906 24 116.113281 24.390625 116.113281 L 24.390625 116.023438 Z M 24.195312 116.953125 C 23.984375 116.953125 23.773438 116.96875 23.578125 116.984375 C 23.386719 117 23.21875 117.046875 23.070312 117.105469 C 22.921875 117.164062 22.800781 117.238281 22.726562 117.34375 C 22.648438 117.449219 22.605469 117.585938 22.605469 117.734375 C 22.605469 117.945312 22.664062 118.109375 22.800781 118.214844 C 22.921875 118.335938 23.101562 118.394531 23.324219 118.394531 C 23.503906 118.394531 23.671875 118.363281 23.804688 118.304688 C 23.941406 118.246094 24.058594 118.15625 24.136719 118.050781 C 24.226562 117.945312 24.285156 117.824219 24.328125 117.691406 C 24.375 117.554688 24.390625 117.421875 24.390625 117.285156 L 24.390625 116.941406 L 24.195312 116.941406 Z M 24.195312 116.953125 "/>
<path style=" stroke:none;fill-rule:nonzero;fill:rgb(1.568627%,29.019608%,45.882353%);fill-opacity:1;" d="M 28.90625 114.34375 L 28.90625 114.988281 L 28.921875 114.988281 C 29.039062 114.75 29.234375 114.554688 29.503906 114.421875 C 29.773438 114.285156 30.058594 114.226562 30.375 114.226562 C 30.644531 114.226562 30.898438 114.269531 31.109375 114.34375 C 31.335938 114.421875 31.515625 114.539062 31.664062 114.703125 C 31.816406 114.855469 31.933594 115.050781 32.023438 115.261719 C 32.113281 115.484375 32.144531 115.726562 32.144531 115.980469 L 32.144531 119.175781 L 30.855469 119.175781 L 30.855469 116.460938 C 30.855469 116.265625 30.839844 116.085938 30.808594 115.921875 C 30.78125 115.753906 30.734375 115.621094 30.675781 115.515625 C 30.613281 115.410156 30.523438 115.335938 30.40625 115.273438 C 30.285156 115.214844 30.148438 115.183594 29.96875 115.183594 C 29.851562 115.183594 29.714844 115.214844 29.59375 115.261719 C 29.476562 115.304688 29.371094 115.378906 29.265625 115.484375 C 29.160156 115.589844 29.085938 115.738281 29.023438 115.90625 C 28.964844 116.085938 28.933594 116.296875 28.933594 116.535156 L 28.933594 119.160156 L 27.644531 119.160156 L 27.644531 114.300781 L 28.90625 114.300781 Z M 28.90625 114.34375 "/>
<path style=" stroke:none;fill-rule:nonzero;fill:rgb(1.568627%,29.019608%,45.882353%);fill-opacity:1;" d="M 38.550781 114.34375 L 36.78125 116.503906 L 38.65625 119.191406 L 37.09375 119.191406 L 35.414062 116.640625 L 35.398438 116.640625 L 35.398438 119.191406 L 34.109375 119.191406 L 34.109375 112.441406 L 35.398438 112.441406 L 35.398438 116.429688 L 35.414062 116.429688 L 37.003906 114.34375 Z M 38.550781 114.34375 "/>
<path style=" stroke:none;fill-rule:nonzero;fill:rgb(1.568627%,29.019608%,45.882353%);fill-opacity:1;" d="M 42.871094 115.246094 C 42.808594 115.230469 42.75 115.230469 42.691406 115.214844 C 42.628906 115.214844 42.570312 115.199219 42.496094 115.199219 C 42.34375 115.199219 42.195312 115.230469 42.046875 115.273438 C 41.910156 115.335938 41.773438 115.425781 41.671875 115.546875 C 41.566406 115.679688 41.476562 115.84375 41.414062 116.054688 C 41.355469 116.265625 41.324219 116.519531 41.324219 116.820312 L 41.324219 119.160156 L 40.050781 119.160156 L 40.050781 114.300781 L 41.308594 114.300781 L 41.308594 114.929688 L 41.324219 114.929688 C 41.550781 114.433594 41.96875 114.179688 42.585938 114.179688 C 42.644531 114.179688 42.703125 114.179688 42.765625 114.179688 C 42.824219 114.179688 42.886719 114.195312 42.945312 114.195312 Z M 42.871094 115.246094 "/>
<path style=" stroke:none;fill-rule:nonzero;fill:rgb(1.568627%,29.019608%,45.882353%);fill-opacity:1;" d="M 47.578125 119.191406 L 47.578125 118.53125 L 47.566406 118.53125 C 47.445312 118.769531 47.25 118.964844 46.980469 119.101562 C 46.710938 119.234375 46.425781 119.296875 46.125 119.296875 C 45.855469 119.296875 45.601562 119.25 45.390625 119.160156 C 45.164062 119.070312 44.984375 118.949219 44.835938 118.800781 C 44.683594 118.648438 44.566406 118.453125 44.476562 118.246094 C 44.386719 118.035156 44.355469 117.78125 44.355469 117.511719 L 44.355469 114.316406 L 45.644531 114.316406 L 45.644531 117.03125 C 45.644531 117.226562 45.660156 117.40625 45.691406 117.554688 C 45.71875 117.703125 45.765625 117.839844 45.839844 117.960938 C 45.914062 118.078125 46.003906 118.15625 46.109375 118.214844 C 46.230469 118.273438 46.363281 118.304688 46.546875 118.304688 C 46.664062 118.304688 46.800781 118.273438 46.921875 118.230469 C 47.039062 118.183594 47.144531 118.109375 47.25 118.003906 C 47.339844 117.898438 47.429688 117.765625 47.488281 117.585938 C 47.550781 117.40625 47.578125 117.195312 47.578125 116.953125 L 47.578125 114.328125 L 48.871094 114.328125 L 48.871094 119.191406 Z M 47.578125 119.191406 "/>
<path style=" stroke:none;fill-rule:nonzero;fill:rgb(1.568627%,29.019608%,45.882353%);fill-opacity:1;" d="M 52.140625 120.988281 L 50.851562 120.988281 L 50.851562 114.34375 L 52.109375 114.34375 L 52.109375 114.976562 L 52.125 114.976562 C 52.304688 114.71875 52.53125 114.539062 52.800781 114.421875 C 53.054688 114.300781 53.324219 114.238281 53.609375 114.238281 C 53.941406 114.238281 54.226562 114.300781 54.480469 114.433594 C 54.734375 114.570312 54.945312 114.75 55.109375 114.976562 C 55.273438 115.199219 55.410156 115.46875 55.5 115.785156 C 55.589844 116.085938 55.636719 116.414062 55.636719 116.773438 C 55.636719 117.136719 55.589844 117.464844 55.5 117.765625 C 55.410156 118.078125 55.273438 118.351562 55.09375 118.574219 C 54.914062 118.800781 54.703125 118.980469 54.449219 119.113281 C 54.195312 119.25 53.910156 119.308594 53.578125 119.308594 C 53.308594 119.308594 53.054688 119.265625 52.800781 119.175781 C 52.546875 119.070312 52.335938 118.90625 52.15625 118.679688 L 52.140625 118.679688 Z M 54.328125 116.761719 C 54.328125 116.535156 54.316406 116.339844 54.269531 116.144531 C 54.226562 115.949219 54.164062 115.785156 54.074219 115.648438 C 53.984375 115.515625 53.878906 115.410156 53.746094 115.320312 C 53.609375 115.246094 53.445312 115.199219 53.265625 115.199219 C 53.085938 115.199219 52.921875 115.246094 52.769531 115.320312 C 52.621094 115.394531 52.5 115.5 52.394531 115.636719 C 52.289062 115.769531 52.214844 115.933594 52.15625 116.128906 C 52.09375 116.324219 52.066406 116.535156 52.066406 116.761719 C 52.066406 116.984375 52.09375 117.195312 52.15625 117.390625 C 52.214844 117.585938 52.289062 117.75 52.378906 117.886719 C 52.484375 118.019531 52.605469 118.125 52.753906 118.214844 C 52.90625 118.289062 53.070312 118.335938 53.265625 118.335938 C 53.460938 118.335938 53.609375 118.289062 53.746094 118.214844 C 53.878906 118.140625 54 118.019531 54.074219 117.886719 C 54.164062 117.75 54.226562 117.570312 54.269531 117.390625 C 54.316406 117.195312 54.328125 116.984375 54.328125 116.761719 "/>
<path style=" stroke:none;fill-rule:nonzero;fill:rgb(1.568627%,29.019608%,45.882353%);fill-opacity:1;" d="M 56.773438 114.34375 L 57.511719 114.34375 L 57.511719 113.054688 L 58.800781 113.054688 L 58.800781 114.34375 L 59.804688 114.34375 L 59.804688 115.335938 L 58.800781 115.335938 L 58.800781 117.511719 C 58.800781 117.675781 58.816406 117.808594 58.828125 117.914062 C 58.84375 118.019531 58.875 118.09375 58.921875 118.140625 C 58.964844 118.183594 59.011719 118.214844 59.085938 118.246094 C 59.160156 118.261719 59.25 118.273438 59.355469 118.273438 C 59.429688 118.273438 59.503906 118.273438 59.566406 118.261719 C 59.625 118.261719 59.699219 118.246094 59.773438 118.230469 L 59.773438 119.203125 C 59.65625 119.21875 59.519531 119.234375 59.371094 119.234375 C 59.21875 119.25 59.085938 119.25 58.933594 119.25 C 58.636719 119.25 58.394531 119.21875 58.199219 119.160156 C 58.019531 119.101562 57.871094 119.011719 57.765625 118.890625 C 57.660156 118.769531 57.585938 118.636719 57.554688 118.453125 C 57.523438 118.273438 57.496094 118.078125 57.496094 117.839844 L 57.496094 115.335938 L 56.761719 115.335938 L 56.761719 114.34375 Z M 56.773438 114.34375 "/>
<path style=" stroke:none;fill-rule:nonzero;fill:rgb(1.568627%,29.019608%,45.882353%);fill-opacity:1;" d="M 64.515625 115.363281 C 64.394531 115.320312 64.261719 115.273438 64.125 115.261719 C 63.988281 115.246094 63.855469 115.214844 63.734375 115.214844 C 63.511719 115.214844 63.300781 115.261719 63.121094 115.335938 C 62.941406 115.410156 62.804688 115.53125 62.683594 115.664062 C 62.578125 115.800781 62.488281 115.964844 62.429688 116.160156 C 62.371094 116.355469 62.339844 116.550781 62.339844 116.773438 C 62.339844 117 62.371094 117.195312 62.429688 117.375 C 62.488281 117.570312 62.578125 117.71875 62.683594 117.871094 C 62.804688 118.003906 62.953125 118.125 63.121094 118.199219 C 63.300781 118.273438 63.511719 118.320312 63.75 118.320312 C 63.871094 118.320312 64.003906 118.304688 64.140625 118.289062 C 64.273438 118.273438 64.410156 118.230469 64.53125 118.183594 L 64.726562 119.144531 C 64.546875 119.203125 64.363281 119.25 64.183594 119.28125 C 64.003906 119.308594 63.824219 119.308594 63.628906 119.308594 C 63.195312 119.308594 62.820312 119.25 62.503906 119.113281 C 62.175781 118.980469 61.90625 118.816406 61.695312 118.589844 C 61.484375 118.363281 61.320312 118.09375 61.199219 117.796875 C 61.09375 117.480469 61.035156 117.148438 61.035156 116.789062 C 61.035156 116.429688 61.09375 116.085938 61.214844 115.769531 C 61.335938 115.453125 61.5 115.183594 61.726562 114.960938 C 61.933594 114.734375 62.21875 114.554688 62.535156 114.433594 C 62.863281 114.300781 63.226562 114.238281 63.628906 114.238281 C 64.050781 114.238281 64.410156 114.285156 64.710938 114.390625 Z M 64.515625 115.363281 "/>
<path style=" stroke:none;fill-rule:nonzero;fill:rgb(1.568627%,29.019608%,45.882353%);fill-opacity:1;" d="M 68.324219 117.601562 L 68.339844 117.601562 L 69.496094 114.34375 L 70.84375 114.34375 L 68.25 120.988281 L 66.871094 120.988281 L 67.648438 119.085938 L 65.761719 114.34375 L 67.15625 114.34375 Z M 68.324219 117.601562 "/>
<path style=" stroke:none;fill-rule:nonzero;fill:rgb(1.568627%,29.019608%,45.882353%);fill-opacity:1;" d="M 79.726562 113.820312 C 79.546875 113.761719 79.363281 113.699219 79.15625 113.65625 C 78.960938 113.609375 78.75 113.59375 78.554688 113.59375 C 78.210938 113.59375 77.910156 113.65625 77.640625 113.789062 C 77.371094 113.910156 77.160156 114.089844 76.996094 114.300781 C 76.828125 114.511719 76.695312 114.765625 76.605469 115.050781 C 76.515625 115.335938 76.46875 115.636719 76.46875 115.949219 C 76.46875 116.25 76.515625 116.535156 76.605469 116.820312 C 76.695312 117.089844 76.816406 117.34375 76.996094 117.554688 C 77.175781 117.765625 77.386719 117.929688 77.640625 118.066406 C 77.894531 118.183594 78.195312 118.261719 78.539062 118.261719 C 78.78125 118.261719 79.003906 118.246094 79.199219 118.199219 C 79.394531 118.15625 79.589844 118.09375 79.769531 118.019531 L 79.996094 119.054688 C 79.769531 119.160156 79.515625 119.21875 79.230469 119.265625 C 78.960938 119.308594 78.675781 119.339844 78.375 119.339844 C 77.878906 119.339844 77.445312 119.265625 77.039062 119.085938 C 76.636719 118.921875 76.304688 118.695312 76.019531 118.394531 C 75.734375 118.09375 75.511719 117.734375 75.359375 117.328125 C 75.210938 116.925781 75.136719 116.460938 75.136719 115.964844 C 75.136719 115.46875 75.210938 115.003906 75.359375 114.601562 C 75.511719 114.179688 75.71875 113.820312 76.003906 113.519531 C 76.289062 113.21875 76.636719 112.980469 77.039062 112.816406 C 77.445312 112.648438 77.910156 112.558594 78.421875 112.558594 C 78.703125 112.558594 78.988281 112.574219 79.246094 112.621094 C 79.5 112.664062 79.738281 112.726562 79.949219 112.816406 Z M 79.726562 113.820312 "/>
<path style=" stroke:none;fill-rule:nonzero;fill:rgb(1.568627%,29.019608%,45.882353%);fill-opacity:1;" d="M 86.191406 116.761719 C 86.191406 117.148438 86.128906 117.511719 86.011719 117.824219 C 85.890625 118.140625 85.726562 118.410156 85.515625 118.621094 C 85.304688 118.828125 85.050781 119.011719 84.75 119.113281 C 84.449219 119.234375 84.121094 119.296875 83.746094 119.296875 C 83.371094 119.296875 83.023438 119.234375 82.726562 119.113281 C 82.425781 118.996094 82.171875 118.828125 81.960938 118.605469 C 81.75 118.378906 81.585938 118.109375 81.464844 117.808594 C 81.34375 117.496094 81.285156 117.136719 81.285156 116.746094 C 81.285156 116.355469 81.34375 115.996094 81.464844 115.679688 C 81.585938 115.363281 81.75 115.09375 81.960938 114.886719 C 82.171875 114.675781 82.425781 114.511719 82.726562 114.390625 C 83.023438 114.269531 83.371094 114.210938 83.746094 114.210938 C 84.121094 114.210938 84.464844 114.269531 84.765625 114.390625 C 85.066406 114.511719 85.320312 114.675781 85.53125 114.886719 C 85.738281 115.09375 85.90625 115.363281 86.023438 115.679688 C 86.128906 116.011719 86.191406 116.371094 86.191406 116.761719 M 84.898438 116.761719 C 84.898438 116.535156 84.871094 116.324219 84.824219 116.128906 C 84.78125 115.933594 84.703125 115.769531 84.613281 115.648438 C 84.523438 115.515625 84.40625 115.410156 84.253906 115.335938 C 84.105469 115.261719 83.941406 115.214844 83.746094 115.214844 C 83.371094 115.214844 83.085938 115.351562 82.890625 115.636719 C 82.695312 115.90625 82.589844 116.28125 82.589844 116.761719 C 82.589844 117.238281 82.679688 117.628906 82.875 117.898438 C 83.070312 118.171875 83.355469 118.320312 83.730469 118.320312 C 84.121094 118.320312 84.40625 118.171875 84.601562 117.898438 C 84.808594 117.613281 84.898438 117.238281 84.898438 116.761719 "/>
<path style=" stroke:none;fill-rule:nonzero;fill:rgb(1.568627%,29.019608%,45.882353%);fill-opacity:1;" d="M 89.234375 114.34375 L 89.234375 115.003906 L 89.25 115.003906 C 89.371094 114.765625 89.550781 114.570312 89.804688 114.433594 C 90.058594 114.300781 90.328125 114.238281 90.628906 114.238281 C 90.976562 114.238281 91.261719 114.300781 91.5 114.433594 C 91.738281 114.570312 91.921875 114.765625 92.023438 115.035156 L 92.039062 115.035156 C 92.203125 114.765625 92.414062 114.554688 92.683594 114.433594 C 92.953125 114.316406 93.226562 114.238281 93.539062 114.238281 C 93.871094 114.238281 94.140625 114.285156 94.351562 114.375 C 94.558594 114.449219 94.738281 114.570312 94.890625 114.71875 C 95.039062 114.871094 95.144531 115.050781 95.21875 115.273438 C 95.296875 115.5 95.324219 115.738281 95.324219 116.011719 L 95.324219 119.203125 L 94.035156 119.203125 L 94.035156 116.488281 C 94.035156 116.296875 94.019531 116.113281 94.003906 115.964844 C 93.988281 115.816406 93.945312 115.679688 93.886719 115.558594 C 93.824219 115.453125 93.75 115.363281 93.628906 115.304688 C 93.523438 115.246094 93.375 115.214844 93.210938 115.214844 C 93.105469 115.214844 92.984375 115.230469 92.878906 115.273438 C 92.761719 115.320312 92.671875 115.363281 92.578125 115.453125 C 92.488281 115.53125 92.429688 115.636719 92.371094 115.769531 C 92.308594 115.90625 92.28125 116.070312 92.28125 116.25 L 92.28125 119.191406 L 90.988281 119.191406 L 90.988281 116.460938 C 90.988281 116.265625 90.976562 116.085938 90.960938 115.933594 C 90.945312 115.785156 90.898438 115.648438 90.855469 115.546875 C 90.796875 115.441406 90.71875 115.351562 90.601562 115.289062 C 90.496094 115.230469 90.34375 115.199219 90.179688 115.199219 C 90.058594 115.199219 89.941406 115.230469 89.820312 115.273438 C 89.699219 115.320312 89.609375 115.410156 89.519531 115.515625 C 89.429688 115.621094 89.371094 115.753906 89.308594 115.921875 C 89.265625 116.085938 89.234375 116.296875 89.234375 116.535156 L 89.234375 119.191406 L 87.945312 119.191406 L 87.945312 114.328125 L 89.234375 114.328125 Z M 89.234375 114.34375 "/>
<path style=" stroke:none;fill-rule:nonzero;fill:rgb(1.568627%,29.019608%,45.882353%);fill-opacity:1;" d="M 98.550781 114.34375 L 98.550781 115.003906 L 98.566406 115.003906 C 98.683594 114.765625 98.863281 114.570312 99.121094 114.433594 C 99.375 114.300781 99.644531 114.238281 99.945312 114.238281 C 100.289062 114.238281 100.574219 114.300781 100.816406 114.433594 C 101.054688 114.570312 101.234375 114.765625 101.339844 115.035156 L 101.355469 115.035156 C 101.519531 114.765625 101.730469 114.554688 102 114.433594 C 102.269531 114.316406 102.554688 114.238281 102.855469 114.238281 C 103.183594 114.238281 103.453125 114.285156 103.664062 114.375 C 103.875 114.449219 104.054688 114.570312 104.203125 114.71875 C 104.355469 114.871094 104.460938 115.050781 104.535156 115.273438 C 104.609375 115.5 104.640625 115.738281 104.640625 116.011719 L 104.640625 119.203125 L 103.351562 119.203125 L 103.351562 116.488281 C 103.351562 116.296875 103.335938 116.113281 103.320312 115.964844 C 103.304688 115.816406 103.261719 115.679688 103.199219 115.558594 C 103.140625 115.453125 103.066406 115.363281 102.945312 115.304688 C 102.839844 115.246094 102.691406 115.214844 102.523438 115.214844 C 102.421875 115.214844 102.300781 115.230469 102.195312 115.273438 C 102.074219 115.320312 101.984375 115.363281 101.894531 115.453125 C 101.804688 115.53125 101.746094 115.636719 101.683594 115.769531 C 101.625 115.90625 101.59375 116.070312 101.59375 116.25 L 101.59375 119.191406 L 100.351562 119.191406 L 100.351562 116.460938 C 100.351562 116.265625 100.335938 116.085938 100.320312 115.933594 C 100.304688 115.785156 100.261719 115.648438 100.199219 115.546875 C 100.140625 115.441406 100.066406 115.351562 99.945312 115.289062 C 99.839844 115.230469 99.691406 115.199219 99.523438 115.199219 C 99.40625 115.199219 99.285156 115.230469 99.164062 115.273438 C 99.046875 115.320312 98.953125 115.410156 98.863281 115.515625 C 98.773438 115.621094 98.714844 115.753906 98.65625 115.921875 C 98.609375 116.085938 98.578125 116.296875 98.578125 116.535156 L 98.578125 119.191406 L 97.289062 119.191406 L 97.289062 114.328125 L 98.550781 114.328125 Z M 98.550781 114.34375 "/>
<path style=" stroke:none;fill-rule:nonzero;fill:rgb(1.568627%,29.019608%,45.882353%);fill-opacity:1;" d="M 107.910156 113.59375 L 106.621094 113.59375 L 106.621094 112.46875 L 107.910156 112.46875 Z M 107.910156 119.191406 L 106.621094 119.191406 L 106.621094 114.328125 L 107.910156 114.328125 Z M 107.910156 119.191406 "/>
<path style=" stroke:none;fill-rule:nonzero;fill:rgb(1.568627%,29.019608%,45.882353%);fill-opacity:1;" d="M 112.84375 115.46875 C 112.589844 115.363281 112.363281 115.304688 112.15625 115.273438 C 111.945312 115.230469 111.734375 115.214844 111.539062 115.214844 C 111.34375 115.214844 111.195312 115.246094 111.089844 115.304688 C 110.96875 115.363281 110.910156 115.46875 110.910156 115.621094 C 110.910156 115.753906 110.96875 115.875 111.089844 115.964844 C 111.210938 116.054688 111.449219 116.144531 111.796875 116.265625 C 112.050781 116.339844 112.273438 116.429688 112.46875 116.535156 C 112.664062 116.625 112.828125 116.746094 112.980469 116.863281 C 113.113281 116.984375 113.21875 117.136719 113.296875 117.300781 C 113.371094 117.464844 113.398438 117.644531 113.398438 117.855469 C 113.398438 118.125 113.339844 118.363281 113.21875 118.558594 C 113.101562 118.753906 112.949219 118.90625 112.753906 119.011719 C 112.558594 119.113281 112.351562 119.203125 112.109375 119.265625 C 111.871094 119.308594 111.628906 119.339844 111.390625 119.339844 C 111.089844 119.339844 110.789062 119.308594 110.460938 119.25 C 110.128906 119.191406 109.84375 119.101562 109.589844 118.996094 L 109.84375 118.003906 C 110.113281 118.125 110.386719 118.214844 110.671875 118.273438 C 110.953125 118.335938 111.195312 118.363281 111.390625 118.363281 C 111.644531 118.363281 111.824219 118.335938 111.960938 118.273438 C 112.09375 118.214844 112.15625 118.09375 112.15625 117.945312 C 112.15625 117.808594 112.078125 117.691406 111.929688 117.585938 C 111.78125 117.496094 111.523438 117.390625 111.148438 117.269531 C 110.640625 117.105469 110.265625 116.894531 110.023438 116.671875 C 109.785156 116.429688 109.679688 116.144531 109.679688 115.800781 C 109.679688 115.53125 109.738281 115.304688 109.84375 115.125 C 109.949219 114.929688 110.085938 114.78125 110.265625 114.660156 C 110.445312 114.539062 110.640625 114.449219 110.863281 114.390625 C 111.089844 114.328125 111.316406 114.300781 111.539062 114.300781 C 111.796875 114.300781 112.066406 114.328125 112.335938 114.375 C 112.621094 114.421875 112.875 114.496094 113.113281 114.585938 Z M 112.84375 115.46875 "/>
<path style=" stroke:none;fill-rule:nonzero;fill:rgb(1.568627%,29.019608%,45.882353%);fill-opacity:1;" d="M 117.929688 115.46875 C 117.675781 115.363281 117.449219 115.304688 117.238281 115.273438 C 117.03125 115.230469 116.820312 115.214844 116.625 115.214844 C 116.429688 115.214844 116.28125 115.246094 116.175781 115.304688 C 116.054688 115.363281 115.996094 115.46875 115.996094 115.621094 C 115.996094 115.753906 116.054688 115.875 116.175781 115.964844 C 116.296875 116.054688 116.535156 116.144531 116.878906 116.265625 C 117.136719 116.339844 117.359375 116.429688 117.554688 116.535156 C 117.75 116.625 117.914062 116.746094 118.066406 116.863281 C 118.199219 116.984375 118.304688 117.136719 118.378906 117.300781 C 118.453125 117.464844 118.484375 117.644531 118.484375 117.855469 C 118.484375 118.125 118.425781 118.363281 118.304688 118.558594 C 118.183594 118.753906 118.035156 118.90625 117.839844 119.011719 C 117.644531 119.113281 117.433594 119.203125 117.195312 119.265625 C 116.953125 119.308594 116.714844 119.339844 116.476562 119.339844 C 116.175781 119.339844 115.859375 119.308594 115.546875 119.25 C 115.214844 119.191406 114.929688 119.101562 114.675781 118.996094 L 114.929688 118.003906 C 115.199219 118.125 115.46875 118.214844 115.753906 118.273438 C 116.039062 118.335938 116.28125 118.363281 116.476562 118.363281 C 116.730469 118.363281 116.910156 118.335938 117.046875 118.273438 C 117.179688 118.214844 117.238281 118.09375 117.238281 117.945312 C 117.238281 117.808594 117.164062 117.691406 117.015625 117.585938 C 116.863281 117.496094 116.609375 117.390625 116.234375 117.269531 C 115.726562 117.105469 115.351562 116.894531 115.109375 116.671875 C 114.871094 116.429688 114.765625 116.144531 114.765625 115.800781 C 114.765625 115.53125 114.824219 115.304688 114.929688 115.125 C 115.035156 114.929688 115.171875 114.78125 115.351562 114.660156 C 115.53125 114.539062 115.726562 114.449219 115.949219 114.390625 C 116.175781 114.328125 116.398438 114.300781 116.625 114.300781 C 116.878906 114.300781 117.148438 114.328125 117.421875 114.375 C 117.703125 114.421875 117.960938 114.496094 118.199219 114.585938 Z M 117.929688 115.46875 "/>
<path style=" stroke:none;fill-rule:nonzero;fill:rgb(1.568627%,29.019608%,45.882353%);fill-opacity:1;" d="M 121.46875 113.59375 L 120.179688 113.59375 L 120.179688 112.46875 L 121.46875 112.46875 Z M 121.46875 119.191406 L 120.179688 119.191406 L 120.179688 114.328125 L 121.46875 114.328125 Z M 121.46875 119.191406 "/>
<path style=" stroke:none;fill-rule:nonzero;fill:rgb(1.568627%,29.019608%,45.882353%);fill-opacity:1;" d="M 128.144531 116.761719 C 128.144531 117.148438 128.085938 117.511719 127.964844 117.824219 C 127.84375 118.140625 127.679688 118.410156 127.46875 118.621094 C 127.261719 118.828125 127.003906 119.011719 126.703125 119.113281 C 126.40625 119.234375 126.074219 119.296875 125.699219 119.296875 C 125.324219 119.296875 124.980469 119.234375 124.679688 119.113281 C 124.378906 118.996094 124.125 118.828125 123.914062 118.605469 C 123.703125 118.378906 123.539062 118.109375 123.421875 117.808594 C 123.300781 117.496094 123.238281 117.136719 123.238281 116.746094 C 123.238281 116.355469 123.300781 115.996094 123.421875 115.679688 C 123.539062 115.363281 123.703125 115.09375 123.914062 114.886719 C 124.125 114.675781 124.378906 114.511719 124.679688 114.390625 C 124.980469 114.269531 125.308594 114.210938 125.699219 114.210938 C 126.074219 114.210938 126.421875 114.269531 126.71875 114.390625 C 127.019531 114.511719 127.273438 114.675781 127.484375 114.886719 C 127.695312 115.09375 127.859375 115.363281 127.980469 115.679688 C 128.085938 116.011719 128.144531 116.371094 128.144531 116.761719 M 126.855469 116.761719 C 126.855469 116.535156 126.824219 116.324219 126.78125 116.128906 C 126.734375 115.933594 126.660156 115.769531 126.570312 115.648438 C 126.480469 115.515625 126.359375 115.410156 126.210938 115.335938 C 126.058594 115.261719 125.894531 115.214844 125.699219 115.214844 C 125.324219 115.214844 125.039062 115.351562 124.84375 115.636719 C 124.648438 115.90625 124.546875 116.28125 124.546875 116.761719 C 124.546875 117.238281 124.636719 117.628906 124.828125 117.898438 C 125.023438 118.171875 125.308594 118.320312 125.683594 118.320312 C 126.074219 118.320312 126.359375 118.171875 126.554688 117.898438 C 126.765625 117.613281 126.855469 117.238281 126.855469 116.761719 "/>
<path style=" stroke:none;fill-rule:nonzero;fill:rgb(1.568627%,29.019608%,45.882353%);fill-opacity:1;" d="M 131.191406 114.34375 L 131.191406 114.988281 L 131.203125 114.988281 C 131.324219 114.75 131.519531 114.554688 131.789062 114.421875 C 132.058594 114.285156 132.34375 114.226562 132.660156 114.226562 C 132.929688 114.226562 133.171875 114.269531 133.394531 114.34375 C 133.621094 114.421875 133.800781 114.539062 133.949219 114.703125 C 134.101562 114.855469 134.21875 115.050781 134.308594 115.261719 C 134.398438 115.484375 134.429688 115.726562 134.429688 115.980469 L 134.429688 119.175781 L 133.140625 119.175781 L 133.140625 116.460938 C 133.140625 116.265625 133.125 116.085938 133.09375 115.921875 C 133.066406 115.753906 133.019531 115.621094 132.960938 115.515625 C 132.898438 115.410156 132.808594 115.335938 132.691406 115.273438 C 132.570312 115.214844 132.433594 115.183594 132.253906 115.183594 C 132.136719 115.183594 132 115.214844 131.894531 115.261719 C 131.773438 115.304688 131.671875 115.378906 131.566406 115.484375 C 131.460938 115.589844 131.386719 115.738281 131.324219 115.90625 C 131.265625 116.085938 131.234375 116.296875 131.234375 116.535156 L 131.234375 119.160156 L 129.945312 119.160156 L 129.945312 114.300781 L 131.191406 114.300781 Z M 131.191406 114.34375 "/>
<path style=" stroke:none;fill-rule:nonzero;fill:rgb(100%,100%,100%);fill-opacity:1;" d="M 26.085938 49.109375 C 27.148438 47.714844 29.160156 47.578125 30.390625 48.808594 C 31.230469 49.648438 32.191406 50.714844 33.136719 51.960938 C 34.066406 50.730469 35.039062 49.664062 35.863281 48.824219 C 37.09375 47.578125 39.105469 47.730469 40.171875 49.109375 C 40.125 49.140625 37.425781 51.269531 35.160156 54.449219 C 37.816406 53.488281 40.515625 53.101562 42.523438 52.949219 C 44.25 52.816406 45.691406 54.253906 45.601562 55.996094 L 45.601562 56.011719 C 45.539062 55.996094 41.175781 55.816406 36.871094 57.179688 C 39.523438 58.035156 41.863281 59.355469 43.546875 60.464844 C 45 61.410156 45.285156 63.433594 44.175781 64.769531 C 44.128906 64.738281 40.515625 61.679688 36.03125 60.195312 C 38.011719 62.191406 39.511719 64.46875 40.515625 66.226562 C 41.371094 67.738281 40.726562 69.675781 39.136719 70.351562 L 39.121094 70.351562 C 39.105469 70.304688 37.546875 66.601562 34.710938 63.359375 L 34.710938 86.191406 C 33.644531 85.679688 32.59375 85.230469 31.605469 84.871094 L 31.605469 63.226562 C 28.695312 66.480469 27.105469 70.289062 27.074219 70.351562 C 25.484375 69.675781 24.824219 67.738281 25.695312 66.226562 C 26.699219 64.46875 28.199219 62.203125 30.179688 60.210938 C 25.695312 61.695312 22.066406 64.753906 22.019531 64.785156 C 20.910156 63.449219 21.195312 61.425781 22.648438 60.480469 C 24.328125 59.386719 26.671875 58.066406 29.324219 57.195312 C 25.019531 55.816406 20.65625 56.023438 20.59375 56.023438 L 20.59375 56.011719 C 20.503906 54.269531 21.960938 52.828125 23.671875 52.964844 C 25.710938 53.113281 28.46875 53.519531 31.183594 54.523438 C 28.875 51.300781 26.128906 49.140625 26.085938 49.109375 "/>
</g>
</svg>
